<?xml version="1.0" encoding="utf-8"?>
<!-- Generator: Adobe Illustrator 27.3.1, SVG Export Plug-In . SVG Version: 6.00 Build 0)  -->
<svg version="1.1" id="Layer_1" xmlns="http://www.w3.org/2000/svg" xmlns:xlink="http://www.w3.org/1999/xlink" x="0px" y="0px"
	 viewBox="0 0 720 720" style="enable-background:new 0 0 720 720;" xml:space="preserve">
<style type="text/css">
	.st0{fill:#FFFFFF;}
</style>
<path class="st0" d="M70.3,526.8v-4.1h3.8c1.4,0,2.5-1.1,2.5-2.5v-49.4c0-1.1,0.9-2,2-2h55.2c1.1,0,2,0.9,2,2v49.4
	c0,1.4,1.1,2.5,2.5,2.5h3.8v4.1H70.3L70.3,526.8z M83.2,472.8c-1.4,0-2.5,1.1-2.5,2.5v44.9c0,1.4,1.1,2.5,2.5,2.5h46.1
	c1.4,0,2.5-1.1,2.5-2.5v-44.9c0-1.4-1.1-2.5-2.5-2.5C129.3,472.8,83.2,472.8,83.2,472.8z"/>
<path class="st0" d="M133.4,471.3v1.2c-0.3-0.5-0.7-0.9-1.2-1.2H133.4 M80.3,471.3c-0.4,0.3-0.8,0.7-1.2,1.2v-1.2H80.3 M78.7,522.3
	c0.4,0.8,0.9,1.5,1.6,2H77C77.7,523.8,78.3,523.1,78.7,522.3 M133.9,522.3c0.4,0.8,0.9,1.5,1.6,2h-3.3
	C132.9,523.8,133.5,523.1,133.9,522.3 M133.9,466.3H78.7c-2.5,0-4.5,2-4.5,4.5v49.4h-6.3v9.1h76.9v-9.1h-6.3v-49.4
	C138.4,468.3,136.4,466.3,133.9,466.3L133.9,466.3L133.9,466.3z M83.2,520.2v-44.9h46.1v44.9H83.2z"/>
<path class="st0" d="M73.4,385.3v-4.1h2.9c1.4,0,2.5-1.1,2.5-2.5v-45c0-15.1,12.3-27.4,27.4-27.4s27.4,12.3,27.4,27.4v45
	c0,1.4,1.1,2.5,2.5,2.5h2.9v4.1H73.4L73.4,385.3z M106.2,310.3c-12.9,0-23.3,10.5-23.3,23.3v45c0,1.4,1.1,2.5,2.5,2.5h41.7
	c1.4,0,2.5-1.1,2.5-2.5v-45C129.6,320.8,119.1,310.3,106.2,310.3z"/>
<path class="st0" d="M80.9,380.8c0.4,0.8,0.9,1.5,1.6,2h-3.3C79.9,382.3,80.5,381.6,80.9,380.8 M131.6,380.8c0.4,0.8,0.9,1.5,1.6,2
	H130C130.7,382.3,131.2,381.6,131.6,380.8 M106.2,303.8c-16.5,0-29.9,13.4-29.9,29.9v45h-5.4v9.1h70.7v-9.1h-5.4v-45
	C136.1,317.2,122.7,303.8,106.2,303.8L106.2,303.8L106.2,303.8z M85.4,378.7v-45c0-11.5,9.3-20.8,20.8-20.8s20.8,9.4,20.8,20.8v45
	C127.1,378.7,85.4,378.7,85.4,378.7z"/>
<rect x="184.5" y="522.7" class="st0" width="5.9" height="4.1"/>
<polygon class="st0" points="192.8,520.2 182,520.2 182,529.3 192.8,529.3 192.8,520.2 "/>
<path class="st0" d="M392.1,490c-2,0-3.7-1.6-3.7-3.7v-42.9c0-2,1.6-3.7,3.7-3.7H439c2,0,3.7,1.6,3.7,3.7v42.9c0,2-1.6,3.7-3.7,3.7
	H392.1z M398.2,447c-1.4,0-2.5,1.1-2.5,2.5v30.6c0,1.4,1.1,2.5,2.5,2.5h34.5c1.4,0,2.5-1.1,2.5-2.5v-30.6c0-1.4-1.1-2.5-2.5-2.5
	H398.2z"/>
<path class="st0" d="M439,442.2c0.6,0,1.2,0.5,1.2,1.2v42.9c0,0.6-0.5,1.2-1.2,1.2h-46.9c-0.6,0-1.2-0.5-1.2-1.2v-42.9
	c0-0.6,0.5-1.2,1.2-1.2H439 M398.2,485.1h34.5c2.8,0,5-2.2,5-5v-30.6c0-2.8-2.2-5-5-5h-34.5c-2.8,0-5,2.2-5,5v30.6
	C393.2,482.9,395.5,485.1,398.2,485.1 M439,437.2h-46.9c-3.4,0-6.2,2.8-6.2,6.2v42.9c0,3.4,2.8,6.2,6.2,6.2H439
	c3.4,0,6.2-2.8,6.2-6.2v-42.9C445.1,439.9,442.4,437.2,439,437.2L439,437.2z M398.2,480.1v-30.6h34.5v30.6H398.2z"/>
<path class="st0" d="M517,331c-1,0-1.9-0.9-1.9-1.9v-30.7c0-1,0.9-1.9,1.9-1.9h33.5c1,0,1.9,0.9,1.9,1.9v30.7c0,1-0.9,1.9-1.9,1.9
	H517z M521.4,300.3c-1.4,0-2.5,1.1-2.5,2.5v21.9c0,1.4,1.1,2.5,2.5,2.5h24.7c1.4,0,2.5-1.1,2.5-2.5v-21.9c0-1.4-1.1-2.5-2.5-2.5
	H521.4z"/>
<path class="st0" d="M549.9,299v0.6c-0.2-0.2-0.4-0.4-0.6-0.6H549.9 M518.2,299c-0.2,0.2-0.4,0.4-0.6,0.6V299H518.2 M549.9,327.9
	v0.6h-0.6C549.6,328.4,549.8,328.2,549.9,327.9 M517.6,327.9c0.2,0.2,0.4,0.4,0.6,0.6h-0.6V327.9 M550.5,294H517
	c-2.4,0-4.4,2-4.4,4.4v30.7c0,2.4,2,4.4,4.4,4.4h33.5c2.4,0,4.4-2,4.4-4.4v-30.7C554.9,296,553,294,550.5,294L550.5,294z
	 M521.4,324.7v-21.9h24.7v21.9H521.4z"/>
<path class="st0" d="M517,381.9c-1,0-1.9-0.9-1.9-1.9v-30.7c0-1,0.9-1.9,1.9-1.9h33.5c1,0,1.9,0.9,1.9,1.9v30.7c0,1-0.9,1.9-1.9,1.9
	H517z M521.4,351.2c-1.4,0-2.5,1.1-2.5,2.5v21.9c0,1.4,1.1,2.5,2.5,2.5h24.7c1.4,0,2.5-1.1,2.5-2.5v-21.9c0-1.4-1.1-2.5-2.5-2.5
	H521.4z"/>
<path class="st0" d="M549.9,349.9v0.6c-0.2-0.2-0.4-0.4-0.6-0.6H549.9 M518.2,349.9c-0.2,0.2-0.4,0.4-0.6,0.6v-0.6H518.2
	 M549.9,378.8v0.6h-0.6C549.6,379.2,549.8,379,549.9,378.8 M517.6,378.8c0.2,0.2,0.4,0.4,0.6,0.6h-0.6V378.8 M550.5,344.9H517
	c-2.4,0-4.4,2-4.4,4.4V380c0,2.4,2,4.4,4.4,4.4h33.5c2.4,0,4.4-2,4.4-4.4v-30.7C554.9,346.8,553,344.9,550.5,344.9L550.5,344.9z
	 M521.4,375.5v-21.9h24.7v21.9H521.4z"/>
<path class="st0" d="M517,432.7c-1,0-1.9-0.9-1.9-1.9v-30.7c0-1,0.9-1.9,1.9-1.9h33.5c1,0,1.9,0.9,1.9,1.9v30.7c0,1-0.9,1.9-1.9,1.9
	H517z M521.4,402c-1.4,0-2.5,1.1-2.5,2.5v21.9c0,1.4,1.1,2.5,2.5,2.5h24.7c1.4,0,2.5-1.1,2.5-2.5v-21.9c0-1.4-1.1-2.5-2.5-2.5H521.4
	z"/>
<path class="st0" d="M549.9,400.7v0.6c-0.2-0.2-0.4-0.4-0.6-0.6H549.9 M518.2,400.7c-0.2,0.2-0.4,0.4-0.6,0.6v-0.6H518.2
	 M549.9,429.6v0.6h-0.6C549.6,430,549.8,429.8,549.9,429.6 M517.6,429.6c0.2,0.2,0.4,0.4,0.6,0.6h-0.6V429.6 M550.5,395.7H517
	c-2.4,0-4.4,2-4.4,4.4v30.7c0,2.4,2,4.4,4.4,4.4h33.5c2.4,0,4.4-2,4.4-4.4v-30.7C554.9,397.7,553,395.7,550.5,395.7L550.5,395.7z
	 M521.4,426.4v-21.9h24.7v21.9H521.4z"/>
<path class="st0" d="M517,483.5c-1,0-1.9-0.9-1.9-1.9v-30.7c0-1,0.9-1.9,1.9-1.9h33.5c1,0,1.9,0.9,1.9,1.9v30.7c0,1-0.9,1.9-1.9,1.9
	H517z M521.4,452.8c-1.4,0-2.5,1.1-2.5,2.5v21.9c0,1.4,1.1,2.5,2.5,2.5h24.7c1.4,0,2.5-1.1,2.5-2.5v-21.9c0-1.4-1.1-2.5-2.5-2.5
	H521.4z"/>
<path class="st0" d="M549.9,451.5v0.6c-0.2-0.2-0.4-0.4-0.6-0.6H549.9 M518.2,451.5c-0.2,0.2-0.4,0.4-0.6,0.6v-0.6H518.2
	 M549.9,480.4v0.6h-0.6C549.6,480.9,549.8,480.7,549.9,480.4 M517.6,480.4c0.2,0.2,0.4,0.4,0.6,0.6h-0.6V480.4 M550.5,446.5H517
	c-2.4,0-4.4,2-4.4,4.4v30.7c0,2.4,2,4.4,4.4,4.4h33.5c2.4,0,4.4-2,4.4-4.4v-30.7C554.9,448.5,553,446.5,550.5,446.5L550.5,446.5z
	 M521.4,477.2v-21.9h24.7v21.9H521.4z"/>
<path class="st0" d="M578.8,331c-1,0-1.9-0.9-1.9-1.9v-30.7c0-1,0.9-1.9,1.9-1.9h33.5c1,0,1.9,0.9,1.9,1.9v30.7c0,1-0.9,1.9-1.9,1.9
	H578.8z M583.2,300.3c-1.4,0-2.5,1.1-2.5,2.5v21.9c0,1.4,1.1,2.5,2.5,2.5h24.7c1.4,0,2.5-1.1,2.5-2.5v-21.9c0-1.4-1.1-2.5-2.5-2.5
	H583.2z"/>
<path class="st0" d="M611.7,299v0.6c-0.2-0.2-0.4-0.4-0.6-0.6H611.7 M580,299c-0.2,0.2-0.4,0.4-0.6,0.6V299H580 M611.7,327.9v0.6
	h-0.6C611.3,328.4,611.5,328.2,611.7,327.9 M579.4,327.9c0.2,0.2,0.4,0.4,0.6,0.6h-0.6V327.9 M612.3,294h-33.5c-2.4,0-4.4,2-4.4,4.4
	v30.7c0,2.4,2,4.4,4.4,4.4h33.5c2.4,0,4.4-2,4.4-4.4v-30.7C616.7,296,614.7,294,612.3,294L612.3,294z M583.2,324.7v-21.9h24.7v21.9
	H583.2z"/>
<path class="st0" d="M578.8,381.9c-1,0-1.9-0.9-1.9-1.9v-30.7c0-1,0.9-1.9,1.9-1.9h33.5c1,0,1.9,0.9,1.9,1.9v30.7
	c0,1-0.9,1.9-1.9,1.9H578.8z M583.2,351.2c-1.4,0-2.5,1.1-2.5,2.5v21.9c0,1.4,1.1,2.5,2.5,2.5h24.7c1.4,0,2.5-1.1,2.5-2.5v-21.9
	c0-1.4-1.1-2.5-2.5-2.5H583.2z"/>
<path class="st0" d="M611.7,349.9v0.6c-0.2-0.2-0.4-0.4-0.6-0.6H611.7 M580,349.9c-0.2,0.2-0.4,0.4-0.6,0.6v-0.6H580 M611.7,378.8
	v0.6h-0.6C611.3,379.2,611.5,379,611.7,378.8 M579.4,378.8c0.2,0.2,0.4,0.4,0.6,0.6h-0.6V378.8 M612.3,344.9h-33.5
	c-2.4,0-4.4,2-4.4,4.4V380c0,2.4,2,4.4,4.4,4.4h33.5c2.4,0,4.4-2,4.4-4.4v-30.7C616.7,346.8,614.7,344.9,612.3,344.9L612.3,344.9z
	 M583.2,375.5v-21.9h24.7v21.9H583.2z"/>
<path class="st0" d="M578.8,432.7c-1,0-1.9-0.9-1.9-1.9v-30.7c0-1,0.9-1.9,1.9-1.9h33.5c1,0,1.9,0.9,1.9,1.9v30.7
	c0,1-0.9,1.9-1.9,1.9H578.8z M583.2,402c-1.4,0-2.5,1.1-2.5,2.5v21.9c0,1.4,1.1,2.5,2.5,2.5h24.7c1.4,0,2.5-1.1,2.5-2.5v-21.9
	c0-1.4-1.1-2.5-2.5-2.5H583.2z"/>
<path class="st0" d="M611.7,400.7v0.6c-0.2-0.2-0.4-0.4-0.6-0.6H611.7 M580,400.7c-0.2,0.2-0.4,0.4-0.6,0.6v-0.6H580 M611.7,429.6
	v0.6h-0.6C611.3,430,611.5,429.8,611.7,429.6 M579.4,429.6c0.2,0.2,0.4,0.4,0.6,0.6h-0.6V429.6 M612.3,395.7h-33.5
	c-2.4,0-4.4,2-4.4,4.4v30.7c0,2.4,2,4.4,4.4,4.4h33.5c2.4,0,4.4-2,4.4-4.4v-30.7C616.7,397.7,614.7,395.7,612.3,395.7L612.3,395.7z
	 M583.2,426.4v-21.9h24.7v21.9H583.2z"/>
<path class="st0" d="M578.8,483.5c-1,0-1.9-0.9-1.9-1.9v-30.7c0-1,0.9-1.9,1.9-1.9h33.5c1,0,1.9,0.9,1.9,1.9v30.7
	c0,1-0.9,1.9-1.9,1.9H578.8z M583.2,452.8c-1.4,0-2.5,1.1-2.5,2.5v21.9c0,1.4,1.1,2.5,2.5,2.5h24.7c1.4,0,2.5-1.1,2.5-2.5v-21.9
	c0-1.4-1.1-2.5-2.5-2.5H583.2z"/>
<path class="st0" d="M611.7,451.5v0.6c-0.2-0.2-0.4-0.4-0.6-0.6H611.7 M580,451.5c-0.2,0.2-0.4,0.4-0.6,0.6v-0.6H580 M611.7,480.4
	v0.6h-0.6C611.3,480.9,611.5,480.7,611.7,480.4 M579.4,480.4c0.2,0.2,0.4,0.4,0.6,0.6h-0.6V480.4 M612.3,446.5h-33.5
	c-2.4,0-4.4,2-4.4,4.4v30.7c0,2.4,2,4.4,4.4,4.4h33.5c2.4,0,4.4-2,4.4-4.4v-30.7C616.7,448.5,614.7,446.5,612.3,446.5L612.3,446.5z
	 M583.2,477.2v-21.9h24.7v21.9H583.2z"/>
<path class="st0" d="M639.8,331c-1,0-1.9-0.9-1.9-1.9v-30.7c0-1,0.9-1.9,1.9-1.9h33.5c1,0,1.9,0.9,1.9,1.9v30.7c0,1-0.9,1.9-1.9,1.9
	H639.8z M644.2,300.3c-1.4,0-2.5,1.1-2.5,2.5v21.9c0,1.4,1.1,2.5,2.5,2.5h24.7c1.4,0,2.5-1.1,2.5-2.5v-21.9c0-1.4-1.1-2.5-2.5-2.5
	H644.2z"/>
<path class="st0" d="M672.7,299v0.6c-0.2-0.2-0.4-0.4-0.6-0.6H672.7 M640.9,299c-0.2,0.2-0.4,0.4-0.6,0.6V299H640.9 M672.7,327.9
	v0.6h-0.6C672.3,328.4,672.5,328.2,672.7,327.9 M640.3,327.9c0.2,0.2,0.4,0.4,0.6,0.6h-0.6V327.9 M673.3,294h-33.5
	c-2.4,0-4.4,2-4.4,4.4v30.7c0,2.4,2,4.4,4.4,4.4h33.5c2.4,0,4.4-2,4.4-4.4v-30.7C677.7,296,675.7,294,673.3,294L673.3,294z
	 M644.2,324.7v-21.9h24.7v21.9H644.2z"/>
<path class="st0" d="M639.8,381.9c-1,0-1.9-0.9-1.9-1.9v-30.7c0-1,0.9-1.9,1.9-1.9h33.5c1,0,1.9,0.9,1.9,1.9v30.7
	c0,1-0.9,1.9-1.9,1.9H639.8z M644.2,351.2c-1.4,0-2.5,1.1-2.5,2.5v21.9c0,1.4,1.1,2.5,2.5,2.5h24.7c1.4,0,2.5-1.1,2.5-2.5v-21.9
	c0-1.4-1.1-2.5-2.5-2.5H644.2z"/>
<path class="st0" d="M672.7,349.9v0.6c-0.2-0.2-0.4-0.4-0.6-0.6H672.7 M640.9,349.9c-0.2,0.2-0.4,0.4-0.6,0.6v-0.6H640.9
	 M672.7,378.8v0.6h-0.6C672.3,379.2,672.5,379,672.7,378.8 M640.3,378.8c0.2,0.2,0.4,0.4,0.6,0.6h-0.6V378.8 M673.3,344.9h-33.5
	c-2.4,0-4.4,2-4.4,4.4V380c0,2.4,2,4.4,4.4,4.4h33.5c2.4,0,4.4-2,4.4-4.4v-30.7C677.7,346.8,675.7,344.9,673.3,344.9L673.3,344.9z
	 M644.2,375.5v-21.9h24.7v21.9H644.2z"/>
<path class="st0" d="M639.8,432.7c-1,0-1.9-0.9-1.9-1.9v-30.7c0-1,0.9-1.9,1.9-1.9h33.5c1,0,1.9,0.9,1.9,1.9v30.7
	c0,1-0.9,1.9-1.9,1.9H639.8z M644.2,402c-1.4,0-2.5,1.1-2.5,2.5v21.9c0,1.4,1.1,2.5,2.5,2.5h24.7c1.4,0,2.5-1.1,2.5-2.5v-21.9
	c0-1.4-1.1-2.5-2.5-2.5H644.2z"/>
<path class="st0" d="M672.7,400.7v0.6c-0.2-0.2-0.4-0.4-0.6-0.6H672.7 M640.9,400.7c-0.2,0.2-0.4,0.4-0.6,0.6v-0.6H640.9
	 M672.7,429.6v0.6h-0.6C672.3,430,672.5,429.8,672.7,429.6 M640.3,429.6c0.2,0.2,0.4,0.4,0.6,0.6h-0.6V429.6 M673.3,395.7h-33.5
	c-2.4,0-4.4,2-4.4,4.4v30.7c0,2.4,2,4.4,4.4,4.4h33.5c2.4,0,4.4-2,4.4-4.4v-30.7C677.7,397.7,675.7,395.7,673.3,395.7L673.3,395.7z
	 M644.2,426.4v-21.9h24.7v21.9H644.2z"/>
<path class="st0" d="M639.8,483.5c-1,0-1.9-0.9-1.9-1.9v-30.7c0-1,0.9-1.9,1.9-1.9h33.5c1,0,1.9,0.9,1.9,1.9v30.7
	c0,1-0.9,1.9-1.9,1.9H639.8z M644.2,452.8c-1.4,0-2.5,1.1-2.5,2.5v21.9c0,1.4,1.1,2.5,2.5,2.5h24.7c1.4,0,2.5-1.1,2.5-2.5v-21.9
	c0-1.4-1.1-2.5-2.5-2.5H644.2z"/>
<path class="st0" d="M672.7,451.5v0.6c-0.2-0.2-0.4-0.4-0.6-0.6H672.7 M640.9,451.5c-0.2,0.2-0.4,0.4-0.6,0.6v-0.6H640.9
	 M672.7,480.4v0.6h-0.6C672.3,480.9,672.5,480.7,672.7,480.4 M640.3,480.4c0.2,0.2,0.4,0.4,0.6,0.6h-0.6V480.4 M673.3,446.5h-33.5
	c-2.4,0-4.4,2-4.4,4.4v30.7c0,2.4,2,4.4,4.4,4.4h33.5c2.4,0,4.4-2,4.4-4.4v-30.7C677.7,448.5,675.7,446.5,673.3,446.5L673.3,446.5z
	 M644.2,477.2v-21.9h24.7v21.9H644.2z"/>
<path class="st0" d="M392.1,416.7c-2,0-3.7-1.6-3.7-3.7v-42.9c0-2,1.6-3.7,3.7-3.7H439c2,0,3.7,1.6,3.7,3.7V413c0,2-1.6,3.7-3.7,3.7
	H392.1z M398.2,373.7c-1.4,0-2.5,1.1-2.5,2.5v30.6c0,1.4,1.1,2.5,2.5,2.5h34.5c1.4,0,2.5-1.1,2.5-2.5v-30.6c0-1.4-1.1-2.5-2.5-2.5
	H398.2z"/>
<path class="st0" d="M439,368.9c0.6,0,1.2,0.5,1.2,1.2V413c0,0.6-0.5,1.2-1.2,1.2h-46.9c-0.6,0-1.2-0.5-1.2-1.2v-42.9
	c0-0.6,0.5-1.2,1.2-1.2H439 M398.2,411.8h34.5c2.8,0,5-2.2,5-5v-30.6c0-2.8-2.2-5-5-5h-34.5c-2.8,0-5,2.2-5,5v30.6
	C393.2,409.6,395.5,411.8,398.2,411.8 M439,363.9h-46.9c-3.4,0-6.2,2.8-6.2,6.2V413c0,3.4,2.8,6.2,6.2,6.2H439
	c3.4,0,6.2-2.8,6.2-6.2v-42.9C445.1,366.6,442.4,363.9,439,363.9L439,363.9z M398.2,406.8v-30.6h34.5v30.6H398.2z"/>
<path class="st0" d="M406.4,270c0.5-2.4,0.9-4.8,1.2-7.3h25.2c1.4,0,2.5-1.1,2.5-2.5v-30.6c0-1.4-1.1-2.5-2.5-2.5H408
	c-0.3-2.4-0.7-4.9-1.1-7.3H439c2,0,3.7,1.6,3.7,3.7v42.9c0,2-1.6,3.7-3.7,3.7L406.4,270L406.4,270z"/>
<path class="st0" d="M439,222.2c0.6,0,1.2,0.5,1.2,1.2v43c0,0.6-0.5,1.2-1.2,1.2h-29.6c0.1-0.8,0.2-1.5,0.4-2.3h23c2.8,0,5-2.2,5-5
	v-30.6c0-2.8-2.2-5-5-5h-22.6c-0.1-0.8-0.2-1.6-0.4-2.3L439,222.2 M438.9,217.2h-35.1c0.8,4.1,1.5,8.2,1.9,12.3h27v30.6h-27.4
	c-0.5,4.2-1.2,8.3-2.1,12.3H439c3.4,0,6.2-2.8,6.2-6.2v-42.9C445.1,220,442.4,217.2,438.9,217.2L438.9,217.2L438.9,217.2z"/>
<path class="st0" d="M392.1,343.4c-2,0-3.7-1.6-3.7-3.7v-23.9c4.4-7.2,8.2-14.8,11.3-22.7h39.3c2,0,3.7,1.6,3.7,3.7v43
	c0,2-1.6,3.7-3.7,3.7H392.1L392.1,343.4z M398.2,300.4c-1.4,0-2.5,1.1-2.5,2.5v30.6c0,1.4,1.1,2.5,2.5,2.5h34.5
	c1.4,0,2.5-1.1,2.5-2.5v-30.6c0-1.4-1.1-2.5-2.5-2.5H398.2z"/>
<path class="st0" d="M439,295.6c0.6,0,1.2,0.5,1.2,1.2v42.9c0,0.6-0.5,1.2-1.2,1.2h-46.9c-0.6,0-1.2-0.5-1.2-1.2v-23.2
	c0.8-1.3,1.6-2.6,2.3-4v21c0,2.8,2.2,5,5,5h34.5c2.8,0,5-2.2,5-5v-30.6c0-2.8-2.2-5-5-5h-32.4c0.3-0.8,0.6-1.6,1-2.3L439,295.6
	 M438.9,290.6h-41c-3.2,8.6-7.2,16.8-12,24.5v24.6c0,3.4,2.8,6.2,6.2,6.2H439c3.4,0,6.2-2.8,6.2-6.2v-42.9
	C445.1,293.3,442.4,290.6,438.9,290.6L438.9,290.6L438.9,290.6z M398.2,333.5v-30.6h34.5v30.6L398.2,333.5L398.2,333.5z"/>
<path class="st0" d="M167.4,385.3v-4.1h2.9c1.4,0,2.5-1.1,2.5-2.5v-39.5c1.3,1.4,2.7,2.7,4.1,4v35.5c0,1.4,1.1,2.5,2.5,2.5h41.7
	c1.4,0,2.5-1.1,2.5-2.5v-6.2c1.4,0.5,2.8,1,4.1,1.5v4.7c0,1.4,1.1,2.5,2.5,2.5h2.9v4.1H167.4L167.4,385.3z"/>
<path class="st0" d="M225.6,380.8c0.4,0.8,0.9,1.5,1.6,2H224C224.7,382.3,225.2,381.6,225.6,380.8 M174.8,380.8
	c0.4,0.8,0.9,1.5,1.6,2h-3.3C173.9,382.3,174.5,381.6,174.8,380.8 M170.4,332.9c0,0.3-0.1,0.5-0.1,0.8v45h-5.4v9.1h70.7v-9.1h-5.4
	v-6.5c-3.1-1-6.1-2.1-9.1-3.3v9.9h-41.7v-36.6C176.2,339.2,173.2,336.1,170.4,332.9L170.4,332.9L170.4,332.9z"/>
<path class="st0" d="M280.5,258.3c7.4,2.2,12.8,4.6,16,7.2c3.3,2.7,5,6.6,5,12.1c0,3.4-0.7,6.3-2.1,8.7c-1.4,2.5-3.3,4.6-5.5,6.3
	c-2.2,1.8-4.8,3.1-7.6,4.1c-2,0.7-3.9,1.2-5.7,1.5L280.5,258.3L280.5,258.3z"/>
<path class="st0" d="M283,261.7c6.6,2.2,10.1,4.3,11.9,5.7c2.7,2.1,4,5.5,4,10.1c0,2.9-0.6,5.4-1.7,7.5c-1.3,2.2-2.9,4.1-4.9,5.6
	c-2,1.6-4.3,2.8-6.9,3.6c-0.8,0.3-1.6,0.5-2.4,0.7L283,261.7 M278,255v46.1c2.9-0.3,5.9-1,9-2c3.1-1,5.9-2.5,8.4-4.5
	c2.5-1.9,4.5-4.3,6.1-7.1c1.6-2.8,2.4-6.1,2.4-10c0-6.2-2-10.9-5.9-14C294.1,260.4,287.4,257.6,278,255L278,255L278,255z"/>
<path class="st0" d="M261.3,213.7c-5.6-1.5-9.8-3.4-12.4-5.6c-2.8-2.4-4.2-5.8-4.2-10.3c0-3,0.5-5.5,1.5-7.6c1-2.1,2.5-4,4.2-5.4
	c1.8-1.5,3.9-2.6,6.1-3.3c1.5-0.5,3.1-0.8,4.7-1V213.7L261.3,213.7z"/>
<path class="st0" d="M258.8,183.4v26.9c-4.5-1.5-6.9-3-8.3-4.2c-2.2-1.9-3.3-4.6-3.3-8.4c0-2.6,0.4-4.8,1.3-6.6
	c0.9-1.8,2-3.3,3.6-4.5c1.6-1.3,3.3-2.2,5.3-2.8C257.9,183.6,258.3,183.5,258.8,183.4 M263.8,177.8c-2.7,0-5.4,0.4-7.9,1.2
	s-4.9,2-6.9,3.7c-2.1,1.7-3.7,3.8-4.9,6.2c-1.2,2.5-1.8,5.4-1.8,8.8c0,5.3,1.7,9.4,5,12.2c3.4,2.9,8.9,5.2,16.5,6.9V177.8
	L263.8,177.8L263.8,177.8z"/>
<path class="st0" d="M271.5,365.9c-2,0-3.9-0.1-5.9-0.3c-0.6,0-1.2-0.1-1.8-0.1c-11.3-0.7-22.3-2.9-32.8-6.6c0,0,0,0,0,0
	c-18.6-6.5-35.5-17.7-49-32.2c0,0,0,0-0.1,0c-12.8-13.8-22.4-30.5-27.6-48.3c-2.4-8.1-3.9-16.7-4.6-25.5c0,0,0-0.5,0-0.5
	c-0.2-2.8-0.4-5.8-0.4-8.6c0-67.4,54.8-122.2,122.2-122.2s122.2,54.8,122.2,122.2c0,32.4-12.6,63-35.4,86
	c-22.8,23-53.2,35.9-85.6,36.2c-0.2,0-0.5,0-0.7,0C271.8,365.9,271.6,366,271.5,365.9L271.5,365.9z M261.3,349.3
	c0,1.4,1.1,2.5,2.5,2.5H278c1.4,0,2.5-1.1,2.5-2.5v-18.1c11.3-1,20.7-3.4,28.2-7.3c7.9-4.1,14.3-8.9,19.1-14.2
	c4.8-5.4,8.1-11,10-16.6c1.9-5.7,2.8-10.3,2.8-14.1c0-4.1-0.3-8.8-0.9-14c-0.6-5.4-2.5-10.9-5.7-16.3c-3.2-5.4-8.2-10.6-14.8-15.5
	c-6.6-4.9-16.1-9-28.2-12.3c-2.5-0.7-4.6-1.3-6.5-1.7c0,0-3.2-0.8-3.9-1v-37.8c3.6,0.6,6.8,2.4,9.5,5.6c3.5,4.1,5.2,8.9,5.4,14.8
	c0,1.4,1.1,2.4,2.5,2.4H332c0.7,0,1.3-0.3,1.8-0.8s0.7-1.2,0.7-1.9c-0.5-8.6-2.4-16.2-5.5-22.6c-3.2-6.4-7.4-11.8-12.4-16
	c-5-4.2-10.9-7.6-17.4-10.1c-5.8-2.1-12-3.6-18.6-4.6v-16.3c0-1.4-1.1-2.5-2.5-2.5h-14.1c-1.4,0-2.5,1.1-2.5,2.5v16.2
	c-6.6,0.6-13,2-19.2,4.2c-6.9,2.4-13.2,5.8-18.5,10.3c-5.4,4.4-9.7,10-13,16.5c-3.3,6.5-4.9,14.2-4.9,22.7s1.5,15.5,4.4,21.2
	c2.9,5.7,6.8,10.5,11.6,14.3c4.7,3.7,10.1,6.8,16.1,9c6,2.2,12,4.1,17.7,5.7c0.1,0,0.1,0,0.1,0c1.7,0.4,3.1,0.7,4.2,1
	c0.5,0.2,1,0.3,1.4,0.4v45.2c-5.5-1.6-10.3-4.5-14.1-8.6c-4.5-4.8-6.7-11.4-6.5-19.8c0-0.7-0.2-1.3-0.7-1.8s-1.1-0.8-1.8-0.8h-33.8
	c-0.7,0-1.4,0.3-1.8,0.8c-0.5,0.5-0.7,1.2-0.6,1.9c1.6,19.4,7.8,34.4,18.3,44.5c10,9.7,23.9,15.4,41.2,17.1L261.3,349.3L261.3,349.3
	z"/>
<path class="st0" d="M271.5,123.9c32,0,62,12.4,84.7,35.1s35.1,52.7,35.1,84.7s-12.3,61.7-34.7,84.3c-22.4,22.5-52.2,35.1-83.9,35.4
	c-0.3,0-0.6,0-0.9,0c-0.1,0-0.2,0-0.2,0c-1.9,0-3.7-0.1-5.7-0.3c-0.6,0-1.2-0.1-1.9-0.1c-11-0.7-21.8-2.9-32.1-6.5c0,0,0,0,0,0
	c-18.2-6.4-34.8-17.3-48-31.5c0,0-0.1,0-0.1-0.1c-12.5-13.5-21.9-29.9-27-47.3c-2.3-7.9-3.9-16.3-4.5-25c0,0,0,0,0-0.1l0-0.5
	c-0.2-2.9-0.4-5.7-0.4-8.5c0-32,12.4-62.1,35.1-84.7S239.5,123.9,271.5,123.9 M258.8,145.1c-6,0.7-11.9,2.1-17.5,4
	c-7.2,2.5-13.8,6.1-19.3,10.7c-5.6,4.6-10.2,10.5-13.6,17.3c-3.4,6.9-5.2,14.9-5.2,23.8s1.6,16.3,4.6,22.3c3,6,7.2,11.1,12.3,15.1
	c4.9,3.9,10.6,7.1,16.8,9.4c6.1,2.3,12.1,4.2,18,5.8c0.1,0,0.2,0.1,0.3,0.1c1.5,0.3,2.6,0.6,3.7,0.9v39.8c-3.7-1.5-7-3.8-9.8-6.8
	c-4.1-4.3-6-10.2-5.8-18.1c0-1.3-0.5-2.6-1.4-3.6c-0.9-1-2.2-1.5-3.6-1.5h-33.8c-1.4,0-2.7,0.6-3.7,1.6s-1.4,2.4-1.3,3.8
	c1.7,20,8.1,35.5,19,46.1c10,9.7,23.6,15.5,40.5,17.5v15.8c0,2.8,2.2,5,5,5H278c2.8,0,5-2.2,5-5v-15.8c10.6-1.1,19.6-3.6,26.8-7.4
	c8.2-4.3,14.8-9.2,19.8-14.8c5-5.6,8.5-11.5,10.5-17.5c1.9-5.9,2.9-10.8,2.9-14.9s-0.3-9-0.9-14.2c-0.6-5.8-2.6-11.6-6.1-17.4
	c-3.4-5.7-8.6-11.1-15.5-16.2c-6.9-5.1-16.6-9.3-29-12.7c-2.5-0.7-4.6-1.3-6.5-1.7l-1.7-0.4c-0.1,0-0.2-0.1-0.3-0.1v-32.5
	c1.9,0.8,3.6,2.1,5.1,3.9c3.1,3.6,4.7,7.9,4.8,13.2c0.1,2.7,2.3,4.9,5,4.9h34.1c1.4,0,2.7-0.6,3.6-1.6s1.4-2.3,1.4-3.7
	c-0.5-8.9-2.5-16.9-5.8-23.6c-3.3-6.7-7.7-12.3-13-16.8c-5.2-4.4-11.3-8-18.2-10.5c-5.3-1.9-11-3.4-17-4.4v-14.1c0-2.8-2.2-5-5-5
	h-14.1c-2.8,0-5,2.2-5,5L258.8,145.1 M271.5,118.9c-68.9,0-124.7,55.8-124.7,124.7c0,3.1,0.2,6.2,0.5,9.3l0,0
	c0.7,9,2.2,17.7,4.7,26.1c5.5,18.7,15.3,35.5,28.2,49.4l0,0c13.6,14.7,30.7,26,50,32.8h0c10.6,3.7,21.8,6,33.4,6.8
	c2.6,0.2,5.2,0.4,7.9,0.4c0.4,0,0.8-0.1,1.2-0.1c68.3-0.6,123.6-56.2,123.6-124.7S340.4,118.9,271.5,118.9L271.5,118.9L271.5,118.9z
	 M263.8,301.1v-50.1c-0.8-0.3-1.9-0.7-3.2-1.1c-1.4-0.4-2.9-0.8-4.5-1.1c-5.9-1.6-11.8-3.5-17.5-5.6c-5.8-2.2-10.9-5-15.5-8.6
	c-4.6-3.6-8.2-8.1-10.9-13.4c-2.7-5.4-4.1-12-4.1-20s1.5-15.4,4.7-21.6c3.1-6.2,7.2-11.5,12.4-15.7c5.1-4.2,11-7.5,17.8-9.8
	c6.7-2.3,13.7-3.7,20.9-4.2v-18.5H278v18.5c7.2,0.8,14,2.4,20.3,4.7c6.3,2.3,11.9,5.5,16.7,9.6c4.8,4.1,8.7,9.2,11.8,15.2
	c3,6.1,4.8,13.3,5.3,21.6h-34.1c-0.2-6.4-2.1-11.8-6-16.3c-3.8-4.5-8.5-6.7-13.9-6.7v42.5c1.9,0.5,3.9,1,5.9,1.4
	c2,0.5,4.1,1,6.4,1.7c11.8,3.2,21,7.2,27.4,11.9c6.4,4.7,11.1,9.6,14.1,14.8c3,5.1,4.8,10.2,5.4,15.3c0.6,5.1,0.8,9.7,0.8,13.7
	c0,3.5-0.9,8-2.6,13.3c-1.8,5.4-4.9,10.6-9.5,15.7c-4.6,5.1-10.7,9.7-18.4,13.7c-7.7,4-17.5,6.4-29.5,7.2v20.4h-14.1v-20.4
	c-17.9-1.3-31.9-6.8-42-16.6c-10.1-9.8-15.9-24.1-17.5-43h33.8c-0.2,9.1,2.2,16.3,7.2,21.6S256.5,299.6,263.8,301.1L263.8,301.1
	L263.8,301.1z"/>
<path class="st0" d="M361.7,598.6v-6.2c0.1-0.2,0.1-0.4,0.1-0.7V590c0.2-0.4,0.4-0.8,0.4-1.3V346.8c2.5-2.2,4.9-4.5,7.3-7v248.9
	c0,1.4,1.1,2.5,2.5,2.5h17.6c0.6,0,1.2-0.2,1.6-0.6h40.7c1.4,0,2.5-1.1,2.5-2.5v-57.8c0-2,1.6-3.7,3.7-3.7h45.6
	c1.4,0,2.5-1.1,2.5-2.5v-31.7c0-1.4-1.1-2.5-2.5-2.5h-20.3c-2,0-3.7-1.6-3.7-3.7v-42.9c0-2,1.6-3.7,3.7-3.7h20.3
	c1.4,0,2.5-1.1,2.5-2.5v-18c0-1.4-1.1-2.5-2.5-2.5h-20.3c-2,0-3.7-1.6-3.7-3.7v-42.9c0-2,1.6-3.7,3.7-3.7h20.3
	c1.4,0,2.5-1.1,2.5-2.5v-18c0-1.4-1.1-2.5-2.5-2.5h-20.3c-2,0-3.7-1.6-3.7-3.7v-43c0-2,1.6-3.7,3.7-3.7h20.3c1.4,0,2.5-1.1,2.5-2.5
	v-18.1c0-1.4-1.1-2.5-2.5-2.5h-20.3c-2,0-3.7-1.6-3.7-3.7v-42.9c0-2,1.6-3.7,3.7-3.7h46.9c2,0,3.7,1.6,3.7,3.7v36.8
	c0,1.4,1.1,2.5,2.5,2.5h13.9c1.4,0,2.5-1.1,2.5-2.5V201c0-1.4-1.1-2.5-2.5-2.5h-129c-0.9-2.5-1.8-4.9-2.8-7.3h143.9
	c1.4,0,2.5-1.1,2.5-2.5v-19.4c0-1.4-1.1-2.5-2.5-2.5h-157c-1.7-2.5-3.5-4.9-5.3-7.3h168.5c2,0,3.7,1.6,3.7,3.7v31.8
	c0,2-1.7,3.7-3.7,3.7h-5.9c-1.4,0-2.5,1.1-2.5,2.5v59.1c0,1.4,1.1,2.5,2.5,2.5h156.3c2,0,3.7,1.6,3.7,3.7V598h-42.1
	c-0.1,0-0.1,0-0.2,0c0,0-0.2,0-0.2,0c-0.1,0-0.1,0-0.2,0H396.5c-0.4,0-0.7,0.1-1,0.2c-0.5,0.2-1,0.4-1.3,0.4L361.7,598.6
	L361.7,598.6z M622.1,534c-1.4,0-2.5,1.1-2.5,2.5v51.7c0,1.4,1.1,2.5,2.5,2.5h70.6c1.4,0,2.5-1.1,2.5-2.5V272.5
	c0-1.4-1.1-2.5-2.5-2.5H496c-1.4,0-2.5,1.1-2.5,2.5v315.6c0,1.4,1.1,2.5,2.5,2.5h70.7c1.4,0,2.5-1.1,2.5-2.5v-51.7
	c0-1.4-1.1-2.5-2.5-2.5h-7v-7.3h69.5v7.3H622.1L622.1,534z M579,534c-1.4,0-2.5,1.1-2.5,2.5v51.7c0,1.4,1.1,2.5,2.5,2.5h30.8
	c1.4,0,2.5-1.1,2.5-2.5v-51.7c0-1.4-1.1-2.5-2.5-2.5H579z M444.3,534c-1.4,0-2.5,1.1-2.5,2.5v51.7c0,1.4,1.1,2.5,2.5,2.5h39.5
	c1.4,0,2.5-1.1,2.5-2.5v-51.7c0-1.4-1.1-2.5-2.5-2.5H444.3z M469.6,447c-1.4,0-2.5,1.1-2.5,2.5v30.6c0,1.4,1.1,2.5,2.5,2.5h14.1
	c1.4,0,2.5-1.1,2.5-2.5v-30.6c0-1.4-1.1-2.5-2.5-2.5H469.6z M469.6,373.7c-1.4,0-2.5,1.1-2.5,2.5v30.6c0,1.4,1.1,2.5,2.5,2.5h14.1
	c1.4,0,2.5-1.1,2.5-2.5v-30.6c0-1.4-1.1-2.5-2.5-2.5H469.6z M469.6,300.4c-1.4,0-2.5,1.1-2.5,2.5v30.6c0,1.4,1.1,2.5,2.5,2.5h14.1
	c1.4,0,2.5-1.1,2.5-2.5v-30.6c0-1.4-1.1-2.5-2.5-2.5H469.6z M469.6,227.1c-1.4,0-2.5,1.1-2.5,2.5v30.6c0,1.4,1.1,2.5,2.5,2.5h34.5
	c1.4,0,2.5-1.1,2.5-2.5v-30.6c0-1.4-1.1-2.5-2.5-2.5H469.6z"/>
<path class="st0" d="M548.6,161.9c0.7,0,1.2,0.5,1.2,1.2v31.8c0,0.6-0.5,1.2-1.2,1.2h-5.9c-2.8,0-5,2.2-5,5v59.2c0,2.8,2.2,5,5,5
	h156.3c0.7,0,1.2,0.5,1.2,1.2v329.1h-39.5c-0.1,0-0.2,0-0.2,0c-0.1,0-0.1,0-0.2,0s-0.1,0-0.2,0c-0.1,0-0.2,0-0.3,0H396.5
	c-0.7,0-1.4,0.2-2,0.4c-0.2,0.1-0.3,0.1-0.4,0.1h-29.9v-3.5c0.1-0.3,0.1-0.6,0.1-0.9v-1c0.2-0.6,0.4-1.2,0.4-1.9V347.9
	c0.8-0.7,1.6-1.4,2.3-2.1v242.9c0,2.8,2.2,5,5,5h17.6c0.8,0,1.6-0.2,2.3-0.6h40c2.8,0,5-2.2,5-5v-57.8c0-0.6,0.5-1.2,1.2-1.2h45.6
	c2.8,0,5-2.2,5-5v-31.7c0-2.8-2.2-5-5-5h-20.3c-0.6,0-1.2-0.5-1.2-1.2v-42.9c0-0.6,0.5-1.2,1.2-1.2h20.3c2.8,0,5-2.2,5-5v-18
	c0-2.8-2.2-5-5-5h-20.3c-0.6,0-1.2-0.5-1.2-1.2v-42.9c0-0.6,0.5-1.2,1.2-1.2h20.3c2.8,0,5-2.2,5-5v-18c0-2.8-2.2-5-5-5h-20.3
	c-0.6,0-1.2-0.5-1.2-1.2v-42.9c0-0.6,0.5-1.2,1.2-1.2h20.3c2.8,0,5-2.2,5-5v-18.1c0-2.8-2.2-5-5-5h-20.3c-0.6,0-1.2-0.5-1.2-1.2
	v-42.9c0-0.6,0.5-1.2,1.2-1.2h46.9c0.6,0,1.2,0.5,1.2,1.2v36.8c0,2.8,2.2,5,5,5h13.9c2.8,0,5-2.2,5-5V201c0-2.8-2.2-5-5-5H403.1
	c-0.3-0.8-0.6-1.6-0.9-2.3h140.2c2.8,0,5-2.2,5-5v-19.4c0-2.8-2.2-5-5-5H386.7c-0.5-0.8-1.1-1.6-1.6-2.3L548.6,161.9 M469.6,265.2
	h34.5c2.8,0,5-2.2,5-5v-30.6c0-2.8-2.2-5-5-5h-34.5c-2.8,0-5,2.2-5,5v30.6C464.6,262.9,466.8,265.2,469.6,265.2 M496,593.1h70.6
	c2.8,0,5-2.2,5-5v-51.7c0-2.8-2.2-5-5-5h-4.5v-2.3h64.5v2.3h-4.5c-2.8,0-5,2.2-5,5v51.7c0,2.8,2.2,5,5,5h70.6c2.8,0,5-2.2,5-5V272.5
	c0-2.8-2.2-5-5-5H496c-2.8,0-5,2.2-5,5v315.6C491,590.9,493.3,593.1,496,593.1 M469.5,338.5h14.1c2.8,0,5-2.2,5-5v-30.6
	c0-2.8-2.2-5-5-5h-14.1c-2.8,0-5,2.2-5,5v30.6C464.5,336.3,466.8,338.5,469.5,338.5 M469.5,411.8h14.1c2.8,0,5-2.2,5-5v-30.6
	c0-2.8-2.2-5-5-5h-14.1c-2.8,0-5,2.2-5,5v30.6C464.5,409.6,466.8,411.8,469.5,411.8 M469.5,485.1h14.1c2.8,0,5-2.2,5-5v-30.6
	c0-2.8-2.2-5-5-5h-14.1c-2.8,0-5,2.2-5,5v30.6C464.5,482.9,466.8,485.1,469.5,485.1 M579,593.1h30.8c2.8,0,5-2.2,5-5v-51.7
	c0-2.8-2.2-5-5-5H579c-2.8,0-5,2.2-5,5v51.7C574,590.9,576.3,593.1,579,593.1 M444.2,593.1h39.5c2.8,0,5-2.2,5-5v-51.7
	c0-2.8-2.2-5-5-5h-39.5c-2.8,0-5,2.2-5,5v51.7C439.2,590.9,441.5,593.1,444.2,593.1 M394.6,588.7L394.6,588.7L394.6,588.7
	 M548.5,156.9H374.8c3.3,3.9,6.4,8.1,9.2,12.3h158.3v19.4H394.7c1.8,4,3.4,8.1,4.8,12.3h130.8v59.1h-13.9v-36.8
	c0-3.4-2.8-6.2-6.2-6.2h-46.9c-3.4,0-6.2,2.8-6.2,6.2v42.9c0,3.4,2.8,6.2,6.2,6.2h20.3v18.1h-20.3c-3.4,0-6.2,2.8-6.2,6.2v42.9
	c0,3.4,2.8,6.2,6.2,6.2h20.3v18h-20.3c-3.4,0-6.2,2.8-6.2,6.2V413c0,3.4,2.8,6.2,6.2,6.2h20.3v18h-20.3c-3.4,0-6.2,2.8-6.2,6.2v42.9
	c0,3.4,2.8,6.2,6.2,6.2h20.3v31.7h-45.6c-3.4,0-6.2,2.8-6.2,6.2v57.8h-42.2c0,0,0,0.1,0,0.1c0,0.1,0,0.3-0.1,0.4H372V333.5
	c-3.9,4.3-8,8.4-12.3,12.2v243h-0.4v3h-0.2c0,0.1,0.1,0.2,0.1,0.3l0,0v9.1H359c0.1,0,0.2,0,0.4,0h34.8c0.8,0,1.6-0.2,2.3-0.6H660
	c0,0,0.1,0,0.1,0s0.1,0,0.1,0h44.8V266.4c0-3.4-2.8-6.2-6.2-6.2H542.6V201h5.9c3.4,0,6.2-2.8,6.2-6.2v-31.8
	C554.7,159.7,552,156.9,548.5,156.9L548.5,156.9L548.5,156.9z M469.5,260.2v-30.6h34.5v30.6H469.5z M496,588.1V272.5h196.7v315.6
	h-70.6v-51.7h9.5v-12.3h-74.5v12.3h9.5v51.7H496L496,588.1z M469.5,333.5v-30.6h14.1v30.6H469.5z M469.5,406.8v-30.6h14.1v30.6
	H469.5z M469.5,480.1v-30.6h14.1v30.6H469.5z M579,588.1v-51.7h30.8v51.7H579z M444.2,588.1v-51.7h39.5v51.7H444.2z"/>
<path class="st0" d="M247.7,409.4H42.9V288.1h101.2c-1-3-2-6-2.8-9.1H29.1l-3.9-17h112.7c-0.4-3-0.7-6-0.9-9.1H19.4
	c-1.4,0-2.7,0.6-3.6,1.7s-1.2,2.5-0.9,3.8l6,26.1c0.5,2,2.3,3.5,4.4,3.5h8.3v277.7h-0.2v9.1h223.1V377.3h-9.1L247.7,409.4
	L247.7,409.4z M223.3,565.8h-46.1v-90.5h46.1V565.8z M247.7,565.8h-15.3v-95c0-2.5-2-4.5-4.5-4.5h-55.2c-2.5,0-4.5,2-4.5,4.5v95
	H42.9V444.6h204.8L247.7,565.8L247.7,565.8z M247.7,435.5H42.9v-17h204.8L247.7,435.5L247.7,435.5z"/>
<path class="st0" d="M136.9,253H19.4c-1.4,0-2.7,0.6-3.6,1.7s-1.2,2.5-0.9,3.9l6,26.1c0.5,2,2.3,3.5,4.4,3.5h8.3v277.7h-0.2v9.1
	h223.1V377.3h-9.1v32.1H42.9V288.1h101.2c-1-3-2-6-2.8-9.1H29.1l-3.9-17h112.7C137.4,259.1,137.1,256,136.9,253L136.9,253L136.9,253
	z M42.9,435.5v-17h204.8v17H42.9L42.9,435.5z M42.9,565.8V444.6h204.8v121.3h-15.3v-95c0-2.5-2-4.5-4.5-4.5h-55.2
	c-2.5,0-4.5,2-4.5,4.5v95H42.9L42.9,565.8z M177.2,565.8v-90.5h46.1v90.5H177.2z"/>
</svg>
