<?xml version="1.0" encoding="utf-8"?>
<!-- Generator: Adobe Illustrator 27.3.1, SVG Export Plug-In . SVG Version: 6.00 Build 0)  -->
<svg version="1.1" id="Layer_1" xmlns="http://www.w3.org/2000/svg" xmlns:xlink="http://www.w3.org/1999/xlink" x="0px" y="0px"
	 viewBox="0 0 720 720" style="enable-background:new 0 0 720 720;" xml:space="preserve">
<style type="text/css">
	.st0{fill:#FFFFFF;stroke:#FFFFFF;stroke-width:3.96;stroke-miterlimit:10;}
</style>
<path class="st0" d="M614.4,417.8H165.7c-5.6,0-10.2-4.8-10.2-10.6s4.6-10.6,10.2-10.6h448.7c44.1,0,80-37.5,80-83.7
	s-35.9-83.7-80-83.7c-5.6,0-10.2-4.8-10.2-10.6s4.5-10.6,10.2-10.6c55.3,0,100.4,47.1,100.4,104.9S669.8,417.8,614.4,417.8
	L614.4,417.8z"/>
<path class="st0" d="M404,323.5H75.5c-5.6,0-10.2-4.8-10.2-10.6s4.6-10.6,10.2-10.6H404c69,0,125.1-58.7,125.1-130.8
	S473,40.6,404,40.6S278.8,99.3,278.8,171.4c0,5.9-4.5,10.6-10.2,10.6s-10.2-4.8-10.2-10.6c0-83.8,65.2-152.1,145.5-152.1
	s145.5,68.2,145.5,152.1S484.2,323.5,404,323.5L404,323.5z"/>
<path class="st0" d="M494.2,700.6c-55.3,0-100.4-47.1-100.4-104.9c0-5.9,4.5-10.6,10.2-10.6s10.2,4.8,10.2,10.6
	c0,46.1,35.9,83.7,80,83.7s80-37.5,80-83.7s-35.9-83.7-80-83.7H15.4c-5.6,0-10.2-4.8-10.2-10.6s4.6-10.6,10.2-10.6h478.8
	c55.3,0,100.4,47.1,100.4,104.9S549.5,700.6,494.2,700.6L494.2,700.6z"/>
</svg>
