<?xml version="1.0" encoding="utf-8"?>
<!-- Generator: Adobe Illustrator 27.3.1, SVG Export Plug-In . SVG Version: 6.00 Build 0)  -->
<svg version="1.1" id="Layer_1" xmlns="http://www.w3.org/2000/svg" xmlns:xlink="http://www.w3.org/1999/xlink" x="0px" y="0px"
	 viewBox="0 0 720 720" style="enable-background:new 0 0 720 720;" xml:space="preserve">
<style type="text/css">
	.st0{fill:#FFFFFF;}
</style>
<path class="st0" d="M707.3,530.7c-4.9,0-8.9,4-8.9,8.9c0,33.1-26.9,60-60,60s-60-26.9-60-60c0-4.9-4-8.9-8.9-8.9s-8.9,4-8.9,8.9
	c0,33.1-26.9,60-60,60s-60-26.9-60-60c0-4.9-4-8.9-8.9-8.9c-0.6,0-1.1,0.1-1.7,0.2c-0.5-0.1-1.1-0.2-1.7-0.2c-4.9,0-8.9,4-8.9,8.9
	c0,27.1-18.1,50.1-42.8,57.5V480.4h320.3c8.6,0,15.5-6.9,15.5-15.5s-6.9-15.5-15.5-15.5h-7V342.7c1,0,1.6,0,1.8,0
	c5.5-0.2,9.8-4.8,9.6-10.4c-0.2-5.5-4.8-9.8-10.3-9.6c-14.3,0.5-54-2.9-101.2-19.2c-26.6-9.2-52.7-21.3-77.8-36.2
	c-1.2-1.2-2.6-2-4.2-2.5c-6.1-3.7-12.2-7.6-18.3-11.7c-16.3-11-32.1-23.1-47.5-36.4c-0.7-0.9-1.6-1.6-2.5-2.2
	C418.2,195.8,398,174.9,379,152c-0.7-0.9-1.5-1.6-2.4-2.1v-33.8c0-10.5-8.5-19-19-19s-19,8.5-19,19v34.2c-1.3,0.6-2.5,1.5-3.5,2.7
	c-18.2,21.9-37.5,42-57.8,60c-2.1,0.9-3.9,2.4-5,4.4c-15.4,13.3-31.3,25.5-47.7,36.5c-32,21.4-65.8,38.2-100.6,50
	C76.4,320,36.6,323.2,22.1,322.6c-5.5-0.2-10.2,4-10.4,9.6c-0.2,5.5,4.1,10.2,9.6,10.4c0.3,0,1.4,0.1,3.4,0.1c1.6,0,3.8,0,6.4-0.1
	v106.8H20.3c-8.6,0-15.5,6.9-15.5,15.5s6.9,15.5,15.5,15.5h318.3v115.5c-22.9-8.5-39.2-30.5-39.2-56.3c0-4.9-4-8.9-8.9-8.9
	c0,0-0.1,0-0.1,0c0,0-0.1,0-0.1,0c-4.9,0-8.9,4-8.9,8.9c0,33.1-26.9,60-60,60s-60-26.9-60-60c0-4.9-4-8.9-8.9-8.9
	c-0.3,0-0.6,0-0.9,0c-0.3,0-0.6,0-0.9,0c-4.9,0-8.9,4-8.9,8.9c0,33.1-26.9,60-60,60s-60-26.9-60-60c0-4.9-4-8.9-8.9-8.9
	s-8.9,4-8.9,8.9c0,42.9,34.9,77.8,77.8,77.8c30.6,0,57.2-17.8,69.9-43.6c12.7,25.8,39.2,43.6,69.9,43.6s56-17.1,69-42
	c9.9,18.9,27.3,33.3,48.3,39.1v6.1c0,10.5,8.5,19,19,19s19-8.5,19-19v-5.2c23.7-5.4,43.3-21.6,53.4-43.2
	c12.4,26.6,39.4,45.1,70.6,45.1s55.9-17,68.9-41.8c13,24.8,39,41.8,68.9,41.8c42.9,0,77.8-34.9,77.8-77.8
	C716.2,534.7,712.2,530.7,707.3,530.7L707.3,530.7z M514.9,449.4V291.9c13.1,7.2,26.4,13.7,40,19.4v138H514.9z M634.8,449.4V336.5
	c14,2.8,25.9,4.4,35.1,5.2v107.7H634.8z M614.8,331.9v117.5h-40V319.3c3.1,1.1,6.2,2.3,9.4,3.4C595,326.4,605.3,329.4,614.8,331.9z
	 M494.9,280.3v169.1h-50.6V244.6c11.3,9.1,22.9,17.6,34.6,25.5C484.2,273.6,489.5,277,494.9,280.3L494.9,280.3z M424.3,227.7v221.7
	h-47.7V179.9C391.8,197.1,407.7,213,424.3,227.7L424.3,227.7z M270.9,244.6v204.8H231V273.6c1.3-0.9,2.7-1.7,4-2.6
	C247.2,262.8,259.2,254,270.9,244.6z M211,449.4H171V306.6c13.5-6.2,26.9-13.1,39.9-20.7V449.4z M129.3,323.2
	c7.3-2.5,14.5-5.1,21.7-8v134.2h-49.4V332.7c0-0.4,0-0.8-0.1-1.2C110.3,329.2,119.6,326.5,129.3,323.2L129.3,323.2z M51.1,341
	c8.6-1,18.9-2.5,30.5-4.9v113.3H51.1V341z M290.9,449.4V227.6c16.5-14.7,32.5-30.8,47.7-48v269.8H290.9z"/>
<path class="st0" d="M171,249.6c0-35.6-7.6-43.2-43.2-43.2c35.6,0,43.2-7.6,43.2-43.2c0,35.6,7.6,43.2,43.2,43.2
	C178.6,206.4,171,214,171,249.6z"/>
<path class="st0" d="M101.5,329.1c0-35.5-7.6-43.2-43.2-43.2c35.5,0,43.2-7.6,43.2-43.2c0,35.6,7.6,43.2,43.2,43.2
	C109.2,285.9,101.5,293.5,101.5,329.1L101.5,329.1z"/>
<path class="st0" d="M561.7,286.6c0-42.5-9.1-51.6-51.6-51.6c42.5,0,51.6-9.1,51.6-51.6c0,42.5,9.1,51.6,51.6,51.6
	C570.8,235.1,561.7,244.2,561.7,286.6z"/>
</svg>
