<?xml version="1.0" encoding="utf-8"?>
<!-- Generator: Adobe Illustrator 27.3.1, SVG Export Plug-In . SVG Version: 6.00 Build 0)  -->
<svg version="1.1" id="Layer_1" xmlns="http://www.w3.org/2000/svg" xmlns:xlink="http://www.w3.org/1999/xlink" x="0px" y="0px"
	 viewBox="0 0 720 720" style="enable-background:new 0 0 720 720;" xml:space="preserve">
<style type="text/css">
	.st0{fill:#FFFFFF;}
</style>
<path class="st0" d="M360,710c-0.3,0-0.6,0-0.9,0l-0.1,0c-0.2,0-0.5-0.1-0.7-0.1c0,0-0.1,0-0.1,0c-0.3-0.1-0.5-0.1-0.7-0.2l-0.1,0
	c-0.3-0.1-0.5-0.2-0.7-0.3l-160.1-72.8c-2.9-1.3-4.8-4.2-4.8-7.4v-43.6c0-4.5,3.7-8.2,8.2-8.2s8.2,3.7,8.2,8.2v38.4l143.7,65.3
	V556.3l-60.4,36.2c-1.3,0.8-2.7,1.2-4.2,1.2c-1.2,0-2.3-0.2-3.4-0.7l-160-72.7c-2.9-1.3-4.8-4.2-4.8-7.4v-14.5c0-2.9,1.5-5.5,4-7
	l61.1-36.6L123,417.9c-2.4-1.5-4-4.1-4-7v-14.5c0-3.2,1.9-6.1,4.8-7.4l145.5-66.1c1.1-0.5,2.2-0.7,3.4-0.7c3.2,0,6.1,1.9,7.4,4.8
	c1.9,4.1,0,9-4.1,10.8l-140.7,64v4.7l65.1,39l83.4-37.9c1.1-0.5,2.2-0.7,3.4-0.7c3.2,0,6.1,1.9,7.4,4.8c1.9,4.1,0,9-4.1,10.8
	l-70.9,32.2L360,518.3l140.3-63.8l-70.9-32.2c-4.1-1.9-5.9-6.7-4.1-10.8c1.3-2.9,4.2-4.8,7.5-4.8c1.2,0,2.3,0.2,3.4,0.7l83.4,37.9
	l65.1-39v-4.7l-140.8-64c-4.1-1.9-5.9-6.7-4.1-10.8c1.3-2.9,4.2-4.8,7.5-4.8c1.2,0,2.3,0.2,3.4,0.7l145.5,66.1
	c2.9,1.3,4.8,4.2,4.8,7.4v14.5c0,2.9-1.5,5.5-4,7l-61.1,36.6l61.1,36.6c2.5,1.5,4,4.1,4,7v14.6c0,3.2-1.9,6.1-4.8,7.4l-160,72.7
	c-1.1,0.5-2.2,0.7-3.4,0.7c-1.5,0-2.9-0.4-4.2-1.2l-60.4-36.2v132.9l143.7-65.3v-38.4c0-4.5,3.7-8.2,8.2-8.2s8.2,3.7,8.2,8.2v43.6
	c0,3.2-1.9,6.1-4.8,7.4l-160,72.7c-0.3,0.1-0.5,0.2-0.7,0.3l-0.2,0.1c-0.2,0.1-0.5,0.1-0.7,0.2l-0.1,0c-0.2,0-0.5,0.1-0.7,0.1
	l-0.1,0C360.6,710,360.3,710,360,710L360,710z M286.7,576.3l65.1-39v-4.7l-151.3-68.8l-65.1,39v4.7L286.7,576.3L286.7,576.3z
	 M433.3,576.3l151.3-68.8v-4.7l-65.1-39l-151.3,68.8v4.7L433.3,576.3L433.3,576.3z"/>
<path class="st0" d="M447.2,322.4c1.1,0,2.2,0.2,3.2,0.7L596,389.3c2.8,1.3,4.6,4,4.6,7.1v14.5c0,2.7-1.4,5.3-3.8,6.7l-61.6,37
	l61.6,37c2.3,1.4,3.8,3.9,3.8,6.7v14.6c0,3-1.8,5.8-4.6,7.1l-160,72.7c-1,0.5-2.1,0.7-3.2,0.7c-1.4,0-2.8-0.4-4-1.1l-60.9-36.6
	v134.2l144.4-65.7v-38.6c0-4.3,3.5-7.8,7.8-7.8s7.8,3.5,7.8,7.8v43.6c0,3-1.8,5.8-4.6,7.1l-160,72.7c0,0,0,0-0.1,0
	c-0.2,0.1-0.4,0.2-0.6,0.2c-0.1,0-0.1,0-0.2,0.1c-0.2,0.1-0.4,0.1-0.6,0.2c0,0-0.1,0-0.1,0c-0.2,0-0.5,0.1-0.7,0.1c0,0-0.1,0-0.1,0
	c-0.3,0-0.5,0-0.8,0s-0.5,0-0.8,0c0,0-0.1,0-0.1,0c-0.2,0-0.5-0.1-0.7-0.1c0,0-0.1,0-0.1,0c-0.2,0-0.4-0.1-0.6-0.2
	c-0.1,0-0.1,0-0.2-0.1c-0.2-0.1-0.4-0.1-0.6-0.2c0,0,0,0-0.1,0l-160-72.7c-2.8-1.3-4.6-4-4.6-7.1v-43.6c0-4.3,3.5-7.8,7.8-7.8
	s7.8,3.5,7.8,7.8v38.6l144.4,65.7V555.6l-60.9,36.6c-1.2,0.7-2.6,1.1-4,1.1c-1.1,0-2.2-0.2-3.2-0.7l-160-72.7
	c-2.8-1.3-4.6-4-4.6-7.1v-14.5c0-2.7,1.4-5.3,3.8-6.7l61.6-37l-61.6-37c-2.3-1.4-3.8-3.9-3.8-6.7v-14.5c0-3,1.8-5.8,4.6-7.1
	l145.5-66.1c1-0.5,2.1-0.7,3.2-0.7c3,0,5.8,1.7,7.1,4.6c1.8,3.9,0,8.5-3.9,10.3L135,401.4v5.1l65.4,39.3l83.6-38
	c1-0.5,2.1-0.7,3.2-0.7c3,0,5.8,1.7,7.1,4.6c1.8,3.9,0,8.5-3.9,10.3l-71.7,32.6L360,518.7l141.2-64.2L429.5,422
	c-3.9-1.8-5.6-6.4-3.9-10.3c1.3-2.9,4.1-4.6,7.1-4.6c1.1,0,2.2,0.2,3.2,0.7l83.5,38l65.5-39.3v-5.1l-141-64.1
	c-3.9-1.8-5.6-6.4-3.9-10.3C441.4,324.1,444.3,322.4,447.2,322.4 M433.2,576.7l151.7-69v-5.1l-65.5-39.3l-151.7,69v5.1L433.2,576.7
	 M286.8,576.7l65.4-39.3v-5.1l-151.7-69L135,502.6v5.1L286.8,576.7 M447.2,321.7c-3.4,0-6.4,2-7.8,5c-2,4.3,0,9.4,4.2,11.3
	l140.5,63.9v4.2l-64.7,38.8l-83.2-37.8c-1.1-0.5-2.3-0.8-3.5-0.8c-3.4,0-6.4,2-7.8,5c-2,4.3,0,9.4,4.2,11.3l70.1,31.9L360,517.9
	l-139.3-63.3l70.1-31.9c4.3-2,6.2-7,4.2-11.3c-1.4-3-4.4-5-7.8-5c-1.2,0-2.4,0.3-3.5,0.8l-83.2,37.8l-64.7-38.8v-4.2L276.3,338
	c4.3-2,6.2-7,4.2-11.3c-1.4-3-4.4-5-7.8-5c-1.2,0-2.4,0.3-3.5,0.8l-145.5,66.1c-3.1,1.4-5,4.4-5,7.8v14.5c0,3,1.6,5.8,4.2,7.3
	l60.5,36.3l-60.5,36.3c-2.6,1.5-4.2,4.4-4.2,7.3v14.5c0,3.3,2,6.4,5,7.8l160,72.7c1.1,0.5,2.3,0.8,3.5,0.8c1.5,0,3.1-0.4,4.4-1.2
	l59.8-35.9v131.6l-142.9-65v-38.1c0-4.7-3.8-8.6-8.6-8.6s-8.6,3.8-8.6,8.6v43.6c0,3.3,2,6.4,5,7.8l160,72.7c0,0,0.1,0,0.1,0
	c0.2,0.1,0.4,0.2,0.6,0.2l0.1,0c0,0,0.1,0,0.1,0c0.2,0.1,0.5,0.1,0.7,0.2c0.1,0,0.1,0,0.1,0c0.2,0,0.5,0.1,0.8,0.1c0,0,0.1,0,0.1,0
	c0.3,0,0.6,0,0.9,0s0.6,0,0.9,0c0,0,0.1,0,0.1,0c0.3,0,0.5-0.1,0.8-0.1c0,0,0.1,0,0.1,0c0.3-0.1,0.5-0.1,0.7-0.2c0,0,0.1,0,0.1,0
	l0.1,0c0.2-0.1,0.4-0.2,0.6-0.2c0,0,0,0,0.1,0l160-72.7c3-1.4,5-4.4,5-7.8v-43.6c0-4.7-3.8-8.6-8.6-8.6s-8.6,3.8-8.6,8.6v38.1
	l-142.9,65V556.9l59.8,35.9c1.3,0.8,2.9,1.2,4.4,1.2c1.2,0,2.4-0.3,3.5-0.8l160-72.7c3-1.4,5-4.4,5-7.8v-14.5c0-3-1.6-5.8-4.2-7.3
	l-60.5-36.3l60.5-36.3c2.6-1.5,4.2-4.4,4.2-7.3v-14.5c0-3.4-2-6.4-5-7.8l-145.5-66.1C449.6,321.9,448.4,321.6,447.2,321.7
	L447.2,321.7L447.2,321.7z M368.6,532.8l150.9-68.6l64.7,38.8v4.2l-150.9,68.6L368.6,537L368.6,532.8L368.6,532.8L368.6,532.8z
	 M135.8,503l64.7-38.8l150.9,68.6v4.2l-64.7,38.8l-150.9-68.6L135.8,503L135.8,503L135.8,503z"/>
<path class="st0" d="M330.9,419.1c-2.2,0-4.2-0.9-5.8-2.4l-14.5-14.5c-1.5-1.5-2.4-3.6-2.4-5.8v-60.6c0-13.5-4.8-25.4-14-34.5
	c-20.5-20.3-29.6-40.3-29.6-64.9s9.9-48.8,27.9-67c18.2-18.4,42.2-28.5,67.5-28.5s49.4,10.1,67.5,28.5c18,18.2,27.9,42,27.9,67
	s-9.1,44.6-29.6,64.9c-9.2,9.1-14,21-14,34.5v60.6c0,2.2-0.9,4.2-2.4,5.8l-14.5,14.5c-1.5,1.5-3.6,2.4-5.8,2.4H330.9L330.9,419.1z
	 M395.5,344.5v-8.8c0-17.9,6.5-33.9,18.8-46.1c17.4-17.2,24.8-33.2,24.8-53.3s-8.2-40.4-23.2-55.5c-15.1-15.2-34.9-23.6-55.9-23.6
	s-40.8,8.4-55.9,23.6c-15,15.1-23.2,34.8-23.2,55.5s7.4,36,24.8,53.3c12.3,12.2,18.8,28.2,18.8,46.1v8.8H395.5L395.5,344.5z"/>
<path class="st0" d="M360,141.3c25.3,0,49.1,10.1,67.3,28.4c17.9,18.1,27.8,41.8,27.8,66.7s-9.1,44.4-29.5,64.6
	c-9.2,9.2-14.1,21.2-14.1,34.8v60.6c0,2.1-0.8,4-2.3,5.5l-14.5,14.5c-1.5,1.5-3.4,2.3-5.5,2.3h-58.2c-2.1,0-4-0.8-5.5-2.3
	l-14.5-14.5c-1.5-1.5-2.3-3.4-2.3-5.5v-60.6c0-13.6-4.9-25.6-14.1-34.8c-20.4-20.2-29.5-40.2-29.5-64.6s9.9-48.6,27.8-66.7
	C310.9,151.3,334.8,141.3,360,141.3 M324.2,344.9h71.7v-9.2c0-17.8,6.5-33.7,18.7-45.8c17.5-17.3,24.9-33.3,24.9-53.6
	s-8.3-40.6-23.3-55.7c-15.2-15.3-35.1-23.8-56.2-23.8s-41,8.4-56.2,23.8c-15,15.2-23.3,35-23.3,55.7s7.5,36.2,24.9,53.6
	c12.2,12.1,18.7,28,18.7,45.8L324.2,344.9 M360,140.5c-25.5,0-49.5,10.2-67.8,28.6c-18.1,18.3-28,42.2-28,67.2s9.2,44.8,29.8,65.2
	c9.1,9,13.9,20.9,13.9,34.2v60.6c0,2.3,0.9,4.4,2.5,6l14.5,14.5c1.6,1.6,3.8,2.5,6,2.5h58.2c2.3,0,4.4-0.9,6-2.5l14.5-14.5
	c1.6-1.6,2.5-3.8,2.5-6v-60.6c0-13.4,4.8-25.2,13.9-34.2c20.6-20.4,29.8-40.5,29.8-65.2s-10-49-28-67.2
	C409.6,150.7,385.5,140.5,360,140.5L360,140.5L360,140.5z M324.9,344.1v-8.4c0-18-6.5-34.1-19-46.4c-17.3-17.2-24.7-33-24.7-53
	s8.2-40.2,23.1-55.2c15-15.2,34.8-23.5,55.6-23.5s40.6,8.4,55.6,23.5c14.9,15.1,23.1,34.6,23.1,55.2s-7.4,35.9-24.7,53
	c-12.4,12.3-19,28.3-19,46.4v8.4H324.9L324.9,344.1z"/>
<path class="st0" d="M360,113.6c-4.5,0-8.2-3.7-8.2-8.2V18.1c0-4.5,3.7-8.2,8.2-8.2s8.2,3.7,8.2,8.2v87.3
	C368.2,109.9,364.5,113.6,360,113.6z"/>
<path class="st0" d="M360,10.4c4.3,0,7.8,3.5,7.8,7.8v87.3c0,4.3-3.5,7.8-7.8,7.8s-7.8-3.5-7.8-7.8V18.1
	C352.2,13.8,355.7,10.3,360,10.4 M360,9.6c-4.7,0-8.6,3.8-8.6,8.6v87.3c0,4.7,3.8,8.6,8.6,8.6s8.6-3.8,8.6-8.6V18.1
	C368.6,13.4,364.7,9.6,360,9.6C360,9.6,360,9.6,360,9.6z"/>
<path class="st0" d="M294.5,131.1c-2.9,0-5.6-1.6-7.1-4.1l-43.6-75.6c-2.2-3.9-0.9-8.9,3-11.2c1.2-0.7,2.6-1.1,4.1-1.1
	c2.9,0,5.6,1.6,7.1,4.1l43.6,75.6c2.2,3.9,0.9,8.9-3,11.2C297.4,130.8,296,131.1,294.5,131.1L294.5,131.1z"/>
<path class="st0" d="M250.9,39.6c2.7,0,5.3,1.4,6.8,3.9l43.6,75.6c2.1,3.7,0.9,8.5-2.9,10.6c-1.2,0.7-2.6,1-3.9,1
	c-2.7,0-5.3-1.4-6.8-3.9l-43.6-75.6c-2.1-3.7-0.9-8.5,2.9-10.6C248.2,39.9,249.6,39.6,250.9,39.6 M250.9,38.8c-1.5,0-3,0.4-4.3,1.2
	c-4.1,2.4-5.5,7.6-3.1,11.7l43.6,75.6c1.5,2.6,4.4,4.3,7.4,4.3c1.5,0,3-0.4,4.3-1.1c4.1-2.4,5.5-7.6,3.1-11.7l-43.6-75.6
	C256.8,40.5,253.9,38.8,250.9,38.8L250.9,38.8L250.9,38.8z"/>
<path class="st0" d="M246.6,179.1c-1.4,0-2.8-0.4-4.1-1.1l-75.6-43.6c-1.9-1.1-3.2-2.9-3.8-5c-0.6-2.1-0.3-4.3,0.8-6.2
	c1.5-2.5,4.2-4.1,7.1-4.1c1.4,0,2.8,0.4,4.1,1.1l75.6,43.6c3.9,2.2,5.2,7.3,3,11.2C252.2,177.5,249.5,179.1,246.6,179.1L246.6,179.1
	z"/>
<path class="st0" d="M171,119.4c1.3,0,2.7,0.3,3.9,1l75.6,43.6c3.7,2.1,5,6.9,2.9,10.6c-1.4,2.5-4.1,3.9-6.8,3.9
	c-1.3,0-2.7-0.3-3.9-1L167.1,134c-3.7-2.1-5-6.9-2.9-10.6C165.7,120.9,168.3,119.5,171,119.4 M171,118.7c-3.1,0-5.9,1.6-7.4,4.3
	c-2.4,4.1-0.9,9.3,3.1,11.7l75.6,43.6c1.3,0.8,2.8,1.1,4.3,1.1c3.1,0,5.9-1.6,7.4-4.3c2.4-4.1,0.9-9.3-3.1-11.7l-75.6-43.6
	C174,119.1,172.5,118.7,171,118.7C171,118.7,171,118.7,171,118.7z"/>
<path class="st0" d="M141.8,244.5c-4.5,0-8.2-3.7-8.2-8.2s3.7-8.2,8.2-8.2h87.3c4.5,0,8.2,3.7,8.2,8.2s-3.7,8.2-8.2,8.2H141.8z"/>
<path class="st0" d="M229.1,228.6c4.3,0,7.8,3.5,7.8,7.8s-3.5,7.8-7.8,7.8h-87.3c-4.3,0-7.8-3.5-7.8-7.8s3.5-7.8,7.8-7.8H229.1
	 M229.1,227.8h-87.3c-4.7,0-8.6,3.8-8.6,8.6s3.8,8.6,8.6,8.6h87.3c4.7,0,8.6-3.8,8.6-8.6S233.8,227.8,229.1,227.8L229.1,227.8z"/>
<path class="st0" d="M425.5,131.1c-1.4,0-2.8-0.4-4.1-1.1c-3.9-2.2-5.2-7.3-3-11.2L462,43.3c1.5-2.5,4.2-4.1,7.1-4.1
	c1.4,0,2.8,0.4,4.1,1.1c3.9,2.2,5.2,7.3,3,11.2L432.5,127C431.1,129.6,428.4,131.1,425.5,131.1L425.5,131.1z"/>
<path class="st0" d="M469.1,39.6c1.3,0,2.7,0.3,3.9,1c3.7,2.2,5,6.9,2.9,10.6l-43.6,75.6c-1.4,2.5-4.1,3.9-6.8,3.9
	c-1.3,0-2.7-0.3-3.9-1c-3.7-2.2-5-6.9-2.9-10.6l43.6-75.6C463.8,41,466.4,39.6,469.1,39.6 M469.1,38.8c-3,0-5.9,1.6-7.4,4.3
	L418,118.7c-2.4,4.1-1,9.3,3.1,11.7c1.3,0.8,2.8,1.1,4.3,1.1c3,0,5.9-1.6,7.4-4.3l43.6-75.6c2.4-4.1,1-9.3-3.1-11.7
	C472.1,39.2,470.6,38.8,469.1,38.8L469.1,38.8L469.1,38.8z"/>
<path class="st0" d="M473.4,179.1c-2.9,0-5.6-1.6-7.1-4.1c-2.2-3.9-0.9-8.9,3-11.2l75.6-43.6c1.2-0.7,2.7-1.1,4.1-1.1
	c2.9,0,5.6,1.6,7.1,4.1c2.2,3.9,0.9,8.9-3,11.2L477.5,178C476.2,178.7,474.8,179.1,473.4,179.1L473.4,179.1z"/>
<path class="st0" d="M549,119.4c2.7,0,5.3,1.4,6.8,3.9c2.2,3.7,0.9,8.5-2.8,10.6l-75.6,43.6c-1.2,0.7-2.6,1-3.9,1
	c-2.7,0-5.3-1.4-6.8-3.9c-2.1-3.7-0.9-8.5,2.9-10.6l75.6-43.6C546.3,119.8,547.6,119.4,549,119.4 M549,118.7c-1.5,0-3,0.4-4.3,1.2
	l-75.6,43.6c-4.1,2.4-5.5,7.6-3.1,11.7c1.5,2.6,4.4,4.3,7.4,4.3c1.5,0,3-0.4,4.3-1.1l75.6-43.6c4.1-2.4,5.5-7.6,3.1-11.7
	C554.9,120.3,552,118.7,549,118.7C549,118.7,549,118.7,549,118.7z"/>
<path class="st0" d="M490.9,244.5c-4.5,0-8.2-3.7-8.2-8.2s3.7-8.2,8.2-8.2h87.3c4.5,0,8.2,3.7,8.2,8.2s-3.7,8.2-8.2,8.2H490.9
	L490.9,244.5z"/>
<path class="st0" d="M578.2,228.6c4.3,0,7.8,3.5,7.8,7.8s-3.5,7.8-7.8,7.8h-87.3c-4.3,0-7.8-3.5-7.8-7.8s3.5-7.8,7.8-7.8H578.2
	 M578.2,227.8h-87.3c-4.7,0-8.6,3.8-8.6,8.6s3.8,8.6,8.6,8.6h87.3c4.7,0,8.6-3.8,8.6-8.6S582.9,227.8,578.2,227.8L578.2,227.8z"/>
</svg>
