<?xml version="1.0" encoding="utf-8"?>
<!-- Generator: Adobe Illustrator 27.3.1, SVG Export Plug-In . SVG Version: 6.00 Build 0)  -->
<svg version="1.1" id="Layer_1" xmlns="http://www.w3.org/2000/svg" xmlns:xlink="http://www.w3.org/1999/xlink" x="0px" y="0px"
	 viewBox="0 0 720 720" style="enable-background:new 0 0 720 720;" xml:space="preserve">
<style type="text/css">
	.st0{fill:#FFFFFF;stroke:#FFFFFF;stroke-width:6;stroke-linecap:round;stroke-linejoin:round;}
</style>
<path class="st0" d="M693.4,467.5H674L634.2,300c6-4.3,11.1-10,14.7-16.7h32.5c5,0,9.1-4.1,9.1-9.1v-28.8c0-5-4.1-9.1-9.1-9.1h-34
	c-2.2-3.7-4.9-7-8-9.9c-8.5-9.2-20.2-14.6-32.7-14.6s-24.2,5.3-32.7,14.5c-3.1,2.9-5.8,6.2-8,9.9h-73.1c0.2-1,0.3-1.9,0.4-2.9
	c0-0.1,0-0.1,0-0.2l3.9-63.5c0.7-9.4-2.4-18.6-8.4-25.4c-5.6-6.2-13-9.9-21-10.1c-0.1,0-0.2,0-0.3,0h0c-7.3,0-13.6,2.4-18.6,7.1
	c-4.9,4.6-8.2,10.9-9.3,18.1l0.2-8.2c0-0.7,0.1-3.3,0.1-4.2l0,0c0.3-9.2-3.4-18.3-10.1-24.9c-5.9-5.8-13.8-9.1-21.6-9.1
	c-0.4,0-0.8,0-1.1,0.1l-2.8,0.3c-7.5,0.6-13.6,3.5-18.1,8.7c-2.6,2.9-4.5,6.5-5.9,10.4c-1.2-5.8-4.8-11.4-10.3-15.9
	c-6.6-5.4-15.3-8.7-23.3-8.7l0,0c-1.3,0-2.6,0.1-3.9,0.3l-5.5,0.8c-12.5,1.8-22,12.1-23.9,24.9c-1.8-5.4-5-10.2-9.2-13.6
	c-5-4-10.9-6.1-17.1-6.1c-1,0-2.1,0.1-3.1,0.2c0,0,0,0-0.1,0l-2.6,0.3c-15.2,1.8-26.1,15.9-24.8,32.1v0.1l3.7,40.8
	c0.1,1.1,0.4,2.2,0.9,3.1c-4,3.3-7,9-10.2,16.8c-3.4,8.3-7.2,18.5-10.8,29h-86.1c-2.2-3.7-5-7-8-9.9c-8.5-9.2-20.2-14.5-32.7-14.5
	s-24.2,5.4-32.7,14.6c-3.1,2.9-5.8,6.2-8,9.9h-34c-5,0-9.1,4.1-9.1,9.1v28.8c0,5,4.1,9.1,9.1,9.1H71c3.6,6.7,8.6,12.4,14.7,16.7
	L45.9,467.4H26.4c-5,0-9.1,4.1-9.1,9.1c0,51.8,43,93.9,95.8,93.9s95.8-42.1,95.8-93.9c0-5-4.1-9.1-9.1-9.1h-18.7l-39.9-167.9
	c5.8-4.2,10.6-9.7,14.1-16.2h72c-0.6,4.4-0.6,7.7-0.1,10c3,13.3,21.6,44.8,42,78.6l0.1,0.2c10.3,17.1,19.2,31.9,21.4,37.6
	c7.1,18.9,6.9,128.5,6.1,209.3c0,2.5,2,4.5,4.5,4.6h0c2.5,0,4.5-2,4.5-4.5c1.3-133.2-0.7-196.8-6.7-212.6
	c-2.3-6.2-9.6-18.3-22.1-39.1l-0.1-0.2c-14.2-23.5-37.9-63-40.9-76c-0.2-0.9-0.5-3.7,1.1-11.7c0.3-1.3-0.1-2.7-0.9-3.7
	c-0.9-1-2.1-1.6-3.5-1.6h-79.1c-2.1-0.8-4.4-0.1-5.8,1.5c-0.3,0.4-0.6,0.8-0.8,1.2c-0.1,0.2-0.2,0.5-0.3,0.7
	c-6.3,12.6-19.3,20.8-33.5,20.8s-27.3-8.2-33.6-21c-0.1-0.2-0.2-0.3-0.2-0.5c-0.1-0.3-0.3-0.6-0.5-0.9c0-0.1-0.1-0.1-0.1-0.2
	c0,0,0,0-0.1-0.1c-1.4-1.7-3.7-2.4-5.9-1.6l-34.3,0l0-28.8h35.3c0.7,0.3,1.4,0.5,2.1,0.5c1.8,0,3.6-1,4.5-2.7
	c6.6-12,19.2-19.5,32.8-19.5s26.3,7.5,32.8,19.5c1.3,2.4,4.2,3.3,6.7,2.2h90.7c1.9,0,3.7-1.2,4.3-3.1c3.8-11.3,7.9-22.5,11.6-31.5
	c4.8-11.5,7.5-14.1,10.2-14.4l91.8-9.1c0.7,0,1.3,0,1.9,0c0.6,0,1.2,0,1.8,0c0,0,0.1,0,0.1,0c4.3,0.7,8.3,4.5,9.8,9.6l3,16.5l0,2.5
	c-0.5,5.6-3.8,10.5-8.7,12.5c-0.2,0.1-0.4,0.1-0.5,0.2c-10.1,5.7-32.1,11.4-36.5,12c-2.9-1-14.3-7.1-28-16.2c-3.9-2.6-9-2.9-13-0.6
	c-4.1,2.2-6.6,6.5-6.5,11.2l0.1,3.6c0.2,10.3,0.9,41.8,0.9,45.3c0,9.1,6.6,12.4,21.2,19.7c16.6,8.3,44.5,22.3,57,39.5
	c0.9,1.2,2.3,1.9,3.7,1.9c0.9,0,1.9-0.3,2.7-0.9c2-1.5,2.5-4.3,1-6.3c-13.9-19-42.9-33.5-60.3-42.2c-14.3-7.2-16.1-8.5-16.1-11.6
	c0,0,0-0.1,0-0.2h194.9c-2.8,29.8-6.9,54-10.6,62.4c-1.3,2.9-7.4,10.9-12.3,17.2l-0.2,0.3c-14.8,19.3-23.7,31.7-23.7,42.1
	c0,2-0.1,10.6-0.3,26.1c-0.6,52-1.3,113-2,186.5c0,2.5,2,4.5,4.5,4.6h0c2.5,0,4.5-2,4.5-4.5c0.7-73.5,1.4-134.5,2-186.5
	c0.2-15.5,0.3-24.1,0.3-26.2c0-7.5,9.1-19.9,21.8-36.5l0.3-0.3c7-9.2,11.7-15.5,13.3-19.1c6-13.4,10-49.7,11.5-66.1h1.3
	c0.7,0,1.4-0.2,2-0.4h62.7c3.4,6.5,8.3,12,14,16.2l-39.9,167.9h-18.7c-5,0-9.1,4.1-9.1,9.1c0,51.8,43,93.9,95.8,93.9
	s95.8-42.1,95.8-93.9C702.6,471.5,698.5,467.4,693.4,467.5L693.4,467.5z M93.8,304.6c0.1,0.1,0.2,0.1,0.4,0.2
	c0.5,0.6,1.1,1.1,1.8,1.4c5.6,2.4,11.3,3.6,17.1,3.6s11.6-1.2,17.1-3.6c0.7-0.3,1.3-0.8,1.8-1.4c0.4-0.1,0.7-0.3,1-0.5l38.7,163.1
	H55.2L93.8,304.6L93.8,304.6z M269.2,186.6l-3.6-40.8c-0.9-11.3,6.5-21.1,16.8-22.4l2.6-0.3c0.7-0.1,1.4-0.1,2.1-0.1
	c4.1,0,8.1,1.4,11.4,4.1c3.7,3,6.2,7.4,7.1,12.5l3.9,42.8L269.2,186.6L269.2,186.6z M371.5,179.4c-2.1-0.9-3.9-1.2-5.8-1.2
	c-1.4-0.2-2.8-0.2-4.2,0l-0.9,0.1c0,0-0.1,0-0.1,0c-0.6,0-1.2,0-1.8,0c-1-0.1-2.1-0.1-3.1-0.1c-5.9,0-11.9,0.7-17.8,1.4
	c-2.5,0.3-6,1.3-8.8,1.3c-0.6,0-1.1,0-1.6-0.1c-2.4-0.5-2.2-0.5-2-3.2l-3.2-37.3c-1-11.1,6.2-21,16.4-22.5l5.4-0.8
	c0.8-0.1,1.7-0.2,2.5-0.2c5.8,0,12.5,2.5,17.5,6.6c4.6,3.8,7.2,8.4,7.4,12.8c0,0,0.3,38.8,0.3,38.9
	C371.8,177.3,372.4,177.2,371.5,179.4L371.5,179.4z M446.3,228.3l1.6-63.9c0.2-6.8,2.7-12.6,6.9-16.6c3.2-3,7.3-4.6,12.4-4.6h0
	c5.5,0.2,10.7,2.7,14.6,7.1c4.5,5,6.7,11.8,6.1,18.8l-3.9,63.6c-0.5,6-3.1,11.3-7.4,14.8c-3.3,2.7-7.2,4.1-11.3,4.1
	c-0.6,0-1.3,0-1.9-0.1C453.3,250.4,445.9,240.5,446.3,228.3L446.3,228.3z M438,236.6h-5.9c2.7-3.7,4.5-8,5.3-12.5l-0.1,4
	C437.2,231,437.4,233.8,438,236.6L438,236.6z M386.8,216.1c0.1-0.9,0.1-1.8,0-2.8l0.5-67.2c-0.5-7.1,1.5-13.8,5.4-18.2
	c3-3.4,7-5.3,12.2-5.6l3-0.4c5.4,0,11,2.4,15.2,6.5c4.9,4.8,7.6,11.4,7.4,18.1c0,0-0.1,3.4-0.1,4.2l-1.8,68.9
	c-0.4,11-9.3,20-19.9,20.1l-1.9,0c-10.5,0-19.4-9.1-20.2-20.3L386.8,216.1L386.8,216.1z M380.4,231.1c0.9,1.9,1.9,3.8,3.1,5.4h-10.8
	C375.7,235.3,378.3,233.4,380.4,231.1L380.4,231.1z M295.4,231.7c0,0,0.1,0,0.1-0.1c1-0.6,2.4-0.5,3.5,0.2c2.2,1.5,4.7,3.1,7.2,4.7
	h-12.6l0-1.8C293.6,233.5,294.3,232.3,295.4,231.7L295.4,231.7z M573.2,277.7c-0.1-0.2-0.2-0.5-0.3-0.7c-0.2-0.5-0.5-0.9-0.8-1.2
	c-1.4-1.7-3.7-2.4-5.8-1.5h-71.8c-0.4,0-0.9,0.1-1.3,0.2H294.6c0,0-0.1,0-0.2,0c-0.1-7.6-0.4-18.4-0.6-28.6h26.8
	c0.4,0,0.8-0.1,1.2-0.1c4,2.1,7.3,3.6,9.1,3.9c0.2,0,0.5,0.1,0.7,0.1c2.4,0,9.6-1.6,17.8-4c0.5,0.2,1,0.3,1.5,0.3h43.1
	c0.1,0,0.2,0,0.2,0c3.8,1.9,8.1,3,12.6,3c0.1,0,0.1,0,0.2,0l1.8,0c4.5-0.1,8.9-1.2,12.9-3.3c0.5,0.2,1.1,0.3,1.7,0.3h17.8
	c4.4,8.1,12.1,13.7,21.2,14.6c1,0.1,1.9,0.1,2.8,0.1c6.3,0,12.2-2.2,17.1-6.2c2.9-2.4,5.2-5.3,7-8.6h19.8c0.8,0,1.5-0.2,2.1-0.5
	h55.8c2.4,1.1,5.3,0.2,6.7-2.2c6.6-12,19.2-19.5,32.8-19.5s26.2,7.5,32.8,19.5c0.9,1.7,2.7,2.7,4.5,2.7c0.7,0,1.4-0.2,2.1-0.5
	l35.3,0l0,28.9h-34.3c-2.1-0.8-4.5-0.1-5.9,1.6c0,0,0,0-0.1,0.1c0,0.1-0.1,0.1-0.1,0.2c-0.2,0.3-0.4,0.6-0.5,0.9
	c-0.1,0.2-0.2,0.3-0.2,0.5c-6.2,12.8-19.3,21-33.6,21S579.5,290.3,573.2,277.7L573.2,277.7z M586.7,304.3c0.3,0.2,0.7,0.3,1,0.5
	c0.5,0.6,1.1,1.1,1.8,1.4c5.6,2.4,11.3,3.6,17.1,3.6s11.6-1.2,17.1-3.6c0.7-0.3,1.3-0.8,1.8-1.4c0.1,0,0.2-0.1,0.4-0.2l38.7,162.8
	H548L586.7,304.3L586.7,304.3z"/>
</svg>
