<?xml version="1.0" encoding="utf-8"?>
<!-- Generator: Adobe Illustrator 27.3.1, SVG Export Plug-In . SVG Version: 6.00 Build 0)  -->
<svg version="1.1" id="Layer_1" xmlns="http://www.w3.org/2000/svg" xmlns:xlink="http://www.w3.org/1999/xlink" x="0px" y="0px"
	 viewBox="0 0 720 720" style="enable-background:new 0 0 720 720;" xml:space="preserve">
<style type="text/css">
	.st0{fill:#FFFFFF;stroke:#FFFFFF;stroke-width:2.97;stroke-miterlimit:10;}
</style>
<path class="st0" d="M711,252.8c0-11.1-15-14-21.3-15.3l-280.4-57.9c-20.5-4-53.7-4-74.2,0L54.7,237.6c-6.4,1.3-21.4,4.2-21.4,15.3
	c0,0.1,0,0.3,0,0.4v0.1c0,0,0,0,0,0l2.1,40.6c0,0.3,0.2,0.6,0.2,1v90.2C20.4,388.8,9,402.4,9,418.7v60.2c0,9.2,3.6,17.9,10.2,24.5
	c6.6,6.5,15.2,10,24.4,10c19,0,34.6-15.5,34.6-34.5v-60.2c0-9.2-3.6-17.9-10.1-24.4c-4.3-4.3-9.6-7.2-15.5-8.8v-81.2l95.8,23v177.9
	c0,1.8,0.6,3.5,1.6,4.9c18.3,32.2,199.6,33.2,220.8,33.2s201.9-1,220.7-33c1-1.4,1.7-3.2,1.7-5V328.1l109.3-26.2
	c3.6-0.9,6.3-4,6.5-7.8l2.1-40.6v0c0,0,0-0.1,0-0.1c0-0.1,0-0.2,0-0.2C710.9,253,710.9,252.9,711,252.8L711,252.8L711,252.8z
	 M338.3,196.3c18.3-3.6,49.3-3.6,67.6,0L680,252.8l-274,56.6c-17.6,3.5-50.2,3.4-67.6,0L64.3,252.8L338.3,196.3L338.3,196.3z
	 M576.2,502.8c-9.5,9.8-86.5,23.6-205.4,23.6s-196.2-13.8-205.5-23.6V331.4L335,372.2c10,2,23.1,3,37.1,3s27.1-1.1,37.4-3.1
	l166.7-40V502.8z"/>
</svg>
