<?xml version="1.0" encoding="utf-8"?>
<!-- Generator: Adobe Illustrator 27.3.1, SVG Export Plug-In . SVG Version: 6.00 Build 0)  -->
<svg version="1.1" id="Layer_1" xmlns="http://www.w3.org/2000/svg" xmlns:xlink="http://www.w3.org/1999/xlink" x="0px" y="0px"
	 viewBox="0 0 720 720" style="enable-background:new 0 0 720 720;" xml:space="preserve">
<style type="text/css">
	.st0{fill:#FFFFFF;stroke:#FFFFFF;stroke-width:3.43;stroke-linecap:round;stroke-linejoin:round;}
	.st1{fill:#FFFFFF;}
</style>
<path class="st0" d="M548.7,269.3c11.1-7.8,18.2-16.6,21.8-27c7.9-22.9-4.7-55.5-26.2-69.9c17.5-14.4,27.7-36.7,26.4-58.2
	c-1.7-26.8-20.8-50.9-46.6-58.6c-19.8-5.9-42-1.4-58,11.3c-2.9-21.4-13.5-53.1-38.3-58.9c-23.4-5.5-53.3,11.7-68.7,32.2
	c-6.4-8.5-15.4-14.9-26.5-18.6c-18-6.1-39.3-4.6-56.8,4.1c-17.6,8.7-30.7,25.5-35.9,46.1c-3.3,13.2-0.6,23,2.1,32.6
	c0.8,2.8,1.5,5.4,2.1,8.1c-22-1.8-51.7-3.8-75.7,14.8c-20.7,16-29.1,46.5-19.9,72.4c6.8,19.3,22.8,36.1,43.3,45.8
	c-19.8,16.6-25.8,47.4-13.1,71.3c8.4,15.8,24.2,28.3,43.6,34.5c-1.2,2.2-2.2,4.8-3,7.6c-4.6,16.3-2.7,31.9,5.2,44
	c7.2,10.9,20,18.7,33.5,20.5c-4.6,17.5,3.1,38.5,11.7,51.8c0.3,0.4,0.6,0.8,0.8,1.1c0.1,0.2,0.3,0.4,0.4,0.5
	c3.3,4.8,7.9,9.7,13.2,14.2c0.5,0.4,0.9,0.8,1.3,1.2c1.2,1.1,2.4,2.2,4.1,3.2c2.9,1.8,5.9,3.5,8.9,5.1c10.9,5.8,21.7,10.2,32.1,13.2
	c11.4,3.2,23.5,6.4,36.2,7c1,0,2,0.1,3,0.1c1.7,0,3.5-0.1,5.2-0.2l6.8-0.9l5-0.9l-1,0c12.1-3,22.9-9.5,31.5-19
	c9.6-10.7,13.4-25.1,10.4-38.7c6.2,1.3,11.5,2.2,11.5,2.2c14.5,2,27,1.7,38.2-1.1c14-3.5,25.8-11.1,32.2-20.9
	c9.7-14.8,7-32,3.3-44.7c29.2-5.2,53.7-32.4,60-55.9C579.7,315.4,570.2,287.7,548.7,269.3L548.7,269.3z M510.9,215l7.4-6.4
	c0,0,1-0.9,2.6-2.4l0.1-0.1c0.3-0.4,0.7-0.8,1.2-1.2c1.4-1.4,3.2-3.2,4.8-5.7c0.3-0.4,0.6-0.9,0.9-1.3c2.1-3.1,3.8-6.6,5-10.1
	c0.7-1.6,1-3.4,1.4-5.1c13.8,8,23.9,27.6,23.8,44.4c0,3.9-0.6,7.6-1.8,11l0,0c-6.8,19.6-31.4,29.3-53.1,37.8l-2.2,0.9
	c-3.2,1.3-5,4.4-4.4,7.6c5.6,28.6,0.4,64.9-20.4,78.8c-17.8,11.9-49.8,8.5-73.2-1.8c2.3-1.2,4.5-2.5,6.4-4.2c0.5-0.5,1.1-1,1.6-1.5
	c2-1.7,4-3.5,5.6-5.5c1.8-2.4,3.4-4.6,4.9-6.7c2.3-3.2,3.5-6.2,4.6-8.7c0.4-0.9,0.7-1.6,1-2.3l7.3-18.4l-13.6,14.2
	c-1,0.9-1.9,2.1-2.9,3.2c-1.4,1.7-3,3.5-5,5.4c-1.7,1.6-3.6,3.3-5.4,5.2c-0.1,0.1-0.2,0.2-0.2,0.2c-0.1,0.1-0.2,0.2-0.3,0.2
	c-0.9,0.8-2,1.5-3.1,2.3c-1.1,0.8-2.2,1.5-3.3,2.4c-1,0.8-2.4,1.4-3.8,2.1c-1.1,0.5-2.3,1-3.5,1.7c-0.6,0.2-1.3,0.4-2.1,0.6
	c-0.6,0.1-1.2,0.3-1.9,0.5c-1.4,0.5-2.5,0.6-3.4,0.6h-0.1h-0.1c-0.6,0-1.3,0.1-1.9,0.1c-0.8,0.1-1.6,0.1-2.3,0.1l-4.3-0.5
	c-0.6-0.1-1.2-0.3-1.8-0.4c-2.3-0.5-4.4-1-6.3-1.9l-0.2-0.1c-0.7-0.3-1.3-0.5-2-0.8c-2-0.8-3.9-1.8-5.7-2.8
	c-1.7-0.9-3.3-1.9-4.8-2.8c-0.6-0.4-1.2-0.8-1.9-1.1c-8-5.4-13.1-9.8-13.2-9.8l-10.1-8.6l5.5,12c0.1,0.3,3,6.5,10.5,14.2l1,1
	c1.6,1.6,3.5,3.3,5.7,4.9c2.1,1.6,4.7,3.4,7.8,5c-4.1,0-7.9-0.1-11.6-0.7l-0.2,0c-3.6-0.3-7.2-1.2-10.7-2c-0.7-0.2-1.4-0.3-2.1-0.5
	c-3.6-1.1-7.8-2.3-11.2-3.5c-6.5-2.3-11.1-4.3-11.1-4.4l-9-4l5.3,8.3c0.1,0.2,3,4.6,9.3,9c3,2.3,7,4.5,11.9,6.6l0.2,0.1
	c0.7,0.2,1.3,0.5,2,0.7c1.7,0.6,3.5,1.3,5.4,1.7l0.4,0.1c2.4,0.6,5,1.2,7.5,1.5c2.8,0.4,5.6,0.5,8.2,0.5c2.1,0.1,4.1-0.1,5.9-0.3
	c0.7-0.1,1.4-0.2,2-0.2c0.5,0,0.9-0.1,1.3-0.1c-16.1,13.9-34.5,21.5-51.9,21c-12.6-0.2-25.9-5.6-35.6-14.5
	c-8.5-7.8-13.5-17.5-14.1-27.4c0.6,0,1.1,0,1.7-0.1c0.6,0,1.2-0.1,1.8-0.1h0.2c1.9-0.1,3.5-0.6,4.9-1c0.5-0.1,1-0.3,1.4-0.4
	c3-0.6,5.3-1.9,7-2.9c0.6-0.3,1.1-0.6,1.5-0.8l0.2-0.1c1.8-1,2.9-1.7,2.9-1.7l8.9-5.9l-13.9,0.6h0c-1,0-2,0.1-3,0.2
	c-1.5,0.2-3.1,0.4-4.9,0.2c-0.4,0-0.8,0-1.2,0c-0.4,0-0.8,0-1.2,0c-0.9,0-1.7,0-2.5,0c-0.8-0.2-1.5-0.3-2.2-0.4
	c-0.9-0.1-1.7-0.2-2.4-0.5c-1.3-0.5-2.6-0.9-3.4-1.6l-0.3-0.3l-0.4-0.2c-0.4-0.2-0.8-0.8-1.3-1.4c-0.3-0.3-0.5-0.7-0.8-1l-0.2-0.3
	c-0.7-1.1-1.3-2.2-1.6-3.3l-0.1-0.4c-0.4-0.9-0.6-1.9-0.9-3c-0.1-0.5-0.3-1-0.4-1.5c-0.7-3.7-1.1-6.8-1.4-9.3l-1.8-18l-4.6,6.5
	c-0.1,0.2-2.9,4.1-4.6,10.6c-1,3.4-1.5,7.4-1.4,11.6l0,0.4c0.1,0.6,0.1,1.1,0.2,1.7c0.1,1.5,0.2,3.2,0.9,5c0.5,1.9,1.3,3.8,2.3,5.6
	c-1.4-0.1-2.8-0.3-4.1-0.5c-0.4-0.1-0.8-0.1-1.2-0.1c-0.4,0-0.9-0.1-1.3-0.2c-3.7-0.7-7.2-1.6-10.7-2.8c-14.8-5.1-27-14.8-33.5-27.2
	c-5.8-10.9-6.7-24.2-2.4-36.5c3.3-9.6,9.4-17.4,17.1-21.8c0.2,0.6,0.5,1.1,0.8,1.7c0.2,0.6,0.5,1.1,0.7,1.7c0,0,0,0.1,0,0.1
	c0,0,0,0,0,0.1c1.9,4.2,4.4,8.3,7.6,12.5c1.1,1.6,2.3,3,3.4,4.2c1,1,1.9,2,2.8,2.8c0.7,0.6,1.2,1.2,1.7,1.7l13.9,12.9l-7.5-16.9
	c-0.5-1.1-1.1-2.4-1.8-3.7c-0.9-1.8-1.9-3.7-2.8-6c-0.8-2-1.7-4.2-2.8-6.5c-0.4-1-0.7-2.2-1.1-3.4c-0.4-1.2-0.7-2.5-1.2-3.7
	l-0.1-0.2c-0.5-1.1-0.6-2.4-0.9-3.8c-0.2-1.2-0.3-2.4-0.7-3.6c-0.4-1.3-0.4-2.7-0.4-4.2c0-1,0-2-0.1-3v-0.2c0.1-0.7,0.1-1.3,0.1-2
	c0.1-1.7,0.3-3.4,0.6-4.9c0.2-0.6,0.3-1.2,0.5-1.8c0.4-1.8,0.9-3.6,1.6-5.1l0.1-0.2c1.6-4,3.9-7.9,6.9-11.7
	c5.1-6.6,10.1-10.4,10.1-10.5l11.1-8.6l-13.7,3.4c-0.1,0-0.9,0.2-2.1,0.7c-2.8,1-7.9,3.3-13.5,7.9c-1.5,1.1-2.9,2.5-4.3,3.9
	c-0.5,0.5-0.9,0.9-1.4,1.4l-0.5,0.5l-0.2,0.3c-0.4,0.6-0.9,1.1-1.3,1.7c-1.3,1.7-2.8,3.6-3.9,5.9c-1.5,2.6-2.8,5.6-3.7,9.1
	c-0.4,1.4-0.7,2.9-0.9,4.4c-0.6-1.7-1-3.3-1.4-5l-0.1-0.3c-0.4-1.1-0.6-2.4-0.8-3.7c-0.1-0.4-0.1-0.9-0.2-1.3l0-0.2
	c-0.3-1.2-0.4-2.5-0.4-3.9c0-0.4-0.1-0.9-0.1-1.4c-0.4-3.6-0.2-7.3,0-11c0.2-3.3,0.6-6.4,0.9-9.2l2.8-19.4l-6.1,5.7
	c-0.2,0.1-3.9,3.6-7.1,10c-1.9,3.6-3.3,7.4-4.1,11.2c-0.1,0.5-0.2,1.1-0.4,1.6c-0.6,2.7-0.9,5.5-0.9,8.5c0,1.2,0,2.4,0.1,3.6v0.1
	c0.4,3.9,1.1,9,3.3,13.6c0,0.1,0.1,0.2,0.1,0.2c-12.7-8.2-22.3-19.7-26.8-32.7c-7.3-20.8-0.9-45,15.4-57.6
	c18.9-14.7,43.1-13.4,63.2-11.8c-0.3,1.2-0.5,2.3-0.7,3.2c-0.7,3.7-0.8,7.7-0.3,11.9c0.1,1.3,0.4,2.5,0.6,3.6c1,4.7,2.6,7.6,2.6,7.8
	l3.8,6.9l4-17.7c2.4-10.8,5.7-18.9,14.2-26c0.3-0.2,0.5-0.4,0.9-0.7c0.9-0.7,1.9-1.2,3-1.8l0.2-0.1c1.2-0.7,2.5-1.4,4-1.8
	c0.8-0.3,1.5-0.6,2.1-0.8c0.7-0.3,1.3-0.6,1.8-0.7l3.6-1l13.8-4.4l-10.8-2.4c0,0-1.3-0.3-3.5-0.6c-2.2-0.3-5.5-0.8-9.6-0.3
	c-2.5,0.1-4.7,0.6-6.7,1.3c-2,0.6-4.4,1.3-6.6,2.7c-0.4-1.5-0.8-2.9-1.1-4.2c-2.4-8.6-4.5-16.1-2-26c4.1-16.4,14.7-30.3,28.4-37
	c13.8-6.9,30.5-8.1,44.5-3.3c8.9,3,16,8.5,20.6,15.9c-1.5,0.5-2.8,1.1-4.1,1.7l-0.3,0.1c-0.6,0.3-1.2,0.6-1.8,0.9
	c-4,2.2-7.5,4.7-10.1,7.5c-0.1,0.1-0.2,0.2-0.3,0.3c-4.9,5-6.6,9.5-7,10.7c-0.1,0.2-0.1,0.3-0.1,0.3l-2.5,9.1l0,0l0,0l7.3-6
	c0,0,3.8-3.1,9.8-6.5c2.8-1.7,6.4-3.3,10.4-4.6c1.9-0.6,3.9-1.1,6-1.5l0.3-0.1c0.8-0.2,1.7-0.3,2.5-0.4c0.2,0,0.4,0.1,0.6,0.1h0.1
	h0.1c0.5,0,1-0.1,1.2-0.2h0c0.5,0,1-0.1,1.6-0.1c2.1,0,4.2,0,6.3,0.1c1.1,0.2,2.2,0.3,3.2,0.4c1.1,0.1,2.2,0.2,3.1,0.4
	c1.6,0.4,3.2,0.8,4.7,1.1c0.5,0.1,1.1,0.2,1.6,0.3c2,0.7,3.9,1.2,5.7,1.8c2,0.5,3.7,1.2,5.2,1.8c1.2,0.4,2.3,0.9,3.2,1.2l14.2,4.5
	l0,0l0,0l-7.7-8.2c0,0-0.9-1-2.6-2.5l-0.1-0.1c-0.4-0.3-0.9-0.8-1.4-1.2c-0.2-0.2-0.4-0.3-0.6-0.5c-1.4-1.3-3.2-2.8-5.6-4.2
	c-1.7-1-3.5-2.2-5.6-3.2l-0.2-0.1c-1.8-0.8-4.3-1.8-7-2.8c-2.3-0.8-4.7-1.3-7.1-1.7c12-16.1,36.4-31,52.9-27.2
	c18.4,4.3,29.6,41.3,27.8,63.2c0,0.2,0,0.4,0,0.6c0,3.1,2.3,5.8,5.5,6.5c3.3,0.9,6.8-0.5,8.5-3.2c8.3-13.5,24.2-21.6,40.2-21.7
	c4.5,0,9,0.6,13.4,1.9c19.7,5.8,34.9,25.3,36.2,46.3c1.1,18.2-7.8,36.6-23,48.2c-0.6-1.7-1.4-3.6-2.4-5.3c-0.9-1.8-2-3.2-3.1-4.5
	c-0.4-0.4-0.7-0.9-1-1.3l-0.5-0.5c-1.5-1.5-2.9-3-4.5-4.2c-1-0.8-2-1.5-3-2.2c-3.2-2.1-6-3.3-7.7-3.9c0,0,0,0,0,0
	c-1-0.3-1.6-0.5-1.7-0.5l-10.2-2.3l7.5,7.3c0,0,3.4,3.3,6.8,8.4c2,3,3.6,5.9,4.7,8.8l0.1,0.2c0.5,1,0.8,2.2,1.1,3.4
	c0.1,0.5,0.3,1.1,0.4,1.7c0.3,1,0.4,2.2,0.6,3.5c0.1,0.6,0.1,1.1,0.2,1.7c0,0.8,0,1.5,0,2.2c0,1.1,0.1,2.1,0,3
	c-0.2,1.1-0.3,2.1-0.3,3c-0.1,0.9-0.1,1.8-0.3,2.6c-0.3,1.3-0.6,2.5-0.8,3.7c-0.1,0.6-0.2,1.2-0.3,1.8c-0.6,1.8-1.1,3.4-1.5,5.1
	c-0.4,1.6-1,3.1-1.4,4.5 M266.5,409.9c-10.9,1.2-22.9-4.6-29.1-14c-5.8-8.9-7.1-20.8-3.6-33.4c1-3.6,2.4-6.2,4.1-7.6
	c4,0.5,7.5,0.9,10.9,0.9c1.4,12.6,7.9,24.7,18.4,34.4c3,2.8,6.3,5.3,9.7,7.5l-2.5,1.8c-0.1,0.1-1.3,0.9-2.9,2.7
	C269.3,404.5,267.7,407.1,266.5,409.9L266.5,409.9z M434,439.8l-0.6,0.3l-6,2.5l-0.1,0c0.1-0.3,0.3-0.7,0.4-1l0.1-0.2
	c1-2.6,1.5-5.1,1.9-7.8c0.1-0.5,0.1-1.1,0.2-1.6c0.3-3.8,0-7.8-1-11.8c-1.8-7.6-5.2-12-5.4-12.2l-5.6-7.2l0.3,9.1
	c0,0,0.2,4.7-0.3,10.9c-0.3,3.1-0.8,6.7-1.8,10.4c-1.1,3.3-2.3,7.1-4.7,10.1l-0.2,0.3c-0.2,0.4-0.5,0.8-0.8,1.1
	c-1.9,2.6-4.6,4.8-7.2,7l-5.1,3.2c-0.9,0.5-1.8,1-2.8,1.4c-0.8,0.4-1.5,0.7-2.3,1.1c-1.9,1-3.7,1.7-5.4,2.3c-1,0.4-2,0.8-2.8,1.1
	l-14.7,6.4l12.4,0.7c0.1,0,1.4,0.1,3.9,0.1h0.1c0.5,0,1.1,0,1.7,0c2.2,0,5.3,0,8.6-0.9c0.5-0.1,1.1-0.2,1.7-0.4
	c1.6-0.3,3.4-0.7,5.2-1.4c0.6-0.2,1.2-0.5,1.8-0.7c0.4-0.2,0.9-0.3,1.3-0.5c1.3-0.5,2.7-1.1,4.1-1.9l0.3-0.2
	c0.1-0.1,0.2-0.2,0.4-0.2c4,10.6,1.8,22.5-6,31.1c-0.4,0.4-0.8,0.9-1.2,1.3c-0.4,0.4-0.8,0.8-1.2,1.1c0,0,0,0-0.1,0.1
	c-3,2.8-6.8,5.4-11,7.8c-0.2,0.1-0.4,0.2-0.6,0.3c-4,2.2-8.3,4-12.6,5.4c-0.9,0.2-1.8,0.4-2.8,0.5c-6,0.8-12.3,0-17.2-0.8
	c-11.9-2-24.3-5.5-37-10.6c-5.6-2.2-11.5-4.8-17.3-7.7c-0.2-0.1-0.5-0.3-0.7-0.4c-4.6-2.9-9-6.3-12.8-9.9c-3.5-3.4-6.5-6.9-8.6-10.1
	c-6.7-10.4-10.6-22.5-10.9-32.5c0.6,0.6,1.2,1.1,1.8,1.6c0.4,0.3,0.7,0.6,1.1,0.9c1.4,1.2,3,2.1,4.5,2.9c0.9,0.5,1.9,0.9,2.8,1.3
	c1,0.5,2,1,3,1.3c0,0,0.1,0,0.1,0c0.1,0,0.2,0,0.2,0.1c0.9,0.3,1.9,0.6,2.7,0.8c0.5,0.1,1.1,0.3,1.5,0.4c3.9,1.3,7.6,1.6,10.8,1.9
	c1,0.1,1.9,0.2,2.7,0.3l0.2,0c3,0.1,5.6,0,7.7-0.1c0.3,0,0.6,0,0.9-0.1l1-0.1c2.3-0.2,3.6-0.4,3.6-0.4l11.1-1.6l-10.4-4.1
	c0,0-0.4-0.1-1-0.4c-1.7-0.6-5.7-2-10.8-3.5c-0.2-0.1-0.5-0.2-0.7-0.3c-1.5-0.5-3.1-1.1-4.8-1.6c-1.6-0.5-3.2-1.1-5-1.9l-0.6-0.2
	c-1.4-0.5-2.8-1.1-4-1.7c-0.4-0.2-0.8-0.4-1.2-0.7l-0.2-0.1c-1.6-0.8-3.3-1.7-4.5-2.8l-0.2-0.2l-0.3-0.2c-1-0.6-1.8-1.4-2.6-2.3
	c-0.2-0.2-0.5-0.5-0.7-0.7c-0.3-0.5-0.6-0.9-0.9-1.3c-0.5-0.8-1-1.5-1.2-2l-0.2-0.5c-0.9-2-1.2-4.3-1.2-7c0-0.4,0-0.8,0-1.2
	c0.1-2.2,0.5-4.4,1.1-6.9c0.4-1.6,0.7-2.6,0.7-2.6l1.1-3.2c10.2,5.8,21.7,9,33.1,9.2h1c26.4,0,54.2-14.3,74.9-38.4
	c19.6,10.4,46.2,16.6,69.2,13.4l0.8,9.6c0,0,0.4,5.1-0.3,12.1c-0.2,1.5-0.4,3.5-0.9,5.6l0,0.2c-0.1,0.9-0.4,2-0.8,3.1
	c-0.3,0.8-0.5,1.7-0.8,2.6c-0.3,0.6-0.5,1.2-0.8,1.9c-0.5,1.3-1,2.6-1.8,3.6l-0.2,0.4c-0.9,1.9-2.3,3.6-3.6,5.1l-0.2,0.3
	c-0.6,0.9-1.6,1.8-2.6,2.8c-0.6,0.6-1.3,1.2-1.9,1.8l-5.6,3.9C437.5,437.8,435.7,438.8,434,439.8L434,439.8z M558.3,337.5
	c-5.2,19.3-28.8,46.3-55.2,46.3l-0.5,0c-1.3,0.2-3.8,0.7-5.4,2.6c-1.5,1.8-2,4.2-1.2,6.4c1,2.8,2,5.8,2.8,8.9c3,11,4.2,23.1-2,32.5
	c-3.4,5.1-9,9.4-16,12.3c-2.3,1-4.8,1.8-7.4,2.4c-5.7,1.4-11.9,2-18.8,1.9c-4.1-0.1-8.5-0.5-13.1-1.1c1.5-0.6,3.1-1.1,4.7-1.8
	l0.2-0.1c3-1.6,5.6-3.1,8-4.6l0.4-0.3c0.7-0.6,1.4-1.2,2.1-1.9c1.6-1.4,3.4-2.8,4.7-4.6c1.6-2,3.6-4.7,5-7.8c1.2-2,1.7-4.1,2.2-6
	c0.2-0.8,0.4-1.5,0.6-2.2l0.1-0.4c0.5-2.7,0.7-5.4,0.7-7.9c0-1.3-0.1-2.5-0.2-3.6c-0.1-1.2-0.3-2.3-0.5-3.4
	c-1.6-8.5-5.2-13.5-5.4-13.7l-5.7-7.7c9.7-1.4,18.8-4.4,26.4-9.5c25.4-17,31.9-55.4,27.2-86.9c8.1-3.2,15.9-6.4,23.5-10.4
	C554.8,291.7,564,316.3,558.3,337.5L558.3,337.5z"/>
<path class="st1" d="M468.1,555.4c-24.5-5.5-56.9-8.6-91.4-8.6s-66.9,3-91.4,8.6c-32.2,7.3-44.7,16.8-44.7,33.7V718h17.3V613.9
	c0.1,0,0.2,0.1,0.3,0.1c0.7,0.3,1.5,0.7,2.2,1c0.1,0,0.1,0.1,0.2,0.1c0.8,0.4,1.7,0.7,2.6,1.1c0.2,0.1,0.4,0.2,0.6,0.2
	c0.8,0.3,1.6,0.6,2.4,0.9c0.2,0.1,0.3,0.1,0.5,0.2c1,0.3,2,0.7,3,1c0.2,0.1,0.4,0.1,0.6,0.2c0.9,0.3,1.8,0.6,2.7,0.8
	c0.2,0.1,0.5,0.1,0.7,0.2c1.1,0.3,2.2,0.6,3.4,1c0.1,0,0.3,0.1,0.4,0.1c1,0.3,2.1,0.5,3.2,0.8c0.3,0.1,0.6,0.2,0.9,0.2
	c1.2,0.3,2.5,0.6,3.8,0.9c24.5,5.5,56.9,8.6,91.4,8.6s66.9-3,91.4-8.6c1.3-0.3,2.5-0.6,3.8-0.9c0.3-0.1,0.6-0.2,0.9-0.2
	c1.1-0.3,2.1-0.5,3.1-0.8c0.2,0,0.3-0.1,0.5-0.1c1.1-0.3,2.3-0.6,3.4-0.9c0.3-0.1,0.5-0.2,0.8-0.2c0.9-0.3,1.8-0.5,2.6-0.8
	c0.2-0.1,0.5-0.2,0.7-0.2c1-0.3,2-0.7,2.9-1c0.2-0.1,0.4-0.1,0.6-0.2c0.8-0.3,1.5-0.6,2.3-0.9c0.2-0.1,0.5-0.2,0.7-0.3
	c0.9-0.3,1.7-0.7,2.5-1.1c0.1,0,0.2-0.1,0.3-0.1c0.7-0.3,1.5-0.7,2.2-1c0.1,0,0.2-0.1,0.3-0.1v104.1h17.3V589.2
	C512.8,572.2,500.2,562.8,468.1,555.4L468.1,555.4z M488.4,589.2c-0.1,0.1-0.3,0.1-0.4,0.2c-0.4,0.2-0.9,0.4-1.4,0.6
	c-0.2,0.1-0.4,0.2-0.6,0.3c-0.4,0.2-0.9,0.3-1.4,0.5c-0.2,0.1-0.5,0.2-0.7,0.3c-0.5,0.2-1,0.4-1.6,0.6c-0.2,0.1-0.4,0.1-0.6,0.2
	c-1.5,0.5-3.1,1-4.9,1.5c-0.2,0.1-0.5,0.1-0.7,0.2c-0.6,0.2-1.3,0.4-2,0.6c-0.3,0.1-0.6,0.2-0.9,0.2c-0.7,0.2-1.4,0.4-2,0.5
	c-0.3,0.1-0.6,0.2-0.9,0.2c-0.9,0.2-1.8,0.5-2.7,0.7c-0.1,0-0.2,0-0.3,0.1c-1.1,0.2-2.1,0.5-3.3,0.8c-0.2,0-0.5,0.1-0.7,0.1
	c-0.9,0.2-1.8,0.4-2.7,0.6c-0.4,0.1-0.7,0.1-1,0.2c-0.8,0.2-1.7,0.3-2.6,0.5c-0.4,0.1-0.7,0.1-1.1,0.2c-1,0.2-1.9,0.3-2.9,0.5
	c-0.3,0-0.5,0.1-0.8,0.2c-1.3,0.2-2.6,0.4-4,0.7c-0.1,0-0.2,0-0.3,0c-1.2,0.2-2.5,0.4-3.8,0.6c-0.4,0.1-0.8,0.1-1.2,0.2
	c-1,0.1-2,0.3-3,0.4c-0.5,0.1-0.9,0.1-1.4,0.2c-1,0.1-2.1,0.3-3.2,0.4c-0.4,0-0.9,0.1-1.3,0.2c-1.4,0.2-2.8,0.3-4.3,0.5
	c-0.1,0-0.2,0-0.3,0c-1.6,0.2-3.2,0.3-4.8,0.5c-0.4,0-0.9,0.1-1.3,0.1c-1.2,0.1-2.4,0.2-3.6,0.3c-0.6,0-1.1,0.1-1.7,0.1
	c-1.1,0.1-2.3,0.2-3.4,0.3c-0.6,0-1.2,0.1-1.8,0.1c-1.3,0.1-2.6,0.2-4,0.2c-0.4,0-0.9,0-1.3,0.1c-1.8,0.1-3.6,0.2-5.4,0.3
	c-0.4,0-0.8,0-1.2,0c-1.5,0.1-2.9,0.1-4.4,0.2c-0.6,0-1.3,0-1.9,0.1c-1.3,0-2.6,0.1-3.9,0.1c-0.7,0-1.4,0-2.1,0
	c-1.4,0-2.7,0-4.1,0.1c-0.6,0-1.3,0-1.9,0c-2,0-4,0-6.1,0s-4.1,0-6.1,0c-0.6,0-1.3,0-1.9,0c-1.4,0-2.7,0-4.1-0.1c-0.7,0-1.4,0-2.1,0
	c-1.3,0-2.6-0.1-3.9-0.1c-0.6,0-1.3,0-1.9-0.1c-1.5,0-3-0.1-4.4-0.2c-0.4,0-0.8,0-1.2,0c-1.8-0.1-3.6-0.2-5.4-0.3
	c-0.4,0-0.9,0-1.3-0.1c-1.3-0.1-2.7-0.2-4-0.2c-0.6,0-1.2-0.1-1.8-0.1c-1.2-0.1-2.3-0.2-3.5-0.3c-0.6,0-1.1-0.1-1.7-0.1
	c-1.2-0.1-2.4-0.2-3.6-0.3c-0.4,0-0.9-0.1-1.3-0.1c-1.6-0.2-3.2-0.3-4.8-0.5c-0.1,0-0.2,0-0.3,0c-1.5-0.2-2.9-0.3-4.3-0.5
	c-0.4,0-0.9-0.1-1.3-0.2c-1.1-0.1-2.1-0.3-3.2-0.4c-0.5-0.1-0.9-0.1-1.4-0.2c-1-0.1-2-0.3-3.1-0.4c-0.4-0.1-0.8-0.1-1.2-0.2
	c-1.3-0.2-2.5-0.4-3.8-0.6c-0.1,0-0.2,0-0.3,0c-1.4-0.2-2.7-0.4-4-0.7c-0.3,0-0.5-0.1-0.8-0.1c-1-0.2-2-0.3-2.9-0.5
	c-0.4-0.1-0.7-0.1-1.1-0.2c-0.9-0.2-1.7-0.3-2.6-0.5c-0.4-0.1-0.7-0.1-1-0.2c-0.9-0.2-1.8-0.4-2.7-0.6c-0.2,0-0.4-0.1-0.6-0.1
	c-1.1-0.2-2.2-0.5-3.3-0.8c-0.1,0-0.2,0-0.3-0.1c-0.9-0.2-1.8-0.5-2.7-0.7c-0.3-0.1-0.6-0.1-0.8-0.2c-0.7-0.2-1.4-0.4-2.1-0.5
	c-0.3-0.1-0.6-0.2-0.9-0.2c-0.7-0.2-1.3-0.4-2-0.6c-0.2-0.1-0.5-0.1-0.7-0.2c-1.7-0.5-3.4-1-4.9-1.5c-0.2-0.1-0.4-0.1-0.6-0.2
	c-0.5-0.2-1.1-0.4-1.6-0.6c-0.2-0.1-0.5-0.2-0.7-0.3c-0.5-0.2-0.9-0.3-1.4-0.5c-0.2-0.1-0.4-0.2-0.6-0.2c-0.5-0.2-0.9-0.4-1.4-0.6
	c-0.1-0.1-0.3-0.1-0.4-0.2c0,0-0.1,0-0.1,0c15.9-7.1,53.4-15.4,111.8-15.4S472.6,582.1,488.4,589.2
	C488.5,589.2,488.5,589.2,488.4,589.2L488.4,589.2z"/>
</svg>
