<?xml version="1.0" encoding="utf-8"?>
<!-- Generator: Adobe Illustrator 27.3.1, SVG Export Plug-In . SVG Version: 6.00 Build 0)  -->
<svg version="1.1" id="Layer_1" xmlns="http://www.w3.org/2000/svg" xmlns:xlink="http://www.w3.org/1999/xlink" x="0px" y="0px"
	 viewBox="0 0 720 720" style="enable-background:new 0 0 720 720;" xml:space="preserve">
<style type="text/css">
	.st0{fill:#FFFFFF;stroke:#FFFFFF;stroke-width:1.98;stroke-linecap:round;stroke-linejoin:round;}
</style>
<path class="st0" d="M710,229.6c0-0.1,0-0.2,0-0.3c0-0.3-0.1-0.6-0.2-0.9c0-0.1,0-0.1,0-0.2c-0.1-0.4-0.2-0.8-0.4-1.1
	c0-0.1,0-0.1-0.1-0.1c-0.1-0.3-0.3-0.6-0.5-0.9c0-0.1-0.1-0.2-0.1-0.2c-0.2-0.3-0.4-0.6-0.7-0.9c0,0,0,0,0,0
	c-0.2-0.3-0.5-0.6-0.8-0.8c-0.1-0.1-0.2-0.1-0.2-0.2c-0.2-0.2-0.5-0.4-0.8-0.6c0,0-0.1-0.1-0.1-0.1c-0.3-0.2-0.7-0.4-1-0.6
	c0,0,0,0-0.1-0.1l-141-70.5c-2.6-1.3-5.7-1.3-8.4,0l-141,70.5c0,0,0,0-0.1,0.1c-0.4,0.2-0.7,0.4-1,0.6c0,0-0.1,0.1-0.1,0.1
	c-0.3,0.2-0.5,0.4-0.8,0.6c-0.1,0.1-0.2,0.1-0.2,0.2c-0.3,0.3-0.5,0.5-0.8,0.8c0,0,0,0,0,0c-0.2,0.3-0.5,0.6-0.7,0.9
	c0,0.1-0.1,0.2-0.1,0.2c-0.2,0.3-0.3,0.6-0.5,0.9c0,0.1,0,0.1-0.1,0.1c-0.2,0.4-0.3,0.7-0.4,1.1c0,0.1,0,0.1,0,0.2
	c-0.1,0.3-0.1,0.6-0.2,0.9c0,0.1,0,0.2,0,0.3c0,0.4-0.1,0.8-0.1,1.2v152.6c-19.6,6.6-40,12.7-60.8,18.3
	c-81,21.7-159.5,32.8-221.1,31.1c-6.3-0.2-12.4-0.5-18.3-0.9c-6.6-22.8-10.1-46.9-10.1-71.8c0-15.2,1.3-30,3.8-44.5
	c0.2-0.6,0.3-1.2,0.3-1.9c2.7-14.8,6.6-29.1,11.6-43l18.6,44.7c4.2,10.1,7.1,18.5,9.8,26.5c5,14.5,9.6,28.2,20.7,46.5
	c1.8,2.9,4.8,4.5,8,4.5c1.6,0,3.3-0.4,4.8-1.4c3.2-1.9,4.8-5.5,4.4-9c3.8-9.6,6.9-20.1,10.2-31.2c7.4-25,15.1-50.8,30.5-66.3
	c10.1-10.2,26.5-10.2,43.8-10.2c14.4,0,29.3,0,42.2-6c9.7-4.5,21.1-16.1,30.5-31.1c5.9-9.4,15.3-27.3,12.6-41.4
	c-4.2-22.6-27.3-47-47.6-68.6c-6.2-6.6-12.1-12.8-16.6-18.2c23.2-6.8,47.7-10.4,73-10.4c50.8,0,100.1,14.7,142.6,42.4
	c4.3,2.8,10.1,1.6,12.9-2.7s1.6-10.1-2.7-12.9C467.3,96.2,414.4,80.5,360,80.5c-74.7,0-144.9,29.1-197.7,81.9
	c-40.2,40.2-66.6,90.4-76.9,145c-56.1,34.9-81.8,68.4-74.1,97c6.4,24.1,35.2,39.4,83.7,44.9c13.6,40.4,36.4,77.4,67.4,108.4
	c49.4,49.4,114.1,78.1,183.4,81.5c0.8,0.2,1.7,0.4,2.5,0.4c0.6,0,1.2-0.1,1.8-0.2c3.3,0.1,6.6,0.2,9.9,0.2c46.7,0,93-11.8,133.7-34
	c41.9-22.9,77.5-56.4,103-96.9c2.8-4.4,1.4-10.1-2.9-12.9c-4.4-2.8-10.1-1.4-12.9,2.9c-19.4,30.9-45.2,57.4-75.2,77.7
	c5.6-22.3,5.7-42.9-4.6-64.6c-5.6-11.8-15.5-22.1-30.3-31.6c-24.4-15.7-50.7-31.3-80-34.2c-7.6-0.8-15.5-2-23-3.1
	c-14.9-2.3-30.2-4.7-46-4.1l-0.9,0c-9.6,0.4-24,1-32.8,10c-10.4,10.7-8.4,26.1-6.8,38.5c0.5,4,1,7.9,1,11c0,3.5,0,7.2-0.1,10.7
	c-0.2,10.5-0.4,21.3,1.6,32.2c5.2,28,24.2,54,43.1,77.5c-97.3-12.4-178-78.6-211.3-167.8c3.7,0.2,7.6,0.4,11.5,0.5
	c4.1,0.1,8.3,0.2,12.5,0.2c61.2,0,136.6-11.2,213.9-31.9c20.4-5.5,40.2-11.4,59.5-17.8c0.5,0.4,1,0.8,1.6,1l141,71.2
	c0.1,0,0.1,0,0.2,0.1c0.2,0.1,0.5,0.2,0.7,0.3c0.1,0,0.2,0.1,0.3,0.1c0.2,0.1,0.5,0.1,0.7,0.2c0.1,0,0.2,0,0.3,0.1
	c0.2,0.1,0.5,0.1,0.8,0.1c0.1,0,0.2,0,0.2,0c0.3,0,0.7,0.1,1,0.1s0.7,0,1-0.1c0.1,0,0.2,0,0.2,0c0.3,0,0.5-0.1,0.8-0.1
	c0.1,0,0.2,0,0.3-0.1c0.2-0.1,0.5-0.1,0.7-0.2c0.1,0,0.2-0.1,0.3-0.1c0.2-0.1,0.5-0.2,0.7-0.3c0.1,0,0.1,0,0.2-0.1l141-71.2
	c3.2-1.6,5.1-4.8,5.1-8.3V230.8C710,230.4,710,230,710,229.6L710,229.6z M350.1,617.7c-20.1-24.4-42.8-52.1-48-79.8
	c-1.7-9-1.5-18.4-1.3-28.4c0.1-3.6,0.1-7.4,0.1-11.2c0-4.3-0.6-8.9-1.2-13.3c-1.2-9.3-2.5-18.9,1.7-23.1c3.6-3.7,14-4.1,20.1-4.3
	l0.9,0c14-0.6,27.8,1.6,42.4,3.9c7.8,1.2,16,2.5,24.1,3.3c25.1,2.5,49.2,16.8,71.7,31.3c11.8,7.6,19.5,15.4,23.5,23.9
	c10.8,22.5,7.3,43.2-2.4,70.9c-37.3,19.7-79.3,30.1-121.7,30.1c-2.5,0-5,0-7.4-0.1C351.8,619.7,350.9,618.7,350.1,617.7L350.1,617.7
	z M268.5,115.7c0.3,0.8,0.8,1.7,1.4,2.4c5.2,6.6,12.5,14.3,20.1,22.4c17.7,18.7,39.6,42,42.9,59.2c2.3,12.1-18.8,45.8-32.6,52.2
	c-9.2,4.3-21.4,4.2-34.4,4.2c-19.4,0-41.4,0-57.1,15.8c-18.7,18.9-27.1,47-35.1,74.1c-1.3,4.4-2.6,8.8-3.9,12.9
	c-3.4-7.8-5.9-15.1-8.7-23.1c-2.7-8-5.8-17-10.3-27.7l-25.7-61.6C154.2,186.6,205.6,139.4,268.5,115.7L268.5,115.7z M29.3,399.5
	c-4.6-17.1,14.8-41.7,52.5-67.6c-0.9,9.3-1.4,18.6-1.4,28c0,23.8,3,47.2,8.7,69.6C54.9,424.6,33.2,414,29.3,399.5L29.3,399.5z
	 M559.7,170.7l120.1,60l-120.1,60l-120.1-60L559.7,170.7L559.7,170.7z M497.8,358.9c-2.1-4.7-7.6-6.9-12.3-4.8
	c-18.3,8.1-37.5,15.7-57.4,22.8v-131L550.4,307v143.5l-113.1-57.1c19.3-7,37.9-14.4,55.7-22.2C497.7,369.1,499.9,363.6,497.8,358.9
	L497.8,358.9z M569.1,450.5V307l122.3-61.1v142.9L569.1,450.5L569.1,450.5z"/>
</svg>
