<?xml version="1.0" encoding="utf-8"?>
<!-- Generator: Adobe Illustrator 27.3.1, SVG Export Plug-In . SVG Version: 6.00 Build 0)  -->
<svg version="1.1" id="Layer_1" xmlns="http://www.w3.org/2000/svg" xmlns:xlink="http://www.w3.org/1999/xlink" x="0px" y="0px"
	 viewBox="0 0 720 720" style="enable-background:new 0 0 720 720;" xml:space="preserve">
<style type="text/css">
	.st0{fill:#FFFFFF;}
</style>
<path class="st0" d="M700.5,111.1H530.3V20.7c0-5.6-4.4-10.2-9.9-10.2h-26.7c-3.5,0-6.7,1.9-8.5,4.9l-56,94.4
	c-0.2,0.4-0.4,0.8-0.6,1.2H125.6c-2.7,0-5.3,1.2-7.2,3.2l-60.9,66.3c-2.7,2.9-3.5,7.3-1.9,11c1.6,3.7,5.1,6.1,9.1,6.1h65.8
	c1.6,3.4,5,5.8,8.9,5.8h16.5l0.1,81.8h-37.4v-33.1c0-2.5-2-4.6-4.4-4.6s-4.4,2.1-4.4,4.6v33.1h-7v-32.4c0-3.4-2.7-6.1-5.9-6.1
	s-5.9,2.7-5.9,6.1v32.4H55.5v-33.1c0-2.5-2-4.6-4.5-4.6s-4.5,2.1-4.5,4.6v33.1H16.4c-5.5,0-9.9,4.5-9.9,10.2s4.4,10.2,9.9,10.2h11.9
	V353H15.6c-4,0-7.3,3.3-7.3,7.5V698c0,4.1,3.2,7.5,7.3,7.5H190c4,0,7.3-3.3,7.3-7.5V492.2c0-4.1-3.2-7.5-7.3-7.5h-10.7v-45.5h10.1
	c5.5,0,9.9-4.5,9.9-10.2s-4.4-10.2-9.9-10.2h-10.1v-44.8h10.1c5.5,0,9.9-4.5,9.9-10.2s-4.4-10.2-9.9-10.2h-10.1v-48.1h9
	c5.5,0,9.9-4.5,9.9-10.2s-4.4-10.2-9.9-10.2h-12.5l-0.1-81.8h9.4c3.9,0,7.3-2.4,8.9-5.8h233.9v484.5h-62.6c-5.5,0-9.9,4.5-9.9,10.2
	s4.4,10.2,9.9,10.2h243.9c5.5,0,9.9-4.5,9.9-10.2s-4.4-10.2-9.9-10.2h-78.8V197.7h170.1c5.5,0,9.9-4.6,9.9-10.2v-66.3
	C710.4,115.6,706,111.1,700.5,111.1L700.5,111.1z M118.2,177.4H87.6l30.7-33.4V177.4z M89,669.2c0,3.6-2.8,6.4-6.3,6.4H42.5
	c-3.5,0-6.3-2.9-6.3-6.4v-26c0-3.6,2.8-6.4,6.3-6.4h40.2c3.5,0,6.3,2.9,6.3,6.4V669.2z M89,604c0,3.6-2.8,6.4-6.3,6.4H42.5
	c-3.5,0-6.3-2.9-6.3-6.4v-26c0-1.7,0.6-3.2,1.6-4.3h49.5c1,1.1,1.6,2.7,1.6,4.3L89,604L89,604z M89,537.5c0,3.6-2.8,6.4-6.3,6.4
	H42.5c-3.5,0-6.3-2.9-6.3-6.4v-24.6c0-3.6,2.8-6.4,6.3-6.4h40.2c3.5,0,6.3,2.9,6.3,6.4V537.5z M89,472.3c0,3.6-2.8,6.4-6.3,6.4H42.5
	c-3.5,0-6.3-2.9-6.3-6.4v-26c0-3.6,2.8-6.4,6.3-6.4h40.2c3.5,0,6.3,2.9,6.3,6.4V472.3z M89,407.2c0,3.6-2.8,6.4-6.3,6.4H42.5
	c-3.5,0-6.3-2.9-6.3-6.4v-26c0-3.6,2.8-6.4,6.3-6.4h40.2c3.5,0,6.3,2.9,6.3,6.4V407.2z M90.8,353H40.2v-47.4h50.5V353z M109.7,484.7
	h-6.9v-45.5h6.9V484.7z M109.7,418.9h-6.9v-44.8h6.9V418.9z M109.7,353.8h-6.9V353h-0.2v-47.4h7V353.8z M156.1,305.7
	c-0.1,0.5-0.1,1-0.1,1.5c0,4.5-3.6,8.2-8,8.2s-8-3.7-8-8.2c0-0.5-0.1-1-0.1-1.5H156.1L156.1,305.7z M169,669.2
	c0,3.6-2.8,6.4-6.3,6.4h-40.2c-3.5,0-6.3-2.9-6.3-6.4v-26c0-3.6,2.8-6.4,6.3-6.4h40.2c3.5,0,6.3,2.9,6.3,6.4V669.2z M169,604
	c0,3.6-2.8,6.4-6.3,6.4h-40.2c-3.5,0-6.3-2.9-6.3-6.4v-26c0-1.7,0.6-3.2,1.6-4.3h49.5c1,1.1,1.6,2.7,1.6,4.3L169,604L169,604z
	 M169,537.5c0,3.6-2.8,6.4-6.3,6.4h-40.2c-3.5,0-6.3-2.9-6.3-6.4v-24.6c0-3.6,2.8-6.4,6.3-6.4h40.2c3.5,0,6.3,2.9,6.3,6.4V537.5z
	 M170.4,484.7h-51.8v-45.5h51.8V484.7z M170.4,418.9h-51.8v-44.8h51.8V418.9z M118.6,353.8v-48.1h1.8c-0.1,0.5-0.1,1-0.1,1.5
	c0,15.7,12.5,28.5,27.8,28.5c9.2,0,17.4-4.6,22.4-11.7v29.8H118.6z M499.3,30.9h11.2v80.2h-58.8L499.3,30.9z M449.6,564.6l61-83.1
	v83.1H449.6z M510.5,585v74.4L457.3,585L510.5,585L510.5,585z M457.3,317.3l53.2-93.1v93.1H457.3z M510.5,337.7v87l-53.8-87H510.5z
	 M510.3,177.4l-44.8-46h45v46H510.3z M447.7,141.8l34.6,35.6h-34.6V141.8z M447.7,197.7h55l-55,96.3V197.7z M447.7,360.9l53.8,87
	h-53.8V360.9z M447.7,468.3h47.8l-47.8,65.1V468.3z M447.7,605.8l53.9,75.4h-53.9V605.8z M138,177.4v-46h0.6l44.8,46H138z
	 M194.8,160.3l-28.1-28.8h28.1V160.3z M214.6,131.4h38.8l-38.8,38.7V131.4z M276.4,177.4h-40.7l40.7-40.6V177.4z M296.2,177.4v-34.8
	l33.9,34.8H296.2z M354,173.3l-40.8-41.9H354V173.3z M373.8,131.4h37.3l-37.3,38.3V131.4z M394.3,177.4l33.6-34.5v34.5H394.3z
	 M531.6,131.4h33.7l-33.7,34.6V131.4z M580.8,177.4h-32.2l32.2-33V177.4z M600.6,177.4v-42.4l41.2,42.4H600.6z M690.6,177.4h-20.8
	l-44.8-46h65.5L690.6,177.4L690.6,177.4z"/>
</svg>
