<?xml version="1.0" encoding="utf-8"?>
<!-- Generator: Adobe Illustrator 27.3.1, SVG Export Plug-In . SVG Version: 6.00 Build 0)  -->
<svg version="1.1" id="Layer_1" xmlns="http://www.w3.org/2000/svg" xmlns:xlink="http://www.w3.org/1999/xlink" x="0px" y="0px"
	 viewBox="0 0 720 720" style="enable-background:new 0 0 720 720;" xml:space="preserve">
<style type="text/css">
	.st0{fill:#FFFFFF;stroke:#FFFFFF;stroke-width:5;stroke-linecap:round;stroke-linejoin:round;}
</style>
<path class="st0" d="M707.7,391.1c-6.4-19.9-21.3-48-56-69.9l0-16.3l16.8-40.8c1.3-3.2,0.7-6.9-1.6-9.4c-2.3-2.5-5.8-3.3-8.9-2.1
	l-15.3,6.1c-7.5-5.2-20.8-5.9-22.4-6c-0.1,0-0.1,0-0.2,0l-7.1,0c-0.1,0-0.1,0-0.2,0c-1.7,0.1-15,0.7-22.5,5.9l-15.3-6.2
	c-3.1-1.3-6.6-0.5-8.9,2c-2.3,2.5-3,6.2-1.7,9.4l16.6,40.9l0,16.3c-34.8,21.7-49.9,49.7-56.3,69.6c-6.8,20.9-5.9,37.1-5.7,39.3
	c0,1.8,0,3.5,0.1,5.3L198.5,216.4c0.1-0.3,0.1-0.5,0.2-0.8h-1.4l-1-0.6l-0.2,0.6h-31.9c0.6-4.6,0.5-9.5-0.5-14.6
	c-2.4-13.2-9.3-21.9-19-29.3l-5.5-29.9c-0.9-5.1-5.6-8.4-10.4-7.4l-26.2,5.3l-0.9-4.9c3.6-1.8,5.7-5.9,4.9-10.2
	c-0.9-5.1-5.6-8.4-10.4-7.4c-2.6,0.5-4.7,2.2-6,4.5c-1.9-1.6-4.5-2.4-7.1-1.8c-4.8,1-8,5.9-7,10.9c0.8,4.3,4.2,7.2,8.2,7.5l0.9,4.9
	l-26.2,5.3c-4.8,1-8,5.9-7,10.9l5.5,29.9c-5,8.2-8,16.6-8,26.1H6.6c15,59,52.4,71.4,96,71.4c36.1,0,67.9,0.7,86.3-42.6l159.1,103.8
	l-54.8,301.2h-99.2c-5.5,0-10,4.5-10,10s4.5,10,10,10h331.9c5.5,0,10-4.5,10-10s-4.5-10-10-10h-107l-46.5-281.6l35.1,28.7
	l113.9,74.4c16,55.9,52.2,65.5,94.4,65.5s81-12.4,96-71.4h-4.5c3.8-10.8,5.8-22.4,5.9-34.5C713.4,428.2,714.4,412.1,707.7,391.1
	L707.7,391.1z M92.4,133.8c1.4,1.1,3.1,1.8,4.9,1.9l0.9,4.9l-8.7,1.8l-0.9-4.9C90.2,136.7,91.6,135.4,92.4,133.8z M159.7,215.6H67.2
	c-0.1-7.3,3.1-14.2,11.8-25.6c0.8-1,0.6-2.5-0.3-3.3c-0.9-0.8-2.3-0.7-3.1,0.4c-8.9,11.4-12.9,19.7-12.8,28.5h-8.9
	c0-12.3,5.6-22.4,14.8-34.4c0.4-0.5,0.6-1.2,0.5-1.9l-3.3-17.8L127,149l3.3,17.8c0.1,0.7,0.5,1.3,1.1,1.6c15.3,9,25,17.5,28,33.4
	C160.3,206.7,160.4,211.3,159.7,215.6L159.7,215.6z M313.6,649.4l44.5-244.8l40.5,244.8H313.6L313.6,649.4z M572.6,260.9l17,6.9
	c1.6,0.6,3.3,0.2,4.5-1c3-3.2,12.9-5,19-5.2l7,0c4.8,0.2,15.6,1.8,19,5.3c1.2,1.2,3,1.6,4.5,1l17-6.8l-15.8,38.4l-56.5-0.2
	L572.6,260.9L572.6,260.9z M704.8,429.8c0,0.1,0,0.3,0,0.5c0,12.3-2.4,24-6.5,34.7h-77.9V464h2.6h0.1c5.4,0,10.5-2.2,14.4-6.2
	c3.9-4,6-9.4,6-15.1c0-11.8-9.1-21.5-20.4-21.5l-13.6,0c-3.2,0-6.2-1.3-8.4-3.7s-3.5-5.5-3.5-8.9c0-6.9,5.4-12.5,12-12.5h0l6.8,0
	l0,0l6.8,0c3.2,0,6.2,1.3,8.4,3.7s3.5,5.5,3.5,8.9c0,2.5,1.9,4.5,4.2,4.5h0c2.3,0,4.2-2,4.2-4.4c0-5.7-2.1-11.1-6-15.2
	c-3.9-4.1-9-6.3-14.4-6.3h-2.6l0-11.3c0-2.5-1.9-4.5-4.2-4.5h0c-2.3,0-4.2,2-4.2,4.4l0,11.3h-2.6c0,0,0,0,0,0
	c-11.2,0-20.4,9.6-20.4,21.4c0,5.7,2.1,11.1,6,15.2c3.9,4.1,9,6.3,14.4,6.3l13.6,0c6.6,0,12,5.7,11.9,12.6c0,3.3-1.3,6.5-3.5,8.9
	c-2.3,2.4-5.3,3.7-8.4,3.7h0l-6.8,0l0,0l-6.8,0c-3.2,0-6.2-1.3-8.4-3.7s-3.5-5.5-3.5-8.9c0-2.5-1.9-4.5-4.2-4.5h0
	c-2.3,0-4.2,2-4.2,4.4c0,5.7,2.1,11.1,6,15.2c3.9,4.1,9,6.3,14.4,6.3h2.6v1h-47l-36.6-23.9c-0.4-3.7-0.7-7.5-0.7-11.3
	c0-0.1,0-0.3,0-0.5c-0.1-0.6-5-62.1,59-101.3l59.8,0.2c26.6,16.5,44.5,38.5,53.3,65.4C706.2,413.9,704.8,429.6,704.8,429.8
	L704.8,429.8z"/>
</svg>
