<?xml version="1.0" encoding="utf-8"?>
<!-- Generator: Adobe Illustrator 27.3.1, SVG Export Plug-In . SVG Version: 6.00 Build 0)  -->
<svg version="1.1" id="Layer_1" xmlns="http://www.w3.org/2000/svg" xmlns:xlink="http://www.w3.org/1999/xlink" x="0px" y="0px"
	 viewBox="0 0 720 720" style="enable-background:new 0 0 720 720;" xml:space="preserve">
<style type="text/css">
	.st0{fill:#FFFFFF;stroke:#FFFFFF;stroke-width:7;stroke-linecap:round;stroke-linejoin:round;}
	.st1{fill:#FFFFFF;stroke:#FFFFFF;stroke-width:2;stroke-linecap:round;stroke-linejoin:round;}
	.st2{fill:none;stroke:#FFFFFF;stroke-width:2;stroke-linecap:round;stroke-linejoin:round;}
	.st3{fill:#FFFFFF;}
</style>
<path class="st0" d="M652.3,389.6c16.7,0,29.3,12.6,30.8,30.6l3.9,24.4l9.9,97.9c0,0.1,0,0.2,0,0.2c0,9.7-2.7,16.2-8.1,19.8v0.3
	c1.3,0.4,2.5,0.9,3.5,1.5l5.1,2.9l0,0c6,3.4,10.7,11.5,10.7,18.5v34.4c0,7.3-6,13.3-13.3,13.3h-26.4c-7.3,0-13.3-6-13.3-13.3v-34.4
	c0-6.9,4.7-15,10.7-18.5l5.1-2.9c0.1,0,0.2-0.1,0.2-0.1c-6.8-2.9-11.8-9.6-13-18.1l-8-100.4l-0.6-7c0,0,0-0.2,0-0.2v7.1l4.9,174.1
	v60.2c0,12.4-10.1,27.3-22.6,27.3s-22.6-15-22.6-27.3V547.2h-2.4v132.7c0,12.4-10.1,27.3-22.6,27.3s-22.6-15-22.6-27.3v-60.1
	l1.4-49.4c-0.9,0-1.9-0.3-2.9-0.8l-3.1-1.5c-0.7-0.3-1.4-0.5-2-0.5c-1.1,0-2,0.4-2.4,1.2c-0.7,1.3,0.3,3.1,2.1,4l3.1,1.5
	c2.3,1.1,3.5,2.9,3.5,4.8s-1.4,3.6-3.7,4.7c-0.2,0.1-2.4,1.1-5.7,1.1c-1.9,0-4.2-0.4-6.5-1.5c-5.5-2.8-8.8-8.2-9-14.3l-29.9-15
	c-2.8,2-6.1,3.1-9.5,3.1c-2.5,0-5-0.6-7.3-1.7c-6.2-3.1-7.6-9.3-7.6-9.5c-0.5-2.5,0.1-4.6,1.6-5.7c0.8-0.6,1.7-0.9,2.8-0.9
	c1,0,2.1,0.3,3.2,0.8l3.1,1.5c0.7,0.3,1.4,0.5,2.1,0.5c1.1,0,2-0.4,2.4-1.2c0.4-0.7,0.1-1.5,0-2c-0.4-0.8-1.1-1.6-2-2.1l-3.1-1.5
	c-2.2-1.1-3.5-2.9-3.5-4.8s1.4-3.6,3.6-4.7c0.1-0.1,2.5-1.1,5.7-1.1c1.9,0,4.2,0.4,6.5,1.5c5.5,2.8,8.9,8.2,8.9,14.3l5.8,2.9
	c0-0.3,0-0.5,0-0.8c0-0.1,0-0.2,0-0.2l9.9-97.8L533,420c1.4-17.8,14-30.4,30.7-30.4L652.3,389.6 M563.4,556.6l3.1-111.1v-7l-0.6,7.2
	l-8,100.2c-0.3,2.5-1,4.8-2,7c1.4,0.3,2.8,0.7,4,1.4C561.3,555,562.5,555.8,563.4,556.6 M652.3,384.6h-88.7c-9.4,0-18.1,3.5-24.6,10
	c-6.3,6.3-10.3,15.1-11.1,24.8l-3.9,24.5c0,0.1,0,0.2,0,0.3l-8.7,85.9c-2-3.5-5-6.3-8.8-8.2c-2.7-1.4-5.7-2.1-8.8-2.1
	c-4.2,0-7.2,1.3-7.8,1.6c-4,1.9-6.5,5.3-6.5,9.1c0,1.4,0.3,2.8,0.9,4c-1.4,0.3-2.6,0.9-3.7,1.7c-3.1,2.3-4.4,6.3-3.5,10.7
	c0.2,0.9,2,8.8,10.3,13c3,1.5,6.3,2.3,9.6,2.3s6.7-0.8,9.7-2.4l24.9,12.5c1.1,6.7,5.3,12.4,11.4,15.5c2.8,1.4,5.7,2.1,8.8,2.1
	c2.3,0,4.2-0.4,5.6-0.8l-0.8,30.5c0,0,0,0.1,0,0.1v60.1c0,15,12,32.3,27.6,32.3c10.3,0,19.1-7.6,23.8-17.1
	c4.7,9.5,13.5,17.1,23.8,17.1c15.5,0,27.6-17.4,27.6-32.3V636c2.7,1.5,5.7,2.3,9,2.3h26.4c10.1,0,18.3-8.2,18.3-18.3v-34.4
	c0-8.7-5.7-18.5-13.2-22.8c0,0-0.1,0-0.1,0l-2.8-1.6c3.2-4.6,4.9-10.8,4.9-18.6c0-0.2,0-0.5,0-0.7l-9.9-98c0-0.1,0-0.2,0-0.3
	l-3.8-24.2c-0.8-9.8-4.8-18.7-11.1-25C670.5,388.1,661.7,384.6,652.3,384.6L652.3,384.6L652.3,384.6z M657.9,567.2l-0.2-8.1
	c1.2,1.8,2.5,3.4,4,4.8C660.4,564.8,659.1,565.9,657.9,567.2L657.9,567.2L657.9,567.2z"/>
<path class="st1" d="M558.6,338.1h4.5c0,0.6,0,1.1,0,1.6c0,24.8,20.2,45,45,45s45-20.2,45-45c0-0.5,0-1,0-1.6h4.5
	c1.3,0,2.4-1.1,2.4-2.4c0-4.2-4.1-6.9-6.3-8.1c-0.6-14.2-9.9-27-24.6-33.6c-0.6-0.3-1.3-0.3-1.9,0c-0.6,0.3-1.1,0.8-1.3,1.4
	l-2.2,6.1l0.7-10c0.1-1.1-0.6-2.1-1.7-2.4c-9.4-2.7-19.5-2.7-28.9,0c-1.1,0.3-1.8,1.3-1.7,2.4l0.7,10l-2.2-6.1
	c-0.2-0.6-0.7-1.1-1.3-1.4c-0.6-0.3-1.3-0.2-1.9,0c-14.7,6.6-24,19.3-24.6,33.6c-2.3,1.2-6.3,3.9-6.3,8.1
	C556.2,337.1,557.3,338.1,558.6,338.1L558.6,338.1z M565.8,331.3c0.9-0.4,1.5-1.2,1.5-2.2c0-12.2,7.4-23.4,19.5-29.6l7.1,19.6
	c0.4,1.1,1.5,1.8,2.7,1.5c1.2-0.2,2-1.3,1.9-2.5l-1.8-25c7.4-1.8,15.2-1.8,22.6,0l-1.8,25c-0.1,1.2,0.7,2.2,1.9,2.5
	c1.2,0.2,2.3-0.4,2.7-1.5l7.1-19.6c12.1,6.3,19.5,17.5,19.5,29.6c0,1,0.6,1.8,1.5,2.2c0.8,0.3,2.3,1.1,3.3,2h-3.2
	c-0.7,0-1.3,0.3-1.8,0.8s-0.7,1.1-0.6,1.8c0.1,1.5,0.2,2.7,0.2,3.8c0,22.2-18,40.2-40.2,40.2s-40.2-18-40.2-40.2
	c0-1.1,0.1-2.2,0.2-3.8c0.1-0.7-0.2-1.3-0.6-1.8s-1.1-0.8-1.8-0.8h-3.2C563.5,332.4,564.9,331.7,565.8,331.3L565.8,331.3z"/>
<path class="st1" d="M608,287c4.9,0,9.7,0.7,14.4,2c1.1,0.3,1.8,1.3,1.7,2.4l-0.7,10l2.2-6.1c0.2-0.6,0.7-1.1,1.3-1.4
	c0.3-0.1,0.6-0.2,0.9-0.2s0.7,0.1,1,0.2c14.7,6.6,24,19.3,24.6,33.6c2.3,1.2,6.3,3.9,6.3,8.1c0,1.3-1.1,2.4-2.4,2.4h-4.5
	c0,0.6,0,1.1,0,1.6c0,24.8-20.2,45-45,45s-45-20.2-45-45c0-0.5,0-1,0-1.6h-4.5c-1.3,0-2.4-1.1-2.4-2.4c0-4.2,4.1-6.9,6.3-8.1
	c0.6-14.2,9.9-27,24.6-33.6c0.3-0.1,0.6-0.2,1-0.2s0.6,0.1,0.9,0.2c0.6,0.3,1.1,0.8,1.3,1.4l2.2,6.1l-0.7-10
	c-0.1-1.1,0.6-2.1,1.7-2.4C598.3,287.7,603.2,287,608,287 M608,282c-5.4,0-10.7,0.8-15.8,2.2c-2.3,0.7-4.1,2.5-4.9,4.6
	c-0.7,0.1-1.5,0.3-2.1,0.6c-15.4,6.9-25.6,20.2-27.3,35.2c-4.3,2.9-6.6,6.8-6.6,11.1c0,3.9,3.1,7.1,6.9,7.4
	c1.7,26,23.4,46.6,49.8,46.6s48.1-20.6,49.8-46.6c3.9-0.2,6.9-3.4,6.9-7.4c0-4.3-2.3-8.1-6.6-11.1c-1.7-15-12-28.3-27.3-35.2
	c-0.7-0.3-1.4-0.5-2.1-0.6c-0.8-2.2-2.6-4-4.9-4.6C618.7,282.8,613.4,282,608,282L608,282L608,282z"/>
<path class="st1" d="M440.3,143.2c24.8,0,45-20.2,45-44.9s-20.2-45-45-45s-45,20.2-45,45S415.5,143.2,440.3,143.2z M440.3,58
	c22.2,0,40.2,18,40.2,40.2s-18,40.2-40.2,40.2s-40.2-18-40.2-40.2S418.1,58,440.3,58z"/>
<path class="st1" d="M440.3,53.3c24.8,0,45,20.2,45,44.9s-20.2,44.9-45,44.9s-45-20.2-45-44.9S415.5,53.3,440.3,53.3 M440.3,48.3
	c-27.5,0-50,22.4-50,50s22.4,49.9,50,49.9s50-22.4,50-49.9S467.8,48.3,440.3,48.3L440.3,48.3z"/>
<path class="st1" d="M479.6,198.3l0.6,7l8,100.3c1.7,11.6,10.2,19.7,21,19.7h0c17.8-1.8,17.8-17.8,17.8-23c0-0.1,0-0.2,0-0.2
	l-9.9-97.9l-3.9-24.4c-1.4-18-14.1-30.6-30.8-30.6h-37.6l-14.3,0l0,0c-0.1,0-0.1,0-0.2,0h-36.5c-16.7,0-29.3,12.6-30.7,30.4
	l-3.9,24.7l-9.9,97.8c0,0.1,0,0.2,0,0.2c0,5.3,0,21.3,18,23.1c10.5,0,19.1-8.1,20.8-19.9l8-100.2l0.6-7.2v7l-4.9,174.2v60.1
	c0,12.4,10.1,27.3,22.6,27.3s22.6-15,22.6-27.3V306.7h2.4v132.7c0,12.4,10.1,27.3,22.6,27.3s22.6-15,22.6-27.3v-60.2l-4.9-174.1
	L479.6,198.3L479.6,198.3z M479.7,379.3v60.1c0,10.2-8.2,22.6-17.9,22.6S444,449.6,444,439.4V306.7c0-2.6-2.1-4.7-4.7-4.7h-2.4
	c-2.6,0-4.7,2.1-4.7,4.7v132.7c0,10.2-8.2,22.6-17.9,22.6s-17.9-12.4-17.9-22.6v-60l4.9-174.2v-7.1c0-2.6-2.1-4.7-4.7-4.7
	s-4.7,2.1-4.7,4.5l-0.6,7l-7.9,100.1c-1.3,9.4-7.8,15.6-15.8,15.7c-9.3-0.9-13.5-6.6-13.5-18.2l9.9-97.6l3.9-24.8
	c1.2-15.4,11.9-26.2,26-26.2h32.4c-0.5,0.9-0.3,2,0.4,2.7l7.2,7.6l-2.6,6.5c-0.1,0.2-0.1,0.5-0.2,0.7l-4.3,63.4
	c0,0.6,0.1,1.2,0.5,1.6l11.3,13.9c0.5,0.6,1.1,0.9,1.8,0.9s1.4-0.3,1.8-0.9l11.3-13.9c0.4-0.5,0.6-1.1,0.5-1.6l-4.3-63.4
	c0-0.2-0.1-0.5-0.2-0.7l-2.6-6.5l7.2-7.6c0.7-0.7,0.8-1.8,0.4-2.7h27.9c14.1,0,24.8,10.8,26,26.4l3.9,24.4l9.9,97.7
	c0,11.7-4.2,17.3-13.3,18.2c-8.3,0-14.7-6.3-16-15.5l-8-100.2l-0.6-6.8c0-2.6-2.1-4.7-4.7-4.7s-4.7,2.1-4.7,4.7v7.2L479.7,379.3
	L479.7,379.3z"/>
<path class="st1" d="M430.5,149.1l14.3,0h37.6c16.7,0,29.3,12.6,30.8,30.6l3.9,24.4l9.9,97.9c0,0.1,0,0.2,0,0.2
	c0,5.3,0,21.3-17.8,23h0c-10.8,0-19.3-8.1-21-19.7l-8-100.4l-0.6-7v6.9l4.9,174.1v60.2c0,12.4-10.1,27.3-22.6,27.3
	s-22.6-15-22.6-27.3V306.7h-2.4v132.7c0,12.4-10.1,27.3-22.6,27.3s-22.6-15-22.6-27.3v-60.1l4.9-174.2v-7l-0.6,7.2l-8,100.2
	c-1.7,11.8-10.2,19.9-20.8,19.9c-18-1.8-18-17.8-18-23.1c0-0.1,0-0.2,0-0.2l9.9-97.8l3.9-24.7c1.4-17.8,14-30.4,30.7-30.4h36.5
	C430.3,149.1,430.4,149.1,430.5,149.1L430.5,149.1 M430.5,144.1L430.5,144.1c-0.2,0-0.4,0-0.5,0h-36.2c-9.4,0-18.1,3.5-24.6,10
	c-6.3,6.3-10.3,15.1-11.1,24.8l-3.9,24.5c0,0.1,0,0.2,0,0.3l-9.9,97.8c0,0.3,0,0.5,0,0.7c0,2.9,0,9,2.7,14.9
	c2.5,5.3,7.9,11.9,19.8,13.1c0.2,0,0.3,0,0.5,0c8.8,0,16.5-4.5,21.2-11.7l-1.7,60.6c0,0,0,0.1,0,0.1v60.1c0,15,12,32.3,27.6,32.3
	c10.3,0,19.1-7.6,23.8-17.1c4.7,9.5,13.5,17.1,23.8,17.1c15.5,0,27.6-17.4,27.6-32.3v-60.2c0,0,0-0.1,0-0.1l-1.7-60.6
	c4.7,7.2,12.5,11.7,21.4,11.7c0.2,0,0.4,0,0.5,0c11.8-1.2,17.2-7.8,19.6-13.1c2.7-5.9,2.7-12,2.7-14.9c0-0.2,0-0.5,0-0.7
	c0,0,0,0,0-0.1l-9.9-97.9c0-0.1,0-0.2,0-0.3l-3.8-24.2c-0.8-9.8-4.8-18.7-11.1-25c-6.5-6.4-15.2-10-24.6-10h-37.6L430.5,144.1
	L430.5,144.1L430.5,144.1z"/>
<path class="st1" d="M340.3,420.6c0,0,0-0.1,0-0.1l-3.9-24.4c-1.4-18-14.1-30.6-30.8-30.6H217c-16.7,0-29.3,12.6-30.7,30.4
	l-3.9,24.7l-9.9,97.8c0,0.1,0,0.2,0,0.2c0,5.3,0,21.3,18,23.1c10.6,0,19.1-8.1,20.8-19.9l7.9-100.2l0.6-7.2v7L215,595.7v60.1
	c0,12.4,10.1,27.3,22.6,27.3s22.6-15,22.6-27.3V585h2.4v70.8c0,12.4,10.1,27.3,22.6,27.3s22.6-15,22.6-27.3v-60.2l-4.9-174.1v-6.9
	l0.6,7l8,100.4c1.7,11.6,10.2,19.7,21,19.7h0c17.8-1.8,17.8-17.8,17.8-23c0-0.1,0-0.2,0-0.2L340.3,420.6L340.3,420.6z M215.1,414.2
	l-0.6,7l-7.9,100c-1.3,9.4-7.8,15.7-15.8,15.7c-9.3-0.9-13.5-6.6-13.5-18.2l9.9-97.6l3.9-24.8c1.2-15.4,11.9-26.2,26-26.2h16.4
	c-1.5,2.1-2.5,5.7-2.5,9.8v89.3c0,0.7,0,1.4-0.1,2.2h-7.8l1.4-49.9v-7.1c0-2.6-2.1-4.7-4.7-4.7S215.1,411.8,215.1,414.2L215.1,414.2
	z M230.4,478.5c-0.5,5-1.3,10.3-2.3,14.1l-7.8,78.3l2.6-92.4H230.4L230.4,478.5z M255.4,655.8c0,10.2-8.2,22.6-17.9,22.6
	s-17.9-12.4-17.9-22.6v-60l0.5-17.2c1,3.8,4.4,6.4,9,6.4h26.2V655.8L255.4,655.8z M254.3,401.5c-6.5,0-11.9-5.3-11.9-11.9v-9.6
	c0-4-1-7.6-2.4-9.7h43.2c-1.3,2.2-2.2,5.6-2.2,9.5l0.1,9.8c0,6.5-5.2,11.9-11.8,11.9L254.3,401.5L254.3,401.5z M303,595.7v60.1
	c0,10.2-8.2,22.6-17.9,22.6s-17.9-12.4-17.9-22.6V585h26.2c4.6,0,8-2.6,9-6.4L303,595.7L303,595.7z M292.3,478.5h7.5l2.6,92.3
	l-7.8-78.2C293.7,488.9,292.8,483.6,292.3,478.5L292.3,478.5z M332.2,537c-8.3,0-14.7-6.3-16-15.5l-8-100.2l-0.6-6.8
	c0-2.6-2.1-4.7-4.7-4.7s-4.7,2.1-4.7,4.7v7.2l1.4,49.8h-7.8c0-0.8,0-1.5,0-2.2v-89.6c0-3.9-0.9-7.3-2.2-9.5h16.2
	c14.1,0,24.8,10.8,26,26.4l3.9,24.5l9.9,97.6C345.5,530.4,341.3,536,332.2,537L332.2,537z"/>
<path class="st1" d="M305.7,365.5c16.7,0,29.3,12.6,30.8,30.6l3.9,24.4c0,0,0,0.1,0,0.1l9.9,97.8c0,0.1,0,0.2,0,0.2
	c0,5.3,0,21.3-17.8,23h0c-10.8,0-19.3-8.1-21-19.7l-8-100.4l-0.6-7v6.9l4.9,174.1v60.2c0,12.4-10.1,27.3-22.6,27.3
	s-22.6-15-22.6-27.3V585h-2.4v70.8c0,12.4-10.1,27.3-22.6,27.3s-22.6-15-22.6-27.3v-60.1l4.9-174.2v-7l-0.6,7.2l-7.9,100.2
	c-1.7,11.8-10.2,19.9-20.8,19.9c-18-1.8-18-17.8-18-23.1c0-0.1,0-0.2,0-0.2l9.9-97.8l3.9-24.7c1.4-17.8,14-30.4,30.7-30.4
	L305.7,365.5 M302.4,570.8l-2.6-92.3h-7.5c0.5,5,1.4,10.3,2.3,14.1L302.4,570.8 M220.5,570.9l7.8-78.3c0.9-3.8,1.8-9.1,2.3-14.1H223
	L220.5,570.9 M305.8,360.5h-88.7c-9.4,0-18.1,3.5-24.6,10c-6.3,6.3-10.3,15.1-11.1,24.8l-3.9,24.5c0,0.1,0,0.2,0,0.3l-9.9,97.8
	c0,0.3,0,0.5,0,0.7c0,2.9,0,9,2.7,14.9c2.5,5.3,7.9,11.9,19.8,13.1c0.2,0,0.3,0,0.5,0c8.8,0,16.5-4.5,21.2-11.7l-1.7,60.6
	c0,0,0,0.1,0,0.1v60.1c0,15,12.1,32.3,27.6,32.3c10.3,0,19.1-7.6,23.8-17.1c4.7,9.5,13.5,17.1,23.8,17.1c15.5,0,27.6-17.4,27.6-32.3
	v-60.2c0,0,0-0.1,0-0.1l-1.7-60.6c4.7,7.2,12.5,11.7,21.4,11.7c0.2,0,0.4,0,0.5,0c11.8-1.2,17.2-7.8,19.6-13.1
	c2.7-5.9,2.7-12,2.7-14.9c0-0.2,0-0.4,0-0.6c0,0,0-0.1,0-0.1l-9.9-97.8c0-0.1,0-0.3,0-0.4l-3.8-24.2c-0.8-9.8-4.8-18.7-11.1-25
	C323.9,364,315.1,360.5,305.8,360.5L305.8,360.5L305.8,360.5z"/>
<path class="st1" d="M261.4,360.2c24.8,0,45-20.2,45-45s-20.2-45-45-45s-44.9,20.2-44.9,45S236.6,360.2,261.4,360.2z M261.4,275.1
	c22.2,0,40.2,18,40.2,40.2s-18,40.2-40.2,40.2s-40.2-18-40.2-40.2S239.2,275.1,261.4,275.1z"/>
<path class="st1" d="M261.4,270.3c24.8,0,45,20.2,45,45s-20.2,45-45,45s-44.9-20.2-44.9-45S236.6,270.3,261.4,270.3 M261.4,265.3
	c-27.5,0-49.9,22.4-49.9,50s22.4,50,49.9,50s50-22.4,50-50S288.9,265.3,261.4,265.3L261.4,265.3z"/>
<path class="st1" d="M189,258.2c0-0.1,0-0.2,0-0.2l-9.9-97.9l-3.9-24.4c-1.4-18-14.1-30.6-30.8-30.6H55.8
	c-16.7,0-29.3,12.6-30.7,30.4l-3.9,24.7L11.3,258c0,0.1,0,0.2,0,0.2c0,5.3,0,21.3,18,23.1c10.5,0,19.1-8.1,20.8-19.9l8-100.2
	l0.6-7.2v7l-4.9,174.2v60.1c0,12.4,10.1,27.3,22.6,27.3s22.6-15,22.6-27.3V262.7h2.4v132.7c0,12.4,10.1,27.3,22.6,27.3
	s22.6-15,22.6-27.3v-60.1l-4.9-174.1v-6.9l0.6,7l8,100.3c1.7,11.6,10.2,19.7,20.9,19.7h0C189,279.5,189,263.5,189,258.2L189,258.2z
	 M171,276.6c-8.3,0-14.7-6.3-16-15.5L147,160.9l-0.6-6.8c0-2.6-2.1-4.7-4.7-4.7s-4.7,2.1-4.7,4.7v7.2l4.9,174.1v60.1
	c0,10.2-8.2,22.6-17.9,22.6s-17.9-12.4-17.9-22.6V262.7c0-2.6-2.1-4.7-4.7-4.7h-2.4c-2.6,0-4.7,2.1-4.7,4.7v132.7
	c0,10.2-8.2,22.6-17.9,22.6s-17.9-12.4-17.9-22.6v-60l4.9-174.2v-7.1c0-2.6-2.1-4.7-4.7-4.7s-4.7,2.1-4.7,4.5l-0.6,7l-7.9,100.1
	c-1.3,9.4-7.8,15.6-15.8,15.7C20.2,275.7,16,270,16,258.4l9.9-97.6l3.9-24.8c1.2-15.4,11.9-26.2,26-26.2h12.1
	c-2.5,7.7-5,22.1,4.2,35c-2.8,2.4-4.7,5.4-5.4,8.9c-1.8,8.4,2.7,17.6,5,21.7c-0.4,1.4-0.1,3.2,0.9,4.7c0.8,1.1,1.8,2,2.9,2.4
	c0.5,0.2,1,0.3,1.5,0.3c0.7,0,1.4-0.2,2-0.6c2-1.3,2.2-4.3,0.6-6.8c-0.8-1.2-2-2.1-3.3-2.4c-1.7-3-6-11.4-4.6-18.2
	c0.6-3,2.3-5.4,5.1-7.1c2.2-1.4,4.3-1.7,6.7-1.1c7,1.9,13.3,11.6,15.5,15.3c-0.5,1.5-0.2,3.3,0.8,4.8c1.6,2.5,4.5,3.4,6.4,2.1
	c2-1.3,2.2-4.3,0.6-6.8c-0.8-1.2-1.9-2-3.2-2.4c-2.4-4.1-9.7-15.6-18.9-18.1c-2.8-0.8-5.7-0.6-8.4,0.5c-8.6-11.9-5.6-25.4-3.3-31.8
	l26.9,19.4l26.5-19.1c2.2,6.5,5,19.7-3.3,31.3c-0.6-0.2-1.3-0.2-1.9-0.2c-4.2,0-7.7,3.4-7.7,7.7s3.4,7.7,7.7,7.7s7.7-3.4,7.7-7.7
	c0-1.6-0.5-3.2-1.5-4.5c9.2-13,6.7-27.4,4.2-35.1h12.7c14.1,0,24.8,10.8,26.1,26.4l3.9,24.4l9.9,97.7
	C184.3,270,180.1,275.6,171,276.6L171,276.6z"/>
<path class="st1" d="M144.5,105.1c16.7,0,29.3,12.6,30.8,30.6l3.9,24.4l9.9,98c0,0.1,0,0.2,0,0.2c0,5.3,0,21.3-17.8,23h0
	c-10.8,0-19.3-8.1-20.9-19.7l-8-100.4l-0.6-7v6.9l4.9,174.1v60.1c0,12.4-10.1,27.3-22.6,27.3s-22.6-15-22.6-27.3V262.7H99v132.7
	c0,12.4-10.1,27.3-22.6,27.3s-22.6-15-22.6-27.3v-60.1l4.9-174.2v-7l-0.6,7.2l-8,100.2c-1.7,11.8-10.2,19.9-20.8,19.9
	c-18-1.8-18-17.8-18-23.1c0-0.1,0-0.2,0-0.2l9.9-97.8l3.9-24.7c1.4-17.8,14-30.4,30.7-30.4L144.5,105.1 M144.5,100.1H55.8
	c-9.4,0-18.1,3.5-24.6,10c-6.3,6.3-10.3,15.1-11.1,24.8l-3.9,24.5c0,0.1,0,0.2,0,0.3l-9.9,97.8c0,0,0,0.1,0,0.1c0,0.2,0,0.4,0,0.6
	c0,2.9,0,9,2.7,14.9c2.5,5.3,7.9,11.9,19.8,13.1c0.2,0,0.3,0,0.5,0c8.8,0,16.5-4.5,21.2-11.7l-1.7,60.6c0,0,0,0.1,0,0.1v60.1
	c0,15,12,32.3,27.6,32.3c10.3,0,19.1-7.6,23.8-17.1c4.7,9.5,13.5,17.1,23.8,17.1c15.5,0,27.6-17.4,27.6-32.3v-60.1c0,0,0-0.1,0-0.1
	l-1.7-60.6c4.7,7.2,12.5,11.7,21.4,11.7c0.2,0,0.4,0,0.5,0c11.8-1.2,17.2-7.8,19.6-13.1c2.7-5.9,2.7-12,2.7-14.9c0-0.2,0-0.5,0-0.7
	c0,0,0,0,0-0.1l-9.9-97.9c0-0.1,0-0.2,0-0.3l-3.8-24.2c-0.8-9.8-4.8-18.7-11.1-25C162.6,103.7,153.8,100.1,144.5,100.1L144.5,100.1
	L144.5,100.1z"/>
<path class="st1" d="M100.1,100c24.8,0,45-20.2,45-45s-20.2-44.9-45-44.9s-45,20.2-45,45S75.3,100,100.1,100z M100.1,14.8
	c12.4,0,23.4,5.6,30.8,14.4h-20c-1.1-5-5.5-8.7-10.8-8.7s-9.7,3.7-10.8,8.7h-20C76.7,20.4,87.8,14.8,100.1,14.8z M105.5,31.3
	c0,2.9-2.4,5.3-5.3,5.3s-5.3-2.4-5.3-5.3s2.4-5.3,5.3-5.3S105.5,28.3,105.5,31.3z M65.9,34h23.4c1.1,5,5.5,8.7,10.8,8.7
	s9.7-3.7,10.8-8.7h23.4c3.8,6.1,6,13.3,6,21.1c0,22.2-18,40.2-40.2,40.2S59.9,77.2,59.9,55C59.9,47.3,62.1,40.1,65.9,34z"/>
<path class="st1" d="M100.1,10.1c24.8,0,45,20.2,45,45s-20.2,45-44.9,45s-45-20.2-45-45S75.3,10.1,100.1,10.1 M69.3,29.2h20
	c1.1-5,5.5-8.7,10.8-8.7s9.7,3.7,10.8,8.7h20c-7.4-8.8-18.4-14.4-30.8-14.4S76.7,20.4,69.3,29.2 M100.1,36.6c2.9,0,5.3-2.4,5.3-5.3
	s-2.4-5.3-5.3-5.3s-5.3,2.4-5.3,5.3S97.2,36.6,100.1,36.6 M100.1,5.1c-27.5,0-50,22.4-50,50s22.4,50,50,50s49.9-22.4,49.9-50
	S127.7,5.1,100.1,5.1L100.1,5.1L100.1,5.1z M83.1,24.3c1.3-0.7,2.6-1.4,4-1.9c-0.4,0.6-0.8,1.2-1.2,1.9H83.1z M114.4,24.3
	c-0.3-0.7-0.7-1.3-1.2-1.9c1.4,0.5,2.7,1.2,4,1.9H114.4z M100.1,31.6c-0.2,0-0.3-0.1-0.3-0.3s0.2-0.3,0.3-0.3s0.3,0.1,0.3,0.3
	S100.3,31.6,100.1,31.6L100.1,31.6z"/>
<path class="st2" d="M69.3,29.2c0,0,11.8-14.8,30.8-14.4c0,0,17-1.1,30.8,14.4H69.3z"/>
<path class="st3" d="M100.1,46.7c-7.8,0-14.1-6.3-14.1-14.1s6.3-14.1,14.1-14.1s14.1,6.3,14.1,14.1S107.9,46.7,100.1,46.7z"/>
<path class="st3" d="M100.1,19.5c7.2,0,13.1,5.9,13.1,13.1s-5.9,13.1-13.1,13.1S87,39.8,87,32.6S92.8,19.5,100.1,19.5 M100.1,17.5
	c-8.3,0-15.1,6.8-15.1,15.1s6.8,15.1,15.1,15.1s15.1-6.8,15.1-15.1S108.4,17.5,100.1,17.5L100.1,17.5z"/>
</svg>
