<?xml version="1.0" encoding="utf-8"?>
<!-- Generator: Adobe Illustrator 27.3.1, SVG Export Plug-In . SVG Version: 6.00 Build 0)  -->
<svg version="1.1" id="Layer_1" xmlns="http://www.w3.org/2000/svg" xmlns:xlink="http://www.w3.org/1999/xlink" x="0px" y="0px"
	 viewBox="0 0 720 720" style="enable-background:new 0 0 720 720;" xml:space="preserve">
<style type="text/css">
	.st0{fill:#FFFFFF;stroke:#FFFFFF;stroke-width:5;stroke-linecap:round;stroke-linejoin:round;}
</style>
<path class="st0" d="M688.1,518.3c-1.4-5.1-4-10-7.8-14.5c-3.8-4.6-10.8-16.2-18.9-29.6c-4.7-7.7-10-16.4-15.6-25.4
	c-19.4-30.8-39.3-61.1-59.3-90c-20-28.8-40.2-56.6-60-82.5c-7-9-12.2-15.7-17.2-21c-4.5-4.8-8.7-8.4-15-13.1
	c-8.8-6.4-17-13.8-25.6-21.6c-3.9-3.5-7.9-7.1-11.8-10.5c-2.1-1.8-5.6-3.9-9.8-6.4c-3.7-2.2-7.9-4.7-10.8-6.9
	c-0.7-0.5-1.5-0.9-2.4-1c-12.1-6.3-27.4-16.5-33.8-21c-1.8-1.5-4.2-2.4-6.7-2.4c-1.1,0-2.2,0.1-3.4,0.4c-2.5,0.6-5.3,1.8-8.6,3.9
	c-2.5,1.5-4.9,3-6.9,4.3l0.4,0.7l0,0l0,0c-1.7,1.1-3.5,2.2-5.1,3.2c1.7-1.1,3.4-2.1,5.1-3.2l-0.4-0.7c-5.8,3.7-11.3,7.1-17.2,10.1
	c-1.6,0.8-3.3,1.6-5,2.4l0,0c-5.8,2.6-11.9,5.4-17.1,11.4c-3.7,4.3-6.8,8.3-6.7,13c0,3.1,2.5,7.1,7.3,11.8c-2,1.7-3.5,3.9-4.6,6.6
	c-1.6,4.2-1.9,8.9-0.7,13.4c1.2,4.7,3.8,8,7.9,10.4c3.4,1.9,8.1,3.3,15.5,4.5c7.5,1.2,12.6,3.8,19.1,7.1c4,2.1,8.5,4.4,14.4,6.7
	c10.9,4.4,22.7,6.4,33.1,8.2l0.1,0c4,0.7,7.9,1.4,11.4,2.1c6.7,1.4,13.9,3.2,20.7,7.1c8.1,4.6,13.8,11.3,17.5,20.4
	c2.5,6.3,9.1,24.4,16.8,45.4c7.2,19.8,15.2,43.7,22.3,64.8l0,0.1c4.9,14.6,9.5,28.4,13.1,38.6c1.1,3,2,5.6,2.8,7.9
	c-9.5-3-19.3-5.5-29.1-7.4c-1.5-0.3-3.1-0.6-4.8-1l-0.1,0c-0.8-0.2-1.5-0.3-2.2-0.5l-0.1,0c-5.2-1.1-10.5-2.3-15.8-2.4
	c-0.3-0.7-0.5-1.4-0.7-2c-0.8-2.3-1.4-4.8-1.9-7.4c-0.5-2.3-1-4.8-1.8-7.1c-0.2-0.7-0.2-1.1-0.3-1.6c-0.2-3.1-1.3-4.9-4.5-7.1
	c-0.6-0.4-1.3-0.9-2.2-1.5c-8.1-5-20.1-7.5-35.8-7.5c-10.3,0-18.9,1.1-22.2,1.6c-15,2.2-31.7,11.8-35.3,28c-1,4.7-0.8,9.4-0.6,13.6
	c-2.1,0.5-6.1,1.2-13.5,1.7l-35.2-41.6l6.4-30.1c0.4-2.1-0.6-4.2-2.5-5.2l-59.7-30c4.9-3.1,9.2-7.2,12.8-12.4
	c4.2-6.1,8.8-15,13.7-26.5c4.9-11.5,10.2-26,14.1-38.9c4.7-15.3,8.1-28.2,9-41.3c0.9-13.4-0.8-26.2-5.4-41.5
	c-1.9-6.1-3.8-12.6-5.4-18.5c-0.5-1.9-0.9-3.8-1.3-5.9c-0.5-2.3-1-4.7-1.6-7c-1-3.5-1.2-7.2-1.5-11.2c-0.2-2.2-0.3-4.4-0.6-6.6
	c-0.7-5.7-1.5-10.7-2.3-15.4c-1.7-9.5-3.9-20.4-8.6-30.1c-0.3-0.5-0.5-1-0.8-1.5c-1.1-2.1-2.5-4.2-4.2-6.3c-1.8-2.9-3.3-4.8-3.9-5.4
	c-13.2-19.8-28.3-32.8-46.1-39.6c2.3-4.6,3.5-8.2,5-12.7c1.1-3.5,2.5-7.5,4.7-13.2l1-2.5c0.1-0.3,0-0.7-0.2-0.9l-2-1.8
	c-8.3-7.4-18.3-11.4-28.8-11.4c-2.3,0-4.6,0.2-6.9,0.5c-11.7,1.8-23.1,8.2-32.1,17.9c-1.9,2-4.2,4.7-6.6,7.6
	c-23.7,3-47,10.2-69.3,21.2c-5.1-1.2-10.2-1.9-15.1-1.9c-16.3,0-31.2,6.8-44,20.1l-2.6,2.7c-0.3,0.3-0.3,0.8,0,1.1l2.5,2.7
	c0.2,0.3,6,6.3,16.1,13.2c-9.3,8.4-15.4,18.2-18.6,29.7c-2.8,10.1-3.5,21.7-2.4,37.9c1.2,17.7,7.7,34.3,14.5,49.5
	c1.2,2.6,1.2,2.8,0.8,4.5c-1,4.5-0.6,8.6,1.2,12.9c3.9,9.4,10.6,18.6,16.5,26.6l0.2,0.3c0.6,0.8,1.2,1.7,1.8,2.5
	c5.5,7.6,10.9,13.8,16.4,18.9c0.3,0.3,0.7,0.6,1.1,1l0.2,0.2c4.9,4.6,12.2,11.5,19.9,11.8l7.9,10.4c1.4,2,3.1,4.2,4.9,6.4
	c-0.6,1.1-0.7,2.3-0.4,3.5c0,0.2,4.2,15.9,6.5,33.4c-7.5-3.1-12.1-5-13-5.3c-0.6-0.2-1.2-0.3-1.7-0.3c-1.9,0-3.6,1.1-4.3,2.9
	c-10,23.6-14.3,43.3-12.8,58.6c0.7,7.1,2.6,11.7,4.1,14.5c-0.1,0.2-0.2,0.4-0.3,0.6c-9.3,27.2-17.4,56.9-25.6,93.6
	c-10.9,49.5-9.8,147,3.7,197.3l9.1-2.5C68.9,660.1,67.8,564,78.4,516c7.9-35.9,15.9-65,24.9-91.6c1.9,0,3.8-0.1,5.8-0.1
	c79,0,196,39.2,197.2,39.6c0.1,0,0.2,0,0.3,0.1l0.1,0c0.1,0,0.1,0,0.2,0.1c0,0,0.1,0,0.1,0c0.1,0,0.1,0,0.2,0c0.2,0,0.5,0,0.7,0
	c0.5,0,1.1-0.1,1.6-0.3c0.1,0,0.1,0,0.2-0.1l0,0c0.2-0.1,0.3-0.1,0.5-0.2c0.1,0,0.1-0.1,0.2-0.1l0,0c0.1-0.1,0.3-0.2,0.4-0.3
	c0,0,0,0,0.1-0.1c0.1-0.1,0.3-0.3,0.5-0.4c0,0,0.1-0.1,0.1-0.1c0.1-0.2,0.2-0.3,0.4-0.5c0-0.1,0.1-0.1,0.1-0.2
	c0.1-0.1,0.2-0.3,0.2-0.5l0,0c0,0,0-0.1,0.1-0.1c0.1-0.2,0.2-0.5,0.2-0.7c0,0,0,0,0-0.1l4-18.9l26.6,31.4c-3.2,0.1-6.6,0.1-10.2,0.1
	c-9.4,0-20.4-0.3-32.6-0.8c-21.4-0.9-40.9-1.3-58.1-1.3c-58.3,0-72.3,5.1-72.9,5.4c-2.4,0.9-3.7,3.7-2.7,6.1c0.7,1.8,2.4,3,4.4,3
	c0.6,0,1.1-0.1,1.7-0.3c0.5-0.2,13.8-4.8,68.9-4.8c17.2,0,36.8,0.5,58.3,1.3c12.5,0.5,23.6,0.8,33,0.8c16.1,0,27.9-0.8,35-2.2
	l0.9,19.6c0.6,13,2.7,26,4.8,38.5v0.1c0.9,5.7,1.9,11.5,2.7,17.3c2.6,18.6,0,35.7-3.1,53c-0.9,5.1-1.7,10.2-0.9,15.3
	c-53.3,0.2-96.5,5.9-128.4,16.9c-24.4,8.5-32.9,17-33.8,17.9c-1.8,1.9-1.7,4.9,0.2,6.7c0.9,0.8,2,1.3,3.2,1.3c1.3,0,2.6-0.5,3.4-1.5
	c0.1-0.1,7.9-8.1,31.6-16c39-13.1,90.3-15.8,126.4-15.8c0.1,0,0.1,0,0.2,0c0.1,0,0.1,0,0.2,0c0,0,0.1,0,0.1,0c0,0,0,0,0.1,0h0
	c1.7,2.7,4,4.8,6.8,6.3c3.2,1.7,7,2.5,11.4,2.5c5.2,0,11.3-1.2,18.2-3.6c1-0.4,2.1-0.7,3.1-1.1c6.5-2.3,12.7-4.6,18.7-4.6
	c1.1,0,2.1,0.1,3.2,0.2c1.3,0.2,2.6,0.4,3.9,0.6l0.2,0c3.6,0.6,7.3,1.2,10.9,1.2c9.4,0,15.8-4.1,20.6-13.4c0.4-0.7,0.7-1.4,1-2.3
	c20.5-2.7,88.6-12.2,111.7-20.3c11.6-4.1,24.4-8.9,38.2-14.4c11.4-4.6,21-8.6,27.2-11.2c8.2-3.4,17.3-10,24.4-17.4
	c4.9-5.2,11.2-13.2,13.4-22.4C689.7,528.7,689.5,523.4,688.1,518.3L688.1,518.3z M240.6,28.8L240.6,28.8l-0.6,1.6L240.6,28.8z
	 M234.9,44.5c0.3-0.8,0.5-1.6,0.8-2.5C235.4,42.9,235.2,43.8,234.9,44.5c-0.2,0.6-0.4,1.2-0.6,1.8C234.5,45.7,234.7,45.1,234.9,44.5
	z M31.5,158.1c0.1,3.1,0.2,6.3,0.5,9.6C31.8,164.4,31.6,161.2,31.5,158.1z M287.4,378.8l-26.2-13.2l0,0L287.4,378.8z M258.7,373.1
	c-0.1,0.9-0.2,2-0.3,3.1C258.5,375,258.6,374,258.7,373.1L258.7,373.1z M262.3,354.8c0.9-0.8,1.7-1.5,2.5-2.4
	C264,353.3,263.2,354.1,262.3,354.8z M269,347c-0.2,0.4-0.5,0.7-0.7,1c-0.7,1.1-1.5,2.1-2.3,3c0.8-0.9,1.5-1.9,2.3-3
	C268.5,347.7,268.8,347.4,269,347c0.5-0.7,0.9-1.4,1.4-2.2C269.9,345.6,269.4,346.3,269,347z M281.1,323.2c-1,2.4-2,4.7-3,6.8
	C279.1,327.8,280.1,325.6,281.1,323.2c0.3-0.7,0.6-1.4,0.9-2.1C281.7,321.8,281.4,322.5,281.1,323.2z M298.4,207.7
	c0.2,0.5,0.3,1,0.5,1.5C298.7,208.7,298.6,208.2,298.4,207.7c-0.5-1.6-1-3.1-1.4-4.7C297.5,204.5,298,206.1,298.4,207.7z M293,188.8
	c0.3,1.1,0.6,2.3,0.9,3.5C293.6,191.1,293.3,189.9,293,188.8c-0.1-0.5-0.3-1.1-0.4-1.6C292.7,187.7,292.8,188.3,293,188.8z
	 M288.2,163.1c0.1,2,0.3,4,0.6,6.1C288.5,167.1,288.4,165.1,288.2,163.1c-0.1-1.1-0.2-2.1-0.2-3.1C288.1,161,288.2,162,288.2,163.1z
	 M281.7,131.9l0.4-0.8L281.7,131.9c-0.1,0-0.2-0.1-0.3-0.1C281.5,131.8,281.6,131.8,281.7,131.9z M281,123L281,123
	c-0.2-0.7-0.5-1.5-0.8-2.2C280.6,121.6,280.8,122.3,281,123z M276.2,97.7c0.1,0.1,0.2,0.2,0.3,0.3C276.4,97.9,276.3,97.8,276.2,97.7
	c-2.5-3.8-5-7.3-7.7-10.5C271.2,90.4,273.7,93.9,276.2,97.7z M276.2,111.9c-0.6-1-1.3-2-2.1-3C274.9,109.9,275.6,110.9,276.2,111.9z
	 M266.5,84.7c-1.3-1.6-2.7-3.1-4.1-4.5C263.8,81.7,265.2,83.2,266.5,84.7z M258.9,88.5c-1.1-1.2-2.1-2.4-3.2-3.5
	C256.8,86.1,257.8,87.3,258.9,88.5z M236.2,60.8c-2.2-1-4.4-2-6.6-2.8C231.8,58.8,234,59.8,236.2,60.8z M210.3,15.9
	c0.1,0,0.1,0,0.2,0c-0.7,0-1.4,0-2.1,0C209.1,15.9,209.7,15.9,210.3,15.9L210.3,15.9z M177.6,39.4c0.6-0.7,1.2-1.3,1.9-1.9
	C178.8,38,178.2,38.7,177.6,39.4c-2.1,2.2-5.2,5.8-8.4,9.9l0,0C172.4,45.1,175.5,41.6,177.6,39.4z M168,50.8L168,50.8
	c-2.9,3.8-5.7,8.2-7.9,12.5C162.3,59,165.2,54.7,168,50.8z M169.2,50.7c0.1,0,0.1,0,0.2,0l0-0.2c3.4-4.5,6.7-8.2,8.9-10.6
	c11.8-12.7,23.5-15.4,31.3-15.4s14.8,2.4,20.8,6.9c-1.6,4.3-2.7,7.7-3.6,10.5c-2.5,7.7-3.9,12-11.8,23.6c-2.3,3.4-7.5,8.9-11.4,11.9
	c-0.1,0-0.3,0.1-0.4,0.2c-0.2,0.2-17.4,15.2-34.4,15.2c-2,0-3.9-0.2-5.7-0.6c0.6-1.8,0.8-3.6,0.8-5.5c0-5.3-2.3-10.4-6.2-13.9
	C159,65.5,164.1,57.3,169.2,50.7L169.2,50.7z M180.2,99.8c-1.6,0.4-3.2,0.8-4.9,1.1c-2.2,0.4-4.4,0.6-6.7,0.6l0,0
	c2.2,0,4.5-0.2,6.7-0.6C177,100.6,178.6,100.2,180.2,99.8z M163,86.7c0-0.5,0-1-0.1-1.5C162.9,85.7,163,86.2,163,86.7
	c0,2.1-0.4,4.2-1.1,6.1l0,0C162.6,90.8,163,88.8,163,86.7z M156.4,52.5c-3.2,5.1-6,10.5-7.5,15.8c-1.3-0.3-2.6-0.4-3.9-0.4
	c-7.2,0-13.7,4.1-16.8,10.6C123.6,75,117,70.6,109,67C124.4,60.2,140.3,55.4,156.4,52.5z M141.2,104.1c0.6,0.1,1.2,0.2,1.8,0.3
	C142.4,104.4,141.8,104.3,141.2,104.1c-8.8,7.9-17.6,12.2-25.6,14.1C123.6,116.3,132.4,112.1,141.2,104.1z M135,86.7L135,86.7
	c0-2.3,0.8-4.5,2.1-6.2C135.8,82.2,135,84.3,135,86.7z M115.6,80.3c-4.5-2.8-9.9-5.6-15.9-7.7C105.7,74.7,111.1,77.5,115.6,80.3z
	 M80.2,61.2C80.2,61.2,80.3,61.2,80.2,61.2c-0.5,0-1.2,0-1.7,0C79.1,61.2,79.7,61.2,80.2,61.2z M80.2,69.8c6.1,0,12.6,1.2,19.2,3.5
	c13.4,4.8,23.9,13.2,27.1,16c0.6,4.3,2.6,8.2,5.8,11.1c-9.1,7.2-18.8,10.8-29,10.8s-18.3-3.6-22.4-6c-0.1-0.2-0.2-0.4-0.5-0.5
	c-0.3-0.1-0.5-0.2-0.8-0.3c-0.2-0.1-0.3-0.1-0.4-0.2c-0.6-0.3-0.9-0.6-1-0.7c-0.2-0.1-0.3-0.2-0.5-0.2c-0.1,0-0.2,0-0.3,0.1
	c-14.9-6.5-25.6-14.8-31-19.7C56.6,74.5,68,69.8,80.2,69.8L80.2,69.8z M103.4,119.8c-2.1,0-4.2-0.1-6.1-0.4
	C99.2,119.6,101.3,119.8,103.4,119.8z M80.1,105.5l-0.1,0.2l0,0L80.1,105.5L80.1,105.5z M77.7,104.2l-0.1,0.2L77.7,104.2L77.7,104.2
	z M45.2,83.8c0.6,0.6,1.4,1.2,2.2,1.9C46.5,85,45.8,84.4,45.2,83.8L45.2,83.8z M42.5,91.8c1.2,1,2.5,2.1,4.1,3.3
	C45,93.9,43.7,92.8,42.5,91.8z M48.1,96.3c1.1,0.8,2.3,1.7,3.5,2.5C50.4,98,49.2,97.1,48.1,96.3z M46.5,216.9c-0.7-1.5-1.3-3-2-4.5
	C45.1,214,45.8,215.5,46.5,216.9c0.1,0.3,0.2,0.5,0.3,0.7C46.7,217.4,46.6,217.2,46.5,216.9L46.5,216.9z M54,213.6
	c-1.5-3.4-3-6.8-4.4-10.3C50.9,206.7,52.4,210.2,54,213.6c0.1,0.3,0.2,0.5,0.3,0.8C54.2,214.1,54.1,213.8,54,213.6z M55.4,223.7
	c-0.1,0.3-0.1,0.6-0.2,0.8C55.3,224.2,55.3,223.9,55.4,223.7c0.1-0.3,0.1-0.5,0.2-0.8C55.5,223.1,55.5,223.4,55.4,223.7z
	 M60.8,240.2c1.7,2.8,3.6,5.6,5.5,8.4C64.3,245.8,62.5,243,60.8,240.2z M56.9,230.8c-1-2.4-1.2-4.5-0.7-7c1-4.6,0.1-7.1-1.5-10.6
	c-6.5-14.4-12.6-29.9-13.7-46.1c-1.8-26.8,0.8-45.5,19.9-61.4c4.5,2.6,9.3,4.9,14,6.9c3.5,2.1,10.8,5.8,20.4,7.3
	c2.7,0.4,5.4,0.6,8,0.6c13.7,0,26.4-5.2,38-15.6c1.2,0.2,2.4,0.4,3.6,0.4c4.7,0,9.2-1.7,12.6-4.9c3.5,1.2,7.2,1.8,11,1.8
	c17.8,0,34.4-12.4,39.4-16.5c0.1,0,0.2-0.1,0.2-0.1c4.7-3.5,11.3-10.3,14.4-14.8c1.1-1.6,2.1-3.1,3-4.6
	c16.5,5.9,30.6,17.8,42.9,36.4l0.1,0.2c0,0.1,0.1,0.1,0.1,0.2l0.4,0.4c0,0,1.4,1.6,3.3,4.7c0,0,0,0,0,0l0.3,0.4c0,0,0,0,0,0
	c1.3,1.6,2.5,3.3,3.4,5c0.2,0.4,0.4,0.8,0.6,1.2c1,2.1,2,4.3,2.8,6.8c-21.6-9.4-42.8-14.1-63.2-14.1c-1.4,0-2.8,0-4.1,0.1
	c-3.8,0.1-7.8,0.4-11.8,1c-0.4-0.1-0.7-0.1-1.1-0.1c-0.7,0-1.4,0.1-2,0.3c-0.2,0.1-0.4,0.2-0.6,0.3c-15.2,2.4-29.6,7.8-43,15.8
	c-1.5,0.6-2.8,1.3-3.9,2.2c-0.4,0.3-0.7,0.6-1,1c-2.4,1.6-4.6,3.2-6.7,4.8C105.4,160.7,79,202,67.6,249
	C63.6,243.5,59.5,237.1,56.9,230.8L56.9,230.8z M212.4,108.3c1.4,0,2.7-0.1,4.1-0.1c0,0,0,0,0,0
	C215.2,108.2,213.8,108.3,212.4,108.3L212.4,108.3z M212.9,116.1c-0.1,0-0.1,0-0.2,0c0,0,0,0-0.1,0c0,0,0,0,0.1,0
	C212.7,116.1,212.8,116.1,212.9,116.1z M206.8,116.4C206.8,116.4,206.7,116.4,206.8,116.4L206.8,116.4
	C206.7,116.4,206.7,116.4,206.8,116.4z M205.3,142.9c-0.1,1.2-0.3,2.5-0.6,3.7C205,145.4,205.2,144.1,205.3,142.9z M195.4,162.4
	c-4.1,3.6-8.8,5.6-13.1,5.6c-0.3,0-0.6,0-0.9,0c-4-0.3-7.6-2.6-9.1-5.7c1.6,0.8,3.2,1.1,5,1.1c3.9,0,8.2-1.9,11.6-5.1
	c3.4-3.2,4.9-7.3,4.4-11.9c-0.9-7-6.6-13.1-11.6-15.9c-1.1-0.6-2.4-1.1-3.8-1.6c6.3-2.5,13-4.3,19.7-5.4c0.6,1.3,1.2,3.3,1.6,4.3
	c0.4,1.3,0.7,2.2,1.1,2.9c2.9,5.8,4.1,10.8,3.8,15.3C203.7,151.9,200.5,157.9,195.4,162.4L195.4,162.4z M200.9,167.7
	c-2.7,2.3-5.5,4.1-8.4,5.5C195.4,171.8,198.2,170,200.9,167.7z M171.7,140.2c0.3,0.4,0.5,0.8,0.7,1.2c0.3,0.9,0.4,1.8,0.1,2.7l0,0
	c0.3-0.9,0.2-1.9-0.1-2.7C172.2,141,172,140.6,171.7,140.2z M172.3,144.4c-0.2,0.9-0.4,1.8-0.4,2.8
	C172,146.2,172.1,145.3,172.3,144.4z M172.8,151c0.3,0.4,0.6,0.8,1.1,1.1l0,0l0,0C173.5,151.8,173.1,151.4,172.8,151z M174.6,160.8
	c0.3,0,0.7,0,1,0c-0.1,0-0.1,0-0.2,0C175.1,160.8,174.8,160.8,174.6,160.8L174.6,160.8z M192,145.7c-0.1,2.3-0.7,4.5-1.9,6.5
	C191.3,150.2,192,148,192,145.7z M191.9,143.3L191.9,143.3c0.1,0.8,0.1,1.6,0.1,2.3C192.1,144.9,192,144.1,191.9,143.3z
	 M187.4,155.5c0.6-0.5,1.1-1.1,1.5-1.6C188.5,154.5,188,155,187.4,155.5z M173.5,124.4L173.5,124.4c6-2.5,12.2-4.4,18.5-5.8
	C185.7,120,179.5,122,173.5,124.4L173.5,124.4z M199.3,109.2c0,0,0.1,0,0.1,0c0.1,0,0.2,0,0.2,0
	C199.6,109.2,199.5,109.2,199.3,109.2z M199.8,122.4c0.1,0.1,0.1,0.3,0.1,0.4c0.1,0.3,0.2,0.6,0.3,0.8c-0.1-0.2-0.2-0.5-0.3-0.8
	C199.9,122.7,199.9,122.6,199.8,122.4z M151.4,136.7c-1.4,0.9-2.7,1.9-4,2.9c-1,0.7-1.9,1.5-2.9,2.2c0.9-0.8,1.9-1.5,2.9-2.2
	C148.7,138.6,150.1,137.6,151.4,136.7z M112.4,305.8l-8.2-10.7L112.4,305.8c1.6,2.2,3.4,4.5,5.3,6.8
	C115.8,310.3,114,308.1,112.4,305.8z M107.8,286.2L107.8,286.2l5.7,7.4L107.8,286.2z M108.4,285.8c-0.2-0.2-0.4-0.3-0.7-0.3
	c-0.1,0-0.1,0-0.2,0L105,286c-0.2,0-0.4,0.1-0.6,0.1c-3.9,0-10.5-6.2-13.7-9.1c-0.5-0.5-0.9-0.9-1.3-1.2c-5.1-4.7-10-10.4-15.2-17.5
	c-0.2-0.3-0.4-0.6-0.6-0.9l0.8,0.2c0.1,0,0.1,0,0.2,0c0.2,0,0.3,0,0.4-0.1c0.2-0.1,0.3-0.3,0.4-0.5c10.1-47.4,35.8-88.8,72.4-116.7
	c1.8-1.4,3.8-2.8,6-4.3c0.7-0.1,1.4-0.4,1.9-0.8c2-1.4,5.5-2.3,9.6-2.3c3.9,0,7.7,0.8,9.9,2c3.8,2.1,7,6.2,7.4,9.6
	c0.2,1.7-0.3,3-1.6,4.2c-1.8,1.7-4.1,2.8-5.7,2.8c-0.4,0-0.8-0.1-1.1-0.3c-1.5-0.8-2-4.1-1.1-6.9c0.8-2.5-0.5-5.2-2.9-6.2
	c-0.6-0.2-1.2-0.4-1.9-0.4c-1.9,0-3.7,1.1-4.5,2.9c-2.5,5.2-6,12.4-4.4,20.1c1.8,8.6,10.1,15.3,19.7,15.9c0.6,0,1.1,0.1,1.7,0.1
	c7.1,0,14.5-3,20.8-8.6c7.6-6.6,12.2-15.6,12.9-24.6c0.5-6.7-1.2-13.8-5.1-21.7c-0.1-0.2-0.4-1.3-0.7-1.9c-0.3-0.8-0.6-1.8-0.9-2.7
	c1.8-0.1,3.4-0.2,4.9-0.3c1.3,0,2.6-0.1,3.9-0.1c20.7,0,42.5,5.3,64.7,15.8c0.1,0.1,0.2,0.1,0.4,0.1c0.1,0,0.2,0,0.3-0.1
	c0.2-0.1,0.4-0.2,0.5-0.4l0.2-0.4c0.8,3.5,1.5,7,2,10.3c0.8,4.5,1.5,9.3,2.2,14.9c0.2,1.9,0.4,3.9,0.6,6.1c0.3,4.3,0.7,8.7,1.9,13.1
	c0.6,2.1,1,4.2,1.5,6.4c0.4,2.1,0.9,4.2,1.4,6.4c1.6,6.1,3.6,12.7,5.5,18.9c4.3,14.1,5.9,25.8,5,38c-0.8,12.2-4,24.5-8.5,39.1
	c-3.9,12.5-9,26.7-13.8,37.9c-4.6,10.9-8.9,19.2-12.7,24.7c-6.4,9.2-15,15.4-36.2,15.4c-1.2,0-2.6,0-4.1,0
	c-7.5-0.2-17.8-2.7-30.6-7.6c-12.7-4.8-23.9-10.4-29.5-13.3c-9.3-4.8-20.9-13.4-31-23c-6.7-6.3-12.2-12.5-16.5-18.5L108.4,285.8
	L108.4,285.8z M168.5,158.6c0,0.1,0,0.1,0,0.2c0.1,0.3,0.1,0.6,0.3,0.9c-0.1-0.3-0.2-0.6-0.3-0.9
	C168.5,158.7,168.5,158.6,168.5,158.6L168.5,158.6z M168.4,138.6L168.4,138.6c0.2,0,0.4,0,0.6,0.1
	C168.7,138.7,168.5,138.6,168.4,138.6L168.4,138.6z M161.1,163.2c-0.4-0.9-0.6-1.8-0.8-2.7c-0.3-1.4-0.4-2.8-0.4-4.1
	c0,1.4,0.1,2.7,0.4,4.1C160.5,161.5,160.8,162.4,161.1,163.2z M207.3,118.3c0.2,0.6,0.4,1.2,0.6,1.9c0.2,0.5,0.4,1.2,0.5,1.6
	c-0.2-0.4-0.4-1.1-0.5-1.6C207.8,119.5,207.5,118.9,207.3,118.3z M128.1,324.8c0.5,0.5,1,1,1.5,1.4c10.7,10.1,23.1,19.3,33.2,24.5
	c5.8,3,17.5,8.8,30.6,13.8c13.9,5.3,25.3,8,33.9,8.2c1.6,0,3,0,4.3,0c4.8,0,11.8-0.2,18.8-2c-0.8,7.1-2.4,25.5,1.1,39.8
	c-42.4-23.9-92.1-45.8-118.5-57C131.7,342.9,129.7,332.5,128.1,324.8L128.1,324.8z M132,354.2L132,354.2c-0.1-1.1-0.2-2.3-0.4-3.5
	C131.8,351.9,131.9,353.1,132,354.2z M130,339c-0.7-4-1.4-7.8-2.1-11.1C128.6,331.2,129.3,335,130,339z M163.1,350
	c0.9,0.5,1.9,1,3,1.6C165,351,163.9,350.5,163.1,350c-3.3-1.7-6.8-3.8-10.4-6.3C156.3,346.2,159.8,348.3,163.1,350z M155.3,335.6
	c4,2.8,7.9,5.2,11.5,7.1C163.3,340.9,159.4,338.5,155.3,335.6z M251.1,370.3c0-0.2,0.1-0.4,0.1-0.6l0,0
	C251.2,369.9,251.2,370.1,251.1,370.3z M108.1,344.7c0.1,0,0.3,0,0.4,0C108.3,344.7,108.2,344.7,108.1,344.7
	C108,344.7,108,344.7,108.1,344.7L108.1,344.7z M99.3,399.2c0,7.5,1.4,12.2,2.6,15c0.2,0.4,0.4,0.8,0.5,1.1
	c-0.2-0.3-0.3-0.7-0.5-1.1C100.7,411.4,99.3,406.6,99.3,399.2z M109.1,414.9c-2,0-4,0-5.9,0.1c-2.5-4.8-8.1-21.6,7.4-60.2
	c12,4.9,41.7,17.2,75.3,33.2c49.3,23.3,87,44.9,109.6,62.7C263.6,440.7,173.7,414.9,109.1,414.9z M266.9,443
	c12.9,3.6,23.7,6.9,31.1,9.2C290.6,449.9,279.9,446.6,266.9,443z M281.1,429.6c9.5,6.2,18,12.4,25.1,18.5
	C299.1,442.1,290.6,435.9,281.1,429.6z M309.2,463.1c-0.1,0-0.3,0.1-0.5,0.1C308.9,463.2,309,463.2,309.2,463.1
	C309.2,463.1,309.2,463.1,309.2,463.1C309.2,463.1,309.2,463.1,309.2,463.1z M305.7,446.6c-10.6-8.9-24.9-18.6-42.5-29.1
	c0.1-0.9-0.1-1.7-0.5-2.4c-5.5-11-4.3-31.4-3.4-40.8l55.7,28L305.7,446.6z M169.6,477.1c-0.9,0.4-1.6,1-2,1.8
	C168,478.1,168.7,477.5,169.6,477.1z M170.9,484.7c-1.4,0-2.7-0.7-3.4-2C168.3,484,169.6,484.7,170.9,484.7c0.4,0,0.9-0.1,1.4-0.2
	C171.8,484.6,171.4,484.7,170.9,484.7z M172.4,484.4c0.1,0,0.2-0.1,0.4-0.1C172.7,484.3,172.5,484.4,172.4,484.4z M171.4,476.6
	c1.1-0.3,2.6-0.6,4.8-1C174,476,172.4,476.3,171.4,476.6z M209.5,472.5c1.5-0.1,3.1-0.1,4.8-0.2
	C212.7,472.4,211.1,472.4,209.5,472.5z M241.5,471.8c0.2,0,0.4,0,0.6,0c0.6,0,1.3,0,2,0C243.2,471.8,242.4,471.8,241.5,471.8
	L241.5,471.8z M268.1,472.1c2.6,0.1,5.4,0.1,8.2,0.2C273.5,472.3,270.8,472.2,268.1,472.1z M332.9,481.7c-0.1,0-0.1,0-0.2,0
	c0.8,0,1.6,0,2.4,0C334.3,481.7,333.6,481.7,332.9,481.7L332.9,481.7z M344.7,473.8c0.1,0,0.1,0,0.2,0l0,0
	C344.8,473.8,344.7,473.8,344.7,473.8z M369.6,499.9l-1-20.6L369.6,499.9c0.4,8.7,1.5,17.3,2.8,25.9
	C371,517.2,370,508.6,369.6,499.9z M376.2,473.3l-0.1-2.5c0-0.7-0.1-1.5-0.1-2.2c0,0.8,0.1,1.5,0.1,2.2L376.2,473.3
	c0,0.1,0,0.2,0,0.4C376.2,473.5,376.2,473.4,376.2,473.3z M213.6,666.1L213.6,666.1c0.8,0,1.6-0.2,2.2-0.7
	C215.1,665.9,214.3,666.1,213.6,666.1z M246,649.5c-2.1,0.8-4.1,1.5-6,2.2C241.9,651,243.9,650.2,246,649.5s4.4-1.5,6.8-2.2
	C250.4,648,248.1,648.7,246,649.5z M285.5,639.5c2.4-0.4,4.8-0.8,7.3-1.2C290.3,638.7,287.9,639.1,285.5,639.5z M375.7,632.8
	L375.7,632.8c0.1,0,0.3,0,0.4,0C376,632.8,375.8,632.8,375.7,632.8z M653.4,479c-1.2-1.9-2.4-3.9-3.6-5.9
	C651.1,475.1,652.3,477.1,653.4,479z M596.3,374.6c-3.5-5.1-7-10.3-10.5-15.4C589.3,364.3,592.8,369.4,596.3,374.6z M493.7,242.9
	c2.1,1.6,4,3,5.8,4.4C497.7,245.9,495.8,244.4,493.7,242.9c-1.1-0.8-2.2-1.6-3.3-2.5C491.5,241.2,492.6,242.1,493.7,242.9z
	 M500.2,259.3c-2.5-2.5-5.1-4.8-8.4-7.2C495,254.5,497.7,256.8,500.2,259.3z M462.3,227.5c-3.4-3-6.8-6.1-10.2-9.1
	C455.5,221.4,459,224.5,462.3,227.5z M435.7,197.4c0.3,0.2,0.6,0.4,0.9,0.6C436.2,197.8,435.9,197.6,435.7,197.4
	c-0.3-0.2-0.5-0.4-0.9-0.5C435.1,197.1,435.4,197.2,435.7,197.4z M411.5,193.6c2,1.2,4,2.5,6,3.7C415.5,196,413.4,194.8,411.5,193.6
	c-1.5-0.9-2.9-1.9-4.3-2.8C408.5,191.7,410,192.6,411.5,193.6z M404.4,189c-0.9-0.6-1.7-1.1-2.6-1.7
	C402.7,187.9,403.5,188.4,404.4,189z M393.2,174.2L393.2,174.2c0,0,0.1,0,0.1,0c0.1,0,0.3,0,0.5,0
	C393.6,174.2,393.4,174.2,393.2,174.2L393.2,174.2L393.2,174.2z M390,173.6c0.8-0.2,1.6-0.3,2.4-0.4
	C391.6,173.3,390.8,173.4,390,173.6c-0.3,0.1-0.6,0.2-0.9,0.2C389.4,173.8,389.7,173.7,390,173.6z M379.2,188.9L379.2,188.9
	L379.2,188.9c-4.3,2.7-8.7,5.5-13.3,8.1C370.5,194.4,374.9,191.6,379.2,188.9z M329,218c0,0.9,0.3,1.9,0.7,2.9
	C329.3,219.9,329,218.9,329,218z M334.2,207.1c0.4-0.5,0.9-1,1.3-1.6c2.2-2.6,4.6-4.5,7.1-6.1c-2.5,1.6-4.9,3.6-7.1,6.1
	C335.1,206,334.6,206.6,334.2,207.1z M335.4,231c-0.8,0.8-1.5,1.6-2.1,2.6C333.9,232.6,334.6,231.7,335.4,231z M330.9,249.6
	c-0.3-1.2-0.5-2.4-0.6-3.7C330.4,247.2,330.6,248.4,330.9,249.6c1,3.9,3,6.8,6.1,9C333.9,256.4,331.9,253.5,330.9,249.6L330.9,249.6
	z M336.3,206.2c1.7-2,3.6-3.6,5.5-5C339.8,202.5,338,204.1,336.3,206.2z M341.9,211c-1,1.1-2.9,3.3-3.9,5.1
	C339.1,214.3,341,212.1,341.9,211z M337.9,218.4c0.7,1,2,2.7,3.8,4.5C339.9,221,338.5,219.4,337.9,218.4z M340.5,237.9
	c-0.4,0.5-0.7,1.1-1,1.8C339.8,239.1,340.1,238.5,340.5,237.9z M340.1,249.8c0.6,1,1.4,1.7,2.5,2.3
	C341.5,251.5,340.6,250.7,340.1,249.8z M355.4,264.2c-0.6-0.1-1.1-0.2-1.7-0.3c-1.8-0.3-3.5-0.6-5-0.9c1.5,0.3,3.2,0.6,5,0.9
	C354.3,264,354.9,264.1,355.4,264.2c1.1,0.2,2.2,0.5,3.3,0.8C357.7,264.7,356.6,264.4,355.4,264.2z M381.3,275.2
	c1.9,0.9,3.8,1.7,6,2.6C385.1,276.9,383.1,276,381.3,275.2z M420.3,285.9L420.3,285.9c-2.7-0.5-5.4-0.9-8.1-1.4
	C415,285,417.6,285.4,420.3,285.9L420.3,285.9c0.1,0,0.3,0,0.4,0.1C420.6,285.9,420.5,285.9,420.3,285.9z M451.1,293.2
	c0.5,0.3,1.1,0.6,1.6,0.9c0.1,0,0.2,0.1,0.2,0.1C452.4,293.9,451.7,293.5,451.1,293.2z M453.2,294.3c0,0,0.1,0.1,0.1,0.1
	c0.6,0.3,1.1,0.7,1.7,1l0,0C454.4,295.1,453.8,294.7,453.2,294.3L453.2,294.3z M455,295.4L455,295.4c0.1,0.1,0.2,0.1,0.3,0.2
	C455.2,295.6,455.1,295.5,455,295.4z M456.8,287.8c-0.8-0.4-1.5-0.8-2.2-1.2C455.3,287,456.1,287.4,456.8,287.8
	c1.4,0.8,2.7,1.6,4,2.5C459.5,289.4,458.2,288.6,456.8,287.8z M472.1,320c-0.6-1.6-1.1-3-1.6-4c-1.2-2.9-2.5-5.6-4.1-8
	c1.6,2.4,3,5.1,4.1,8C470.9,317,471.4,318.4,472.1,320s1.3,3.5,2.1,5.7C473.4,323.5,472.7,321.6,472.1,320z M475.5,329.1
	c0.4,1.2,0.9,2.4,1.4,3.7C476.4,331.5,475.9,330.3,475.5,329.1z M487.3,361.5c3.4,9.4,7,19.7,10.6,30.2
	C494.3,381.2,490.7,370.8,487.3,361.5z M532.1,485.3c-3.1-1.1-6.2-2.2-9.4-3.2C525.9,483.1,529,484.2,532.1,485.3z M525.8,473.4
	c0.1,0.3,0.2,0.7,0.4,1l0,0C526.1,474.1,526,473.7,525.8,473.4z M488.4,465c-4-0.9-8.1-1.8-12.1-2.2
	C480.3,463.2,484.4,464.1,488.4,465z M469.3,452.6c0.1,0.7,0.3,1.3,0.4,2C469.6,453.9,469.5,453.2,469.3,452.6
	c-0.2-1.2-0.5-2.3-0.8-3.5C468.8,450.2,469.1,451.4,469.3,452.6z M467.6,445.6c0,0.2,0.1,0.3,0.1,0.5
	C467.7,445.9,467.6,445.7,467.6,445.6c0-0.1,0-0.1-0.1-0.2C467.5,445.4,467.5,445.5,467.6,445.6z M467.3,443.7
	c-0.1-1.4-0.4-2.5-1-3.6C466.9,441.2,467.2,442.3,467.3,443.7z M463.1,437.2c1.1,0.8,2,1.5,2.6,2.2C465,438.7,464.2,438,463.1,437.2
	c-0.1-0.1-0.2-0.1-0.3-0.2C462.9,437,463,437.1,463.1,437.2z M460.9,435.8c0.2,0.1,0.4,0.3,0.6,0.4
	C461.3,436,461.1,435.9,460.9,435.8C460.9,435.8,460.8,435.7,460.9,435.8C460.8,435.7,460.9,435.7,460.9,435.8z M460.1,447.9
	L460.1,447.9L460.1,447.9c-0.2-0.8-0.4-1.4-0.5-2C459.7,446.5,459.9,447.2,460.1,447.9z M458.6,443.6L458.6,443.6
	c-0.2-0.1-0.3-0.2-0.5-0.4C458.3,443.4,458.5,443.5,458.6,443.6z M425.5,428.4c0,0,0.1,0,0.1,0c-0.4,0-0.9,0-1.3,0
	C424.7,428.4,425.1,428.4,425.5,428.4z M403.5,430c0.2,0,0.4-0.1,0.7-0.1C403.9,429.9,403.7,429.9,403.5,430c-0.1,0-0.1,0-0.2,0
	C403.3,430,403.4,430,403.5,430z M381.1,624.6c-0.1-0.4-0.2-0.8-0.3-1.2C380.9,623.8,381,624.2,381.1,624.6L381.1,624.6L381.1,624.6
	z M390.1,641.4c1.2,0.2,2.5,0.2,3.8,0.2C392.6,641.6,391.3,641.5,390.1,641.4z M415,636.9c-1,0.4-2.1,0.8-3.1,1.1
	C412.9,637.7,413.9,637.3,415,636.9c0,0,0.1,0,0.2-0.1C415.1,636.9,415,636.9,415,636.9z M433.5,624.5c0.1,0,0.3,0,0.4,0
	c0.1,0,0.2,0,0.4,0C434,624.5,433.8,624.5,433.5,624.5L433.5,624.5z M437.2,632.6c-0.5-0.1-1-0.1-1.5-0.2
	C436.2,632.4,436.7,632.5,437.2,632.6c0.9,0.1,1.9,0.3,2.8,0.4C439.1,632.8,438.2,632.7,437.2,632.6z M438.3,624.8
	c1.4,0.2,2.8,0.4,4.2,0.6C441.1,625.2,439.7,625,438.3,624.8z M452,634.3c0,0-0.1,0-0.1,0c0.1,0,0.2,0,0.4,0
	C452.2,634.3,452.1,634.3,452,634.3L452,634.3z M464.9,617.8c0.9-1.7,1.5-3.5,2-5.3C466.4,614.3,465.8,616.1,464.9,617.8z
	 M471.4,543.8c-3.4,12-5,25.2-5,42.5c0,2.9,0.2,5.8,0.3,8.7c0.5,8.1,0.9,15.8-2.5,22.4c-3.6,6.9-7.4,8.3-12.1,8.3
	c-2.7,0-5.9-0.5-9.5-1.1h-0.1c-1.3-0.2-2.7-0.4-4.1-0.6c-1.5-0.2-3-0.3-4.5-0.3c-7.7,0-14.9,2.6-21.9,5.1l-0.2,0.1
	c-1,0.3-1.9,0.7-2.9,1c-5.8,2-10.9,3.1-15,3.1c-2.8,0-5.2-0.5-7-1.5c-2.5-1.3-4.1-3.7-5-7.1l0,0c-1.1-4.1-0.4-8.7,0.5-13.9
	c3.2-18.1,5.9-36.1,3.1-56c-0.8-5.9-1.8-11.8-2.7-17.6c-2-12.3-4.1-25-4.6-37.4l-1.2-25.9c0-0.1,0-0.3,0-0.5l-0.1-2.4
	c-0.2-3.9-0.4-7.9,0.4-11.5c2.6-11.9,15.7-19,27.5-20.7c6.5-1,13.9-1.5,20.6-1.5c2.2,0,4.4,0.1,6.4,0.2c10.7,0.6,19.2,2.6,24.6,5.9
	c0.8,0.5,1.4,0.9,1.8,1.2c0,0,0,0,0,0c0.2,0.1,0.4,0.2,0.5,0.3c0.1,0.8,0.2,2,0.7,3.5c0.6,1.9,1,4,1.5,6.2c0.6,2.8,1.2,5.7,2.2,8.6
	c1.5,4.1,3.2,7.8,4.9,11.5c2.7,5.8,5.3,11.4,6.3,17.7C477.4,512.3,476.7,525.3,471.4,543.8L471.4,543.8z M650.4,572.8
	c-4.4,1.9-10.6,4.5-18,7.5C639.8,577.2,646,574.7,650.4,572.8c1.2-0.5,2.4-1.1,3.7-1.7C652.8,571.7,651.6,572.3,650.4,572.8z
	 M678.7,531.4c-1.3,5.5-5,11.6-10.9,17.7c-6.2,6.5-14.1,12.2-21,15.1c-6.1,2.6-15.6,6.6-27,11.1c-13.6,5.5-26.3,10.2-37.8,14.3
	c-20.8,7.3-80.1,15.8-105.8,19.3c0.5-4.9,0.2-9.8,0-14.5c-0.2-2.8-0.3-5.5-0.3-8.1c0-16.5,1.5-28.8,4.6-40c5.6-19.7,6.4-34.3,3-55.7
	c-1.1-7.1-3.7-13.1-6.2-18.4c2.8,0.4,5.8,1.1,8.7,1.7l0.1,0c0.8,0.2,1.7,0.4,2.5,0.5c1.8,0.4,3.4,0.7,5.1,1.1
	c12.9,2.5,25.6,6,38,10.5c0.7,0.4,1.5,0.6,2.3,0.6c1.3,0,2.6-0.5,3.6-1.5c0.5-0.5,1-1.2,1.2-1.9c0.6-1.8,0.2-3.8-1.1-5.1
	c-0.6-1.1-2.3-4.8-6.6-17c-3.5-10-8-23.5-12.8-37.7c-7.1-21.2-15.2-45.2-22.4-65.1c-8-22-14.3-39.3-16.9-45.8
	c-4.5-11.1-11.9-19.7-21.9-25.4c-8-4.6-16.4-6.6-23.6-8.2c-3.7-0.8-7.6-1.5-11.8-2.2l-0.1,0c-9.9-1.7-21.1-3.6-31-7.6
	c-5.4-2.1-9.7-4.4-13.5-6.3c-7-3.6-13-6.7-22.1-8.1c-6.2-1-9.9-2-12.2-3.3c-1.7-0.9-2.5-2.1-3.1-4.1c-0.6-2.4-0.5-5,0.4-7.2
	c0.6-1.6,1.6-2.8,2.6-3.2c0.1,0,0.7-0.2,2.2-0.2c0.6,0,1.3,0,2,0.1c2.3,0.2,5.1,0.6,9.1,1.5c2,0.4,3.5,0.8,5.5,1.2
	c5.7,1.3,14.2,2.8,22.3,2.8c7,0,12.5-1.1,16.5-3.4c0.8-0.5,1.5-1.1,1.9-1.9c1.3-1.1,2.1-2.6,2.4-4.3c0.9-5-3.2-11-5-13.4
	c-0.9-1.2-2.4-1.9-3.9-1.9c-1.1,0-2.1,0.4-3,1c-2.2,1.6-2.6,4.7-1,6.9c1.5,2,2.5,4.1,3,5.2c-2.4,1.2-6.1,1.8-10.9,1.8
	c-5.7,0-12.6-0.9-20.1-2.5c-1.8-0.4-3.5-0.8-5.5-1.2c-4.4-0.9-7.6-1.4-10.3-1.7c-0.3,0-0.5,0-0.8-0.1c-4.9-3.7-8.2-7.8-8.9-9.1
	c0.4-1.6,3.3-4.8,4.2-6c3.7-4.3,8.3-6.4,13.6-8.8l0,0c1.7-0.8,3.5-1.6,5.4-2.5c6.4-3.2,12.3-7,18.1-10.6c2.2-1.4,4.4-2.8,6.9-4.3
	c2.3-1.4,4.2-2.3,5.7-2.6c0.4-0.1,0.8-0.1,1.1-0.1c0.1,0,0.2,0,0.3,0c0.1,0.1,0.3,0.2,0.4,0.3c6.8,4.9,23.2,15.8,36.1,22.4
	c0.4,0.2,0.8,0.4,1.2,0.4c3.2,2.3,7.1,4.6,10.6,6.7c3.6,2.1,6.9,4.1,8.3,5.4c3.8,3.3,7.8,6.9,11.6,10.4l0.6-0.6l-0.5,0.6
	c8.8,8,17.2,15.5,26.4,22.2c5.8,4.2,9.6,7.6,13.7,11.8c4.7,4.9,9.8,11.4,16.5,20.2c19.8,25.8,39.9,53.4,59.8,82.1
	c19.9,28.8,39.8,58.9,59.1,89.6c5.6,8.9,10.9,17.6,15.5,25.3c8.7,14.4,15.5,25.7,19.8,30.8c2.9,3.4,4.8,7.1,5.9,10.8
	C679.4,524.5,679.5,528.1,678.7,531.4L678.7,531.4z M478.9,549.4c0.3-1.1,0.5-2.1,0.9-3.2c0.4-1.5,0.8-3,1.2-4.5
	c-0.4,1.5-0.8,3-1.2,4.5C479.4,547.2,479.1,548.3,478.9,549.4z M484.4,521.8c0.2-3.1,0.4-6.1,0.3-9.3
	C484.8,515.6,484.6,518.7,484.4,521.8z M534.1,484.8C534.1,484.8,534.2,484.8,534.1,484.8L534.1,484.8
	C534.2,484.8,534.1,484.8,534.1,484.8C534.1,484.8,534.1,484.8,534.1,484.8L534.1,484.8C534.1,484.8,534.1,484.8,534.1,484.8
	L534.1,484.8z M534.1,484.8C534.1,484.8,534.1,484.8,534.1,484.8C534.1,484.8,534.1,484.8,534.1,484.8L534.1,484.8z M538.2,482.7
	c0,0.1,0,0.2-0.1,0.3c-0.1,0.2-0.2,0.5-0.3,0.7c0.1-0.2,0.2-0.4,0.3-0.7C538.2,482.9,538.2,482.8,538.2,482.7z M537.2,478.6
	c0-0.1-0.1-0.1-0.1-0.2C537.1,478.4,537.1,478.5,537.2,478.6c0.4,0.4,0.7,0.9,0.9,1.5C537.9,479.5,537.6,479,537.2,478.6z
	 M342.9,236c0.4-0.1,1-0.2,2.2-0.2c0.6,0,1.3,0,2.1,0.1c-0.8-0.1-1.5-0.1-2.1-0.1C343.9,235.8,343.2,235.9,342.9,236z M355.8,236.3
	c0,0,0.1,0,0.2,0c0.1,0,0.2,0.1,0.4,0.1C356.2,236.4,356,236.3,355.8,236.3z M357,236.6c0.2,0.1,0.5,0.1,0.7,0.1
	c0.1,0,0.2,0.1,0.3,0.1C357.7,236.7,357.3,236.6,357,236.6z M383.8,240.4c0,0-0.1,0-0.1,0C383.8,240.4,383.8,240.4,383.8,240.4
	c0,0-0.1,0-0.2,0c0.3,0,0.6,0,0.8,0C384.3,240.4,384.1,240.4,383.8,240.4L383.8,240.4z M384.5,240.4L384.5,240.4c-0.1,0-0.2,0-0.3,0
	C384.3,240.4,384.4,240.4,384.5,240.4L384.5,240.4z M395.8,219c0,0-0.1,0-0.1,0l0,0C395.7,219,395.8,219,395.8,219
	C395.8,219,395.8,219,395.8,219L395.8,219C395.9,219,395.8,219,395.8,219L395.8,219z M395.8,219c0,0-0.1,0-0.1,0
	C395.7,219,395.8,219,395.8,219C395.8,219,395.8,219,395.8,219z M401,237.3c0.3-0.3,0.5-0.6,0.7-1C401.5,236.7,401.3,237,401,237.3z
	 M403.1,234.6c0.4-0.7,0.6-1.4,0.8-2.2c0-0.3,0.1-0.6,0.1-0.9c0,0.3,0,0.6-0.1,0.9C403.8,233.2,403.5,233.9,403.1,234.6z M395.2,229
	c-0.5-1.1-1.2-2.4-2.2-3.8C393.9,226.6,394.7,227.9,395.2,229z M679.2,520.8c-0.5-1.8-1.2-3.6-2.1-5.3
	C678,517.2,678.7,519,679.2,520.8c0.3,1,0.5,2,0.6,3C679.7,522.8,679.5,521.8,679.2,520.8z M679.7,504.3c-0.2-0.2-0.4-0.5-0.6-0.8
	C679.3,503.8,679.5,504.1,679.7,504.3c0.5,0.6,0.9,1.1,1.3,1.7C680.6,505.4,680.2,504.9,679.7,504.3z M686.8,536.8
	c0.4-1.1,0.7-2.2,1-3.3C687.5,534.6,687.2,535.7,686.8,536.8z"/>
</svg>
