<?xml version="1.0" encoding="utf-8"?>
<!-- Generator: Adobe Illustrator 27.3.1, SVG Export Plug-In . SVG Version: 6.00 Build 0)  -->
<svg version="1.1" id="Layer_1" xmlns="http://www.w3.org/2000/svg" xmlns:xlink="http://www.w3.org/1999/xlink" x="0px" y="0px"
	 viewBox="0 0 720 720" style="enable-background:new 0 0 720 720;" xml:space="preserve">
<style type="text/css">
	.st0{fill:#FFFFFF;stroke:#FFFFFF;stroke-width:0.75;stroke-miterlimit:10;}
	.st1{fill:#FFFFFF;}
</style>
<path class="st0" d="M222.1,456.5c4.3,0,7.9-3.5,7.9-7.9v-18.3c0-4.3-3.5-7.9-7.9-7.9s-7.9,3.5-7.9,7.9v18.3
	C214.3,453,217.8,456.5,222.1,456.5z"/>
<path class="st0" d="M252.8,456.5c4.3,0,7.9-3.5,7.9-7.9v-18.3c0-4.3-3.5-7.9-7.9-7.9s-7.9,3.5-7.9,7.9v18.3
	C244.9,453,248.4,456.5,252.8,456.5z"/>
<path class="st0" d="M283.4,456.5c4.3,0,7.9-3.5,7.9-7.9v-18.3c0-4.3-3.5-7.9-7.9-7.9s-7.9,3.5-7.9,7.9v18.3
	C275.6,453,279.1,456.5,283.4,456.5z"/>
<path class="st0" d="M93.1,441.2h24.7c4.3,0,7.8-3.5,7.8-7.9s-3.5-7.9-7.8-7.9H93.1c-4.3,0-7.8,3.5-7.8,7.9S88.8,441.2,93.1,441.2z"
	/>
<path class="st0" d="M93.1,471.9h57.6c4.3,0,7.9-3.5,7.9-7.9s-3.5-7.9-7.9-7.9H93.1c-4.3,0-7.8,3.5-7.8,7.9S88.8,471.9,93.1,471.9z"
	/>
<path class="st0" d="M274.6,526.3c-11,0-20.3,7.2-23.6,17H90.3c-3.3-9.9-12.6-17-23.6-17c-13.7,0-24.9,11.2-24.9,24.9
	s11.2,24.9,24.9,24.9c11,0,20.3-7.2,23.6-17H251c3.3,9.9,12.6,17,23.6,17c13.7,0,24.9-11.2,24.9-24.9S288.3,526.3,274.6,526.3
	L274.6,526.3z"/>
<path class="st0" d="M699.8,268.7c4.8-22.6-3.8-45.8-22-59.9c2-19.9-1.9-40.4-11.3-58.3c-10.5-19.9-26.8-35.5-47.3-45.1
	c-19-8.9-39.9-11.7-60.5-8.2c-18.4,3.1-35.4,11.1-49.4,23.1c-43.4-16.8-93.4,2.8-113.3,45.5c-6.5,13.8-9.3,29-8.2,44.1
	c-2.9,3.7-5.4,7.7-7.4,11.9c-14,30.1-1,66,29.1,80c14.4,6.7,30.5,7.5,45.2,2.3l20.9,51.5l-63.8,155.6l-2.7-9.5c-1-3.4-4-5.7-7.6-5.7
	h-6.9c-18.4,0-33.4,15-33.4,33.4v3.4h-5.6l-6.2-7.2c-1.5-1.7-3.7-2.7-6-2.7h-16.1c-2.5-4.8-5.7-9.1-9.4-13l24-14.5
	c2.4-1.4,3.8-4,3.8-6.7v-28.2c0-4.3-3.5-7.9-7.9-7.9h-13.6l-0.1-31.4c0-18.4-15-33.4-33.4-33.4h-30.2v-31.2
	c0-12.8-10.4-23.2-23.2-23.2c-4.3,0-7.9,3.5-7.9,7.9s3.5,7.9,7.9,7.9s7.5,3.4,7.5,7.5v31.2h-36.6l-21.1-61.8h2.1
	c4.3,0,7.9-3.5,7.9-7.9s-3.5-7.9-7.9-7.9h-85.6c-18.4,0-33.4,15-33.4,33.4v47.8l-16.9,11.3c-2.2,1.5-3.5,3.9-3.5,6.5v84.4
	c-24.8,7.3-43,30.3-43,57.4c0,33,26.9,59.8,59.8,59.8h207.9c22.8,0,42.7-12.8,52.8-31.7h34.5c2.4,12.1,11.4,21.9,23.1,25.4v0.3
	l-42.3,18c-3.5,1.5-5.5,5.4-4.5,9.1s4.5,6.2,8.3,5.9l83.6-7.5l50.3,33.9c1.3,0.9,2.9,1.3,4.4,1.3c2.2,0,4.3-0.9,5.8-2.6
	c2.6-2.9,2.7-7.3,0.2-10.3L456.5,612l14.8-50.5l5.2-1.3c3.9-1,6.5-4.8,5.9-8.8c-0.6-4.2-0.4-8.4,0.8-12.5c0.7-2.2,0.3-4.7-1-6.6
	c-0.4-0.7-1-1.2-1.6-1.7l50.8-156.6l33.8-23.8c8,14.8,20.5,26.6,35.9,33.8c39.3,18.4,86.3,1.3,104.7-38
	C717.4,320.8,715.1,291.5,699.8,268.7L699.8,268.7z M126.2,326h44.4l23.3,68.1l-10.2,15h-24.1l-16-18.6c-1.5-1.7-3.7-2.7-5.9-2.7
	h-11.4V326L126.2,326z M86,343.8c0-9.8,7.9-17.7,17.7-17.7h6.8v61.8H86V343.8z M65.6,413.5l14.9-10H134l16,18.6
	c1.5,1.7,3.7,2.7,5.9,2.7h31.9c2.6,0,5-1.3,6.5-3.4l12.2-17.9h84.4c9.8,0,17.7,7.9,17.7,17.7l0.1,39.3c0,4.3,3.5,7.8,7.9,7.8h13.6
	v16l-25.2,15.3c-8.9-5.2-19.2-8.3-30.3-8.3H66.7c-0.4,0-0.8,0-1.2,0L65.6,413.5L65.6,413.5z M315.2,568.4
	C315.2,568.4,315.2,568.5,315.2,568.4c-6.7,15.8-22.4,26.9-40.6,26.9H66.7c-24.3,0-44.2-19.8-44.2-44.2S42.4,507,66.7,507h207.9
	c24.3,0,44.1,19.8,44.1,44.1C318.8,557.3,317.5,563.1,315.2,568.4L315.2,568.4z M361.2,563.7h-28.1c0.9-4,1.3-8.2,1.3-12.5
	s-0.5-8.5-1.3-12.5h6.7l6.2,7.2c1.5,1.7,3.7,2.7,6,2.7h9.2V563.7L361.2,563.7z M376.9,572.8v-43.3c0-9.8,7.9-17.7,17.7-17.7h1
	l22,78.7h-22.9C384.9,590.5,376.9,582.6,376.9,572.8L376.9,572.8z M691.5,339.2c-14.7,31.5-52.3,45.2-83.8,30.5
	c-14.8-6.9-26.2-19-32.1-34.2c-0.9-2.2-2.7-4-5-4.7c-2.3-0.7-4.8-0.3-6.8,1.1l-43.6,30.7c-1.4,1-2.4,2.4-3,4l-54.1,166.8
	c-0.7,2.1-0.4,4.4,0.7,6.4c0.7,1.1,1.6,2.1,2.7,2.8c-0.1,1.3-0.2,2.6-0.2,4l-3.2,0.8c-2.7,0.7-4.9,2.7-5.6,5.4l-17.2,58.9
	c-0.7,2.5-0.2,5.2,1.5,7.2l1.5,1.8l-6.8-4.6c-1.5-1-3.3-1.5-5.1-1.3l-36.8,3.3l1.5-0.6c3-1.3,4.9-4.2,4.8-7.5l-0.1-3.7h28.1
	c4.3,0,7.9-3.5,7.9-7.8c0-2.1-0.9-4-2.2-5.5l-15.9-56.9l72.6-177.3c0.8-1.9,0.8-4,0-5.9L466.1,291c-0.8-2-2.5-3.6-4.5-4.4
	c-2.1-0.8-4.4-0.6-6.3,0.4c-12.4,6.4-26.7,6.6-39.2,0.8c-22.2-10.4-31.9-36.9-21.5-59.2c1.8-3.9,4.2-7.6,7.1-10.8
	c1.5-1.7,2.2-3.9,1.9-6.1c-1.5-13.4,0.8-26.9,6.5-39.2c17-36.5,60.7-52.6,97.4-35.9c2.9,1.3,6.3,0.8,8.7-1.4
	c26-24.6,63.9-30.7,96.3-15.6c34.6,16.2,54.8,53.8,49.1,91.6c-0.5,3.1,0.9,6.1,3.5,7.8c16.1,10.4,23.8,30.6,18.7,49.1
	c-0.6,2.3-0.2,4.8,1.3,6.8C698.8,293.6,701.2,318.2,691.5,339.2L691.5,339.2z"/>
<path class="st1" d="M340.4,164c-1.9,0-3.7-1.2-4.4-3.1c-2.9-7.8-7.6-13.2-14-15.9c-3.5-1.5-7.7-2.3-12.3-2.3
	c-11,0-21.1,4.4-21.2,4.4c-0.6,0.3-1.2,0.4-1.9,0.4l0,0c-1.8,0-3.5-1.1-4.2-2.8c-1-2.3,0-5.1,2.4-6.1c0.5-0.2,11.9-5.2,24.9-5.2
	c5.9,0,11.2,1,15.9,3c3.2,1.4,6.1,3.2,8.7,5.4c0.6-4.6,2-8.7,4.2-12.4c5.1-8.6,14-14,26.6-16.2c0.3-0.1,0.5-0.1,0.8-0.1
	c2.2,0,4.2,1.6,4.6,3.8c0.2,1.2-0.1,2.4-0.8,3.5s-1.8,1.7-3,1.9c-9.8,1.7-16.6,5.7-20.2,11.8c-6,10.2-1.7,23.5-1.7,23.6
	c0.8,2.4-0.5,5-2.9,5.9C341.5,163.9,340.9,163.9,340.4,164L340.4,164z"/>
<path class="st1" d="M365.9,113.6c2,0,3.8,1.4,4.2,3.5c0.4,2.3-1.1,4.5-3.5,4.9c-9.9,1.7-16.8,5.8-20.5,12
	c-6.2,10.4-1.7,23.8-1.7,23.9c0.8,2.2-0.4,4.6-2.6,5.4c-0.5,0.2-1,0.2-1.4,0.2c-1.7,0-3.4-1.1-4-2.8c-2.9-7.9-7.7-13.3-14.2-16.1
	c-4-1.7-8.3-2.3-12.4-2.3c-11.1,0-21.2,4.4-21.4,4.5c-0.6,0.2-1.1,0.4-1.7,0.4c-1.6,0-3.2-0.9-3.9-2.5c-1-2.1,0-4.7,2.2-5.6
	c0.6-0.3,11.9-5.2,24.8-5.2c5.2,0,10.6,0.8,15.8,3c3.4,1.4,6.5,3.4,9.1,5.8c0.5-4.2,1.7-8.7,4.2-12.9c5-8.4,13.9-13.8,26.4-16
	C365.4,113.6,365.7,113.6,365.9,113.6 M365.9,112.9c-0.3,0-0.6,0-0.9,0.1c-12.7,2.2-21.7,7.8-26.9,16.4c-2.1,3.5-3.5,7.5-4.1,11.8
	c-2.5-2.1-5.2-3.7-8.3-5c-4.7-2-10.1-3-16.1-3c-13.1,0-24.6,5.1-25.1,5.3c-2.5,1.1-3.7,4.1-2.5,6.6c0.8,1.8,2.6,3,4.6,3
	c0.7,0,1.4-0.1,2-0.4c0.1,0,10.1-4.4,21.1-4.4c4.5,0,8.6,0.8,12.1,2.2c6.3,2.7,11,8,13.8,15.7c0.7,2,2.6,3.3,4.7,3.3
	c0.6,0,1.1-0.1,1.7-0.3c2.6-0.9,4-3.8,3.1-6.3c0-0.1-4.3-13.2,1.6-23.3c3.6-6,10.3-9.9,20-11.6c1.3-0.2,2.5-1,3.2-2.1
	s1.1-2.4,0.8-3.7C370.4,114.6,368.3,112.9,365.9,112.9L365.9,112.9L365.9,112.9z"/>
<path class="st1" d="M663.1,88.6c-2.1,0-3.8-1.7-3.9-3.8c-0.1-6.8-2.4-12.2-6.6-16c-7.3-6.6-19.1-7.3-23.8-7.3
	c-1.7,0-2.7,0.1-2.7,0.1c-0.1,0-0.2,0-0.3,0c-2,0-3.7-1.5-3.9-3.5c-0.2-2.1,1.4-4,3.5-4.2c0.2,0,1.5-0.1,3.5-0.1
	c6.9,0,19.9,1.2,28.9,9.3c2.1,1.9,3.9,4,5.3,6.4c1.7-3.3,3.9-6.2,6.5-8.4c4.8-4.1,10.8-6.1,18.1-6.1c2.2,0,4.5,0.2,7,0.6
	c2.1,0.3,3.6,2.3,3.2,4.4c-0.3,1.9-1.9,3.3-3.8,3.3c-0.2,0-0.4,0-0.6,0c-2-0.3-3.9-0.5-5.7-0.5c-5.4,0-9.8,1.4-13.1,4.2
	c-7.4,6.3-7.6,17.8-7.6,17.9C666.9,86.9,665.2,88.6,663.1,88.6L663.1,88.6L663.1,88.6z"/>
<path class="st1" d="M628.8,54.1c6.3,0,19.6,1,28.6,9.2c2.3,2,4.1,4.3,5.5,6.9c1.5-3.2,3.6-6.3,6.7-8.9c4.7-4,10.7-6,17.9-6
	c2.2,0,4.5,0.2,6.9,0.6c1.9,0.3,3.2,2.1,2.9,4c-0.3,1.7-1.8,3-3.5,3c-0.2,0-0.4,0-0.5,0c-2-0.3-4-0.5-5.8-0.5
	c-5.5,0-9.9,1.5-13.3,4.3c-7.5,6.4-7.7,18.1-7.7,18.2c0,1.9-1.6,3.5-3.5,3.5h0c-1.9,0-3.5-1.5-3.5-3.4c-0.1-6.9-2.4-12.4-6.8-16.3
	c-7.3-6.6-18.9-7.4-24.1-7.4c-1.7,0-2.7,0.1-2.8,0.1c-0.1,0-0.2,0-0.3,0c-1.8,0-3.3-1.4-3.5-3.2c-0.2-1.9,1.2-3.6,3.2-3.8
	C625.5,54.2,626.8,54.1,628.8,54.1 M628.8,53.3c-2.1,0-3.4,0.1-3.6,0.1c-2.3,0.2-4.1,2.3-3.8,4.6c0.2,2.2,2,3.9,4.2,3.9
	c0.1,0,0.2,0,0.4,0c0,0,1-0.1,2.7-0.1c4.7,0,16.3,0.7,23.6,7.2c4.2,3.8,6.4,9.1,6.5,15.8c0,2.3,2,4.2,4.2,4.2c2.3,0,4.2-1.9,4.2-4.2
	c0-0.1,0.2-11.5,7.5-17.6c3.2-2.8,7.6-4.2,12.8-4.2c1.8,0,3.7,0.2,5.7,0.5c0.2,0,0.4,0,0.7,0c2.1,0,3.9-1.5,4.2-3.6
	c0.4-2.3-1.2-4.5-3.5-4.9c-2.4-0.4-4.8-0.6-7-0.6c-7.3,0-13.5,2.1-18.3,6.2c-2.5,2.1-4.6,4.8-6.3,7.9c-1.3-2.2-3-4.2-5-5.9
	C654,59.2,645.1,53.3,628.8,53.3L628.8,53.3L628.8,53.3z"/>
</svg>
