<?xml version="1.0" encoding="utf-8"?>
<!-- Generator: Adobe Illustrator 27.3.1, SVG Export Plug-In . SVG Version: 6.00 Build 0)  -->
<svg version="1.1" id="Layer_1" xmlns="http://www.w3.org/2000/svg" xmlns:xlink="http://www.w3.org/1999/xlink" x="0px" y="0px"
	 viewBox="0 0 720 720" style="enable-background:new 0 0 720 720;" xml:space="preserve">
<style type="text/css">
	.st0{fill:none;}
	.st1{opacity:0.65;fill:none;stroke:#FFFFFF;stroke-width:3.83;stroke-miterlimit:10;enable-background:new    ;}
	.st2{fill:#FFFFFF;}
	.st3{opacity:0.75;fill:#FFFFFF;enable-background:new    ;}
</style>
<path class="st0" d="M161.2,549.6h-51.2c1.5,3.2,3,6.4,4.6,9.5h490.6c1.6-3.1,3.1-6.3,4.6-9.5H161.2z"/>
<path class="st0" d="M360,152.6c-144,0-262.6,110.3-276,250.7H636C622.6,262.8,504,152.6,360,152.6L360,152.6z"/>
<rect x="311.1" y="408.6" class="st1" width="97.3" height="152.1"/>
<rect x="414.9" y="408.6" class="st1" width="97.3" height="152.1"/>
<rect x="207.2" y="408.6" class="st1" width="97.3" height="152.1"/>
<polygon class="st1" points="616.1,408.6 518.8,408.6 518.8,560.7 569.2,560.7 616.1,560.7 "/>
<polygon class="st1" points="200.7,408.6 103.4,408.6 103.4,560.7 153.4,560.7 200.7,560.7 "/>
<path class="st2" d="M336.3,439.5c-0.4-0.4-0.9-0.6-1.4-0.6s-1,0.2-1.4,0.6l-4.2,4.2c-0.4,0.4-0.6,0.9-0.6,1.4v29.6
	c0,0.5,0.2,1,0.6,1.4l4.2,4.2c0.4,0.4,0.9,0.6,1.4,0.6s1-0.2,1.4-0.6l4.2-4.2c0.4-0.4,0.6-0.9,0.6-1.4v-29.6c0-0.5-0.2-1-0.6-1.4
	L336.3,439.5z"/>
<path class="st2" d="M339.4,433.6c-0.4,0.4-0.6,0.9-0.6,1.4s0.2,1,0.6,1.4l4.2,4.2c0.4,0.4,0.9,0.6,1.4,0.6h29.6
	c0.5,0,1-0.2,1.4-0.6l4.2-4.2c0.4-0.4,0.6-0.9,0.6-1.4s-0.2-1-0.6-1.4l-4.2-4.2c-0.4-0.4-0.9-0.6-1.4-0.6H345c-0.5,0-1,0.2-1.4,0.6
	L339.4,433.6z"/>
<path class="st2" d="M383.1,439.5c0.4-0.4,0.9-0.6,1.4-0.6s1,0.2,1.4,0.6l4.2,4.2c0.4,0.4,0.6,0.9,0.6,1.4v29.6c0,0.5-0.2,1-0.6,1.4
	l-4.2,4.2c-0.4,0.4-0.9,0.6-1.4,0.6s-1-0.2-1.4-0.6l-4.2-4.2c-0.4-0.4-0.6-0.9-0.6-1.4v-29.6c0-0.5,0.2-1,0.6-1.4L383.1,439.5z"/>
<path class="st2" d="M336.3,489.1c-0.4-0.4-0.9-0.6-1.4-0.6s-1,0.2-1.4,0.6l-4.2,4.2c-0.4,0.4-0.6,0.9-0.6,1.4v29.6
	c0,0.5,0.2,1,0.6,1.4l4.2,4.2c0.4,0.4,0.9,0.6,1.4,0.6s1-0.2,1.4-0.6l4.2-4.2c0.4-0.4,0.6-0.9,0.6-1.4v-29.6c0-0.5-0.2-1-0.6-1.4
	L336.3,489.1L336.3,489.1z"/>
<path class="st2" d="M383.1,489.1c0.4-0.4,0.9-0.6,1.4-0.6s1,0.2,1.4,0.6l4.2,4.2c0.4,0.4,0.6,0.9,0.6,1.4v29.6c0,0.5-0.2,1-0.6,1.4
	l-4.2,4.2c-0.8,0.8-2,0.8-2.8,0l-4.2-4.2c-0.4-0.4-0.6-0.9-0.6-1.4v-29.6c0-0.5,0.2-1,0.6-1.4L383.1,489.1L383.1,489.1z"/>
<path class="st2" d="M380.1,535.7c0.4-0.4,0.6-0.9,0.6-1.4s-0.2-1-0.6-1.4l-4.2-4.2c-0.4-0.4-0.9-0.6-1.4-0.6h-29.6
	c-0.5,0-1,0.2-1.4,0.6l-4.2,4.2c-0.4,0.4-0.6,0.9-0.6,1.4s0.2,1,0.6,1.4l4.2,4.2c0.4,0.4,0.9,0.6,1.4,0.6h29.6c0.5,0,1-0.2,1.4-0.6
	L380.1,535.7z"/>
<path class="st2" d="M544,439.5c-0.4-0.4-0.9-0.6-1.4-0.6s-1,0.2-1.4,0.6l-4.2,4.2c-0.4,0.4-0.6,0.9-0.6,1.4v29.6
	c0,0.5,0.2,1,0.6,1.4l4.2,4.2c0.4,0.4,0.9,0.6,1.4,0.6s1-0.2,1.4-0.6l4.2-4.2c0.4-0.4,0.6-0.9,0.6-1.4v-29.6c0-0.5-0.2-1-0.6-1.4
	L544,439.5z"/>
<path class="st2" d="M547,433.6c-0.4,0.4-0.6,0.9-0.6,1.4s0.2,1,0.6,1.4l4.2,4.2c0.4,0.4,0.9,0.6,1.4,0.6h29.6c0.5,0,1-0.2,1.4-0.6
	l4.2-4.2c0.4-0.4,0.6-0.9,0.6-1.4s-0.2-1-0.6-1.4l-4.2-4.2c-0.4-0.4-0.9-0.6-1.4-0.6h-29.6c-0.5,0-1,0.2-1.4,0.6L547,433.6z"/>
<path class="st2" d="M590.8,439.5c0.4-0.4,0.9-0.6,1.4-0.6s1,0.2,1.4,0.6l4.2,4.2c0.4,0.4,0.6,0.9,0.6,1.4v29.6c0,0.5-0.2,1-0.6,1.4
	l-4.2,4.2c-0.4,0.4-0.9,0.6-1.4,0.6s-1-0.2-1.4-0.6l-4.2-4.2c-0.4-0.4-0.6-0.9-0.6-1.4v-29.6c0-0.5,0.2-1,0.6-1.4L590.8,439.5z"/>
<path class="st2" d="M544,489.1c-0.4-0.4-0.9-0.6-1.4-0.6s-1,0.2-1.4,0.6l-4.2,4.2c-0.4,0.4-0.6,0.9-0.6,1.4v29.6
	c0,0.5,0.2,1,0.6,1.4l4.2,4.2c0.4,0.4,0.9,0.6,1.4,0.6s1-0.2,1.4-0.6l4.2-4.2c0.4-0.4,0.6-0.9,0.6-1.4v-29.6c0-0.5-0.2-1-0.6-1.4
	L544,489.1L544,489.1z"/>
<path class="st2" d="M590.8,489.1c0.4-0.4,0.9-0.6,1.4-0.6s1,0.2,1.4,0.6l4.2,4.2c0.4,0.4,0.6,0.9,0.6,1.4v29.6c0,0.5-0.2,1-0.6,1.4
	l-4.2,4.2c-0.8,0.8-2,0.8-2.8,0l-4.2-4.2c-0.4-0.4-0.6-0.9-0.6-1.4v-29.6c0-0.5,0.2-1,0.6-1.4L590.8,489.1L590.8,489.1z"/>
<path class="st2" d="M587.8,535.7c0.4-0.4,0.6-0.9,0.6-1.4s-0.2-1-0.6-1.4l-4.2-4.2c-0.4-0.4-0.9-0.6-1.4-0.6h-29.6
	c-0.5,0-1,0.2-1.4,0.6l-4.2,4.2c-0.4,0.4-0.6,0.9-0.6,1.4s0.2,1,0.6,1.4l4.2,4.2c0.4,0.4,0.9,0.6,1.4,0.6h29.6c0.5,0,1-0.2,1.4-0.6
	L587.8,535.7z"/>
<path class="st2" d="M235.5,433.6c-0.4,0.4-0.6,0.9-0.6,1.4s0.2,1,0.6,1.4l4.2,4.2c0.4,0.4,0.9,0.6,1.4,0.6h29.6
	c0.5,0,1-0.2,1.4-0.6l4.2-4.2c0.4-0.4,0.6-0.9,0.6-1.4s-0.2-1-0.6-1.4l-4.2-4.2c-0.4-0.4-0.9-0.6-1.4-0.6h-29.6
	c-0.5,0-1,0.2-1.4,0.6L235.5,433.6z"/>
<path class="st2" d="M279.3,439.5c0.4-0.4,0.9-0.6,1.4-0.6s1,0.2,1.4,0.6l4.2,4.2c0.4,0.4,0.6,0.9,0.6,1.4v29.6c0,0.5-0.2,1-0.6,1.4
	l-4.2,4.2c-0.4,0.4-0.9,0.6-1.4,0.6s-1-0.2-1.4-0.6l-4.2-4.2c-0.4-0.4-0.6-0.9-0.6-1.4v-29.6c0-0.5,0.2-1,0.6-1.4L279.3,439.5z"/>
<path class="st2" d="M276.3,486.1c0.4-0.4,0.6-0.9,0.6-1.4s-0.2-1-0.6-1.4l-4.2-4.2c-0.4-0.4-0.9-0.6-1.4-0.6h-29.6
	c-0.5,0-1,0.2-1.4,0.6l-4.2,4.2c-0.4,0.4-0.6,0.9-0.6,1.4s0.2,1,0.6,1.4l4.2,4.2c0.4,0.4,0.9,0.6,1.4,0.6h29.6c0.5,0,1-0.2,1.4-0.6
	L276.3,486.1z"/>
<path class="st2" d="M232.5,489.1c-0.4-0.4-0.9-0.6-1.4-0.6s-1,0.2-1.4,0.6l-4.2,4.2c-0.4,0.4-0.6,0.9-0.6,1.4v29.6
	c0,0.5,0.2,1,0.6,1.4l4.2,4.2c0.4,0.4,0.9,0.6,1.4,0.6s1-0.2,1.4-0.6l4.2-4.2c0.4-0.4,0.6-0.9,0.6-1.4v-29.6c0-0.5-0.2-1-0.6-1.4
	L232.5,489.1L232.5,489.1z"/>
<path class="st2" d="M276.3,535.7c0.4-0.4,0.6-0.9,0.6-1.4s-0.2-1-0.6-1.4l-4.2-4.2c-0.4-0.4-0.9-0.6-1.4-0.6h-29.6
	c-0.5,0-1,0.2-1.4,0.6l-4.2,4.2c-0.4,0.4-0.6,0.9-0.6,1.4s0.2,1,0.6,1.4l4.2,4.2c0.4,0.4,0.9,0.6,1.4,0.6h29.6c0.5,0,1-0.2,1.4-0.6
	L276.3,535.7z"/>
<path class="st2" d="M440.2,439.5c-0.4-0.4-0.9-0.6-1.4-0.6s-1,0.2-1.4,0.6l-4.2,4.2c-0.4,0.4-0.6,0.9-0.6,1.4v29.6
	c0,0.5,0.2,1,0.6,1.4l4.2,4.2c0.4,0.4,0.9,0.6,1.4,0.6s1-0.2,1.4-0.6l4.2-4.2c0.4-0.4,0.6-0.9,0.6-1.4v-29.6c0-0.5-0.2-1-0.6-1.4
	L440.2,439.5z"/>
<path class="st2" d="M443.2,433.6c-0.4,0.4-0.6,0.9-0.6,1.4s0.2,1,0.6,1.4l4.2,4.2c0.4,0.4,0.9,0.6,1.4,0.6h29.6
	c0.5,0,1-0.2,1.4-0.6l4.2-4.2c0.8-0.8,0.8-2,0-2.8l-4.2-4.2c-0.4-0.4-0.9-0.6-1.4-0.6h-29.6c-0.5,0-1,0.2-1.4,0.6L443.2,433.6
	L443.2,433.6z"/>
<path class="st2" d="M484,486.1c0.4-0.4,0.6-0.9,0.6-1.4s-0.2-1-0.6-1.4l-4.2-4.2c-0.4-0.4-0.9-0.6-1.4-0.6h-29.6
	c-0.5,0-1,0.2-1.4,0.6l-4.2,4.2c-0.8,0.8-0.8,2,0,2.8l4.2,4.2c0.4,0.4,0.9,0.6,1.4,0.6h29.6c0.5,0,1-0.2,1.4-0.6L484,486.1
	L484,486.1z"/>
<path class="st2" d="M487,489.1c0.4-0.4,0.9-0.6,1.4-0.6s1,0.2,1.4,0.6l4.2,4.2c0.4,0.4,0.6,0.9,0.6,1.4v29.6c0,0.5-0.2,1-0.6,1.4
	l-4.2,4.2c-0.4,0.4-0.9,0.6-1.4,0.6s-1-0.2-1.4-0.6l-4.2-4.2c-0.4-0.4-0.6-0.9-0.6-1.4v-29.6c0-0.5,0.2-1,0.6-1.4L487,489.1
	L487,489.1z"/>
<path class="st2" d="M484,535.7c0.4-0.4,0.6-0.9,0.6-1.4s-0.2-1-0.6-1.4l-4.2-4.2c-0.4-0.4-0.9-0.6-1.4-0.6h-29.6
	c-0.5,0-1,0.2-1.4,0.6l-4.2,4.2c-0.4,0.4-0.6,0.9-0.6,1.4s0.2,1,0.6,1.4l4.2,4.2c0.4,0.4,0.9,0.6,1.4,0.6h29.6c0.5,0,1-0.2,1.4-0.6
	L484,535.7z"/>
<path class="st2" d="M128.7,439.5c-0.4-0.4-0.9-0.6-1.4-0.6s-1,0.2-1.4,0.6l-4.2,4.2c-0.4,0.4-0.6,0.9-0.6,1.4v29.6
	c0,0.5,0.2,1,0.6,1.4l4.2,4.2c0.4,0.4,0.9,0.6,1.4,0.6s1-0.2,1.4-0.6l4.2-4.2c0.4-0.4,0.6-0.9,0.6-1.4v-29.6c0-0.5-0.2-1-0.6-1.4
	L128.7,439.5z"/>
<path class="st2" d="M131.7,433.6c-0.4,0.4-0.6,0.9-0.6,1.4s0.2,1,0.6,1.4l4.2,4.2c0.4,0.4,0.9,0.6,1.4,0.6h29.6
	c0.5,0,1-0.2,1.4-0.6l4.2-4.2c0.8-0.8,0.8-2,0-2.8l-4.2-4.2c-0.4-0.4-0.9-0.6-1.4-0.6h-29.6c-0.5,0-1,0.2-1.4,0.6L131.7,433.6
	L131.7,433.6z"/>
<path class="st2" d="M175.4,489.1c0.4-0.4,0.9-0.6,1.4-0.6s1,0.2,1.4,0.6l4.2,4.2c0.4,0.4,0.6,0.9,0.6,1.4v29.6c0,0.5-0.2,1-0.6,1.4
	l-4.2,4.2c-0.4,0.4-0.9,0.6-1.4,0.6s-1-0.2-1.4-0.6l-4.2-4.2c-0.4-0.4-0.6-0.9-0.6-1.4v-29.6c0-0.5,0.2-1,0.6-1.4L175.4,489.1
	L175.4,489.1z"/>
<path class="st2" d="M172.4,535.7c0.4-0.4,0.6-0.9,0.6-1.4s-0.2-1-0.6-1.4l-4.2-4.2c-0.4-0.4-0.9-0.6-1.4-0.6h-29.6
	c-0.5,0-1,0.2-1.4,0.6l-4.2,4.2c-0.4,0.4-0.6,0.9-0.6,1.4s0.2,1,0.6,1.4l4.2,4.2c0.4,0.4,0.9,0.6,1.4,0.6h29.6c0.5,0,1-0.2,1.4-0.6
	L172.4,535.7L172.4,535.7z"/>
<path class="st2" d="M175.4,439.5c0.4-0.4,0.9-0.6,1.4-0.6s1,0.2,1.4,0.6l4.2,4.2c0.4,0.4,0.6,0.9,0.6,1.4v14.8v14.8
	c0,0.5-0.2,1-0.6,1.4l-4.2,4.2c-0.4,0.4-0.9,0.6-1.4,0.6s-1-0.2-1.4-0.6l-4.2-4.2c-0.4-0.4-0.6-0.9-0.6-1.4v-14.8v-14.8
	c0-0.5,0.2-1,0.6-1.4L175.4,439.5L175.4,439.5z"/>
<path class="st2" d="M172.4,433.6c0.4,0.4,0.6,0.9,0.6,1.4s-0.2,1-0.6,1.4l-4.2,4.2c-0.4,0.4-0.9,0.6-1.4,0.6h-14.8h-14.8
	c-0.5,0-1-0.2-1.4-0.6l-4.2-4.2c-0.8-0.8-0.8-2,0-2.8l4.2-4.2c0.4-0.4,0.9-0.6,1.4-0.6h14.8h14.8c0.5,0,1,0.2,1.4,0.6L172.4,433.6
	L172.4,433.6z"/>
<path class="st2" d="M128.7,489.1c-0.4-0.4-0.9-0.6-1.4-0.6s-1,0.2-1.4,0.6l-4.2,4.2c-0.4,0.4-0.6,0.9-0.6,1.4v14.8v14.8
	c0,0.5,0.2,1,0.6,1.4l4.2,4.2c0.4,0.4,0.9,0.6,1.4,0.6s1-0.2,1.4-0.6l4.2-4.2c0.4-0.4,0.6-0.9,0.6-1.4v-14.8v-14.8
	c0-0.5-0.2-1-0.6-1.4L128.7,489.1z"/>
<path class="st2" d="M131.7,535.7c-0.4-0.4-0.6-0.9-0.6-1.4c0-0.5,0.2-1,0.6-1.4l4.2-4.2c0.4-0.4,0.9-0.6,1.4-0.6h14.8h14.8
	c0.5,0,1,0.2,1.4,0.6l4.2,4.2c0.4,0.4,0.6,0.9,0.6,1.4c0,0.5-0.2,1-0.6,1.4l-4.2,4.2c-0.4,0.4-0.9,0.6-1.4,0.6h-14.8h-14.8
	c-0.5,0-1-0.2-1.4-0.6L131.7,535.7z"/>
<path class="st3" d="M291.7,367.5l31.6-19.7c8.2,8.8,19.7,14,31.9,14c24,0,43.6-19.6,43.6-43.6c0-5.5-1.1-10.8-2.9-15.6l92.3-57.4
	l-7.8-12.5l-92,57.3c-8-9.4-19.9-15.4-33.1-15.4c-24.1,0-43.7,19.6-43.7,43.7c0,6,1.3,11.8,3.7,17.3L283.9,355L291.7,367.5z
	 M355.3,289.2c15.9,0,28.9,13,28.9,28.9s-13,28.9-28.9,28.9c-9.8,0-18.8-4.9-24.1-13c-3.1-4.8-4.8-10.2-4.8-15.9
	C326.4,302.2,339.3,289.2,355.3,289.2L355.3,289.2z"/>
<path class="st3" d="M360,82.7c-191.4,0-347.2,155.7-347.2,347.1c0,73.7,22.8,144.2,66.1,203.8c1.7,2.4,4.5,3.8,7.4,3.8h547.3
	c2.9,0,5.7-1.4,7.4-3.8c43.2-59.6,66.1-130,66.1-203.8C707.2,238.4,551.4,82.7,360,82.7L360,82.7z M629,619H91
	c-39.2-55.6-59.9-121-59.9-189.2C31.1,248.5,178.7,101,360,101s328.8,147.5,328.8,328.8C688.9,498.1,668.2,563.4,629,619z"/>
<path class="st3" d="M360,134.3c-163,0-295.6,132.6-295.6,295.5c0,49.8,12.7,99.2,36.8,142.8c1.6,2.9,4.7,4.7,8,4.7h501.5
	c3.3,0,6.4-1.8,8-4.7c24.1-43.6,36.8-93,36.8-142.8C655.5,266.9,523,134.3,360,134.3L360,134.3z M609.9,549.6
	c-1.5,3.2-3,6.4-4.6,9.5H114.7c-1.6-3.1-3.1-6.3-4.6-9.5c-17.8-37.3-27.3-78.4-27.3-119.8c0-8.9,0.5-17.8,1.3-26.5
	c13.4-140.5,132-250.7,276-250.7S622.6,262.8,636,403.3c0.8,8.7,1.3,17.5,1.3,26.5C637.2,471.3,627.8,512.3,609.9,549.6L609.9,549.6
	z"/>
<path class="st3" d="M291.7,367.5l31.6-19.7c8.2,8.8,19.7,14,31.9,14c24,0,43.6-19.6,43.6-43.6c0-5.5-1.1-10.8-2.9-15.6l92.3-57.4
	l-7.8-12.5l-92,57.3c-8-9.4-19.9-15.4-33.1-15.4c-24.1,0-43.7,19.6-43.7,43.7c0,6,1.3,11.8,3.7,17.3L283.9,355L291.7,367.5z
	 M355.3,289.2c15.9,0,28.9,13,28.9,28.9s-13,28.9-28.9,28.9c-9.8,0-18.8-4.9-24.1-13c-3.1-4.8-4.8-10.2-4.8-15.9
	C326.4,302.2,339.3,289.2,355.3,289.2L355.3,289.2z"/>
<path class="st3" d="M360,82.7c-191.4,0-347.2,155.7-347.2,347.1c0,73.7,22.8,144.2,66.1,203.8c1.7,2.4,4.5,3.8,7.4,3.8h547.3
	c2.9,0,5.7-1.4,7.4-3.8c43.2-59.6,66.1-130,66.1-203.8C707.2,238.4,551.4,82.7,360,82.7L360,82.7z M629,619H91
	c-39.2-55.6-59.9-121-59.9-189.2C31.1,248.5,178.7,101,360,101s328.8,147.5,328.8,328.8C688.9,498.1,668.2,563.4,629,619z"/>
<path class="st3" d="M360,134.3c-163,0-295.6,132.6-295.6,295.5c0,49.8,12.7,99.2,36.8,142.8c1.6,2.9,4.7,4.7,8,4.7h501.5
	c3.3,0,6.4-1.8,8-4.7c24.1-43.6,36.8-93,36.8-142.8C655.5,266.9,523,134.3,360,134.3L360,134.3z M609.9,549.6
	c-1.5,3.2-3,6.4-4.6,9.5H114.7c-1.6-3.1-3.1-6.3-4.6-9.5c-17.8-37.3-27.3-78.4-27.3-119.8c0-8.9,0.5-17.8,1.3-26.5
	c13.4-140.5,132-250.7,276-250.7S622.6,262.8,636,403.3c0.8,8.7,1.3,17.5,1.3,26.5C637.2,471.3,627.8,512.3,609.9,549.6L609.9,549.6
	z"/>
</svg>
