<?xml version="1.0" encoding="utf-8"?>
<!-- Generator: Adobe Illustrator 27.3.1, SVG Export Plug-In . SVG Version: 6.00 Build 0)  -->
<svg version="1.1" id="Layer_1" xmlns="http://www.w3.org/2000/svg" xmlns:xlink="http://www.w3.org/1999/xlink" x="0px" y="0px"
	 viewBox="0 0 720 720" style="enable-background:new 0 0 720 720;" xml:space="preserve">
<style type="text/css">
	.st0{fill:#FFFFFF;}
</style>
<path class="st0" d="M26.9,658.5c-11.1,0-20.1-9-20.1-20.1V209.2c0-0.3,0-0.6,0-0.9c0-0.2,0.1-0.4,0.1-0.6c0-0.1,0-0.1,0-0.2
	c0.1-0.2,0.1-0.5,0.2-0.7c0,0,0,0,0-0.1c0.1-0.3,0.2-0.5,0.3-0.8c0.1-0.3,0.2-0.5,0.3-0.7c0-0.1,0-0.1,0.1-0.1
	c0.1-0.2,0.2-0.4,0.3-0.6c0,0,0.1-0.1,0.1-0.1c0.1-0.2,0.2-0.4,0.4-0.5l0.1-0.1c0.2-0.2,0.4-0.4,0.6-0.6L148.5,64
	c0.2-0.2,0.4-0.4,0.6-0.6c0,0,0.1-0.1,0.2-0.1c0.1-0.1,0.3-0.2,0.5-0.4c0,0,0.1-0.1,0.2-0.1c0.1-0.1,0.3-0.2,0.5-0.3
	c0,0,0.1,0,0.1-0.1c0.2-0.1,0.4-0.2,0.6-0.3c0,0,0.1,0,0.1,0c0.2-0.1,0.5-0.2,0.7-0.2c0,0,0.1,0,0.1,0c0.2-0.1,0.5-0.1,0.7-0.2
	c0,0,0.2,0,0.2,0c0.2,0,0.4-0.1,0.6-0.1c0.3,0,0.6,0,0.9,0h290c11.1,0,20.1,9,20.1,20.1v222.1c0,4.7-3.8,8.5-8.5,8.5
	s-8.5-3.8-8.5-8.5v-222c0-1.7-1.4-3.1-3.1-3.1H163v119.1c0,11.1-9,20.1-20.1,20.1H23.8v420.6c0,1.7,1.4,3.1,3.1,3.1h417.5
	c1.7,0,3.1-1.4,3.1-3.1v-33.7c0-4.7,3.8-8.5,8.5-8.5s8.5,3.8,8.5,8.5v33.7c0,11.1-9,20.1-20.1,20.1L26.9,658.5L26.9,658.5z
	 M142.9,200.7c1.7,0,3.1-1.4,3.1-3.1v-107L35.9,200.7H142.9z"/>
<path class="st0" d="M444.5,63.5c10,0,18.1,8.1,18.1,18.1v222.1c0,3.6-2.9,6.5-6.5,6.5s-6.5-2.9-6.5-6.5V81.7c0-2.8-2.3-5.1-5.1-5.1
	H161v121.1c0,10-8.1,18.1-18.1,18.1H21.8v422.6c0,2.8,2.3,5.1,5.1,5.1h417.5c2.8,0,5.1-2.3,5.1-5.1v-33.7c0-3.6,2.9-6.5,6.5-6.5
	s6.5,2.9,6.5,6.5v33.7c0,10-8.1,18.1-18.1,18.1H26.9c-10,0-18.1-8.1-18.1-18.1V209.2c0-0.2,0-0.4,0-0.6c0-0.2,0-0.3,0.1-0.5
	c0-0.1,0-0.1,0-0.1c0-0.2,0.1-0.4,0.1-0.6c0,0,0,0,0,0c0.1-0.2,0.1-0.4,0.2-0.6c0,0,0,0,0,0c0.1-0.2,0.1-0.3,0.2-0.5c0,0,0,0,0-0.1
	c0.1-0.2,0.2-0.3,0.3-0.4c0,0,0-0.1,0.1-0.1c0.1-0.1,0.2-0.3,0.3-0.4c0,0,0.1-0.1,0.1-0.1c0.1-0.2,0.3-0.3,0.4-0.5L149.9,65.4
	c0.1-0.2,0.3-0.3,0.5-0.4c0,0,0.1-0.1,0.1-0.1c0.1-0.1,0.3-0.2,0.4-0.3c0,0,0.1,0,0.1-0.1c0.1-0.1,0.3-0.2,0.4-0.3c0,0,0,0,0.1,0
	c0.2-0.1,0.3-0.2,0.5-0.2c0,0,0,0,0,0c0.2-0.1,0.4-0.1,0.6-0.2c0,0,0,0,0,0c0.2-0.1,0.4-0.1,0.6-0.1c0.1,0,0.1,0,0.1,0
	c0.2,0,0.3-0.1,0.5-0.1c0.2,0,0.4,0,0.6,0L444.5,63.5 M31,202.7h111.9c2.8,0,5.1-2.3,5.1-5.1V85.8L31,202.7 M444.5,59.5h-290
	c-0.3,0-0.7,0-1.1,0c-0.2,0-0.5,0.1-0.7,0.1c-0.1,0-0.2,0-0.3,0c-0.3,0.1-0.6,0.1-0.9,0.2c-0.1,0-0.1,0-0.2,0
	c-0.2,0.1-0.5,0.2-0.8,0.3c-0.1,0-0.1,0-0.1,0.1c-0.2,0.1-0.5,0.2-0.7,0.3c0,0-0.1,0-0.1,0.1c-0.3,0.2-0.5,0.3-0.7,0.4
	c-0.1,0-0.1,0.1-0.2,0.1c-0.2,0.1-0.4,0.3-0.6,0.4c-0.1,0.1-0.2,0.1-0.2,0.2c-0.3,0.2-0.5,0.5-0.8,0.7L7.9,201.8
	c-0.2,0.2-0.5,0.5-0.7,0.8c-0.1,0.1-0.1,0.1-0.2,0.2c-0.2,0.2-0.3,0.4-0.4,0.6c-0.1,0.1-0.1,0.1-0.1,0.2c-0.2,0.2-0.3,0.4-0.4,0.7
	c0,0.1-0.1,0.1-0.1,0.2c-0.1,0.3-0.2,0.5-0.4,0.8c0,0,0,0.1-0.1,0.1c-0.1,0.3-0.2,0.6-0.3,0.8c0,0.1,0,0.1,0,0.1
	c-0.1,0.3-0.2,0.6-0.2,0.9c0,0.1,0,0.2-0.1,0.3c0,0.2-0.1,0.5-0.1,0.7c0,0.3-0.1,0.7-0.1,1v429.1c0,12.2,9.9,22.1,22.1,22.1h417.5
	c12.2,0,22.1-9.9,22.1-22.1v-33.7c0-5.8-4.7-10.5-10.5-10.5s-10.5,4.7-10.5,10.5v33.7c0,0.6-0.5,1.1-1.1,1.1H26.9
	c-0.6,0-1.1-0.5-1.1-1.1V219.7h117.1c12.2,0,22.1-9.9,22.1-22.1V80.6h279.4c0.6,0,1.1,0.5,1.1,1.1v222.1c0,5.8,4.7,10.5,10.5,10.5
	s10.5-4.7,10.5-10.5V81.7C466.6,69.5,456.6,59.5,444.5,59.5L444.5,59.5L444.5,59.5z M40.7,198.7L144,95.4v102.2
	c0,0.6-0.5,1.1-1.1,1.1H40.7z"/>
<path class="st0" d="M84.9,310.5c-4.7,0-8.5-3.8-8.5-8.5s3.8-8.5,8.5-8.5h69.6c4.7,0,8.5,3.8,8.5,8.5s-3.8,8.5-8.5,8.5H84.9z"/>
<path class="st0" d="M84.9,295.5h69.6c3.6,0,6.5,2.9,6.5,6.5s-2.9,6.5-6.5,6.5H84.9c-3.6,0-6.5-2.9-6.5-6.5S81.3,295.5,84.9,295.5
	 M84.9,291.5L84.9,291.5c-5.8,0-10.5,4.7-10.5,10.5s4.7,10.5,10.5,10.5h69.6c5.8,0,10.5-4.7,10.5-10.5s-4.7-10.5-10.5-10.5H84.9z"/>
<path class="st0" d="M84.9,380.1c-4.7,0-8.5-3.8-8.5-8.5s3.8-8.5,8.5-8.5h208.8c4.7,0,8.5,3.8,8.5,8.5s-3.8,8.5-8.5,8.5H84.9z"/>
<path class="st0" d="M84.9,365.1h208.8c3.6,0,6.5,2.9,6.5,6.5s-2.9,6.5-6.5,6.5H84.9c-3.6,0-6.5-2.9-6.5-6.5S81.3,365.1,84.9,365.1
	 M84.9,361.1L84.9,361.1c-5.8,0-10.5,4.7-10.5,10.5s4.7,10.5,10.5,10.5h208.8c5.8,0,10.5-4.7,10.5-10.5s-4.7-10.5-10.5-10.5H84.9z"
	/>
<path class="st0" d="M84.9,264.1c-4.7,0-8.5-3.8-8.5-8.5s3.8-8.5,8.5-8.5h69.6c4.7,0,8.5,3.8,8.5,8.5s-3.8,8.5-8.5,8.5H84.9z"/>
<path class="st0" d="M154.5,249.1c3.6,0,6.5,2.9,6.5,6.5c0,3.6-2.9,6.5-6.5,6.5H84.9c-3.6,0-6.5-2.9-6.5-6.5s2.9-6.5,6.5-6.5
	L154.5,249.1 M154.5,245.1H84.9c-5.8,0-10.5,4.7-10.5,10.5c0,5.8,4.7,10.5,10.5,10.5h69.6c5.8,0,10.5-4.7,10.5-10.5
	S160.3,245.1,154.5,245.1L154.5,245.1z"/>
<path class="st0" d="M84.9,472.9c-4.7,0-8.5-3.8-8.5-8.5s3.8-8.5,8.5-8.5h208.8c4.7,0,8.5,3.8,8.5,8.5s-3.8,8.5-8.5,8.5H84.9z"/>
<path class="st0" d="M293.7,457.9c3.6,0,6.5,2.9,6.5,6.5s-2.9,6.5-6.5,6.5H84.9c-3.6,0-6.5-2.9-6.5-6.5s2.9-6.5,6.5-6.5H293.7
	 M293.7,453.9H84.9c-5.8,0-10.5,4.7-10.5,10.5s4.7,10.5,10.5,10.5h208.8c5.8,0,10.5-4.7,10.5-10.5S299.5,453.9,293.7,453.9
	L293.7,453.9z"/>
<path class="st0" d="M84.9,588.9c-4.7,0-8.5-3.8-8.5-8.5s3.8-8.5,8.5-8.5h154.2c4.7,0,8.5,3.8,8.5,8.5s-3.8,8.5-8.5,8.5H84.9z"/>
<path class="st0" d="M239.1,573.8c3.6,0,6.5,2.9,6.5,6.5s-2.9,6.5-6.5,6.5H84.9c-3.6,0-6.5-2.9-6.5-6.5s2.9-6.5,6.5-6.5H239.1
	 M239.1,569.8H84.9c-5.8,0-10.5,4.7-10.5,10.5s4.7,10.5,10.5,10.5h154.2c5.8,0,10.5-4.7,10.5-10.5S244.9,569.8,239.1,569.8
	L239.1,569.8z"/>
<path class="st0" d="M247.3,310.5c-4.7,0-8.5-3.8-8.5-8.5v-72.2l-8.7,8.7c-1.6,1.6-3.7,2.5-6,2.5s-4.4-0.9-6-2.5s-2.5-3.7-2.5-6
	s0.9-4.4,2.5-6l92.8-92.8c1.6-1.6,3.7-2.5,6-2.5s4.4,0.9,6,2.5l92.8,92.8c1.6,1.6,2.5,3.7,2.5,6s-0.9,4.4-2.5,6
	c-1.6,1.6-3.7,2.5-6,2.5s-4.4-0.9-6-2.5l-8.7-8.7V302c0,4.7-3.8,8.5-8.5,8.5H247.3L247.3,310.5z M378,293.5v-80.8l-61.1-61.1
	l-61.1,61.1v80.8h29.4v-61.1c0-4.7,3.8-8.5,8.5-8.5h46.4c4.7,0,8.5,3.8,8.5,8.5v61.1H378L378,293.5z M331.6,293.5v-52.6h-29.4v52.6
	H331.6z"/>
<path class="st0" d="M316.9,133.1c1.7,0,3.3,0.6,4.6,1.9l92.8,92.8c2.5,2.5,2.5,6.7,0,9.2c-1.3,1.3-2.9,1.9-4.6,1.9
	s-3.3-0.6-4.6-1.9L393,224.9V302c0,3.6-2.9,6.5-6.5,6.5H247.3c-3.6,0-6.5-2.9-6.5-6.5v-77.1L228.7,237c-1.3,1.3-2.9,1.9-4.6,1.9
	s-3.3-0.6-4.6-1.9c-2.5-2.5-2.5-6.7,0-9.2l92.8-92.8C313.5,133.8,315.2,133.1,316.9,133.1 M253.8,295.5h33.4v-63.1
	c0-3.6,2.9-6.5,6.5-6.5h46.4c3.6,0,6.5,2.9,6.5,6.5v63.1H380v-83.6l-63.1-63.1l-63.1,63.1L253.8,295.5 M300.2,295.5h33.4v-56.6
	h-33.4V295.5 M316.9,129.1c-2.8,0-5.4,1.1-7.4,3.1L216.7,225c-4.1,4.1-4.1,10.8,0,14.9c2,2,4.6,3.1,7.4,3.1s5.4-1.1,7.4-3.1l5.3-5.3
	V302c0,5.8,4.7,10.5,10.5,10.5h139.2c5.8,0,10.5-4.7,10.5-10.5v-67.4l5.3,5.3c2,2,4.6,3.1,7.4,3.1s5.4-1.1,7.4-3.1
	c4.1-4.1,4.1-10.8,0-14.9l-92.8-92.8C322.3,130.2,319.7,129.1,316.9,129.1L316.9,129.1L316.9,129.1z M257.8,213.6l59.1-59.1
	l59.1,59.1v77.9h-25.4v-59.1c0-5.8-4.7-10.5-10.5-10.5h-46.4c-5.8,0-10.5,4.7-10.5,10.5v59.1h-25.4L257.8,213.6L257.8,213.6
	L257.8,213.6z M304.2,242.9h25.4v48.6h-25.4V242.9L304.2,242.9L304.2,242.9z"/>
<path class="st0" d="M385.7,535c-2.3,0-4.4-0.9-6-2.5s-2.5-3.7-2.5-6c0-2.3,0.9-4.4,2.5-6l55.5-55.5l-6.2-6.2
	c-1.6-1.6-2.5-3.8-2.5-6s0.9-4.4,2.5-6c1.6-1.6,3.8-2.5,6-2.5s4.4,0.9,6,2.5l24.5,24.5c1.6,1.6,2.5,3.7,2.5,6c0,2.3-0.9,4.4-2.5,6
	c-1.6,1.6-3.8,2.5-6,2.5s-4.4-0.9-6-2.5l-6.2-6.2l-55.5,55.5C390.1,534.1,388,535,385.7,535L385.7,535z"/>
<path class="st0" d="M435,446.2c1.7,0,3.3,0.6,4.6,1.9l12.3,12.2l0,0l0,0l12.2,12.2c1.3,1.3,1.9,2.9,1.9,4.6s-0.6,3.3-1.9,4.6
	c-1.3,1.3-2.9,1.9-4.6,1.9s-3.3-0.6-4.6-1.9l-7.7-7.6L390.3,531c-1.3,1.3-2.9,1.9-4.6,1.9s-3.3-0.6-4.6-1.9c-2.5-2.5-2.5-6.7,0-9.2
	L438,465l-7.6-7.6c-1.3-1.3-1.9-2.9-1.9-4.6s0.6-3.3,1.9-4.6C431.6,446.8,433.2,446.2,435,446.2 M434.9,442.2
	c-2.8,0-5.5,1.1-7.4,3.1c-2,2-3.1,4.6-3.1,7.4c0,2.8,1.1,5.5,3.1,7.4l4.8,4.8L378.2,519c-2,2-3.1,4.6-3.1,7.4s1.1,5.5,3.1,7.4
	c2,2,4.6,3.1,7.4,3.1s5.4-1.1,7.4-3.1l54.1-54.1l4.8,4.8c2,2,4.6,3.1,7.4,3.1s5.5-1.1,7.4-3.1c2-2,3.1-4.6,3.1-7.4
	c0-2.8-1.1-5.5-3.1-7.4l-12.2-12.2c0,0,0,0,0,0l0,0c0,0,0,0,0,0l-12.2-12.2C440.4,443.3,437.7,442.2,434.9,442.2L434.9,442.2
	L434.9,442.2z"/>
<path class="st0" d="M315.5,604.7c-2.3,0-4.4-0.9-6-2.5c-2.1-2.2-3-5.3-2.2-8.2l55.3-204.1c0.8-3,3.2-5.3,6.1-6l88.6-22.1l23.8-21.8
	c-2.6-5.6-4-11.8-4-18c0-11.3,4.4-22,12.4-30l0.1-0.1c8-7.9,18.6-12.3,29.9-12.3c9,0,17.9,2.9,25.1,8.2L681.6,153
	c1.5-1.5,3.5-2.3,5.7-2.3s4.2,0.9,5.8,2.4c1.5,1.5,2.3,3.6,2.3,5.8c0,2.2-0.9,4.2-2.4,5.7L556.5,298.8l63.5,63.5l79.3-78.1
	c1.5-1.5,3.5-2.3,5.7-2.3s4.2,0.9,5.8,2.4c1.5,1.5,2.3,3.6,2.3,5.8c0,2.2-0.9,4.2-2.4,5.7l-81.4,80.1c2.3,5.3,3.4,10.9,3.4,16.7
	c0,11.3-4.4,22-12.4,30c-8,8-18.6,12.4-30,12.4c-6.2,0-12.4-1.4-18-4l-21.7,23.7l-19,87.2c-0.7,3.1-3,5.6-6.1,6.4l-207.8,56
	C317,604.6,316.3,604.7,315.5,604.7L315.5,604.7z M327.6,584.1l188.5-50.8l18.4-84.4c0.3-1.5,1-2.8,2-3.9l22.1-24.1l-67.2-67.2
	l-24.1,22.1c-1,1-2.3,1.6-3.7,2l-85.9,21.4L327.6,584.1L327.6,584.1z M519.6,296.5c-6.8,0-13.2,2.6-18,7.4l-0.1,0.1
	c-4.7,4.8-7.4,11.1-7.4,17.9c0,6.8,2.6,13.1,7.4,17.9l70.8,70.7c4.8,4.8,11.2,7.4,18,7.4s13.2-2.6,18-7.4c4.8-4.8,7.4-11.2,7.4-17.9
	c0-3.3-0.6-6.5-1.9-9.6c-0.7-0.4-1.3-0.9-1.9-1.4c-1.5-1.5-2.3-3.4-2.3-5.5c-0.4-0.5-0.9-1-1.3-1.4l-70.8-70.8
	C532.8,299.2,526.4,296.5,519.6,296.5L519.6,296.5z"/>
<path class="st0" d="M687.3,152.7c1.6,0,3.2,0.6,4.3,1.8c2.4,2.4,2.3,6.3-0.1,8.6L553.7,298.8l65.3,65.2l0,0c0.4,0.4,0.7,0.7,1,1.1
	l80.8-79.5c1.2-1.2,2.7-1.8,4.3-1.8s3.2,0.6,4.3,1.8c2.4,2.4,2.3,6.3-0.1,8.6L627,375.4c2.5,5.3,3.8,11.1,3.8,17.2
	c0,10.8-4.2,20.9-11.8,28.5c-7.9,7.9-18.2,11.8-28.6,11.8c-6.3,0-12.7-1.5-18.5-4.5c-0.1,0.1-0.1,0.1-0.2,0.2l-22.9,25l-19.2,87.8
	c-0.5,2.4-2.3,4.3-4.7,4.9l-207.8,56c-0.6,0.2-1.1,0.2-1.7,0.2c-1.7,0-3.4-0.7-4.6-1.9c-1.6-1.7-2.3-4-1.7-6.3l55.3-204.1
	c0.6-2.3,2.4-4,4.7-4.6l89.1-22.2l25.1-23c0.1-0.1,0.1-0.1,0.2-0.2c-2.9-5.6-4.5-11.9-4.5-18.5c0-10.8,4.2-20.9,11.8-28.5
	c0,0,0,0,0.1-0.1c7.9-7.8,18.2-11.7,28.5-11.7c9,0,17.9,3,25.3,8.9L683,154.4C684.2,153.2,685.7,152.7,687.3,152.7 M590.4,419.9
	c7,0,14-2.7,19.4-8c5.2-5.2,8-12,8-19.3c0-3.9-0.8-7.6-2.3-11c-0.7-0.3-1.4-0.8-2-1.4c-1.3-1.3-1.9-3.1-1.7-4.8
	c-0.6-0.8-1.2-1.5-1.9-2.2L539,302.5c-5.3-5.3-12.3-8-19.4-8s-14,2.7-19.4,8c0,0,0,0-0.1,0.1c-5.1,5.2-8,12-8,19.3
	c0,7.3,2.9,14.2,8,19.3l70.8,70.7C576.4,417.3,583.4,420,590.4,419.9 M324.8,586.9l193-52.1l18.7-85.6c0.2-1.1,0.8-2.2,1.6-3
	l23.4-25.5l-70-69.9l-25.5,23.4c-0.8,0.7-1.8,1.2-2.8,1.5l-87,21.7L324.8,586.9 M687.3,148.7L687.3,148.7c-2.7,0-5.2,1-7.1,2.9
	L544.5,285.1c-7.3-4.9-16-7.6-24.9-7.6c-11.8,0-23,4.6-31.3,12.9l-0.1,0.1c-8.4,8.4-13,19.5-13,31.4c0,6,1.2,12,3.6,17.5l-22.4,20.5
	l-88.1,22c-3.7,0.9-6.6,3.8-7.6,7.5l-55.3,204.1c-1,3.6,0.1,7.5,2.7,10.2c2,2,4.6,3.1,7.4,3.1c0.9,0,1.8-0.1,2.7-0.4l207.8-56.1
	c3.8-1,6.7-4.1,7.5-7.9l18.9-86.7l20.4-22.3c5.5,2.4,11.5,3.6,17.5,3.6c11.9,0,23-4.6,31.4-13c8.4-8.4,13-19.5,13-31.4
	c0-5.6-1-11.1-3.1-16.2l80.4-79.2c1.9-1.9,3-4.4,3-7.1c0-2.7-1-5.2-2.9-7.2c-1.9-1.9-4.5-3-7.2-3s-5.2,1-7.1,2.9l-77.9,76.7
	l-60.7-60.7l135-132.9c1.9-1.9,3-4.4,3-7.1c0-2.7-1-5.2-2.9-7.2C692.6,149.7,690,148.7,687.3,148.7L687.3,148.7L687.3,148.7z
	 M590.4,416c-6.2,0-12.1-2.4-16.5-6.8l-70.8-70.7c-4.4-4.4-6.9-10.3-6.9-16.5c0-6.2,2.4-12.1,6.8-16.5l0.1-0.1
	c4.4-4.4,10.3-6.8,16.5-6.8s12.1,2.4,16.5,6.8l70.8,70.8c0.3,0.3,0.5,0.5,0.8,0.8c0.2,2.3,1.2,4.4,2.8,6.1c0.5,0.5,1.1,1,1.7,1.4
	c1,2.6,1.5,5.4,1.5,8.2c0,6.2-2.4,12.1-6.8,16.5C602.6,413.5,596.7,416,590.4,416L590.4,416L590.4,416z M379.4,400.7l84.7-21.1
	c1.7-0.4,3.3-1.3,4.5-2.4l22.7-20.8l64.5,64.5l-20.8,22.7c-1.2,1.4-2.1,3-2.5,4.9l-18.2,83.2l-184,49.6L379.4,400.7L379.4,400.7
	L379.4,400.7z"/>
</svg>
