<?xml version="1.0" encoding="utf-8"?>
<!-- Generator: Adobe Illustrator 27.3.1, SVG Export Plug-In . SVG Version: 6.00 Build 0)  -->
<svg version="1.1" id="Layer_1" xmlns="http://www.w3.org/2000/svg" xmlns:xlink="http://www.w3.org/1999/xlink" x="0px" y="0px"
	 viewBox="0 0 720 720" style="enable-background:new 0 0 720 720;" xml:space="preserve">
<style type="text/css">
	.st0{fill:#FFFFFF;}
</style>
<path class="st0" d="M641.4,449.1c-9.4,0-17.6-6.1-20.3-15.1l-16.4-54l-31.7-48.6l-16.8,46.7c-0.9,2.6-2.3,5-4.2,7.1l-52,57
	c-4,4.4-9.8,6.9-15.7,6.9c-5.3,0-10.3-2-14.3-5.5c-8.6-7.9-9.2-21.4-1.4-30l49.1-53.8l21.3-59v-55.4l-28.6,18.1l-10.8,50.2
	c-1.6,7.7-8.5,13.2-16.4,13.2c-1.2,0-2.3-0.1-3.5-0.3c-9.1-2-14.9-10.9-12.9-20l12.3-57.1c0.9-4.5,3.6-8.3,7.5-10.7l54.2-34.2
	c0.7-0.7,1.5-1.2,2.3-1.5l2.6-1.7c2.5-1.6,5.3-2.4,8.2-2.5c0.2,0,0.4-0.1,0.7-0.1h35.3c4.9,0.1,9.5,2.3,12.7,6.1
	c0.6,0.7,1,1.2,1.4,1.9l32,52.6l44.2,19.8c8.4,3.8,12.2,13.7,8.5,22.1c-2.7,6-8.8,9.9-15.3,9.9c-2.4,0-4.8-0.5-6.9-1.5l-48.8-21.9
	c-3.1-1.4-5.7-3.6-7.5-6.6l-6.2-10.1v29.7l38.2,58.5c1.1,1.7,2,3.5,2.5,5.4l17.3,57c3.2,10.6-2.4,22.1-12.8,26
	c-0.2,0.1-0.4,0.1-0.5,0.2c-0.2,0.1-0.5,0.2-0.6,0.2C645.6,448.8,643.5,449.1,641.4,449.1L641.4,449.1z M571.5,313.3
	c1.9,0,3.7,1,4.7,2.5l38.3,58.6c0.3,0.4,0.5,0.9,0.7,1.4l16.6,54.8c1.3,4.2,5.2,7.1,9.6,7.1c1,0,2-0.1,2.9-0.4
	c0.2-0.1,0.5-0.2,0.7-0.3c4.9-1.9,7.5-7.2,6-12.3l-17.3-57c-0.3-0.9-0.7-1.8-1.2-2.5l-39.1-59.9c-0.6-0.9-0.9-2-0.9-3.1v-51.3
	c0-2.5,1.7-4.7,4.1-5.4c0.5-0.1,1-0.2,1.5-0.2c1.9,0,3.8,1,4.8,2.7l16.5,27.2c0.6,1,1.5,1.7,2.5,2.2l48.9,21.9
	c0.7,0.3,1.4,0.5,2.2,0.5c2.2,0,4.3-1.3,5.2-3.3c1.2-2.8,0-6.1-2.8-7.4l-45.7-20.5c-1-0.5-1.9-1.2-2.5-2.2l-32.8-54
	c0-0.1-0.2-0.2-0.3-0.4l-0.2-0.2c-1.1-1.3-2.6-2.1-4.2-2.1H555c-0.1,0-0.3,0-0.6,0c-1,0-2,0.3-2.9,0.8l-3.6,2.3
	c-0.2,0.1-0.3,0.2-0.5,0.3c0,0-55.1,34.8-55.1,34.8c-1.3,0.8-2.1,2.1-2.5,3.5l-12.3,57.1c-0.6,3,1.3,6,4.3,6.6
	c0.3,0.1,0.8,0.1,1.2,0.1c2.6,0,4.9-1.8,5.4-4.4l11.3-52.5c0.3-1.5,1.2-2.8,2.5-3.6l39.2-24.8c0.9-0.6,1.9-0.9,3-0.9
	c0.9,0,1.9,0.2,2.7,0.7c1.8,1,2.9,2.9,2.9,4.9v66.5c0,0.6-0.1,1.3-0.3,1.9l-22,61c-0.2,0.7-0.6,1.3-1.1,1.9l-49.8,54.6
	c-3.7,4.1-3.4,10.5,0.7,14.2c1.8,1.6,4.2,2.5,6.7,2.5c2.9,0,5.6-1.1,7.5-3.1l51.9-56.9c0.9-1,1.6-2.1,2-3.3l20.7-57.3
	c0.7-2,2.5-3.4,4.6-3.7C571.1,313.3,571.3,313.3,571.5,313.3L571.5,313.3z"/>
<path class="st0" d="M589.7,199.5c4.8,0.1,9.1,2.2,12.1,5.8c0.5,0.6,1,1.2,1.4,1.8l32.1,52.8l44.3,19.9c8.1,3.6,11.7,13.1,8.1,21.2
	c-2.6,5.8-8.4,9.5-14.7,9.5c-2.3,0-4.6-0.5-6.6-1.4l-48.8-21.9c-3-1.3-5.5-3.5-7.2-6.3l-7.4-12.2V301l38.3,58.7
	c1.1,1.6,1.9,3.4,2.5,5.3l17.3,57c3.1,10.3-2.3,21.4-12.4,25.2c-0.2,0.1-0.3,0.1-0.5,0.2c-0.3,0.1-0.5,0.2-0.6,0.2
	c-2.2,0.7-4.2,1-6.2,1c-9.1,0-17-5.9-19.7-14.6l-16.4-54.1l-32.5-49.8l-17.3,48c-0.9,2.5-2.3,4.8-4.1,6.9l-52,57
	c-3.9,4.3-9.4,6.7-15.2,6.7c-5.1,0-10-1.9-13.8-5.4c-8.4-7.7-9-20.7-1.4-29l49.2-53.9l21.4-59.3v-56.8L509.7,263l-10.9,50.5
	c-1.6,7.4-8.2,12.7-15.7,12.7c-1.1,0-2.2-0.1-3.3-0.3c-8.8-1.9-14.3-10.5-12.4-19.1l12.3-57.1c0.9-4.3,3.4-7.9,7.1-10.2l54.2-34.3
	c0.6-0.6,1.3-1.1,2.2-1.4l2.7-1.7c2.4-1.5,5.1-2.3,7.8-2.4c0.2,0,0.4-0.1,0.7-0.1L589.7,199.5 M483.1,316.3c2.9,0,5.5-2.1,6.1-4.9
	l11.3-52.5c0.3-1.3,1.1-2.4,2.2-3.1l39.2-24.8c0.8-0.5,1.7-0.8,2.6-0.8c0.8,0,1.6,0.2,2.4,0.6c1.6,0.9,2.5,2.5,2.5,4.3v66.5
	c0,0.6-0.1,1.1-0.3,1.7l-22,61c-0.2,0.6-0.6,1.2-1,1.6l-49.8,54.6c-4,4.4-3.6,11.2,0.7,15.1c2,1.8,4.6,2.7,7.2,2.7
	c3,0,5.9-1.1,8-3.4l51.9-56.9c1-1.1,1.7-2.3,2.2-3.6l20.7-57.3c0.6-1.8,2.2-3,4-3.2c0.2,0,0.4,0,0.6,0c1.7,0,3.2,0.8,4.1,2.2
	l38.3,58.6c0.3,0.4,0.5,0.8,0.6,1.3l16.6,54.8c1.4,4.5,5.6,7.6,10.2,7.6c1,0,2.1-0.1,3.1-0.5c0,0,0,0,0,0c0.2-0.1,0.5-0.2,0.7-0.2
	c5.3-2.1,8.1-7.8,6.5-13.1l-17.3-57c-0.3-1-0.7-1.9-1.3-2.7L594,305.1c-0.5-0.8-0.8-1.7-0.8-2.7v-51.3c0-2.2,1.5-4.1,3.6-4.7
	c0.4-0.1,0.9-0.2,1.3-0.2c1.7,0,3.3,0.9,4.2,2.4l16.5,27.2c0.7,1.1,1.6,1.9,2.8,2.5l48.9,21.9c0.8,0.4,1.6,0.5,2.5,0.5
	c2.4,0,4.8-1.4,5.8-3.7c1.4-3.1,0-6.9-3.2-8.3l-45.7-20.5c-0.9-0.4-1.7-1.1-2.2-1.9l-32.8-54c-0.1-0.2-0.3-0.4-0.5-0.6
	c-1.2-1.5-2.9-2.3-4.7-2.3H555c-0.2,0-0.4,0-0.6,0c-1.2,0-2.3,0.3-3.3,0.9l-3.6,2.3c-0.1,0.1-0.3,0.2-0.4,0.2c0,0,0,0,0,0L492,247.6
	c-1.4,0.9-2.4,2.3-2.8,4L477,308.7c-0.7,3.4,1.4,6.7,4.8,7.4C482.1,316.2,482.6,316.3,483.1,316.3 M589.7,198.1h-35.3
	c-0.3,0-0.5,0-0.8,0.1c-3,0.1-5.9,1-8.5,2.6l-2.6,1.6c-0.9,0.3-1.8,0.8-2.5,1.5L486,238.2c-4,2.5-6.8,6.5-7.8,11.1L466,306.3
	c-2,9.4,4,18.7,13.4,20.8c1.2,0.2,2.4,0.4,3.6,0.4c8.2,0,15.4-5.8,17.1-13.8l10.8-49.9l27.3-17.3v54L517,359.3l-49,53.7
	c-8.1,8.9-7.5,22.8,1.5,31c4.1,3.7,9.3,5.7,14.8,5.7c6.1,0,12.1-2.6,16.2-7.2l52-57c2-2.2,3.4-4.7,4.4-7.3l16.4-45.4l30.9,47.3
	l16.4,54c2.8,9.3,11.3,15.6,21,15.6c2.2,0,4.3-0.3,6.6-1c0.1,0,0.4-0.1,0.7-0.2c0.2-0.1,0.4-0.1,0.6-0.2
	c10.7-4.1,16.5-15.9,13.2-26.8l-17.3-57c-0.6-2-1.5-3.9-2.6-5.6l-38.1-58.3v-27l4.9,8c1.9,3,4.5,5.4,7.8,6.9l48.8,21.9
	c2.2,1,4.7,1.6,7.2,1.6c6.9,0,13.1-4,16-10.3c3.9-8.8-0.1-19.1-8.8-23.1l-44-19.7l-31.8-52.4c-0.5-0.8-1-1.4-1.5-2
	C599.7,200.5,594.9,198.2,589.7,198.1C589.7,198.1,589.7,198.1,589.7,198.1L589.7,198.1L589.7,198.1z M555.1,210.7h34.5
	c1.4,0,2.7,0.7,3.7,1.8l0.2,0.2c0.1,0.1,0.2,0.2,0.2,0.3l32.8,54c0.7,1.1,1.6,2,2.8,2.5l45.7,20.5c2.5,1.1,3.6,4,2.5,6.5
	c-0.8,1.7-2.7,2.9-4.6,2.9c-0.7,0-1.3-0.1-1.9-0.4l-48.9-21.9c-0.9-0.4-1.6-1.1-2.2-1.9l-16.5-27.2c-1.1-1.9-3.2-3-5.4-3
	c-0.6,0-1.2,0.1-1.7,0.2c-2.7,0.8-4.6,3.2-4.6,6.1v51.3c0,1.2,0.3,2.4,1,3.4l39.1,59.9c0.5,0.7,0.8,1.5,1.1,2.4l17.3,57
	c1.4,4.7-1,9.6-5.6,11.4c-0.2,0.1-0.5,0.1-0.7,0.3c-0.9,0.3-1.8,0.4-2.7,0.4c-4.1,0-7.7-2.7-8.9-6.6l-16.6-54.8
	c-0.2-0.6-0.4-1.1-0.8-1.6l-38.3-58.6c-1.2-1.8-3.1-2.9-5.3-2.9c-0.2,0-0.5,0-0.7,0c-2.4,0.3-4.4,1.9-5.2,4.1l-20.7,57.3
	c-0.4,1.1-1,2.2-1.9,3.1l-51.9,56.9c-1.7,1.9-4.2,2.9-7,2.9c-2.4,0-4.6-0.8-6.3-2.3c-3.8-3.5-4.1-9.4-0.6-13.2l49.8-54.6
	c0.6-0.6,1-1.3,1.3-2.1l22-61c0.2-0.7,0.4-1.4,0.4-2.1v-66.5c0-2.3-1.2-4.4-3.2-5.5c-0.9-0.5-2-0.8-3-0.8c-1.2,0-2.3,0.3-3.4,1
	l-39.2,24.8c-1.4,0.9-2.4,2.3-2.8,4L487.8,311c-0.5,2.2-2.5,3.8-4.8,3.8c-0.4,0-0.8,0-1-0.1c-2.6-0.6-4.3-3.2-3.7-5.8l12.3-57.1
	c0.3-1.3,1-2.4,2.2-3.1l55.1-34.8c0.2-0.1,0.3-0.2,0.5-0.3l3.6-2.3c0.8-0.5,1.6-0.7,2.5-0.7C554.7,210.7,554.9,210.7,555.1,210.7
	L555.1,210.7L555.1,210.7z"/>
<path class="st0" d="M571.2,186.3c-17.3,0-31.4-14.1-31.4-31.4s14.1-31.4,31.4-31.4s31.4,14.1,31.4,31.4S588.6,186.3,571.2,186.3z
	 M571.2,134.6c-11.2,0-20.2,9.1-20.2,20.2s9.1,20.2,20.2,20.2s20.2-9.1,20.2-20.2S582.4,134.6,571.2,134.6L571.2,134.6z"/>
<path class="st0" d="M571.3,124.1c17,0,30.7,13.8,30.7,30.7s-13.8,30.8-30.7,30.8s-30.7-13.8-30.7-30.8S554.3,124.1,571.3,124.1
	 M571.3,175.8c11.5,0,20.9-9.4,20.9-20.9s-9.4-20.9-20.9-20.9s-20.9,9.4-20.9,20.9S559.7,175.8,571.3,175.8 M571.3,122.8
	c-17.7,0-32.1,14.4-32.1,32.1s14.4,32.1,32.1,32.1s32.1-14.4,32.1-32.1S589,122.8,571.3,122.8C571.3,122.8,571.3,122.8,571.3,122.8z
	 M571.3,174.4c-10.8,0-19.5-8.8-19.5-19.6s8.8-19.5,19.5-19.5s19.5,8.8,19.5,19.5S582,174.4,571.3,174.4L571.3,174.4z"/>
<path class="st0" d="M266.4,495.8c-29.8,0-54.1-24.3-54.1-54.1c0-17.9,8.9-34.6,23.9-44.7l-14.5-25.2l-41.5,71.8c-0.7,1.2-2,2-3.4,2
	h-37.6c-2,28.2-25.6,50.2-53.9,50.2c-29.8,0-54.1-24.3-54.1-54.1s24.3-54.1,54.1-54.1c8.7,0,17.1,2.1,25,6.2l17.2-29.9l-10.9-19
	c-0.3,0-0.6,0-0.9,0c-4.7,0-18.9,0-18.9-10.7s14.2-10.7,18.9-10.7c0.3,0,32,0.8,32,10.7c0,5.8-7.5,9.2-22.3,10.3l8.9,15.6H215
	l-10.4-18.1c-0.7-1.2-0.7-2.7,0-3.9c0.7-1.2,2-2,3.4-2h33.3c9.2,0,16.7,7.5,16.7,16.7s-7.5,16.7-16.7,16.7c-0.3,0-0.6-0.3-0.6-0.6
	v-6.6c0-0.3,0.3-0.6,0.6-0.6c4.9,0,8.8-4,8.8-8.8s-4-8.8-8.8-8.8h-26.6l28.1,49c7.5-3.6,15.4-5.5,23.4-5.5
	c29.8,0,54.1,24.3,54.1,54.1S296.2,495.8,266.4,495.8L266.4,495.8z M243.8,410.4c-10.1,7.3-16.1,18.9-16.1,31.3
	c0,21.3,17.3,38.6,38.6,38.6S305,463,305,441.7s-17.3-38.6-38.6-38.6c-5.4,0-10.7,1.1-15.7,3.4l19.1,33.3c0.1,0.1,0.1,0.3,0.1,0.5
	s-0.1,0.3-0.3,0.4l-5.8,3.3c-0.1,0-0.2,0.1-0.3,0.1c-0.2,0-0.4-0.1-0.5-0.3L243.8,410.4L243.8,410.4z M85.3,403.1
	c-21.3,0-38.7,17.3-38.7,38.6s17.3,38.6,38.7,38.6c19.9,0,36.2-14.9,38.2-34.7H87.2c-1.4,0-2.7-0.8-3.4-2c-0.7-1.2-0.7-2.7,0-3.9
	l18.8-32.5C97.1,404.5,91.3,403.1,85.3,403.1L85.3,403.1z M169.9,437.8l-9.8-17.1L132,372l-15,26c13,9.4,21,23.9,22.2,39.8
	L169.9,437.8L169.9,437.8z M123.7,437.8c-1.1-10.4-6.3-19.9-14.5-26.4L94,437.8H123.7L123.7,437.8z M166.5,416l10.3,17.8l38-65.8
	h-75.8L166.5,416L166.5,416z"/>
<path class="st0" d="M115.8,324.3c0.3,0,31.4,0.9,31.4,10.1c0,5.6-7.7,8.8-22.7,9.8l9.6,16.7H216l-10.9-19c-0.6-1-0.6-2.3,0-3.3
	c0.6-1,1.7-1.7,2.9-1.7h33.3c8.9,0,16.1,7.2,16.1,16.1s-7.2,16.1-16.1,16.1v-6.6c5.2,0,9.4-4.2,9.4-9.4s-4.2-9.4-9.4-9.4h-27.6
	l28.9,50.3c7.1-3.5,15.1-5.6,23.7-5.6c29.5,0,53.5,24,53.5,53.5s-24,53.5-53.5,53.5s-53.5-23.9-53.5-53.5c0-18.6,9.6-35,24.1-44.5
	l-15.3-26.5l-42,72.7c-0.6,1-1.7,1.7-2.9,1.7h-38.1c-1.7,28-24.9,50.2-53.3,50.2s-53.5-23.9-53.5-53.5s23.9-53.5,53.5-53.5
	c9.1,0,17.7,2.4,25.2,6.4l17.7-30.6L117,344.4c-0.4,0-0.8,0-1.2,0c-4.5,0-18.3,0-18.3-10.1S111.2,324.3,115.8,324.3 M176.8,435.1
	l39-67.6h-77.9l28.1,48.8L176.8,435.1 M138.6,438.4H171l-10.3-18L132,370.8l-15.8,27.4C129,407.2,137.6,421.8,138.6,438.4
	 M263.5,443.4L244,409.5c-10.2,7.1-16.9,18.8-16.9,32.2c0,21.7,17.6,39.2,39.2,39.2s39.2-17.6,39.2-39.2s-17.6-39.2-39.2-39.2
	c-5.9,0-11.5,1.4-16.6,3.7l19.5,33.8L263.5,443.4 M85.3,481c20.5,0,37.2-15.8,38.9-35.9h-37c-1.2,0-2.3-0.6-2.9-1.7
	c-0.6-1-0.6-2.3,0-3.3l19.1-33.1c-5.4-2.8-11.5-4.5-18.1-4.5c-21.7,0-39.2,17.6-39.2,39.2S63.7,481,85.3,481 M93,438.4h31.4
	c-1-11.4-6.7-21.3-15.3-27.8L93,438.4 M115.7,323.1c-2.3,0-7,0-11.2,1.3c-5.4,1.7-8.3,5.1-8.3,10c0,11.3,14.7,11.3,19.5,11.3
	c0.2,0,0.3,0,0.5,0l10.6,18.4l-16.8,29c-7.8-4-16.2-6-24.7-6c-30.2,0-54.7,24.5-54.7,54.7s24.5,54.7,54.7,54.7
	c28.4,0,52.1-21.9,54.4-50.2h37c1.6,0,3.1-0.9,3.9-2.3l40.9-70.9l13.7,23.8c-14.9,10.3-23.7,27-23.7,44.9
	c0,30.1,24.5,54.7,54.7,54.7s54.7-24.5,54.7-54.7S296.5,387,266.4,387c-8,0-15.8,1.8-23.2,5.3l-27.4-47.6h25.5
	c4.5,0,8.2,3.7,8.2,8.2s-3.7,8.2-8.2,8.2c-0.7,0-1.2,0.5-1.2,1.2v6.6c0,0.7,0.5,1.2,1.2,1.2c9.5,0,17.3-7.8,17.3-17.3
	s-7.8-17.3-17.3-17.3H208c-1.6,0-3.1,0.9-3.9,2.3s-0.8,3.1,0,4.5l9.9,17.2h-79.2l-8.3-14.4c14.7-1.2,21.9-4.7,21.9-10.8
	C148.3,323.7,116.1,323.1,115.7,323.1L115.7,323.1L115.7,323.1z M140,368.7h73.8l-36.9,64l-9.8-16.9L140,368.7L140,368.7L140,368.7z
	 M117.8,397.8l14.2-24.6l27.6,47.8l9.3,16.2h-29.2C138.4,421.5,130.5,407.2,117.8,397.8L117.8,397.8z M251.5,406.8
	c4.8-2,9.8-3.1,14.8-3.1c21,0,38,17.1,38,38s-17.1,38-38,38s-38-17.1-38-38c0-12,5.7-23.2,15.3-30.4l18.8,32.7
	c0.2,0.4,0.6,0.6,1,0.6c0.2,0,0.4,0,0.6-0.2l5.8-3.3c0.3-0.2,0.5-0.4,0.6-0.7s0-0.6-0.1-0.9L251.5,406.8L251.5,406.8L251.5,406.8z
	 M85.3,479.8c-21,0-38-17.1-38-38s17.1-38,38-38c5.7,0,11.2,1.3,16.4,3.8l-18.4,32c-0.8,1.4-0.8,3.1,0,4.5c0.8,1.4,2.3,2.3,3.9,2.3
	h35.7c-1.1,9-5.3,17.2-11.9,23.4C104,476.2,94.9,479.8,85.3,479.8L85.3,479.8L85.3,479.8z M95,437.2l14.3-24.8
	c7.6,6.2,12.5,15.1,13.6,24.8H95z"/>
<path class="st0" d="M623.4,711.4c-17.4,0-32.3-13-34.8-30.2H421.1c-2.5,17.3-17.4,30.2-34.8,30.2s-32.3-13-34.8-30.2h-15.2
	c-14.6,0-26.5-11.9-26.5-26.5v-123c0-14.6,11.9-26.5,26.5-26.5h307.9c0.2,0,0.3,0.1,0.4,0.2c14.7,1.8,29.3,19.7,44.6,54.7
	c11.3,26,18.8,52.2,18.9,52.5c0,0.1,0,0.2,0,0.3c0.1,0.3,0.2,0.7,0.2,1.1v40.7c0,14.6-11.9,26.5-26.5,26.5h-23.7
	C655.6,698.5,640.8,711.4,623.4,711.4L623.4,711.4z M681.9,671c9,0,16.3-7.3,16.3-16.3v-35.7h-18.1c-0.6,0-1.1-0.1-1.6-0.3
	l-84.9-28.6H320.1v64.6c0,9,7.3,16.3,16.3,16.3h15c2.5-17.3,17.4-30.2,34.9-30.2s32.5,13,35,30.2h167.1c2.5-17.3,17.5-30.2,35-30.2
	s32.5,13,34.9,30.2L681.9,671L681.9,671z M696.5,608.9c-6.8-22.2-15.6-44.4-24.3-61c-11.1-21.2-21.5-32.4-29.9-32.4h-42.7v66
	l81.5,27.5H696.5L696.5,608.9z M589.3,580v-64.5h-79.4V580H589.3z M499.7,580v-64.5h-90.1V580H499.7z M399.5,580v-64.5h-63.1
	c-9,0-16.3,7.3-16.3,16.3V580H399.5L399.5,580z"/>
<path class="st0" d="M644.2,505.8v0.1c14.6,1.5,29.2,19.3,44.5,54.4c11.3,25.9,18.8,52.1,18.9,52.4l-0.1,0c0.1,0.4,0.2,0.8,0.2,1.2
	v40.7c0,14.3-11.6,26-26,26h-24.2c-2.3,17-16.7,30.2-34.3,30.2s-32.1-13.2-34.4-30.2H420.7c-2.3,17-16.7,30.2-34.4,30.2
	s-32.1-13.2-34.3-30.2h-15.6c-14.3,0-26-11.6-26-26v-123c0-14.3,11.6-26,26-26H644.2 M680.9,609.4h16.2
	c-11.8-38.8-35.5-94.5-54.9-94.5H599v66.8L680.9,609.4 M509.4,580.5h80.4V515h-80.4V580.5 M409.2,580.5h91.1V515h-91.1L409.2,580.5
	 M319.6,580.5H400V515h-63.6c-9.3,0-16.8,7.5-16.8,16.8L319.6,580.5 M336.4,671.5h15.4c2.2-17,16.9-30.2,34.5-30.2
	s32.3,13.2,34.5,30.2h168c2.2-17,16.9-30.2,34.5-30.2s32.3,13.2,34.5,30.2h24c9.3,0,16.8-7.5,16.8-16.8v-36.2h-18.6
	c-0.5,0-1-0.1-1.5-0.2l-85-28.7H319.6v65.1C319.6,664,327.1,671.5,336.4,671.5 M644.3,504.8H336.4c-14.9,0-27,12.1-27,26.9v123
	c0,14.9,12.1,27,27,27h14.7c2.7,17.3,17.7,30.2,35.2,30.2s32.5-12.9,35.2-30.2h166.6c2.7,17.3,17.7,30.2,35.2,30.2
	s32.5-12.9,35.2-30.2h23.3c14.9,0,27-12.1,27-27V614c0-0.4-0.1-0.8-0.2-1.1c0-0.1,0-0.3,0-0.4c-0.1-0.3-7.5-26.4-19-52.5
	c-15.3-35-30-53-44.8-54.9C644.7,504.9,644.5,504.8,644.3,504.8L644.3,504.8L644.3,504.8z M600,516h42.2c18.5,0,42,54.8,53.6,92.5
	h-14.7L600,581.1V516L600,516z M510.4,516h78.4v63.5h-78.4V516L510.4,516z M410.2,516h89.1v63.5h-89.1L410.2,516L410.2,516
	L410.2,516z M320.6,579.5v-47.8c0-8.7,7.1-15.8,15.8-15.8H399v63.5H320.6L320.6,579.5z M320.6,590.7h272.9l84.9,28.6
	c0.6,0.2,1.2,0.3,1.8,0.3h17.6v35.2c0,8.7-7.1,15.8-15.8,15.8h-23.1c-2.7-17.3-17.8-30.2-35.4-30.2s-32.7,13-35.4,30.2H421.8
	c-2.7-17.3-17.8-30.2-35.4-30.2s-32.7,13-35.4,30.2h-14.6c-8.7,0-15.8-7.1-15.8-15.8L320.6,590.7L320.6,590.7L320.6,590.7z"/>
<path class="st0" d="M129.9,193.1c-6.6,0-12-5.4-12-12v-38.8c0-6.6,5.4-12,12-12h38.8c6.6,0,12,5.4,12,12v38.8c0,6.6-5.4,12-12,12
	H129.9z M129.9,140.5c-1,0-1.8,0.8-1.8,1.8v38.8c0,1,0.8,1.8,1.8,1.8h38.8c1,0,1.8-0.8,1.8-1.8v-38.8c0-1-0.8-1.8-1.8-1.8H129.9z"/>
<path class="st0" d="M168.7,130.8c6.4,0,11.5,5.2,11.5,11.5v38.8c0,6.4-5.2,11.5-11.5,11.5h-38.8c-6.4,0-11.5-5.2-11.5-11.5v-38.8
	c0-6.3,5.2-11.5,11.5-11.5H168.7 M129.9,183.4h38.8c1.3,0,2.3-1,2.3-2.3v-38.8c0-1.2-1-2.2-2.3-2.2h-38.8c-1.3,0-2.3,1-2.3,2.2v38.8
	C127.6,182.3,128.6,183.4,129.9,183.4 M168.7,129.8h-38.8c-6.9,0-12.5,5.6-12.5,12.5v38.8c0,6.9,5.6,12.5,12.5,12.5h38.8
	c6.9,0,12.5-5.6,12.5-12.5v-38.8C181.2,135.4,175.6,129.8,168.7,129.8L168.7,129.8z M129.9,182.4c-0.7,0-1.3-0.6-1.3-1.3v-38.8
	c0-0.7,0.6-1.2,1.3-1.2h38.8c0.7,0,1.3,0.6,1.3,1.2v38.8c0,0.7-0.6,1.3-1.3,1.3H129.9z"/>
<path class="st0" d="M209.2,193.1c-6.6,0-12-5.4-12-12v-38.8c0-6.6,5.4-12,12-12h38.8c6.6,0,12,5.4,12,12v38.8c0,6.6-5.4,12-12,12
	H209.2L209.2,193.1z M209.2,140.5c-1,0-1.8,0.8-1.8,1.8v38.8c0,1,0.8,1.8,1.8,1.8h38.8c1,0,1.8-0.8,1.8-1.8v-38.8
	c0-1-0.8-1.8-1.8-1.8H209.2z"/>
<path class="st0" d="M248,130.8c6.4,0,11.5,5.2,11.5,11.5v38.8c0,6.4-5.2,11.5-11.5,11.5h-38.8c-6.4,0-11.5-5.2-11.5-11.5v-38.8
	c0-6.3,5.2-11.5,11.5-11.5H248 M209.2,183.4H248c1.3,0,2.3-1,2.3-2.3v-38.8c0-1.2-1-2.2-2.3-2.2h-38.8c-1.3,0-2.3,1-2.3,2.2v38.8
	C207,182.4,208,183.4,209.2,183.4 M248,129.8h-38.8c-6.9,0-12.5,5.6-12.5,12.5v38.8c0,6.9,5.6,12.5,12.5,12.5H248
	c6.9,0,12.5-5.6,12.5-12.5v-38.8C260.6,135.4,255,129.8,248,129.8L248,129.8z M209.2,182.4c-0.7,0-1.3-0.6-1.3-1.3v-38.8
	c0-0.7,0.6-1.2,1.3-1.2H248c0.7,0,1.3,0.6,1.3,1.2v38.8c0,0.7-0.6,1.3-1.3,1.3H209.2z"/>
<path class="st0" d="M355.8,280.6c-12,0-23.2-6.9-28.7-17.7H146.5c-5.5,10.8-16.7,17.7-28.7,17.7s-23.2-6.9-28.7-17.7H14.8
	c-2.8,0-5.1-2.3-5.1-5.1V139.6c0-25.7,20.9-46.5,46.5-46.5h160L255,54.3L214.6,14c-0.1-0.1-0.1-0.2-0.1-0.4s0.1-0.3,0.1-0.4l6.5-6.5
	c0.1-0.1,0.2-0.2,0.4-0.2s0.3,0.1,0.4,0.2l44,44c1,1,1.5,2.3,1.5,3.6s-0.5,2.7-1.5,3.6l-35.2,35.2h149.7c24,0,43.8,17.9,46.3,41.7
	c0,0,0,0,0,0c0,0,0,0.1,0,0.1c0.2,1.5,0.2,3,0.2,4.7v118.2c0,2.8-2.3,5.1-5.1,5.1h-37.3C379,273.7,367.7,280.6,355.8,280.6
	L355.8,280.6z M416.7,252.7v-18.3h-77.3v18.3H416.7z M329.2,252.7V142.3c0-0.9-0.8-1.8-1.8-1.8h-38.8c-1,0-1.8,0.8-1.8,1.8v110.4
	H329.2L329.2,252.7z M276.5,252.7v-18.3H101.4v18.3H276.5L276.5,252.7z M91.2,252.7V142.3c0-1-0.8-1.8-1.8-1.8H50.6
	c-1,0-1.8,0.8-1.8,1.8v110.4H91.2L91.2,252.7z M38.5,252.7v-18.3H19.9v18.3H38.5z M416.7,224.2v-31.1h-48.8c-6.6,0-12-5.4-12-12
	v-38.8c0-6.6,5.4-12,12-12h47.5c-4.2-15.9-18.5-27-35.1-27H56.2c-20,0-36.3,16.3-36.3,36.3v84.6h18.6v-81.9c0-6.6,5.4-12,12-12h38.8
	c6.6,0,12,5.4,12,12v81.9h175.1v-81.9c0-6.6,5.4-12,12-12h38.8c6.6,0,12,5.4,12,12v81.9H416.7L416.7,224.2z M367.9,140.5
	c-1,0-1.8,0.8-1.8,1.8v38.8c0,1,0.8,1.8,1.8,1.8h48.8v-42.3H367.9z"/>
<path class="st0" d="M221.5,7.1l43.9,44c0.9,0.9,1.4,2,1.4,3.3s-0.5,2.4-1.4,3.3l-36,36h150.9c23.7,0,43.4,17.8,45.8,41.3l0,0v0v0
	c0,0,0,0,0,0c0.2,1.5,0.2,3,0.2,4.6v118.2c0,2.5-2.1,4.6-4.6,4.6h-37.6c-5.3,10.7-16.3,17.7-28.4,17.7s-23-7-28.4-17.7H146.2
	c-5.3,10.7-16.3,17.7-28.4,17.7s-23-7-28.4-17.7H14.8c-2.6,0-4.6-2.1-4.6-4.6V139.6c0-25.4,20.6-46,46-46h160.2l39.3-39.3L215,13.6
	L221.5,7.1 M19.4,224.7H39v-82.4c0-6.3,5.2-11.5,11.5-11.5h38.8c6.4,0,11.5,5.2,11.5,11.5v82.4H277v-82.4c0-6.3,5.2-11.5,11.5-11.5
	h38.8c6.4,0,11.5,5.2,11.5,11.5v82.4h78.3v-32.1h-49.2c-6.4,0-11.5-5.2-11.5-11.5v-38.8c0-6.3,5.2-11.5,11.5-11.5h48.2
	c-4-16.2-18.5-28-35.7-28H56.2c-20.3,0-36.8,16.5-36.8,36.8L19.4,224.7 M367.9,183.4h49.2V140h-49.2c-1.3,0-2.3,1-2.3,2.2v38.8
	C365.6,182.4,366.6,183.4,367.9,183.4 M286.3,253.2h43.4V142.3c0-1.2-1-2.2-2.3-2.2h-38.8c-1.3,0-2.3,1-2.3,2.2L286.3,253.2
	 M48.3,253.2h43.4V142.3c0-1.2-1-2.2-2.3-2.2H50.6c-1.2,0-2.3,1-2.3,2.2L48.3,253.2 M338.9,253.2h78.3v-19.3h-78.3V253.2
	 M100.9,253.2h176.1v-19.3H100.9L100.9,253.2 M19.4,253.2H39v-19.3H19.4L19.4,253.2 M221.5,6.1c-0.3,0-0.5,0.1-0.7,0.3l-6.5,6.5
	c-0.2,0.2-0.3,0.4-0.3,0.7s0.1,0.5,0.3,0.7l40,40L216,92.6H56.2c-25.9,0-47,21.1-47,47v118.2c0,3.1,2.5,5.6,5.6,5.6h74.1
	c5.6,10.8,16.9,17.7,29,17.7s23.3-6.9,29-17.7h180.1c5.6,10.8,16.9,17.7,29,17.7s23.3-6.9,29-17.7h37c3.1,0,5.6-2.5,5.6-5.6V139.6
	c0-1.6-0.1-3.2-0.2-4.7c0,0,0-0.1,0-0.1c0,0,0,0,0,0c0,0,0,0,0,0c0,0,0-0.1,0-0.1c-2.5-24-22.6-42.1-46.8-42.1H231.9l34.3-34.3
	c1.1-1.1,1.6-2.5,1.6-4s-0.6-2.9-1.6-4l-43.9-44C222,6.2,221.8,6.1,221.5,6.1L221.5,6.1L221.5,6.1z M20.4,223.7v-84.1
	c0-19.7,16-35.8,35.8-35.8h324.2c16.1,0,30.1,10.6,34.4,26h-46.9c-6.9,0-12.5,5.6-12.5,12.5v38.8c0,6.9,5.6,12.5,12.5,12.5h48.2
	v30.1h-76.3v-81.4c0-6.9-5.6-12.5-12.5-12.5h-38.8c-6.9,0-12.5,5.6-12.5,12.5v81.4H101.9v-81.4c0-6.9-5.6-12.5-12.5-12.5H50.6
	c-6.9,0-12.5,5.6-12.5,12.5v81.4C38,223.7,20.4,223.7,20.4,223.7z M367.9,182.4c-0.7,0-1.3-0.6-1.3-1.3v-38.8c0-0.7,0.6-1.2,1.3-1.2
	h48.2v41.3H367.9z M287.3,252.2V142.3c0-0.7,0.6-1.2,1.3-1.2h38.8c0.7,0,1.3,0.6,1.3,1.2v109.9L287.3,252.2L287.3,252.2z
	 M49.3,252.2V142.3c0-0.7,0.6-1.2,1.3-1.2h38.8c0.7,0,1.3,0.6,1.3,1.2v109.9L49.3,252.2L49.3,252.2z M339.9,234.9h76.3v17.3h-76.3
	V234.9L339.9,234.9z M101.9,234.9H276v17.3H101.9L101.9,234.9L101.9,234.9L101.9,234.9z M20.4,234.9h17.6v17.3H20.4L20.4,234.9
	C20.4,234.9,20.4,234.9,20.4,234.9z"/>
</svg>
