<?xml version="1.0" encoding="utf-8"?>
<!-- Generator: Adobe Illustrator 27.3.1, SVG Export Plug-In . SVG Version: 6.00 Build 0)  -->
<svg version="1.1" id="Layer_1" xmlns="http://www.w3.org/2000/svg" xmlns:xlink="http://www.w3.org/1999/xlink" x="0px" y="0px"
	 viewBox="0 0 720 720" style="enable-background:new 0 0 720 720;" xml:space="preserve">
<style type="text/css">
	.st0{fill:#FFFFFF;}
	.st1{fill:#FFFFFF;stroke:#FFFFFF;stroke-linecap:round;stroke-linejoin:round;}
</style>
<path class="st0" d="M544.3,138.2c-0.3,0-0.5-0.2-0.5-0.5c0-35.1-7.6-42.7-42.7-42.7c-0.3,0-0.5-0.2-0.5-0.5s0.2-0.5,0.5-0.5
	c35.1,0,42.7-7.6,42.7-42.7c0-0.3,0.2-0.5,0.5-0.5s0.5,0.2,0.5,0.5c0,35.1,7.6,42.7,42.7,42.7c0.3,0,0.5,0.2,0.5,0.5
	s-0.2,0.5-0.5,0.5c-35.1,0-42.7,7.6-42.7,42.7C544.8,138,544.6,138.2,544.3,138.2z"/>
<path class="st0" d="M544.3,51.4c0,35.6,7.6,43.2,43.2,43.2c-35.5,0-43.2,7.6-43.2,43.2c0-35.6-7.6-43.2-43.2-43.2
	C536.7,94.6,544.3,86.9,544.3,51.4 M544.3,50.4c-0.5,0-1,0.5-1,1c0,35.1-7.1,42.2-42.2,42.2c-0.5,0-1,0.4-1,1s0.5,1,1,1
	c35.1,0,42.2,7.1,42.2,42.2c0,0.6,0.5,1,1,1s1-0.4,1-1c0-35.1,7.1-42.2,42.2-42.2c0.5,0,1-0.4,1-1s-0.5-1-1-1
	c-35.1,0-42.2-7.1-42.2-42.2C545.3,50.8,544.9,50.4,544.3,50.4L544.3,50.4z"/>
<path class="st0" d="M151,249.6c-0.3,0-0.5-0.2-0.5-0.5c0-35.1-7.6-42.7-42.7-42.7c-0.3,0-0.5-0.2-0.5-0.5s0.2-0.5,0.5-0.5
	c35.1,0,42.7-7.6,42.7-42.7c0-0.3,0.2-0.5,0.5-0.5s0.5,0.2,0.5,0.5c0,35.1,7.6,42.7,42.7,42.7c0.3,0,0.5,0.2,0.5,0.5
	s-0.2,0.5-0.5,0.5c-35.1,0-42.7,7.6-42.7,42.7C151.5,249.4,151.3,249.6,151,249.6z"/>
<path class="st0" d="M151,162.7c0,35.6,7.6,43.2,43.2,43.2c-35.6,0-43.2,7.6-43.2,43.2c0-35.6-7.6-43.2-43.2-43.2
	C143.4,205.9,151,198.3,151,162.7 M151,161.7c-0.6,0-1,0.4-1,1c0,35.1-7.1,42.2-42.2,42.2c-0.6,0-1,0.4-1,1s0.4,1,1,1
	c35.1,0,42.2,7.1,42.2,42.2c0,0.6,0.4,1,1,1s1-0.4,1-1c0-35.1,7.1-42.2,42.2-42.2c0.6,0,1-0.4,1-1s-0.4-1-1-1
	c-35.1,0-42.2-7.1-42.2-42.2C152,162.2,151.6,161.7,151,161.7L151,161.7z"/>
<path class="st0" d="M635.3,605c-0.3,0-0.5-0.2-0.5-0.5c0-35.1-7.6-42.7-42.7-42.7c-0.3,0-0.5-0.2-0.5-0.5s0.2-0.5,0.5-0.5
	c35.1,0,42.7-7.6,42.7-42.7c0-0.3,0.2-0.5,0.5-0.5s0.5,0.2,0.5,0.5c0,35.1,7.6,42.7,42.7,42.7c0.3,0,0.5,0.2,0.5,0.5
	s-0.2,0.5-0.5,0.5c-35.1,0-42.7,7.6-42.7,42.7C635.8,604.7,635.6,605,635.3,605z"/>
<path class="st0" d="M635.3,518.1c0,35.5,7.6,43.2,43.2,43.2c-35.5,0-43.2,7.6-43.2,43.2c0-35.5-7.6-43.2-43.2-43.2
	C627.7,561.3,635.3,553.7,635.3,518.1 M635.3,517.1c-0.5,0-1,0.5-1,1c0,35.1-7.1,42.2-42.2,42.2c-0.5,0-1,0.5-1,1s0.5,1,1,1
	c35.1,0,42.2,7.1,42.2,42.2c0,0.5,0.5,1,1,1s1-0.5,1-1c0-35.1,7.1-42.2,42.2-42.2c0.5,0,1-0.5,1-1s-0.5-1-1-1
	c-35.1,0-42.2-7.1-42.2-42.2C636.3,517.6,635.9,517.1,635.3,517.1L635.3,517.1z"/>
<path class="st0" d="M623.7,285c-0.3,0-0.5-0.2-0.5-0.5c0-35.1-7.6-42.7-42.7-42.7c-0.3,0-0.5-0.2-0.5-0.5s0.2-0.5,0.5-0.5
	c35.1,0,42.7-7.6,42.7-42.7c0-0.3,0.2-0.5,0.5-0.5s0.5,0.2,0.5,0.5c0,35.1,7.6,42.7,42.7,42.7c0.3,0,0.5,0.2,0.5,0.5
	s-0.2,0.5-0.5,0.5c-35.1,0-42.7,7.6-42.7,42.7C624.2,284.8,623.9,285,623.7,285z"/>
<path class="st0" d="M623.7,198.2c0,35.6,7.6,43.2,43.2,43.2c-35.5,0-43.2,7.6-43.2,43.2c0-35.6-7.6-43.2-43.2-43.2
	C616,241.4,623.7,233.8,623.7,198.2 M623.7,197.2c-0.5,0-1,0.4-1,1c0,35.1-7.1,42.2-42.2,42.2c-0.5,0-1,0.4-1,1s0.5,1,1,1
	c35.1,0,42.2,7.1,42.2,42.2c0,0.5,0.5,1,1,1s1-0.5,1-1c0-35.1,7.1-42.2,42.2-42.2c0.5,0,1-0.4,1-1s-0.5-1-1-1
	c-35.1,0-42.2-7.1-42.2-42.2C624.7,197.7,624.2,197.2,623.7,197.2L623.7,197.2z"/>
<path class="st0" d="M282.5,46.2c-0.2,0-0.4,0-0.6,0c-4.4-0.3-7.7-4.2-7.4-8.6l1.4-18.9c0.3-4.1,3.8-7.4,8-7.4c0.2,0,0.4,0,0.6,0
	c4.4,0.3,7.7,4.2,7.4,8.6l-1.4,18.9C290.2,42.9,286.7,46.2,282.5,46.2L282.5,46.2z"/>
<path class="st0" d="M283.9,11.8c0.2,0,0.4,0,0.6,0c4.1,0.3,7.2,3.9,6.9,8.1L290,38.8c-0.3,3.9-3.6,6.9-7.5,6.9c-0.2,0-0.4,0-0.6,0
	c-4.1-0.3-7.2-3.9-6.9-8l1.4-18.9C276.8,14.8,280,11.8,283.9,11.8 M283.9,10.8L283.9,10.8c-4.4,0-8.1,3.4-8.5,7.9L274,37.5
	c-0.4,4.7,3.2,8.8,7.8,9.1c0.2,0,0.4,0,0.6,0c4.4,0,8.1-3.5,8.5-7.9l1.4-18.9c0.4-4.7-3.2-8.8-7.8-9.1
	C284.4,10.8,284.1,10.8,283.9,10.8L283.9,10.8L283.9,10.8z"/>
<path class="st0" d="M232.4,704.8c-0.2,0-0.4,0-0.6,0c-4.4-0.3-7.7-4.2-7.4-8.6l1.4-18.9c0.3-4.2,3.8-7.4,8-7.4c0.2,0,0.4,0,0.6,0
	c4.4,0.3,7.7,4.2,7.4,8.6l-1.4,18.9C240.1,701.5,236.6,704.8,232.4,704.8z"/>
<path class="st0" d="M233.9,670.4c0.2,0,0.4,0,0.6,0c4.1,0.3,7.2,3.9,6.9,8l-1.4,18.9c-0.3,3.9-3.6,6.9-7.5,6.9c-0.2,0-0.4,0-0.6,0
	c-4.1-0.3-7.2-3.9-6.9-8l1.4-18.9C226.7,673.4,230,670.4,233.9,670.4 M233.9,669.4L233.9,669.4c-4.4,0-8.1,3.5-8.5,7.9l-1.4,18.9
	c-0.4,4.7,3.2,8.8,7.8,9.1c0.2,0,0.4,0,0.6,0c4.4,0,8.1-3.5,8.5-7.9l1.4-18.9c0.4-4.7-3.2-8.8-7.8-9.1
	C234.3,669.4,234.1,669.4,233.9,669.4L233.9,669.4z"/>
<path class="st0" d="M440.4,46.2c-4.1,0-7.6-3.2-8-7.4L431,19.9c-0.3-4.4,3-8.2,7.4-8.6c0.2,0,0.4,0,0.6,0c4.2,0,7.7,3.2,8,7.4
	l1.4,18.9c0.3,4.4-3,8.2-7.4,8.6C440.8,46.2,440.6,46.2,440.4,46.2L440.4,46.2z"/>
<path class="st0" d="M439,11.8c3.9,0,7.2,3,7.5,6.9l1.4,18.9c0.3,4.1-2.8,7.7-6.9,8c-0.2,0-0.4,0-0.6,0c-3.9,0-7.2-3-7.5-6.9
	l-1.4-18.9c-0.3-4.1,2.8-7.7,6.9-8.1C438.6,11.8,438.8,11.8,439,11.8 M439,10.8L439,10.8c-0.2,0-0.4,0-0.6,0
	c-4.7,0.4-8.2,4.4-7.8,9.1l1.4,18.9c0.3,4.4,4,7.9,8.5,7.9c0.2,0,0.4,0,0.6,0c4.7-0.4,8.2-4.5,7.8-9.1l-1.4-18.9
	C447.1,14.3,443.4,10.8,439,10.8L439,10.8L439,10.8z"/>
<path class="st0" d="M490.5,704.8c-4.1,0-7.6-3.2-8-7.4l-1.4-18.9c-0.3-4.4,3-8.2,7.4-8.6c0.2,0,0.4,0,0.6,0c4.2,0,7.7,3.2,8,7.4
	l1.4,18.9c0.3,4.4-3,8.2-7.4,8.6C490.9,704.8,490.7,704.8,490.5,704.8z"/>
<path class="st0" d="M489,670.4c3.9,0,7.2,3,7.5,6.9l1.4,18.9c0.3,4.1-2.8,7.7-6.9,8c-0.2,0-0.4,0-0.6,0c-3.9,0-7.2-3-7.5-6.9
	l-1.4-18.9c-0.3-4.1,2.8-7.7,6.9-8C488.7,670.4,488.8,670.4,489,670.4 M489,669.4L489,669.4c-0.2,0-0.4,0-0.6,0
	c-4.7,0.4-8.2,4.5-7.8,9.1l1.4,18.9c0.3,4.4,4,7.9,8.5,7.9c0.2,0,0.4,0,0.6,0c4.7-0.4,8.2-4.5,7.8-9.1l-1.4-18.9
	C497.2,672.9,493.4,669.4,489,669.4L489,669.4z"/>
<path class="st0" d="M574.2,415.5c-0.2,0-0.4-0.1-0.5-0.3l-33.1-90.5H178.7l-27.3,90.4c-0.1,0.2-0.3,0.4-0.5,0.4H84.6
	c-0.3,0-0.5-0.2-0.5-0.5v-62.2H42.7c-0.3,0-0.5-0.2-0.5-0.5v-71.8c0-0.3,0.2-0.5,0.5-0.5h634.6c0.3,0,0.5,0.2,0.5,0.5v71.8
	c0,0.3-0.2,0.5-0.5,0.5h-42.9V415c0,0.3-0.2,0.5-0.5,0.5L574.2,415.5L574.2,415.5z"/>
<path class="st0" d="M677.3,280.4v71.8h-43.4V415h-59.7l-33.3-90.8H178.3L150.9,415H84.6v-62.7H42.7v-71.8H677.3 M677.3,279.4H42.7
	c-0.5,0-1,0.5-1,1v71.8c0,0.5,0.5,1,1,1h40.8V415c0,0.5,0.4,1,1,1h66.3c0.4,0,0.8-0.3,1-0.7l27.2-90.1h361.2l33,90.1
	c0.1,0.4,0.5,0.7,0.9,0.7h59.7c0.5,0,1-0.5,1-1v-61.7h42.4c0.5,0,1-0.5,1-1v-71.8C678.3,279.9,677.8,279.4,677.3,279.4L677.3,279.4
	L677.3,279.4z"/>
<path class="st1" d="M677.3,280.4v71.8h-43.4V415h-59.7l-33.3-90.8H178.3L150.9,415H84.6v-62.7H42.7v-71.8H677.3 M677.3,276.6H42.7
	c-2.1,0-3.8,1.7-3.8,3.8v71.8c0,2.1,1.7,3.8,3.8,3.8h38.1V415c0,2.1,1.7,3.8,3.8,3.8h66.3c1.7,0,3.1-1.1,3.6-2.7l26.6-88.1h357.1
	l32.3,88.3c0.5,1.5,2,2.5,3.5,2.5h59.7c2.1,0,3.8-1.7,3.8-3.8V356h39.7c2.1,0,3.8-1.7,3.8-3.8v-71.8
	C681.1,278.3,679.4,276.7,677.3,276.6L677.3,276.6L677.3,276.6z"/>
<path class="st0" d="M269.6,216.1c-0.2,0-0.4,0-0.6,0c-4.4-0.3-7.7-4.2-7.4-8.6l3-40c0.3-4.1,3.8-7.4,8-7.4c0.2,0,0.4,0,0.6,0
	c4.4,0.3,7.7,4.2,7.4,8.6l-3,40C277.2,212.9,273.7,216.1,269.6,216.1L269.6,216.1z"/>
<path class="st0" d="M272.6,160.6c0.2,0,0.4,0,0.6,0c4.1,0.3,7.2,3.9,6.9,8.1l-3,40c-0.3,3.9-3.6,6.9-7.5,6.9c-0.2,0-0.4,0-0.6,0
	c-4.1-0.3-7.2-3.9-6.9-8.1l3-40C265.4,163.6,268.7,160.6,272.6,160.6 M272.6,159.6c-4.4,0-8.1,3.4-8.5,7.9l-3,40
	c-0.4,4.7,3.2,8.8,7.8,9.1c0.2,0,0.4,0,0.6,0c4.4,0,8.1-3.4,8.5-7.9l3-40c0.4-4.7-3.2-8.8-7.8-9.1
	C273,159.6,272.8,159.6,272.6,159.6L272.6,159.6L272.6,159.6z"/>
<path class="st0" d="M276,131.1c-0.2,0-0.4,0-0.6,0c-4.4-0.3-7.7-4.2-7.4-8.6l3-40c0.3-4.2,3.8-7.4,8-7.4c0.2,0,0.4,0,0.6,0
	c4.4,0.3,7.7,4.2,7.4,8.6l-3,40C283.7,127.9,280.2,131.1,276,131.1z"/>
<path class="st0" d="M279.1,75.7c0.2,0,0.4,0,0.6,0c4.1,0.3,7.2,3.9,6.9,8.1l-3,40c-0.3,3.9-3.6,6.9-7.5,6.9c-0.2,0-0.4,0-0.6,0
	c-4.1-0.3-7.2-3.9-6.9-8.1l3-40C271.9,78.6,275.2,75.6,279.1,75.7 M279,74.6c-4.4,0-8.1,3.4-8.5,7.9l-3,40c-0.4,4.7,3.2,8.8,7.8,9.1
	c0.2,0,0.4,0,0.6,0c4.4,0,8.1-3.4,8.5-7.9l3-40c0.4-4.7-3.2-8.8-7.8-9.1C279.5,74.6,279.3,74.6,279,74.6L279,74.6L279,74.6z"/>
<path class="st0" d="M256.8,277.1c-0.1,0-0.3-0.1-0.4-0.2c-0.1-0.1-0.1-0.2-0.1-0.4l1.8-24.1c0.3-4.1,3.8-7.4,8-7.4
	c0.2,0,0.4,0,0.6,0c4.4,0.3,7.7,4.2,7.4,8.6l-1.8,23c0,0.3-0.2,0.5-0.5,0.5L256.8,277.1L256.8,277.1z"/>
<path class="st0" d="M266.1,245.6c0.2,0,0.4,0,0.6,0c4.1,0.3,7.2,3.9,6.9,8.1l-1.8,23h-15l1.8-24.1
	C259,248.6,262.3,245.6,266.1,245.6 M266.1,244.6c-4.4,0-8.1,3.4-8.5,7.9l-1.8,24.1c0,0.3,0.1,0.5,0.3,0.8c0.2,0.2,0.5,0.3,0.7,0.3
	h15c0.5,0,1-0.4,1-0.9l1.8-23c0.4-4.7-3.2-8.8-7.8-9.1C266.6,244.6,266.4,244.6,266.1,244.6L266.1,244.6L266.1,244.6z"/>
<path class="st0" d="M250.2,471c-0.2,0-0.4,0-0.6,0c-4.4-0.3-7.7-4.2-7.4-8.6l3-40c0.3-4.1,3.8-7.4,8-7.4c0.2,0,0.4,0,0.6,0
	c4.4,0.3,7.7,4.2,7.4,8.6l-3,40C257.9,467.8,254.4,471,250.2,471L250.2,471z"/>
<path class="st0" d="M253.2,415.5c0.2,0,0.4,0,0.6,0c4.1,0.3,7.2,3.9,6.9,8l-3,40c-0.3,3.9-3.6,6.9-7.5,6.9c-0.2,0-0.4,0-0.6,0
	c-4.1-0.3-7.2-3.9-6.9-8l3-40C246.1,418.5,249.3,415.5,253.2,415.5 M253.2,414.5c-4.4,0-8.1,3.5-8.5,7.9l-3,40
	c-0.4,4.7,3.2,8.8,7.8,9.1c0.2,0,0.4,0,0.6,0c4.4,0,8.1-3.5,8.5-7.9l3-40c0.4-4.7-3.2-8.8-7.8-9.1
	C253.7,414.5,253.4,414.5,253.2,414.5L253.2,414.5L253.2,414.5z"/>
<path class="st0" d="M237.3,640.9c-0.2,0-0.4,0-0.6,0c-4.4-0.3-7.7-4.2-7.4-8.6l3-40c0.3-4.2,3.8-7.4,8-7.4c0.2,0,0.4,0,0.6,0
	c4.4,0.3,7.7,4.2,7.4,8.6l-3,40C244.9,637.7,241.4,640.9,237.3,640.9L237.3,640.9z"/>
<path class="st0" d="M240.3,585.4c0.2,0,0.4,0,0.6,0c4.1,0.3,7.2,3.9,6.9,8l-3,40c-0.3,3.9-3.6,6.9-7.5,6.9c-0.2,0-0.4,0-0.6,0
	c-4.1-0.3-7.2-3.9-6.9-8l3-40C233.1,588.4,236.4,585.4,240.3,585.4 M240.3,584.4c-4.4,0-8.1,3.5-8.5,7.9l-3,40
	c-0.4,4.7,3.2,8.8,7.8,9.1c0.2,0,0.4,0,0.6,0c4.4,0,8.1-3.5,8.5-7.9l3-40c0.4-4.7-3.2-8.8-7.8-9.1
	C240.7,584.4,240.5,584.4,240.3,584.4L240.3,584.4L240.3,584.4z"/>
<path class="st0" d="M256.7,386c-0.2,0-0.4,0-0.6,0c-4.4-0.3-7.7-4.2-7.4-8.6l3-40c0.3-4.1,3.8-7.4,8-7.4c0.2,0,0.4,0,0.6,0
	c4.4,0.3,7.7,4.2,7.4,8.6l-3,40C264.3,382.8,260.8,386,256.7,386z"/>
<path class="st0" d="M259.7,330.5c0.2,0,0.4,0,0.6,0c4.1,0.3,7.2,3.9,6.9,8l-3,40c-0.3,3.9-3.6,6.9-7.5,6.9c-0.2,0-0.4,0-0.6,0
	c-4.1-0.3-7.2-3.9-6.9-8l3-40C252.5,333.5,255.8,330.5,259.7,330.5 M259.7,329.5c-4.4,0-8.1,3.5-8.5,7.9l-3,40
	c-0.4,4.7,3.2,8.8,7.8,9.1c0.2,0,0.4,0,0.6,0c4.4,0,8.1-3.5,8.5-7.9l3-40c0.4-4.7-3.2-8.8-7.8-9.1
	C260.1,329.5,259.9,329.5,259.7,329.5L259.7,329.5z"/>
<path class="st0" d="M243.8,556c-0.2,0-0.4,0-0.6,0c-4.4-0.3-7.7-4.2-7.4-8.6l3-40c0.3-4.1,3.8-7.4,8-7.4c0.2,0,0.4,0,0.6,0
	c4.4,0.3,7.7,4.2,7.4,8.6l-3,40C251.4,552.7,247.9,556,243.8,556L243.8,556z"/>
<path class="st0" d="M246.8,500.5c0.2,0,0.4,0,0.6,0c4.1,0.3,7.2,3.9,6.9,8l-3,40c-0.3,3.9-3.6,6.9-7.5,6.9c-0.2,0-0.4,0-0.6,0
	c-4.1-0.3-7.2-3.9-6.9-8l3-40C239.6,503.5,242.9,500.5,246.8,500.5 M246.8,499.5c-4.4,0-8.1,3.5-8.5,7.9l-3,40
	c-0.4,4.7,3.2,8.8,7.8,9.1c0.2,0,0.4,0,0.6,0c4.4,0,8.1-3.5,8.5-7.9l3-40c0.4-4.7-3.2-8.8-7.8-9.1
	C247.2,499.5,247,499.5,246.8,499.5L246.8,499.5L246.8,499.5z"/>
<path class="st0" d="M446.8,131.1c-4.1,0-7.6-3.2-8-7.4l-3-40c-0.3-4.4,3-8.2,7.4-8.6c0.2,0,0.4,0,0.6,0c4.1,0,7.6,3.2,8,7.4l3,40
	c0.3,4.4-3,8.2-7.4,8.6C447.2,131.1,447,131.1,446.8,131.1L446.8,131.1z"/>
<path class="st0" d="M443.8,75.7c3.9,0,7.2,3,7.5,6.9l3,40c0.3,4.1-2.8,7.7-6.9,8.1c-0.2,0-0.4,0-0.6,0c-3.9,0-7.2-3-7.5-6.9l-3-40
	c-0.3-4.1,2.8-7.7,6.9-8.1C443.4,75.7,443.6,75.7,443.8,75.7 M443.8,74.7c-0.2,0-0.4,0-0.7,0c-4.7,0.4-8.2,4.4-7.8,9.1l3,40
	c0.3,4.4,4,7.9,8.5,7.9c0.2,0,0.4,0,0.6,0c4.7-0.4,8.2-4.4,7.8-9.1l-3-40C451.9,78.1,448.2,74.7,443.8,74.7L443.8,74.7L443.8,74.7z"
	/>
<path class="st0" d="M453.3,216.1c-4.1,0-7.6-3.2-8-7.4l-3-40c-0.3-4.4,3-8.2,7.4-8.6c0.2,0,0.4,0,0.6,0c4.1,0,7.6,3.2,8,7.4l3,40
	c0.3,4.4-3,8.2-7.4,8.6C453.7,216.1,453.5,216.1,453.3,216.1L453.3,216.1z"/>
<path class="st0" d="M450.3,160.6c3.9,0,7.2,3,7.5,6.9l3,40c0.3,4.1-2.8,7.7-6.9,8.1c-0.2,0-0.4,0-0.6,0c-3.9,0-7.2-3-7.5-6.9l-3-40
	c-0.3-4.1,2.8-7.7,6.9-8.1C449.9,160.6,450.1,160.6,450.3,160.6 M450.3,159.6c-0.2,0-0.4,0-0.7,0c-4.7,0.4-8.2,4.4-7.8,9.1l3,40
	c0.3,4.4,4,7.9,8.5,7.9c0.2,0,0.4,0,0.6,0c4.7-0.4,8.2-4.4,7.8-9.1l-3-40C458.4,163.1,454.7,159.6,450.3,159.6L450.3,159.6
	L450.3,159.6z"/>
<path class="st0" d="M451,277.1c-0.3,0-0.5-0.2-0.5-0.5l-1.8-23c-0.3-4.4,3-8.2,7.4-8.6c0.2,0,0.4,0,0.6,0c4.1,0,7.6,3.2,8,7.4
	l1.8,24.1c0,0.1,0,0.3-0.1,0.4s-0.2,0.2-0.4,0.2L451,277.1L451,277.1z"/>
<path class="st0" d="M456.8,245.6c3.9,0,7.2,3,7.5,6.9l1.8,24.1h-15l-1.8-23c-0.3-4.1,2.8-7.7,6.9-8.1
	C456.4,245.6,456.5,245.6,456.8,245.6 M456.7,244.6c-0.2,0-0.4,0-0.7,0c-4.7,0.4-8.2,4.4-7.8,9.1l1.8,23c0,0.5,0.5,0.9,1,0.9h15
	c0.3,0,0.5-0.1,0.7-0.3s0.3-0.5,0.3-0.8l-1.8-24.1C464.9,248,461.2,244.6,456.7,244.6L456.7,244.6L456.7,244.6z"/>
<path class="st0" d="M466.2,386c-4.1,0-7.6-3.2-8-7.4l-3-40c-0.3-4.4,3-8.2,7.4-8.6c0.2,0,0.4,0,0.6,0c4.2,0,7.7,3.2,8,7.4l3,40
	c0.3,4.4-3,8.2-7.4,8.6C466.6,386,466.4,386,466.2,386L466.2,386z"/>
<path class="st0" d="M463.2,330.5c3.9,0,7.2,3,7.5,6.9l3,40c0.3,4.1-2.8,7.7-6.9,8c-0.2,0-0.4,0-0.6,0c-3.9,0-7.2-3-7.5-6.9l-3-40
	c-0.3-4.1,2.8-7.7,6.9-8C462.8,330.6,463,330.5,463.2,330.5 M463.2,329.5c-0.2,0-0.4,0-0.6,0c-4.7,0.4-8.2,4.5-7.8,9.1l3,40
	c0.3,4.4,4,7.9,8.5,7.9c0.2,0,0.4,0,0.6,0c4.7-0.4,8.2-4.5,7.8-9.1l-3-40C471.3,333,467.6,329.5,463.2,329.5L463.2,329.5
	L463.2,329.5z"/>
<path class="st0" d="M472.7,471c-4.1,0-7.6-3.2-8-7.4l-3-40c-0.3-4.4,3-8.2,7.4-8.6c0.2,0,0.4,0,0.6,0c4.1,0,7.6,3.2,8,7.4l3,40
	c0.3,4.4-3,8.2-7.4,8.6C473.1,471,472.9,471,472.7,471z"/>
<path class="st0" d="M469.7,415.5c3.9,0,7.2,3,7.5,6.9l3,40c0.3,4.1-2.8,7.7-6.9,8c-0.2,0-0.4,0-0.6,0c-3.9,0-7.2-3-7.5-6.9l-3-40
	c-0.3-4.1,2.8-7.7,6.9-8C469.3,415.5,469.5,415.5,469.7,415.5 M469.7,414.5c-0.2,0-0.4,0-0.7,0c-4.7,0.4-8.2,4.5-7.8,9.1l3,40
	c0.3,4.4,4,7.9,8.5,7.9c0.2,0,0.4,0,0.6,0c4.7-0.4,8.2-4.5,7.8-9.1l-3-40C477.8,418,474.1,414.5,469.7,414.5L469.7,414.5
	L469.7,414.5z"/>
<path class="st0" d="M485.6,640.9c-4.1,0-7.6-3.2-8-7.4l-3-40c-0.3-4.4,3-8.2,7.4-8.6c0.2,0,0.4,0,0.6,0c4.2,0,7.7,3.2,8,7.4l3,40
	c0.3,4.4-3,8.2-7.4,8.6C486,640.9,485.8,640.9,485.6,640.9L485.6,640.9z"/>
<path class="st0" d="M482.6,585.5c3.9,0,7.2,3,7.5,6.9l3,40c0.3,4.1-2.8,7.7-6.9,8c-0.2,0-0.4,0-0.6,0c-3.9,0-7.2-3-7.5-6.9l-3-40
	c-0.3-4.1,2.8-7.7,6.9-8C482.2,585.5,482.4,585.5,482.6,585.5 M482.6,584.5c-0.2,0-0.4,0-0.6,0c-4.7,0.4-8.2,4.5-7.8,9.1l3,40
	c0.3,4.4,4,7.9,8.5,7.9c0.2,0,0.4,0,0.6,0c4.7-0.4,8.2-4.5,7.8-9.1l-3-40C490.7,587.9,487,584.5,482.6,584.5L482.6,584.5
	L482.6,584.5z"/>
<path class="st0" d="M479.1,556c-4.1,0-7.6-3.2-8-7.4l-3-40c-0.3-4.4,3-8.2,7.4-8.6c0.2,0,0.4,0,0.6,0c4.2,0,7.7,3.2,8,7.4l3,40
	c0.3,4.4-3,8.2-7.4,8.6C479.5,556,479.3,556,479.1,556L479.1,556z"/>
<path class="st0" d="M476.1,500.5c3.9,0,7.2,3,7.5,6.9l3,40c0.3,4.1-2.8,7.7-6.9,8c-0.2,0-0.4,0-0.6,0c-3.9,0-7.2-3-7.5-6.9l-3-40
	c-0.3-4.1,2.8-7.7,6.9-8C475.7,500.5,475.9,500.5,476.1,500.5 M476.1,499.5c-0.2,0-0.4,0-0.6,0c-4.7,0.4-8.2,4.5-7.8,9.1l3,40
	c0.3,4.4,4,7.9,8.5,7.9c0.2,0,0.4,0,0.6,0c4.7-0.4,8.2-4.5,7.8-9.1l-3-40C484.2,502.9,480.5,499.5,476.1,499.5L476.1,499.5
	L476.1,499.5z"/>
<path class="st0" d="M514.2,277.1c-0.2,0-0.5-0.2-0.5-0.4L474.2,20.5c-0.7-4.4,2.3-8.4,6.7-9.1c0.4-0.1,0.8-0.1,1.2-0.1
	c4,0,7.3,2.8,7.9,6.8l39.8,258.5c0,0.1,0,0.3-0.1,0.4c-0.1,0.1-0.2,0.2-0.4,0.2L514.2,277.1L514.2,277.1z"/>
<path class="st0" d="M482.2,11.8c3.6,0,6.8,2.7,7.4,6.4l39.8,258.5h-15.2L474.7,20.5c-0.6-4.1,2.2-7.9,6.3-8.6
	C481.4,11.8,481.8,11.8,482.2,11.8 M482.2,10.8c-0.4,0-0.9,0-1.3,0.1c-4.6,0.7-7.8,5.1-7.1,9.7l39.5,256.2c0.1,0.5,0.5,0.9,1,0.9
	h15.2c0.3,0,0.6-0.1,0.8-0.4s0.3-0.5,0.2-0.8L490.5,18C489.9,13.8,486.4,10.8,482.2,10.8L482.2,10.8L482.2,10.8z"/>
<path class="st0" d="M586.6,704.8c-4,0-7.3-2.8-7.9-6.8l-57-370c0-0.1,0-0.3,0.1-0.4c0.1-0.1,0.2-0.2,0.4-0.2h15.2
	c0.2,0,0.5,0.2,0.5,0.4l56.7,367.7c0.3,2.1-0.2,4.2-1.5,6c-1.3,1.7-3.1,2.8-5.2,3.2C587.4,704.8,587,704.8,586.6,704.8L586.6,704.8z
	"/>
<path class="st0" d="M537.3,327.9L594,695.6c0.6,4.1-2.2,7.9-6.3,8.5c-0.4,0.1-0.8,0.1-1.2,0.1c-3.6,0-6.8-2.7-7.4-6.4l-57-370
	L537.3,327.9 M537.3,326.9h-15.2c-0.3,0-0.6,0.1-0.8,0.4s-0.3,0.5-0.2,0.8l57,370c0.6,4.2,4.2,7.2,8.4,7.2c0.4,0,0.9,0,1.3-0.1
	c2.2-0.3,4.2-1.5,5.6-3.4c1.3-1.8,1.9-4.1,1.5-6.3l-56.7-367.7C538.2,327.3,537.8,326.9,537.3,326.9L537.3,326.9L537.3,326.9z"/>
<path class="st0" d="M386.4,277.1c-0.3,0-0.5-0.2-0.5-0.5V19.3c0-4.4,3.6-8,8-8s8,3.6,8,8v257.3c0,0.3-0.2,0.5-0.5,0.5L386.4,277.1
	L386.4,277.1z"/>
<path class="st0" d="M393.9,11.8c4.1,0,7.5,3.4,7.5,7.5v257.3h-15V19.3C386.4,15.2,389.7,11.8,393.9,11.8 M393.9,10.8
	c-4.7,0-8.5,3.8-8.5,8.5v257.3c0,0.5,0.5,1,1,1h15c0.5,0,1-0.5,1-1V19.3C402.4,14.6,398.5,10.8,393.9,10.8L393.9,10.8z"/>
<path class="st0" d="M393.9,704.8c-4.4,0-8-3.6-8-8V327.9c0-0.3,0.2-0.5,0.5-0.5h15c0.3,0,0.5,0.2,0.5,0.5v368.9
	C401.9,701.2,398.3,704.8,393.9,704.8z"/>
<path class="st0" d="M401.4,327.9v368.9c0,4.1-3.4,7.5-7.5,7.5s-7.5-3.4-7.5-7.5V327.9L401.4,327.9 M401.4,326.9h-15
	c-0.5,0-1,0.5-1,1v368.9c0,4.7,3.8,8.5,8.5,8.5s8.5-3.8,8.5-8.5V327.9C402.4,327.4,401.9,326.9,401.4,326.9L401.4,326.9z"/>
<path class="st0" d="M318.8,277.1c-0.3,0-0.5-0.2-0.5-0.5V19.3c0-4.4,3.6-8,8-8s8,3.6,8,8v257.3c0,0.3-0.2,0.5-0.5,0.5L318.8,277.1
	L318.8,277.1z"/>
<path class="st0" d="M326.2,11.8c4.1,0,7.5,3.4,7.5,7.5v257.3h-15V19.3C318.8,15.2,322.1,11.8,326.2,11.8 M326.2,10.8
	c-4.7,0-8.5,3.8-8.5,8.5v257.3c0,0.5,0.5,1,1,1h15c0.5,0,1-0.5,1-1V19.3C334.8,14.6,330.9,10.8,326.2,10.8L326.2,10.8z"/>
<path class="st0" d="M326.2,704.8c-4.4,0-8-3.6-8-8V327.9c0-0.3,0.2-0.5,0.5-0.5h15c0.3,0,0.5,0.2,0.5,0.5v368.9
	C334.2,701.2,330.7,704.8,326.2,704.8z"/>
<path class="st0" d="M333.8,327.9v368.9c0,4.1-3.4,7.5-7.5,7.5s-7.5-3.4-7.5-7.5V327.9L333.8,327.9 M333.8,326.9h-15
	c-0.5,0-1,0.5-1,1v368.9c0,4.7,3.8,8.5,8.5,8.5s8.5-3.8,8.5-8.5V327.9C334.8,327.4,334.3,326.9,333.8,326.9L333.8,326.9z"/>
<path class="st0" d="M191.5,277.1c-0.1,0-0.3-0.1-0.4-0.2c-0.1-0.1-0.1-0.3-0.1-0.4l39.9-258.5c0.6-3.9,3.9-6.8,7.9-6.8
	c0.4,0,0.8,0,1.2,0.1c4.4,0.7,7.4,4.8,6.7,9.1l-39.5,256.2c0,0.2-0.2,0.4-0.5,0.4L191.5,277.1L191.5,277.1z"/>
<path class="st0" d="M238.8,11.8c0.4,0,0.8,0,1.1,0.1c4.1,0.6,6.9,4.5,6.3,8.6l-39.5,256.2h-15.2l39.8-258.5
	C231.9,14.4,235.1,11.8,238.8,11.8 M238.8,10.8c-4.2,0-7.8,3-8.4,7.2l-39.9,258.5c0,0.3,0,0.6,0.2,0.8s0.5,0.4,0.8,0.4h15.2
	c0.5,0,0.9-0.4,1-0.9l39.5-256.2c0.4-2.2-0.2-4.5-1.5-6.3s-3.3-3-5.6-3.4C239.7,10.8,239.2,10.8,238.8,10.8L238.8,10.8L238.8,10.8z"
	/>
<path class="st0" d="M134.3,704.8c-0.4,0-0.8,0-1.2-0.1c-2.1-0.3-4-1.5-5.2-3.2c-1.3-1.7-1.8-3.8-1.4-6l56.7-367.7
	c0-0.2,0.2-0.4,0.5-0.4h15.2c0.1,0,0.3,0.1,0.4,0.2c0.1,0.1,0.1,0.3,0.1,0.4l-57.1,370C141.6,701.9,138.3,704.8,134.3,704.8
	L134.3,704.8z"/>
<path class="st0" d="M198.8,327.9L198.8,327.9 M198.8,327.9l-57.1,370c-0.6,3.7-3.8,6.4-7.4,6.4c-0.4,0-0.8,0-1.1-0.1
	c-4.1-0.6-6.9-4.5-6.3-8.5l56.7-367.7L198.8,327.9 M198.8,326.9h-15.2c-0.5,0-0.9,0.4-1,0.9l-56.7,367.7c-0.7,4.6,2.5,9,7.1,9.7
	c0.4,0.1,0.9,0.1,1.3,0.1c4.2,0,7.8-3,8.4-7.2l57-370c0-0.1,0-0.1,0-0.2C199.8,327.4,199.4,326.9,198.8,326.9L198.8,326.9
	L198.8,326.9z M198.8,328.9L198.8,328.9L198.8,328.9z"/>
</svg>
