<?xml version="1.0" encoding="utf-8"?>
<!-- Generator: Adobe Illustrator 27.3.1, SVG Export Plug-In . SVG Version: 6.00 Build 0)  -->
<svg version="1.1" id="Layer_1" xmlns="http://www.w3.org/2000/svg" xmlns:xlink="http://www.w3.org/1999/xlink" x="0px" y="0px"
	 viewBox="0 0 720 720" style="enable-background:new 0 0 720 720;" xml:space="preserve">
<style type="text/css">
	.st0{fill-rule:evenodd;clip-rule:evenodd;fill:#FFFFFF;}
	.st1{fill:#FFFFFF;}
</style>
<path class="st0" d="M121.1,664.8c-4.8,0-9.4-2.3-12.1-6c-2.7,3.7-7.3,6-12.1,6c-8.1,0-14.7-6.2-14.7-13.8v-65.7
	c-3-2.5-4.7-6.2-4.7-10l0-26.5L66,566.4c-2.4,3.7-6.7,6-11.3,6c-2,0-4.1-0.5-5.9-1.4c-3-1.5-5.3-4.1-6.3-7.2c-1-3.1-0.7-6.5,0.9-9.5
	l30.7-57c1.9-3.6,6-6.1,10.5-6.4c0.4-0.1,1.2-0.1,1.9-0.1h7.3c-6.2-5-9.8-12.7-9.8-21c0-14.5,11.1-26.4,24.8-26.4
	s24.8,11.8,24.8,26.4c0,8.3-3.6,16-9.8,21h7.3c0.8,0,1.5,0.1,2.3,0.2c4.2,0.2,8.2,2.7,10.1,6.3l30.7,57.1c1.6,3,1.9,6.3,0.9,9.5
	s-3.2,5.7-6.3,7.2c-1.8,0.9-3.9,1.4-5.9,1.4c-4.6,0-8.9-2.3-11.3-6l-11.3-17.5l0,26.5c0,3.8-1.7,7.4-4.7,10V651
	C135.8,658.6,129.2,664.8,121.1,664.8L121.1,664.8z M111.5,578.6c2.8,0,5.1,2.3,5.1,5.1V651c0,1.9,2.1,3.6,4.5,3.6s4.5-1.6,4.5-3.6
	v-68.4c0-1.9,1.1-3.7,2.8-4.6c1.2-0.6,1.9-1.6,1.9-2.7l0.1-43.8c0-2.2,1.5-4.3,3.7-4.9c0.5-0.1,1-0.2,1.5-0.2c1.7,0,3.3,0.9,4.3,2.3
	l20.7,32.1c0.5,0.8,1.6,1.3,2.7,1.3c0.5,0,1-0.1,1.4-0.3c0.6-0.3,0.9-0.7,1.1-1.2c0.1-0.5,0.1-1-0.2-1.5l-30.7-57.1
	c-0.2-0.5-1.1-0.9-2.2-1c-0.7-0.1-1-0.1-1.2-0.1H86.6c-0.3,0-0.5,0-0.8,0.1c-1.6,0.1-2.4,0.6-2.7,1l-30.7,57.1
	c-0.3,0.5-0.3,1-0.2,1.5c0.2,0.5,0.5,0.9,1.1,1.1c0.4,0.2,0.9,0.3,1.4,0.3c1.1,0,2.2-0.5,2.7-1.3l20.7-32.1c0.9-1.5,2.5-2.3,4.3-2.3
	c0.5,0,1,0.1,1.5,0.2c2.2,0.6,3.7,2.6,3.7,4.9l0.1,43.8c0,1.1,0.7,2.1,1.9,2.7c1.7,0.9,2.8,2.6,2.8,4.6V651c0,1.9,2.1,3.6,4.5,3.6
	s4.5-1.6,4.5-3.6v-67.3c0-2.8,2.3-5.1,5.1-5.1L111.5,578.6L111.5,578.6z M108.9,453.7c-8,0-14.6,7.2-14.6,16.2s6.5,16.2,14.6,16.2
	s14.6-7.2,14.6-16.2S117,453.7,108.9,453.7z"/>
<path class="st1" d="M108.9,444.2c13.3,0,24.1,11.5,24.1,25.6c0,9.1-4.5,17.2-11.3,21.7h9.6c0.8,0,1.5,0.1,2.2,0.2
	c3.9,0.2,7.7,2.5,9.6,5.9l30.7,57.1c1.5,2.8,1.8,5.9,0.9,8.9c-0.9,2.9-3,5.3-5.9,6.8c-1.8,0.9-3.7,1.3-5.6,1.3
	c-4.2,0-8.3-2-10.6-5.7l-12.7-19.7l0,29c0,3.7-1.8,7.2-4.7,9.6v66c0,7.2-6.3,13.1-13.9,13.1c-5.2,0-9.7-2.7-12.1-6.6
	c-2.4,3.9-6.9,6.6-12.1,6.6c-7.7,0-13.9-5.9-13.9-13.1v-66c-2.9-2.4-4.7-5.9-4.7-9.6l-0.1-29L65.4,566c-2.3,3.6-6.5,5.7-10.7,5.7
	c-1.9,0-3.8-0.4-5.6-1.3c-2.9-1.4-5-3.8-5.9-6.8s-0.6-6.1,0.9-8.9l30.7-57.1c1.8-3.4,5.7-5.7,10-6c0.3-0.1,1.1-0.1,1.8-0.1h9.6
	c-6.8-4.5-11.3-12.6-11.3-21.7C84.8,455.7,95.6,444.2,108.9,444.2 M108.9,486.7c8.5,0,15.3-7.6,15.3-16.9s-6.9-16.9-15.3-16.9
	s-15.3,7.6-15.3,16.9S100.4,486.7,108.9,486.7 M54.7,562.9c1.3,0,2.6-0.6,3.3-1.7l20.7-32.1c0.8-1.3,2.2-2,3.6-2
	c0.4,0,0.8,0.1,1.3,0.2c1.8,0.5,3.1,2.2,3.1,4.2l0.1,43.8c0,1.4,0.9,2.7,2.3,3.4c1.5,0.8,2.4,2.2,2.4,3.9V651c0,2.3,2.4,4.3,5.2,4.3
	s5.2-2,5.2-4.3v-67.3c0-2.4,1.9-4.4,4.4-4.4h5.1c2.4,0,4.4,2,4.4,4.4V651c0,2.3,2.4,4.3,5.2,4.3s5.2-2,5.2-4.3v-68.4
	c0-1.6,0.9-3.1,2.4-3.9c1.4-0.7,2.3-2,2.3-3.4l0.1-43.8c0-1.9,1.3-3.6,3.1-4.2c0.4-0.1,0.8-0.2,1.2-0.2c1.4,0,2.8,0.7,3.6,2
	l20.7,32.1c0.7,1.1,2,1.7,3.3,1.7c0.6,0,1.2-0.1,1.7-0.4c0.7-0.4,1.2-0.9,1.5-1.6c0.2-0.7,0.1-1.4-0.2-2.1l-30.7-57.1
	c-0.4-0.8-1.5-1.3-2.8-1.4c-0.7-0.1-1-0.1-1.3-0.1H86.6c-0.3,0-0.6,0-0.9,0.1c-1.7,0.1-2.8,0.7-3.2,1.4l-30.7,57.1
	c-0.4,0.7-0.5,1.4-0.2,2.1c0.2,0.7,0.7,1.2,1.5,1.6C53.5,562.8,54.1,562.9,54.7,562.9 M108.9,442.7c-14.1,0-25.6,12.2-25.6,27.1
	c0,7.8,3.1,15.1,8.5,20.2h-5.3c-0.6,0-1.5,0-2,0.1c-4.8,0.3-9,2.9-11.1,6.8l-30.7,57c-1.7,3.1-2,6.7-1,10s3.4,6,6.7,7.7
	c1.9,1,4.1,1.5,6.2,1.5c4.8,0,9.4-2.4,11.9-6.4l9.9-15.4l0,24c0,3.9,1.7,7.6,4.7,10.3V651c0,8,6.9,14.6,15.4,14.6
	c4.8,0,9.2-2.1,12.1-5.5c2.9,3.5,7.4,5.5,12.1,5.5c8.5,0,15.5-6.5,15.5-14.6v-65.3c3-2.7,4.7-6.4,4.7-10.3l0-24l10,15.4
	c2.5,3.9,7.1,6.4,11.9,6.4c2.2,0,4.3-0.5,6.2-1.5c3.2-1.6,5.6-4.3,6.7-7.7s0.7-6.9-1-10L144.3,497c-2.1-3.8-6.3-6.4-10.7-6.7
	c-0.8-0.1-1.6-0.2-2.4-0.2h-5.3c5.4-5.1,8.5-12.4,8.5-20.2C134.5,454.9,123,442.7,108.9,442.7L108.9,442.7L108.9,442.7z
	 M108.9,485.3c-7.6,0-13.8-6.9-13.8-15.4s6.2-15.4,13.8-15.4s13.8,6.9,13.8,15.4S116.5,485.3,108.9,485.3L108.9,485.3z M54.7,561.4
	c-0.4,0-0.7-0.1-1-0.2c-0.4-0.2-0.6-0.4-0.7-0.7c-0.1-0.3,0-0.6,0.1-0.9l30.7-57.1c0.1-0.1,0.6-0.5,2-0.6c0,0,0.1,0,0.1,0
	c0.2,0,0.4,0,0.7,0h44.7c0.2,0,0.4,0,1.1,0.1c0,0,0.1,0,0.1,0c0.9,0,1.5,0.4,1.6,0.6l30.7,57.1c0.2,0.3,0.2,0.6,0.1,0.9
	c-0.1,0.3-0.3,0.5-0.7,0.7c-0.3,0.2-0.7,0.2-1.1,0.2c-0.9,0-1.6-0.4-2-1l-20.7-32.1c-1.1-1.7-2.9-2.7-4.9-2.7
	c-0.6,0-1.1,0.1-1.7,0.2c-2.5,0.7-4.2,3-4.2,5.6l-0.1,43.8c0,0.8-0.6,1.6-1.5,2c-2,1-3.2,3-3.2,5.2V651c0,1.5-1.7,2.8-3.7,2.8
	s-3.7-1.3-3.7-2.8v-67.3c0-3.2-2.6-5.9-5.9-5.9h-5.1c-3.2,0-5.9,2.6-5.9,5.9V651c0,1.5-1.7,2.8-3.7,2.8s-3.7-1.3-3.7-2.8v-68.4
	c0-2.2-1.2-4.2-3.2-5.2c-0.9-0.5-1.5-1.3-1.5-2l-0.1-43.8c0-2.6-1.7-4.9-4.2-5.6c-0.5-0.2-1.1-0.2-1.7-0.2c-2,0-3.8,1-4.9,2.7
	l-20.7,32.1C56.4,561,55.6,561.4,54.7,561.4L54.7,561.4L54.7,561.4z"/>
<path class="st0" d="M534.1,360.1c-6.8,0-13.2-3.4-16.8-9c-3.8,4.7-9.5,7.5-15.7,7.5c-11,0-19.9-8.7-19.9-19.4v-119
	c-3.4-3.5-5.4-8.2-5.4-13l-3.8-48.6l-20.5,33.6c-3.2,5.3-9,8.6-15.2,8.6c-2.8,0-5.6-0.7-8.1-2c-8.3-4.3-11.4-14.4-7.1-22.8
	l44.5-87.9c2.5-5,7.9-8.4,13.9-8.9c0.9-0.1,1.9-0.2,2.9-0.2h17c-11.2-6.8-18.4-19.7-18.4-33.5c0-21.2,16.2-38.5,36.1-38.5
	c19.9,0,36.1,17.3,36.1,38.5c0,13.9-7.1,26.7-18.4,33.5h17c1,0,2,0.1,3,0.2c6,0.5,11.3,3.9,13.8,8.9L614,176
	c4.3,8.5,1.2,18.5-7.1,22.8c-2.5,1.3-5.3,2-8.2,2l0,0c-6.2,0-12-3.3-15.2-8.6l-20-33.6l-4.2,49.1c0,4.4-1.9,9-5.3,12.5v120.6
	C554,351.4,545.1,360.1,534.1,360.1L534.1,360.1z M520.2,214.1c3.3,0,6,2.7,6,6v120.7c0,4.1,3.6,7.4,8,7.4s8-3.3,8-7.4V217.5
	c0-1.9,0.9-3.7,2.5-4.8c1.8-1.3,2.9-3.3,2.9-5.4l5.8-68c0.2-2.6,2.1-4.7,4.6-5.3c0.4-0.1,0.9-0.2,1.4-0.2c2.1,0,4,1.1,5.1,2.9
	l29.5,49.4c1,1.7,2.9,2.8,5,2.8c0.9,0,1.8-0.2,2.6-0.6c2.5-1.3,3.3-4.3,2-6.9l-44.5-87.9c-0.7-1.3-2.4-2.3-4.3-2.4
	c-0.2,0-0.4,0-0.6-0.1c-0.4-0.1-0.8-0.1-1.2-0.1h-69.5c-0.4,0-0.9,0-1.3,0.1c-0.2,0-0.4,0.1-0.6,0.1c-1.9,0.1-3.6,1.1-4.3,2.4
	l-44.5,87.9c-1.3,2.6-0.5,5.6,2,6.9c0.8,0.4,1.6,0.6,2.5,0.6c2.1,0,4-1.1,5-2.8l30.1-49.4c1.1-1.8,3-2.9,5.1-2.9
	c0.5,0,0.9,0.1,1.4,0.2c2.5,0.6,4.4,2.8,4.6,5.3l5.2,67.5c0,2.5,1,4.5,2.9,5.9c1.5,1.1,2.5,2.9,2.5,4.8v121.7c0,4.1,3.6,7.4,8,7.4
	s8-3.3,8-7.4V220.1c0-3.3,2.7-6,6-6L520.2,214.1L520.2,214.1z M517.9,18.8c-13.3,0-24.2,11.9-24.2,26.6S504.5,72,517.9,72
	c13.3,0,24.2-11.9,24.2-26.6S531.2,18.8,517.9,18.8z"/>
<path class="st1" d="M517.9,7.7c19.5,0,35.3,16.9,35.3,37.8c0,15.2-8.4,28.3-20.6,34.3h20c1,0,1.9,0.1,2.8,0.2
	c5.8,0.4,10.9,3.7,13.3,8.5l44.5,87.9c4.1,8.1,1.1,17.7-6.8,21.8c-2.5,1.3-5.2,1.9-7.8,1.9c-5.8,0-11.4-3-14.5-8.2L563,156.3
	l-4.4,51.4c0,4.4-1.9,8.9-5.3,12.2v120.9c0,10.3-8.6,18.6-19.1,18.6c-7.2,0-13.5-3.9-16.8-9.6c-3.5,4.9-9.2,8.1-15.8,8.1
	c-10.5,0-19.1-8.3-19.1-18.6V219.9c-3.4-3.4-5.4-7.9-5.4-12.7l-4-51l-21.7,35.6c-3.2,5.2-8.8,8.2-14.5,8.2c-2.6,0-5.3-0.6-7.7-1.9
	c-7.9-4.1-10.9-13.7-6.8-21.8L467,88.4c2.4-4.8,7.5-8,13.3-8.5c0.9-0.1,1.9-0.2,2.8-0.2h20c-12.1-6-20.5-19.1-20.5-34.3
	C482.5,24.6,498.4,7.6,517.9,7.7 M517.9,72.8c13.8,0,24.9-12.3,24.9-27.3s-11.2-27.4-24.9-27.4s-24.9,12.3-24.9,27.4
	S504.1,72.8,517.9,72.8 M436.9,189.6c2.2,0,4.5-1.1,5.7-3.2l30.1-49.4c1-1.6,2.7-2.5,4.5-2.5c0.4,0,0.8,0.1,1.2,0.1
	c2.2,0.5,3.8,2.4,4,4.7l5.2,67.5c0,2.8,1.2,5,3.2,6.4c1.4,1,2.2,2.6,2.2,4.2v121.7c0,4.5,3.9,8.2,8.7,8.2s8.7-3.7,8.7-8.2V220.1
	c0-2.9,2.3-5.2,5.2-5.2h4.7c2.9,0,5.2,2.3,5.2,5.2v120.7c0,4.5,3.9,8.2,8.7,8.2s8.7-3.7,8.7-8.2V217.5c0-1.7,0.8-3.2,2.2-4.2
	c2-1.5,3.2-3.7,3.2-6.1l5.8-67.9c0.2-2.2,1.8-4.1,4-4.6c0.4-0.1,0.8-0.1,1.2-0.1c1.8,0,3.5,0.9,4.5,2.5l29.5,49.4
	c1.2,2,3.4,3.1,5.6,3.1c1,0,2-0.2,2.9-0.7c2.8-1.5,3.8-4.9,2.3-7.9l-44.5-87.9c-0.8-1.6-2.8-2.7-4.9-2.8c-0.2,0-0.4,0-0.5-0.1
	c-0.5-0.1-0.9-0.1-1.4-0.1h-69.5c-0.5,0-0.9,0-1.4,0.1c-0.2,0-0.4,0.1-0.5,0.1c-2.2,0.1-4.1,1.2-5,2.8L431.8,181
	c-1.5,3-0.5,6.4,2.3,7.9C435,189.4,436,189.6,436.9,189.6 M517.9,6.2c-20.3,0-36.8,17.6-36.8,39.3c0,13.3,6.4,25.6,16.6,32.8h-14.5
	c-1,0-2,0.1-3,0.2c-6.3,0.5-11.8,4.1-14.5,9.3l-44.5,87.9c-4.5,8.8-1.2,19.3,7.4,23.8c2.6,1.4,5.5,2.1,8.4,2.1
	c6.4,0,12.5-3.4,15.8-8.9L472,161l3.6,46.3c0,4.9,2,9.6,5.4,13.2v118.7c0,11.1,9.2,20.1,20.6,20.1c6,0,11.8-2.6,15.7-7
	c3.8,5.3,10.1,8.6,16.9,8.6c11.4,0,20.6-9,20.6-20.1V220.5c3.4-3.6,5.3-8.2,5.3-12.8l4-46.7l18.9,31.6c3.3,5.5,9.3,9,15.8,9
	c2.9,0,5.9-0.7,8.5-2.1c8.6-4.5,11.9-15,7.4-23.8l-44.5-87.9c-2.7-5.2-8.2-8.8-14.5-9.3c-1-0.2-2-0.2-3-0.2h-14.5
	c10.2-7.2,16.6-19.5,16.6-32.8C554.7,23.8,538.2,6.2,517.9,6.2L517.9,6.2L517.9,6.2z M517.9,71.3c-12.9,0-23.4-11.6-23.4-25.8
	s10.5-25.9,23.4-25.9s23.4,11.6,23.4,25.9S530.8,71.3,517.9,71.3L517.9,71.3z M436.9,188.1c-0.8,0-1.5-0.2-2.2-0.5
	c-2.1-1.1-2.8-3.6-1.7-5.9l44.5-87.9c0.6-1.1,2-1.9,3.7-2c0.2,0,0.5,0,0.7-0.1c0.4-0.1,0.8-0.1,1.1-0.1h69.5c0.4,0,0.8,0,1.1,0.1
	c0.2,0,0.5,0.1,0.7,0.1c1.6,0.1,3.1,0.9,3.7,2l44.5,87.9c1.2,2.3,0.5,4.8-1.7,5.9c-0.7,0.4-1.4,0.5-2.2,0.5c-1.8,0-3.4-0.9-4.3-2.4
	l-29.5-49.4c-1.2-2-3.4-3.3-5.7-3.3c-0.5,0-1,0.1-1.5,0.2c-2.8,0.7-4.9,3.1-5.2,6l-5.8,67.9c0,0,0,0.1,0,0.1c0,1.9-0.9,3.6-2.6,4.8
	c-1.7,1.3-2.8,3.3-2.8,5.4v123.3c0,3.7-3.2,6.7-7.2,6.7s-7.2-3-7.2-6.7V220.1c0-3.7-3-6.7-6.7-6.7h-4.7c-3.7,0-6.7,3-6.7,6.7v119.2
	c0,3.7-3.2,6.7-7.2,6.7s-7.2-3-7.2-6.7V217.5c0-2.1-1-4.2-2.8-5.4c-1.7-1.2-2.6-3-2.6-5.2c0,0,0-0.1,0-0.1l-5.2-67.5
	c-0.2-2.9-2.3-5.3-5.1-6c-0.5-0.1-1-0.2-1.6-0.2c-2.3,0-4.5,1.2-5.7,3.2l-30.1,49.4C440.4,187.2,438.7,188.1,436.9,188.1
	L436.9,188.1L436.9,188.1z"/>
<path class="st0" d="M343.1,379.7c-4.4,0-8.5-2-11.3-5.3c-2.8,3.3-7,5.3-11.3,5.3c-8.2,0-14.8-6.6-14.8-14.8V331h-6.4
	c-8.5,0-15.4-6.9-15.4-15.4c0-0.7,0.1-1.4,0.4-2l12.2-34l-11.5,7.6c-2.5,1.7-6.1,4.1-10.3,4.1l0,0c-1.9,0-3.8-0.5-5.6-1.5
	c-4-2.2-6.9-6.4-7.6-10.8c-0.5-3.7,0.5-7,3-9.6l35.1-35.8c2.4-2.5,5.4-5.6,10.3-5.9c0.4-0.1,1.2-0.2,2.1-0.2h1.8
	c-3.3-2.9-5.9-6.5-7.7-10.6c-3.4-1.9-6-4.5-7.4-7.5c-0.9-1.9-0.7-4,0.4-5.8c1-1.6,2.7-2.5,4.5-2.7c0-0.1,0.1-0.2,0.1-0.3
	c1.8-14.9,13.7-26,27.9-26s26,11.2,27.8,26l0.1,0.3c1.7,0.1,3.5,1.1,4.5,2.7c1.1,1.7,1.3,3.9,0.4,5.8c-1.4,3-4,5.6-7.4,7.5
	c-1.8,4.1-4.4,7.7-7.7,10.6h1.8c0.8,0,1.7,0.1,2.6,0.2c4.3,0.3,7.3,3.3,9.7,5.8l35.3,35.9c2.5,2.5,3.5,5.9,3,9.6
	c-0.6,4.4-3.6,8.6-7.6,10.8c-1.8,1-3.7,1.5-5.6,1.5c-4.2,0-7.7-2.4-10.3-4.1l-11.5-7.6l12.2,34c0.2,0.6,0.4,1.3,0.4,2
	c0,8.5-6.9,15.4-15.4,15.4h-6.4v33.9C357.9,373.1,351.2,379.7,343.1,379.7L343.1,379.7z M334.2,319.1c3.3,0,6,2.7,6,6v39.9
	c0,1.6,1.3,2.9,2.9,2.9s2.9-1.3,2.9-2.9V325c0-3.3,2.7-6,6-6h12.3c1.6,0,3-1.1,3.4-2.7l-17.3-48c-0.4-1-0.5-2.1-0.2-3.2l0.2-1.1
	c0.4-1.9,1.7-3.6,3.5-4.3c0.7-0.3,1.5-0.5,2.3-0.5c1.2,0,2.3,0.3,3.3,1l25.8,17c1,0.6,2.9,2,3.5,2c0.8-0.5,1.3-1.4,1.5-1.9
	l-34.8-35.4c-0.8-0.8-2.2-2.3-2.7-2.4c-0.8-0.1-1-0.1-1.2-0.1h-39.4c-0.2,0-0.4,0-0.6,0.1c-0.9,0.1-2.3,1.5-3.2,2.4l-34.9,35.5
	c0.2,0.4,0.7,1.4,1.5,1.8c0.5,0,2.5-1.4,3.4-2l1.3-0.9l24.4-16.1c1-0.6,2.1-1,3.3-1c0.8,0,1.5,0.1,2.3,0.5c1.8,0.8,3.2,2.4,3.6,4.3
	l0.2,1.1c0.2,1.1,0.1,2.2-0.2,3.2l-17.3,48c0.4,1.6,1.8,2.7,3.4,2.7h12.3c3.3,0,6,2.7,6,6v39.9c0,1.6,1.3,2.9,2.9,2.9
	s2.9-1.3,2.9-2.9V325c0-3.3,2.7-6,6-6L334.2,319.1L334.2,319.1z M314,207.6c1.2,0.7,2.1,1.9,2.6,3.2c2.4,7,8.4,11.7,15.2,11.7
	s12.8-4.7,15.1-11.7c0.5-1.4,1.4-2.5,2.6-3.2c-0.2-0.5-0.5-1-0.6-1.5l-0.7-2.1c-0.2-0.4-0.3-0.9-0.3-1.4c-0.9-9.1-7.8-16-16.1-16
	s-15.2,6.9-16.1,16.1c0,0.6-0.2,1.1-0.4,1.6c-0.2,0.6-0.4,1.2-0.6,1.8C314.5,206.6,314.2,207.1,314,207.6L314,207.6z"/>
<path class="st1" d="M331.8,175.5c13.8,0,25.4,10.9,27.1,25.4l0.3,0.9c0.1,0,0.2,0,0.3,0c1.5,0,3.2,1,4.1,2.4c1,1.5,1.1,3.4,0.4,5.1
	c-1.4,2.9-3.9,5.4-7.3,7.3c-2,4.8-5.2,8.9-9.2,11.9h4c0.9,0,1.7,0.1,2.5,0.2c4.1,0.3,7,3.2,9.3,5.6l35.3,35.9
	c2.3,2.3,3.3,5.5,2.8,8.9c-0.6,4.1-3.4,8.1-7.2,10.2c-1.8,1-3.6,1.4-5.2,1.4c-4,0-7.4-2.3-9.9-4l-13.4-8.8l13,36.2
	c0.2,0.6,0.3,1.2,0.3,1.8c0,8.1-6.6,14.6-14.6,14.6h-7.1v34.7c0,7.8-6.3,14.1-14.1,14.1c-4.6,0-8.8-2.2-11.3-5.7
	c-2.6,3.5-6.7,5.7-11.3,5.7c-7.8,0-14.1-6.3-14.1-14.1v-34.7h-7.1c-8.1,0-14.6-6.6-14.6-14.6c0-0.6,0.1-1.2,0.3-1.8l13-36.2
	l-13.4,8.9c-2.5,1.7-5.9,4-9.9,4c-1.6,0-3.4-0.4-5.2-1.4c-3.8-2-6.6-6.1-7.2-10.2c-0.5-3.4,0.5-6.6,2.8-8.9l35.1-35.8
	c2.4-2.4,5.3-5.4,9.9-5.7c0.3-0.1,1.1-0.1,2-0.1h4c-4-3-7.2-7-9.2-11.9c-3.4-1.9-5.9-4.4-7.3-7.3c-0.8-1.6-0.6-3.5,0.4-5.1
	c1-1.5,2.6-2.4,4.4-2.4h0.1c0.1-0.3,0.2-0.6,0.3-0.9C306.4,186.4,317.9,175.5,331.8,175.5 M331.8,223.3c7,0,13.4-4.9,15.9-12.2
	c0.5-1.4,1.5-2.6,2.9-3.1c0,0,0,0,0,0c-0.4-0.6-0.7-1.3-1-2.1l-0.7-2.1c-0.1-0.4-0.2-0.8-0.3-1.2c-0.9-9.5-8.2-16.6-16.8-16.6
	s-15.9,7.2-16.8,16.8c0,0.5-0.2,1-0.4,1.4c-0.2,0.6-0.5,1.2-0.7,1.8c-0.2,0.7-0.6,1.4-1,2c0,0,0,0,0,0c1.4,0.6,2.4,1.7,2.9,3.1
	C318.4,218.4,324.8,223.3,331.8,223.3 M274.8,280.1c0.6,0,1.9-0.7,3.9-2.1l1.3-0.9l24.4-16.1c0.9-0.6,1.9-0.9,2.9-0.9
	c0.7,0,1.4,0.1,2,0.4c1.6,0.7,2.8,2.1,3.1,3.8l0.2,1.1c0.2,0.9,0.1,1.9-0.2,2.8l-17.3,48.2c0.4,2,2.1,3.5,4.1,3.5h12.3
	c2.9,0,5.2,2.3,5.2,5.2v39.9c0,2,1.6,3.6,3.6,3.6s3.6-1.7,3.6-3.6V325c0-2.9,2.3-5.2,5.2-5.2h4.9c2.9,0,5.2,2.3,5.2,5.2v39.9
	c0,2,1.7,3.6,3.6,3.6s3.6-1.6,3.6-3.6V325c0-2.9,2.3-5.2,5.2-5.2h12.3c2.1,0,3.8-1.5,4.1-3.5l-17.3-48.2c-0.3-0.9-0.4-1.9-0.2-2.8
	l0.2-1.1c0.4-1.7,1.5-3.1,3.1-3.8c0.6-0.3,1.3-0.4,2-0.4c1,0,2,0.3,2.9,0.9l25.8,17c2,1.4,3.3,2.2,3.9,2.2c0.1,0,0.2,0,0.3-0.1
	c1.3-0.7,2-2.3,1.9-2.8l-35.1-35.6c-1.1-1.1-2.5-2.6-3.2-2.6c-0.7-0.1-1-0.1-1.2-0.1h-39.4c-0.3,0-0.5,0-0.8,0.1
	c-1.1,0.1-2.5,1.5-3.6,2.6l-35.2,35.8c0,0.4,0.7,2,2,2.7C274.6,280.1,274.7,280.1,274.8,280.1 M331.8,174
	c-14.4,0-26.6,11.3-28.6,26.4c-1.9,0.3-3.5,1.4-4.5,2.9c-1.3,1.9-1.4,4.4-0.5,6.5c1.4,3.1,4,5.7,7.5,7.7c1.5,3.5,3.7,6.7,6.4,9.3
	c-0.8,0-1.6,0.1-2.1,0.2c-5.1,0.4-8.4,3.7-10.8,6.1L264,269c-2.6,2.7-3.8,6.3-3.2,10.2c0.7,4.6,3.8,9,8,11.3c1.9,1,3.9,1.6,5.9,1.6
	c4.4,0,8.1-2.5,10.7-4.3l9.6-6.4l-11.5,31.9c-0.3,0.7-0.4,1.5-0.4,2.3c0,8.9,7.2,16.1,16.1,16.1h5.6v33.2c0,8.6,7,15.6,15.6,15.6
	c4.3,0,8.4-1.8,11.3-4.9c2.9,3.1,7,4.9,11.3,4.9c8.6,0,15.6-7,15.6-15.6v-33.2h5.6c8.9,0,16.1-7.2,16.1-16.1c0-0.8-0.1-1.5-0.4-2.3
	l-11.5-31.9l9.6,6.4c2.5,1.7,6.2,4.3,10.7,4.3c2,0,4-0.5,5.9-1.6c4.2-2.3,7.3-6.7,8-11.3c0.6-3.9-0.5-7.5-3.2-10.2l-35.3-35.9
	c-2.4-2.4-5.6-5.7-10.2-6c-0.9-0.1-1.7-0.2-2.6-0.2c2.6-2.6,4.8-5.8,6.4-9.3c3.5-2,6-4.6,7.5-7.7c1-2.1,0.8-4.6-0.5-6.5
	c-1-1.6-2.8-2.7-4.6-3C358.4,185.3,346.2,174,331.8,174L331.8,174L331.8,174z M315,207.4c0.1-0.3,0.3-0.6,0.4-1
	c0.2-0.6,0.4-1.2,0.6-1.7c0.2-0.6,0.4-1.2,0.5-1.9c0.8-8.8,7.4-15.4,15.3-15.4s14.5,6.6,15.3,15.3c0,0.6,0.2,1.1,0.4,1.6l0.7,2
	c0.1,0.3,0.2,0.7,0.4,1c-1.1,0.8-1.9,1.9-2.4,3.2c-2.2,6.7-8,11.2-14.4,11.2s-12.2-4.5-14.5-11.2C316.9,209.3,316.1,208.2,315,207.4
	L315,207.4L315,207.4z M274.3,277.7l34.5-35.1c0.6-0.6,2.1-2.1,2.7-2.2c0,0,0.1,0,0.1,0c0.2,0,0.4-0.1,0.5-0.1h39.4
	c0.1,0,0.4,0,1,0.1c0.5,0.3,1.8,1.5,2.4,2.2l34.5,35.1c-0.1,0.3-0.4,0.6-0.7,0.9c-0.7-0.3-2.3-1.4-2.9-1.8l-25.8-17
	c-1.1-0.7-2.4-1.1-3.7-1.1c-0.9,0-1.8,0.2-2.6,0.5c-2.1,0.9-3.6,2.7-4,4.9l-0.2,1.1c-0.2,1.2-0.1,2.4,0.3,3.6l17.2,47.8
	c-0.4,1.1-1.4,1.9-2.6,1.9H352c-3.7,0-6.7,3-6.7,6.7v39.9c0,1.2-1,2.1-2.1,2.1s-2.1-1-2.1-2.1V325c0-3.7-3-6.7-6.7-6.7h-4.9
	c-3.7,0-6.7,3-6.7,6.7v39.9c0,1.1-1,2.1-2.1,2.1s-2.1-1-2.1-2.1V325c0-3.7-3-6.7-6.7-6.7h-12.3c-1.2,0-2.2-0.8-2.6-1.9l17.2-47.8
	c0.4-1.2,0.5-2.4,0.3-3.6l-0.2-1.1c-0.5-2.2-2-4-4-4.8c-0.8-0.3-1.7-0.5-2.6-0.5c-1.3,0-2.6,0.4-3.7,1.1l-24.4,16.1l-1.4,0.9
	c-0.6,0.4-2.2,1.5-2.9,1.8C274.7,278.3,274.5,278,274.3,277.7L274.3,277.7L274.3,277.7z"/>
<path class="st0" d="M668.7,706.1c-8.9,0-16.3-6.3-17.7-15.1l-10-62h-1l-10.4,62.1c-0.8,4.7-3.4,8.9-7.3,11.6
	c-3.1,2.2-6.7,3.3-10.4,3.3c-1,0-2-0.1-3-0.2c-9.8-1.6-16.4-10.9-14.8-20.7l9.5-56.3c-4.3,0-8.5-0.1-12.8-0.1c-11,0-20-9-20-20.1
	c0-0.7,0.1-1.4,0.4-2.1l28.6-77v-9.2L576,547.2c-2.2,2.5-5.1,4.3-8.3,5.3c-2,0.9-4.1,1.5-6.3,1.6c-0.4,0-0.8,0-1.2,0
	c-4.4,0-8.4-1.5-11.7-4.4c-3.6-3.2-5.8-7.5-6.1-12.3c-0.1-1.6-0.8-2.7-2.2-3.3c-0.8-0.3-1.6-0.5-2.6-0.5c-1.8,0-3.6,0.6-4.8,1.7
	c-0.2,0.2-0.9,0.9-1.6,3.2c-0.9,2.7-1.3,6.2-1.8,9.5c-0.3,2.2-0.6,4.5-1,6.4c-2.3,10.6-5.5,20.6-9.4,29.8
	c-5.8,13.7-13.6,26.5-23.2,38c8.5,7.4,13.3,18.1,13.3,29.4c0,21.4-17.2,38.8-38.3,38.8s-38.3-17.4-38.3-38.8c0-0.5,0-1,0.1-1.5
	c-0.1,0-0.3,0-0.4,0h-67.3c-0.3,0-0.7,0-1-0.1c0,0.5,0.1,1,0.1,1.5c0,21.4-17.2,38.8-38.3,38.8s-38.3-17.4-38.3-38.8
	c0-10.5,4.3-20.7,11.9-28.1c-11.3-13.2-20.3-28.3-26.6-45c-4-12.4-2.2-23.2,5.2-30.5c-0.8-0.9-1.6-2-2.2-3.1
	c-3.2-5.9-2.9-14,0.8-24.9c14-41.1,42.6-73.4,78.5-88.6c3.6-1.5,7.6-2.2,11.4-2.2c4.4,0,8.6,1,12.2,3c4.9,2.6,11.2,8.3,13.6,20.4
	l18.1,85.3h75.5c7-0.4,7.9-2.7,10.2-8.8c0.6-1.6,1.3-3.4,2.2-5.2c2.5-5.2,5.5-10.8,11.9-16c7.6-6.3,17.2-9.6,27.8-9.6
	c1.7,0,3.5,0.1,5.2,0.3c0,0,0.8,0.1,0.9,0.1c0.1,0,0.3,0,0.5,0c2.8,0.4,5.7,1,8.5,2c2.8,1,5.4,2.2,7.7,3.7c1.3,0.8,2.5,1.7,3.7,2.7
	l11.8-13.3l24.5-39.5c2.2-10.8,11-19,21.8-20.7c-11.7-6.6-19.1-19.7-19.1-33.9c0-21.1,16.1-38.4,36-38.4c0.7,0,1.4,0,2.1,0.1
	c4.5-5.6,11.1-8.8,18.3-8.8c12.9,0,23.5,10.5,23.5,23.5c0,7-3,13.5-8.4,18c0.3,1.9,0.4,3.8,0.4,5.7c0,14.2-7.5,27.3-19.2,33.9
	c12.6,2.1,22.1,13,22.1,25.9v70.1l28.6,77c0.2,0.7,0.4,1.4,0.4,2.1c0,11.1-9,20.1-20,20.1l-9.3,0.1l9.1,56.5
	c1.6,9.8-5.1,19-14.9,20.6C670.7,706,669.7,706.1,668.7,706.1L668.7,706.1z M646.1,617c2.9,0,5.4,2.1,5.9,5l10.8,67
	c0.5,3,3,5.1,6,5.1c0.3,0,0.7,0,1-0.1c1.6-0.3,3-1.1,3.9-2.4c1-1.3,1.3-2.9,1.1-4.5l-10.2-63.3c-0.3-1.7,0.2-3.5,1.3-4.8
	c1.1-1.3,2.8-2.1,4.5-2.1l16.3-0.1c4.2,0,7.7-3.1,8.1-7.2l-28.5-76.9c-0.2-0.7-0.4-1.4-0.4-2.1v-71.2c0-8-6.5-14.5-14.5-14.5h-25.2
	c-7.1,0-13.2,5.3-14.3,12.3c-0.1,0.8-0.4,1.5-0.8,2.2l-25.3,40.9c-0.2,0.3-0.4,0.5-0.6,0.8l-16.4,18.5c-1.1,1.3-2.8,2-4.5,2
	c-1.8,0-3.5-0.8-4.6-2.2c-1.8-2.1-3.6-3.8-5.8-5.2c-1.5-1-3.3-1.8-5.2-2.5c-1.9-0.7-3.9-1.1-5.9-1.4c0,0,0,0,0,0
	c-0.1,0-0.5,0-1.2-0.1c-1.3-0.1-2.7-0.2-4-0.2c-7.9,0-14.9,2.4-20.3,6.9c-4.5,3.7-6.6,7.5-8.7,11.9c-0.6,1.3-1.2,2.7-1.7,4l-0.1,0.3
	c-2.7,7-6,15.8-21.1,16.5h-80.6c-2.8,0-5.2-2-5.8-4.7L380.2,455c-1.2-6.1-3.8-10.3-7.6-12.3c-1.9-1-4.1-1.5-6.5-1.5
	c-2.2,0-4.6,0.5-6.8,1.4c-32.7,13.8-58.8,43.5-71.8,81.5c-3.4,10.1-2.2,14.1-1.5,15.4c0.4,0.8,1.3,1.9,4.1,2.6
	c2.4,0.6,4.2,2.7,4.5,5.2c0.2,2.5-1.1,4.9-3.4,6c-8.5,4-10.9,11-7.5,21.5c5.9,15.6,14.4,29.8,25.2,42.1c5.2-2.6,10.8-3.8,16.5-3.8
	c6.1,0,12,1.5,17.5,4.3c10.7,3.8,19.7,11.3,25.4,21.2h60.1c5.4-9.3,13.8-16.6,23.7-20.6c5.7-3.2,12.1-4.9,18.6-4.9
	c5.1,0,10.1,1,14.9,3.1c9.2-10.8,16.7-23,22.3-36.3c3.6-8.5,6.6-17.8,8.8-27.8c0.3-1.4,0.6-3.2,0.8-5l0-0.3c0.5-3.7,1-7.9,2.3-11.7
	c1.2-3.8,3-6.5,5.2-8.5c3.5-2.9,7.9-4.5,12.6-4.5c2.5,0,5,0.5,7.2,1.5c5.6,2.4,9,7.3,9.4,13.4c0.1,1.6,0.8,3.1,2,4.1
	c1.1,1,2.5,1.5,4,1.5c0.1,0,0.3,0,0.4,0c0.8,0,1.6-0.3,2.3-0.6c0.4-0.2,0.8-0.4,1.2-0.5c1.2-0.3,2.2-0.9,3-1.8l27.3-30.9
	c0.8-0.8,1.2-1.3,1.5-1.9l4.8-7.8c1.1-1.8,3-2.8,5.1-2.8c0.5,0,1.1,0.1,1.6,0.2c2.5,0.7,4.3,3.1,4.3,5.7v28.7c0,0.7-0.1,1.4-0.4,2.1
	l-28.5,76.9c0.5,4.1,4,7.2,8.1,7.2c6.7,0.1,13.3,0.1,19.8,0.2c1.8,0,3.4,0.8,4.5,2.1c1.1,1.3,1.6,3.1,1.3,4.8l-10.6,63.2
	c-0.5,3.3,1.7,6.4,5,7c0.3,0.1,0.7,0.1,1,0.1c1.2,0,2.4-0.4,3.5-1.1c1.3-0.9,2.2-2.3,2.5-3.9l11.3-67.1c0.5-2.9,3-5,5.9-5L646.1,617
	L646.1,617L646.1,617z M457.5,628.5c-8.2,4.8-13.3,13.7-13.3,23.2c0,14.8,11.8,26.9,26.4,26.9s26.4-12.1,26.4-26.9
	c0-8.7-4.2-16.9-11.2-22c-0.5-0.1-1.1-0.2-1.6-0.5c-4.5-2-9.4-3-14.3-3C465.7,626.2,461.5,627,457.5,628.5L457.5,628.5z
	 M309.3,630.5c-6.5,5.2-10.3,12.9-10.3,21.2c0,14.8,11.8,26.9,26.4,26.9s26.4-12.1,26.4-26.9c0-10-5.5-19.2-14.4-23.8
	c-3.5-1.1-7-1.6-10.6-1.6c-5.7,0-11.1,1.3-16.1,3.8C310.3,630.2,309.8,630.4,309.3,630.5z M639,373.2c-13.3,0-24,11.9-24,26.5
	s10.8,26.5,24,26.5s24-11.9,24-26.5c0-2.3-0.3-4.7-0.8-7c-0.6-2.6,0.5-5.3,2.9-6.6c3.7-2,5.9-5.9,5.9-10.1c0-6.4-5.2-11.5-11.5-11.5
	c-4.3,0-8.2,2.3-10.2,6.1c-1,1.9-3,3.1-5.3,3.1c-0.4,0-0.7,0-1.1-0.1C641.6,373.3,640.3,373.2,639,373.2L639,373.2z"/>
<path class="st1" d="M659.4,353.2c12.5,0,22.7,10.2,22.7,22.7c0,6.9-3.2,13.4-8.4,17.7c0.3,2,0.5,4,0.5,6c0,15.3-8.6,28.5-21,34.4
	c13.3,1,23.8,12,23.8,25.5v70.2l28.6,77.2c0.2,0.6,0.3,1.2,0.3,1.8c0,10.7-8.7,19.3-19.3,19.3l-10.2,0.1l9.3,57.3
	c1.5,9.4-4.9,18.2-14.2,19.7c-0.9,0.2-1.8,0.2-2.8,0.2c-8.3,0-15.6-6-17-14.5l-10.1-62.7h-2.2L628.9,691c-0.8,4.5-3.2,8.5-7,11.2
	c-3,2.1-6.4,3.2-10,3.2c-1,0-1.9-0.1-2.9-0.2c-9.4-1.6-15.7-10.5-14.1-19.8l9.6-57.2c-4.6,0-9.1-0.1-13.7-0.1
	c-10.6,0-19.3-8.7-19.3-19.3c0-0.6,0.1-1.2,0.3-1.8l28.6-77.2v-11.3l-25.1,28.4c-2.2,2.4-4.9,4.2-8,5.1c-1.9,0.9-4,1.4-6.1,1.6
	c-0.4,0-0.8,0-1.2,0c-4.2,0-8.1-1.5-11.2-4.2c-3.5-3-5.5-7.2-5.8-11.8c-0.1-1.9-1-3.2-2.7-3.9c-0.9-0.4-1.8-0.6-2.8-0.6
	c-1.9,0-3.9,0.7-5.3,1.9c-0.4,0.4-1.2,1.3-1.9,3.5c-0.9,2.8-1.4,6.3-1.8,9.6c-0.3,2.3-0.6,4.5-1,6.3c-2.3,10.6-5.5,20.5-9.4,29.7
	c-6,14.1-14,27-23.6,38.4c8.3,7,13.6,17.5,13.6,29.3c0,21-16.8,38-37.5,38s-37.5-17.1-37.5-38c0-0.8,0.1-1.6,0.1-2.3
	c-0.4,0.1-0.8,0.2-1.2,0.2h-67.3c-0.6,0-1.3-0.2-1.9-0.4c0.1,0.8,0.1,1.7,0.1,2.6c0,21-16.8,38-37.5,38s-37.5-17.1-37.5-38
	c0-11.1,4.7-21,12.2-28c-11.5-13.2-20.5-28.5-27-45.4c-4.1-12.6-2-23.2,5.6-30.2c-1-1-1.9-2.2-2.6-3.5c-3.1-5.7-2.8-13.7,0.8-24.3
	c14-40.9,42.4-73.1,78.1-88.2c3.6-1.5,7.4-2.2,11.1-2.2c4.2,0,8.3,1,11.8,2.9c4.7,2.5,10.9,8.1,13.2,19.9l18.3,85.9h76.1
	c7.5-0.4,8.6-3.2,10.9-9.3c0.6-1.7,1.3-3.4,2.1-5.2c2.5-5.2,5.4-10.6,11.7-15.7c7.5-6.2,16.9-9.5,27.3-9.5c1.7,0,3.4,0.1,5.1,0.2
	l0.6,0c0,0,0.2,0,0.3,0c0.1,0,0.3,0,0.4,0c2.8,0.4,5.6,1,8.3,2c2.8,1,5.3,2.2,7.5,3.6c1.5,0.9,2.8,2,4.2,3.1l12.3-13.9l24.6-39.6
	c2.3-11.3,12.1-19.8,23.6-20.5c-12.3-5.9-20.9-19-20.9-34.3c0-20.7,15.8-37.6,35.2-37.6c0.8,0,1.7,0,2.5,0.1
	C645.7,356.5,652.3,353.2,659.4,353.2 M644,372.9c-0.3,0-0.6,0-0.9-0.1c-1.3-0.2-2.7-0.4-4.1-0.4c-13.7,0-24.8,12.2-24.8,27.2
	s11.1,27.2,24.8,27.2s24.8-12.2,24.8-27.2c0-2.4-0.3-4.8-0.9-7.1c-0.6-2.3,0.5-4.7,2.5-5.8c3.9-2.2,6.3-6.3,6.3-10.8
	c0-6.8-5.5-12.3-12.3-12.3c-4.5,0-8.7,2.5-10.8,6.5C647.7,371.8,646,372.9,644,372.9 M308.7,617.6c5-2.6,10.7-4,16.7-4
	s12,1.5,17.2,4.2c10.5,3.7,19.5,11.1,25.2,21.2h61c5.4-9.6,13.8-16.7,23.6-20.6c5.4-3.1,11.6-4.8,18.3-4.8c5.4,0,10.5,1.2,15.1,3.2
	c9.4-10.9,17-23.3,22.8-37c3.6-8.5,6.6-17.9,8.8-27.9c0.3-1.6,0.6-3.5,0.9-5.5c0.5-3.7,1-7.8,2.3-11.5c1.2-3.6,2.8-6.3,5-8.2
	c3.4-2.8,7.8-4.3,12.1-4.3c2.4,0,4.8,0.5,6.9,1.4c5.3,2.3,8.6,6.9,9,12.8c0.1,1.8,0.9,3.4,2.3,4.6c1.2,1.1,2.8,1.7,4.5,1.7
	c0.2,0,0.3,0,0.4,0c0.9-0.1,1.8-0.3,2.6-0.7c0.3-0.2,0.7-0.3,1.1-0.4c1.3-0.3,2.5-1,3.3-2l27.3-30.9c0.8-0.8,1.3-1.4,1.6-2l4.7-7.7
	c1-1.6,2.7-2.5,4.4-2.5c0.5,0,1,0.1,1.4,0.2c2.2,0.6,3.8,2.7,3.8,5v28.7c0,0.6-0.1,1.2-0.3,1.8l-28.6,77c0.4,4.5,4.2,8.1,8.8,8.1
	c6.7,0.1,13.3,0.1,19.8,0.2c1.5,0,3,0.7,4,1.9c1,1.2,1.4,2.7,1.2,4.2L605.2,687c-0.6,3.7,1.9,7.2,5.6,7.8c0.4,0.1,0.8,0.1,1.2,0.1
	c1.4,0,2.7-0.5,3.9-1.3c1.5-1.1,2.5-2.6,2.8-4.4l11.3-67.1c0.4-2.5,2.6-4.3,5.1-4.3h11.1c0,0,0,0,0,0c2.5,0,4.7,1.9,5.1,4.4l10.8,67
	c0.5,3.3,3.4,5.7,6.7,5.7c0.4,0,0.7,0,1.1-0.1c3.7-0.6,6.2-4.1,5.6-7.8l-10.2-63.3c-0.2-1.5,0.2-3,1.2-4.2s2.4-1.8,3.9-1.8l16.3-0.1
	c4.7,0,8.5-3.5,8.9-8.1l-28.6-77c-0.2-0.6-0.3-1.2-0.3-1.8v-71.2c0-8.4-6.8-15.2-15.2-15.2h-25.2c-7.5,0-13.9,5.5-15.1,12.9
	c-0.1,0.7-0.3,1.4-0.7,1.9l-25.3,40.9c-0.2,0.2-0.3,0.5-0.5,0.7l-16.3,18.5c-1,1.1-2.4,1.8-3.9,1.8h-0.1c-1.5,0-3-0.7-3.9-1.9
	c-1.8-2.2-3.8-3.9-6-5.3c-1.6-1-3.4-1.9-5.4-2.6c-2-0.7-4-1.2-6-1.4c0,0,0,0-0.1,0l0,0c-0.1,0-0.4,0-1.1-0.1c-1.4-0.1-2.7-0.2-4-0.2
	c-8,0-15.2,2.4-20.8,7.1c-4.7,3.8-6.8,7.7-8.9,12.1c-0.7,1.5-1.2,2.9-1.8,4.3c-2.6,6.8-5.8,15.3-20.4,16.1h-80.5
	c-2.5,0-4.6-1.7-5.1-4.1L381,454.8c-1.3-6.4-4-10.7-8-12.9c-2-1.1-4.4-1.6-6.9-1.6c-2.3,0-4.8,0.5-7.1,1.4
	c-32.9,13.9-59.2,43.8-72.2,81.9c-3.4,10-2.4,14.3-1.5,16c0.5,0.9,1.5,2.2,4.6,3c2.1,0.5,3.7,2.4,3.9,4.6c0.2,2.2-1,4.3-3,5.2
	c-8.9,4.2-11.4,11.5-7.9,22.5C289,590.7,297.7,605.1,308.7,617.6 M470.6,679.3c15,0,27.1-12.4,27.1-27.6c0-9.4-4.6-17.7-11.7-22.7
	c-0.5-0.1-1.1-0.2-1.6-0.4c-4.6-2-9.6-3.1-14.6-3.1c-4.4,0-8.7,0.9-12.6,2.3c-8.1,4.8-13.7,13.6-13.7,23.9
	C443.5,666.9,455.7,679.3,470.6,679.3 M325.4,679.3c15,0,27.1-12.4,27.1-27.6c0-10.7-6.1-20-14.9-24.5c-3.5-1.1-7.1-1.7-10.9-1.7
	c-5.8,0-11.3,1.3-16.4,3.9c-0.5,0.2-0.9,0.4-1.4,0.5c-6.5,5.1-10.7,12.9-10.7,21.8C298.3,666.9,310.5,679.3,325.4,679.3
	 M659.5,351.7c-7.3,0-14.1,3.2-18.7,8.8c-0.6,0-1.2,0-1.8,0c-20.2,0-36.7,17.5-36.7,39.1c0,13.8,6.9,26.5,17.8,33.5
	c-10.2,2.4-18.3,10.4-20.5,20.8l-24.3,39.3L564,505.9c-1-0.9-2.1-1.6-3.2-2.3c-2.3-1.5-5-2.8-7.8-3.8c-2.8-1-5.7-1.7-8.7-2
	c-0.2,0-0.3,0-0.5,0c-0.1,0-0.2,0-0.2,0l-0.6-0.1c-1.8-0.2-3.5-0.3-5.3-0.3c-10.8,0-20.6,3.4-28.3,9.8c-6.5,5.2-9.5,10.9-12.1,16.2
	c-0.9,1.8-1.6,3.7-2.2,5.3c-2.3,6-3,8-9.5,8.4h-74.8l-18-84.7c-2.5-12.4-9-18.2-14-20.9c-3.7-2-8-3-12.5-3c-3.9,0-7.9,0.8-11.6,2.3
	c-36.1,15.3-64.9,47.8-79,89.1c-3.8,11-4,19.4-0.7,25.5c0.5,1,1.1,1.9,1.8,2.7c-7.2,7.5-9,18.3-4.9,30.8c0,0,0,0,0,0.1
	c6.3,16.6,15.1,31.6,26.3,44.7c-7.4,7.4-11.7,17.6-11.7,28.1c0,21.8,17.5,39.5,39,39.5s39-17.7,39-39.5c0-0.2,0-0.5,0-0.7
	c0.1,0,0.1,0,0.2,0h66.9c0,0.2,0,0.5,0,0.7c0,21.8,17.5,39.5,39,39.5s39-17.7,39-39.5c0-11.3-4.7-22-13-29.5
	c9.5-11.5,17.1-24.2,22.8-37.7c3.9-9.2,7.1-19.3,9.5-29.9c0.4-1.9,0.7-4.2,1-6.5c0.4-3.1,0.9-6.7,1.8-9.4c0.7-2.2,1.3-2.8,1.4-2.8
	c1.1-0.9,2.8-1.5,4.3-1.5c0.8,0,1.6,0.2,2.3,0.4c1.2,0.5,1.7,1.3,1.8,2.6c0.3,5,2.6,9.5,6.3,12.8c3.5,3,7.7,4.6,12.2,4.6
	c0.4,0,0.9,0,1.3,0c2.3-0.2,4.5-0.7,6.5-1.7c3.3-1,6.3-2.9,8.6-5.5l22.5-25.4v7.1l-28.5,76.9c-0.3,0.8-0.4,1.5-0.4,2.3
	c0,11.5,9.3,20.8,20.8,20.8c4,0,8,0.1,11.9,0.1l-9.3,55.5c-1.7,10.2,5.2,19.8,15.4,21.5c1,0.2,2.1,0.3,3.1,0.3
	c3.9,0,7.6-1.2,10.8-3.5c4.1-2.9,6.8-7.2,7.6-12.1l10.2-60.6l9.8,60.5c1.5,9.1,9.2,15.7,18.5,15.7c1,0,2-0.1,3-0.2
	c10.2-1.7,17.1-11.3,15.5-21.5l-9-55.6l8.5-0.1c11.5,0,20.8-9.3,20.8-20.8c0-0.8-0.1-1.6-0.4-2.3l-28.5-76.9v-70
	c0-12.6-8.8-23.4-20.8-26.3c11-7,17.9-19.7,17.9-33.6c0-1.8-0.1-3.6-0.3-5.4c5.3-4.6,8.3-11.2,8.3-18.3
	C683.6,362.6,672.8,351.7,659.5,351.7L659.5,351.7L659.5,351.7z M644,374.4c2.5,0,4.8-1.4,5.9-3.5c1.9-3.5,5.5-5.7,9.5-5.7
	c6,0,10.8,4.8,10.8,10.8c0,3.9-2.1,7.5-5.5,9.4c-2.6,1.5-4,4.5-3.3,7.5c0.5,2.2,0.8,4.5,0.8,6.8c0,14.2-10.5,25.7-23.3,25.7
	s-23.3-11.5-23.3-25.7s10.5-25.7,23.3-25.7c1.3,0,2.6,0.1,3.8,0.4C643.2,374.3,643.6,374.4,644,374.4L644,374.4L644,374.4z
	 M284.4,574.3c-3.3-10.2-1-16.8,7.1-20.6c2.6-1.2,4.1-3.9,3.8-6.7c-0.3-2.8-2.3-5.2-5-5.9c-2.8-0.7-3.4-1.8-3.7-2.2
	c-0.6-1.2-1.8-5,1.6-14.8c12.9-37.7,38.9-67.3,71.4-81c2.1-0.8,4.4-1.3,6.5-1.3c2.3,0,4.4,0.5,6.1,1.4c3.6,2,6.1,5.9,7.2,11.8
	l19.1,90.1c0.7,3.1,3.4,5.3,6.6,5.3h80.5c0,0,0,0,0.1,0c15.6-0.8,19.1-10.2,21.7-17l0.1-0.3c0.5-1.3,1-2.7,1.6-4
	c2-4.2,4.1-8,8.5-11.6c5.3-4.5,12.2-6.8,19.9-6.8c1.3,0,2.6,0.1,3.9,0.2c0.5,0,0.9,0.1,1.2,0.1l0,0c2,0.2,3.8,0.7,5.7,1.3
	c1.9,0.7,3.6,1.5,5.1,2.4c2.1,1.3,3.9,3,5.6,5c1.2,1.5,3.1,2.4,5.1,2.4h0.1c1.9,0,3.8-0.8,5-2.3l16.3-18.5c0.3-0.3,0.5-0.6,0.7-0.9
	l25.3-40.9c0.5-0.8,0.8-1.6,0.9-2.5c1-6.6,6.9-11.6,13.6-11.6h25.2c7.6,0,13.7,6.2,13.7,13.8v71.2c0,0.8,0.1,1.6,0.4,2.3l28.5,76.7
	c-0.5,3.7-3.6,6.4-7.4,6.4l-16.3,0.1c-2,0-3.8,0.9-5.1,2.4s-1.8,3.5-1.5,5.4l10.2,63.3c0.2,1.4-0.1,2.8-0.9,4s-2,1.9-3.4,2.1
	c-0.3,0-0.6,0.1-0.9,0.1c-2.6,0-4.8-1.9-5.2-4.5l-10.8-67c-0.5-3.3-3.3-5.6-6.6-5.6H635c-3.3,0-6.1,2.4-6.6,5.6L617.1,689
	c-0.2,1.4-1,2.6-2.2,3.4c-0.9,0.7-2,1-3,1c-0.3,0-0.6,0-0.9-0.1c-2.9-0.5-4.8-3.2-4.4-6.1l10.6-63.2c0.3-1.9-0.2-3.9-1.5-5.4
	c-1.3-1.5-3.1-2.4-5.1-2.4c-6.6,0-13.2-0.1-19.8-0.2c-3.7,0-6.8-2.8-7.3-6.4L612,533c0.3-0.8,0.4-1.5,0.4-2.3V502c0-3-2-5.6-4.9-6.5
	c-0.6-0.2-1.2-0.2-1.8-0.2c-2.3,0-4.5,1.2-5.7,3.2l-4.7,7.7c0,0,0,0.1-0.1,0.1c-0.2,0.4-0.5,0.9-1.3,1.7c0,0,0,0-0.1,0.1l-27.3,30.9
	c-0.7,0.8-1.6,1.3-2.6,1.6c-0.5,0.1-1,0.3-1.4,0.5c-0.6,0.3-1.3,0.5-2,0.5c-0.1,0-0.2,0-0.3,0c-1.3,0-2.5-0.5-3.5-1.3
	c-1-0.9-1.7-2.2-1.8-3.6c-0.4-6.5-4-11.6-9.9-14.1c-2.3-1-4.9-1.5-7.5-1.5c-4.8,0-9.4,1.7-13,4.7c-2.4,2.1-4.2,5-5.5,8.8
	c-1.3,3.8-1.8,8.1-2.3,11.8l0,0.3c-0.2,1.8-0.5,3.6-0.8,5c-2.2,9.9-5.1,19.2-8.7,27.6c-5.5,13.1-12.9,25.1-21.9,35.7
	c-4.7-1.9-9.6-2.9-14.7-2.9c-6.6,0-13.1,1.7-18.9,5c-9.9,4-18.3,11.2-23.8,20.5h-59.2c-5.8-9.8-14.8-17.3-25.5-21.1
	c-5.6-2.9-11.5-4.4-17.8-4.4c-5.7,0-11.2,1.2-16.3,3.7C298.5,603.6,290.2,589.7,284.4,574.3L284.4,574.3L284.4,574.3z M457.8,629.2
	c4-1.5,8-2.2,12-2.2c4.9,0,9.6,1,14,3c0.5,0.2,1,0.4,1.6,0.5c6.8,4.9,10.8,12.8,10.8,21.3c0,14.4-11.5,26.1-25.6,26.1
	S445,666.1,445,651.7C445,642.5,449.9,633.9,457.8,629.2L457.8,629.2L457.8,629.2z M309.6,631.2c0.5-0.1,1-0.3,1.4-0.5
	c4.9-2.5,10.2-3.7,15.7-3.7c3.4,0,6.9,0.5,10.3,1.6c8.6,4.5,14,13.4,14,23.1c0,14.4-11.5,26.1-25.6,26.1s-25.6-11.7-25.6-26.1
	C299.8,643.7,303.4,636.2,309.6,631.2L309.6,631.2L309.6,631.2z"/>
<path class="st0" d="M118.1,358.7c-11.9,0-21.5-8.7-21.5-19.4V230.6c-5.8-3.5-9.2-9.3-9.2-15.6l0.1-46.9l-22.7,33.3
	c-2.8,4.2-7.4,7-12.7,7.9c1.1,0.6,2.1,1.2,3,1.8c4.1,3,6.6,7.1,7.3,11.6c0.2,1.3,0.2,2.7,0.1,4.1c-0.4,3.9-3.8,6.8-8,6.8
	c-0.3,0-0.5,0-0.8,0c-2.2-0.2-4.3-1.2-5.6-2.9c-1.2-1.5-1.8-3.4-1.6-5.3c0-0.2,0-0.4,0-0.6c-0.1-0.7-0.6-1.4-1.4-1.9
	c-1.2-0.9-2.7-1.4-4.5-1.6c-0.3,0-0.6,0-0.9,0c-0.5,0-1.1,0-1.6,0.1c-1.8,0.2-3.4,1.8-4.2,4.1c-0.2,0.7-0.4,1.5-0.5,2.3
	c-0.2,1-0.2,1.9-0.2,2.9v0.2l0,114.9c0,4.1-3.6,7.5-8.1,7.5S17,350.1,17,346V231c0-1.8,0.1-3.5,0.3-5.1c0.2-1.7,0.6-3.3,1.2-4.8
	c2.8-8,9.3-13.4,17.4-14.4c0.6-0.1,1.2-0.1,1.8-0.2c-3.2-2.1-5.5-5.2-6.6-8.7c-1.4-4.3-0.9-8.9,1.5-13l49.8-87.9
	c2.8-4.9,8.6-8.3,14.7-8.6c1.1-0.2,2.2-0.2,3.3-0.2h12.4c-9.4-7.3-14.9-18.5-14.9-30.4c0-21.2,17.3-38.5,38.5-38.5
	s38.5,17.3,38.5,38.5c0,11.9-5.5,23.2-14.9,30.4h12.4c1.1,0,2.2,0.1,2.9,0.2c6.4,0.4,12.3,3.7,15.1,8.7l49.8,87.9
	c2.3,4.1,2.8,8.7,1.5,13c-1.4,4.4-4.7,8.1-9.2,10.2c-2.6,1.2-5.5,1.9-8.4,1.9l0,0c-6.6,0-12.8-3.2-16.3-8.3l-22.7-33.3l0.1,47
	c0,6.3-3.4,12.1-9.2,15.6v107.2c0,10.7-9.6,19.4-21.5,19.4c-7.1,0-13.6-3.1-17.6-8.3C133,355,126,358.7,118.1,358.7L118.1,358.7z
	 M93.6,142.7c0.6,0,1.2,0.1,1.8,0.3c2.5,0.8,4.2,3.1,4.2,5.7l-0.2,66.4c0,2.6,2.1,5.1,5.2,6.2c2.3,0.9,3.9,3.1,3.9,5.6v112.4
	c0,4,4.4,7.4,9.6,7.4s9.6-3.4,9.6-7.4V228.5c0-1.6,0.6-3.1,1.8-4.2c1.1-1.1,2.6-1.7,4.2-1.7c0.3,0,0.6,0,0.8,0c0.3,0,1.5,0,1.8,0
	s1.5,0,1.8,0c0.3,0,0.6,0,0.9,0c1.5,0,3.1,0.6,4.2,1.7c1.1,1.1,1.8,2.6,1.8,4.2v109.3c0,4,4.4,7.4,9.6,7.4s9.6-3.4,9.6-7.4V226.9
	c0-2.5,1.6-4.8,3.9-5.6c3.2-1.1,5.3-3.6,5.3-6.2l-0.2-66.4c0-2.6,1.7-4.9,4.2-5.7c0.6-0.2,1.1-0.3,1.8-0.3c2,0,3.8,1,4.9,2.6
	l33.6,49.4c1.3,1.9,3.7,3.1,6.3,3.1c1.2,0,2.4-0.3,3.4-0.8c1.5-0.7,2.5-1.8,2.9-3c0.4-1.1,0.2-2.4-0.5-3.5L180,102.7
	c-0.8-1.5-3.1-2.5-5.9-2.7c-0.6-0.1-1.2-0.1-1.7-0.1h-72c-0.6,0-1.1,0-2.1,0.2c-2.5,0.1-4.7,1.2-5.5,2.7l-49.8,87.9
	c-0.7,1.1-0.8,2.4-0.5,3.5c0.4,1.2,1.4,2.3,2.9,3c1,0.5,2.2,0.8,3.4,0.8c2.6,0,5-1.2,6.3-3.1l33.6-49.4
	C89.8,143.7,91.6,142.7,93.6,142.7L93.6,142.7z M136.3,30.9c-14.7,0-26.6,11.9-26.6,26.6s11.9,26.6,26.6,26.6s26.6-11.9,26.6-26.6
	S151,30.9,136.3,30.9z"/>
<path class="st1" d="M136.3,19.7c20.8,0,37.8,16.9,37.8,37.8c0,12.9-6.5,24.4-16.5,31.2h14.7c1.1,0,2.2,0.1,2.8,0.2
	c6.3,0.4,11.9,3.5,14.6,8.3l49.8,87.9c2.2,3.9,2.7,8.3,1.4,12.4c-1.4,4.2-4.5,7.7-8.8,9.7c-2.6,1.2-5.4,1.8-8.1,1.8
	c-6.1,0-12.2-2.9-15.6-7.9l-24.1-35.4l0.1,49.4c0,6.2-3.5,11.9-9.2,15.1v107.6c0,10.2-9.3,18.6-20.8,18.6c-7.5,0-14.1-3.6-17.7-8.9
	c-3.4,6.2-10.5,10.4-18.6,10.4c-11.4,0-20.8-8.3-20.8-18.6V230.2c-5.7-3.3-9.2-8.9-9.2-15.2l0.1-49.4l-24,35.4
	c-3.3,4.9-9,7.6-14.9,7.9c2,0.8,3.8,1.7,5.4,2.9c3.7,2.8,6.3,6.6,7,11.1c0.2,1.2,0.2,2.6,0.1,3.9c-0.4,3.5-3.5,6.1-7.3,6.1
	c-0.2,0-0.5,0-0.7,0c-4-0.4-7-3.6-6.6-7.4c0-0.3,0-0.5,0-0.8c-0.1-0.9-0.8-1.7-1.7-2.4c-1.2-0.9-3-1.5-4.9-1.7c-0.3,0-0.7,0-1,0
	c-0.5,0-1.1,0-1.7,0.1c-2,0.2-3.8,1.8-4.8,4.6c-0.2,0.7-0.5,1.5-0.6,2.4c-0.2,1-0.2,2-0.2,3.1v0.2l0,0v0.1V346
	c0,3.7-3.3,6.8-7.3,6.8s-7.3-3-7.3-6.8V231c0-1.8,0.1-3.5,0.3-5c0.2-1.7,0.6-3.2,1.1-4.7c2.9-8.3,9.5-13,16.7-13.9
	c1.1-0.1,2.2-0.2,3.3-0.2c0.4,0,0.8,0,1.1,0c-4.2-2-7.3-5.4-8.7-9.7c-1.3-4.1-0.8-8.5,1.4-12.4l49.8-87.9c2.7-4.8,8.3-7.9,14.1-8.3
	c1.1-0.2,2.2-0.2,3.2-0.2H115c-9.9-6.8-16.5-18.2-16.5-31.2C98.5,36.7,115.4,19.7,136.3,19.7 M136.3,84.9
	c15.1,0,27.4-12.3,27.4-27.4s-12.3-27.4-27.4-27.4s-27.4,12.3-27.4,27.4S121.2,84.9,136.3,84.9 M48.7,198.6c2.8,0,5.5-1.2,7-3.4
	l33.6-49.4c1-1.4,2.6-2.3,4.3-2.3c0.5,0,1,0.1,1.5,0.2c2.2,0.7,3.7,2.7,3.7,5l-0.2,66.4c0,3,2.2,5.7,5.7,6.9
	c2.1,0.7,3.4,2.7,3.4,4.9v112.4c0,4.4,4.7,8.2,10.3,8.2s10.3-3.8,10.3-8.2V228.6c0-1.4,0.6-2.7,1.5-3.7c1-1,2.3-1.5,3.7-1.5
	c0.3,0,0.6,0,0.8,0c0.6,0,1.2,0,1.8,0s1.2,0,1.8,0c0.3,0,0.5,0,0.8,0c1.4,0,2.7,0.5,3.7,1.5c1,1,1.5,2.3,1.5,3.7v109.3
	c0,4.4,4.7,8.2,10.3,8.2s10.3-3.8,10.3-8.2V226.9c0-2.2,1.4-4.1,3.4-4.9c3.5-1.3,5.8-4,5.8-6.9l-0.2-66.4c0-2.3,1.5-4.3,3.7-5
	c0.5-0.2,1-0.2,1.5-0.2c1.7,0,3.3,0.8,4.3,2.3l33.6,49.4c1.5,2.2,4.2,3.4,6.9,3.4c1.3,0,2.6-0.3,3.8-0.8c1.6-0.8,2.8-2,3.3-3.4
	c0.4-1.3,0.2-2.8-0.5-4.1l-49.8-87.9c-1-1.7-3.4-2.9-6.6-3.1c-0.6-0.1-1.2-0.1-1.8-0.1h-72c-0.6,0-1.2,0.1-2.2,0.2
	c-2.8,0.2-5.1,1.3-6.1,3.1l-49.8,87.9c-0.8,1.3-0.9,2.8-0.5,4.1c0.5,1.4,1.6,2.7,3.3,3.4C46.1,198.3,47.4,198.6,48.7,198.6
	 M136.3,18.2C114.6,18.2,97,35.8,97,57.5c0,11.5,5,22.3,13.6,29.7h-10.3c-1.1,0-2.3,0.1-3.4,0.2c-6.4,0.4-12.4,3.9-15.3,9
	l-49.8,87.9c-2.4,4.2-2.9,9.1-1.5,13.6c1,3.1,2.8,5.8,5.3,7.9c-8.3,1.1-15,6.7-17.8,14.9c-0.5,1.6-1,3.3-1.2,5
	c-0.2,1.6-0.4,3.4-0.3,5.3v115c0,4.6,4,8.3,8.8,8.3s8.8-3.7,8.8-8.3V231.2c0,0,0,0,0-0.1l0,0c0,0,0-0.1,0-0.1v-0.2
	c0-0.9,0-1.9,0.2-2.8c0.1-0.8,0.3-1.5,0.5-2.2c0.7-2.1,2.1-3.4,3.6-3.6c0.5-0.1,1-0.1,1.5-0.1c0.3,0,0.6,0,0.9,0
	c1.6,0.1,3,0.6,4.1,1.4c0.6,0.4,1,1,1.1,1.4c0,0.2,0,0.3,0,0.5c-0.2,2.1,0.4,4.1,1.8,5.8c1.5,1.8,3.7,2.9,6.2,3.2c0.3,0,0.6,0,0.8,0
	c4.5,0,8.3-3.2,8.8-7.5c0.2-1.5,0.1-3-0.1-4.3c-0.7-4.8-3.3-9-7.6-12.1c-0.4-0.3-0.9-0.6-1.4-0.9c4.6-1.2,8.7-4,11.2-7.8l21.3-31.3
	L86.7,215c0,6.4,3.4,12.4,9.2,16v108.3c0,11.1,10,20.1,22.3,20.1c7.7,0,14.7-3.5,18.8-9.3c4.2,4.9,10.6,7.8,17.6,7.8
	c12.3,0,22.2-9,22.2-20.1V231.1c5.8-3.6,9.2-9.6,9.2-16l-0.1-44.5l21.3,31.3c3.6,5.3,10.1,8.6,16.9,8.6c3,0,6.1-0.7,8.7-1.9
	c4.7-2.2,8.1-6,9.6-10.6c1.4-4.5,0.9-9.4-1.5-13.6L191,96.4c-2.9-5.2-8.9-8.7-15.7-9.1c-0.8-0.1-1.9-0.2-3-0.2H162
	c8.6-7.4,13.6-18.2,13.6-29.7C175.6,35.8,158,18.2,136.3,18.2L136.3,18.2L136.3,18.2z M136.3,83.4c-14.3,0-25.9-11.6-25.9-25.9
	s11.6-25.9,25.9-25.9s25.9,11.6,25.9,25.9S150.6,83.4,136.3,83.4L136.3,83.4z M48.7,197.1c-1.1,0-2.2-0.2-3.1-0.7
	c-1.3-0.6-2.1-1.5-2.5-2.6c-0.3-0.9-0.2-1.9,0.4-2.9L93.3,103c0.7-1.2,2.7-2.2,4.9-2.3c0,0,0.1,0,0.1,0c1-0.1,1.5-0.2,2-0.2h72
	c0.5,0,1,0,1.6,0.1c0,0,0.1,0,0.1,0c2.6,0.2,4.6,1.1,5.3,2.3l49.8,87.9c0.6,1,0.7,2,0.4,2.9c-0.3,1.1-1.2,1.9-2.5,2.6
	c-0.9,0.4-2,0.7-3.1,0.7c-2.4,0-4.6-1.1-5.7-2.7l-33.6-49.4c-1.2-1.8-3.3-2.9-5.6-2.9c-0.7,0-1.3,0.1-2,0.3
	c-2.8,0.9-4.7,3.5-4.7,6.4l0.2,66.4c0,2.3-1.9,4.5-4.8,5.5c-2.6,1-4.4,3.5-4.4,6.3v110.9c0,3.6-4.1,6.7-8.8,6.7s-8.8-3.1-8.8-6.7
	V228.5c0-1.8-0.7-3.5-2-4.8c-1.3-1.3-2.9-1.9-4.7-1.9c-0.2,0-0.5,0-0.8,0c-0.3,0-0.6,0-0.9,0c-0.3,0-0.6,0-0.9,0s-0.6,0-0.9,0
	c-0.3,0-0.6,0-0.9,0c-0.3,0-0.6,0-0.9,0l0,0c-1.7,0-3.4,0.7-4.7,1.9c-1.3,1.3-2,3-2,4.8v110.8c0,3.6-4.1,6.7-8.8,6.7
	s-8.8-3.1-8.8-6.7V226.9c0-2.8-1.8-5.4-4.4-6.3c-2.9-1-4.8-3.2-4.8-5.5l0.2-66.4c0-3-1.9-5.6-4.7-6.4c-0.6-0.2-1.3-0.3-2-0.3
	c-2.2,0-4.3,1.1-5.6,2.9l-33.6,49.4C53.3,196,51.1,197.1,48.7,197.1L48.7,197.1L48.7,197.1z"/>
</svg>
