<?xml version="1.0" encoding="utf-8"?>
<!-- Generator: Adobe Illustrator 27.3.1, SVG Export Plug-In . SVG Version: 6.00 Build 0)  -->
<svg version="1.1" id="Layer_1" xmlns="http://www.w3.org/2000/svg" xmlns:xlink="http://www.w3.org/1999/xlink" x="0px" y="0px"
	 viewBox="0 0 720 720" style="enable-background:new 0 0 720 720;" xml:space="preserve">
<style type="text/css">
	.st0{fill:#FFFFFF;stroke:#FFFFFF;stroke-width:2;stroke-linecap:round;stroke-linejoin:round;}
	.st1{fill:#FFFFFF;stroke:#FFFFFF;stroke-width:3;stroke-linecap:round;stroke-linejoin:round;}
</style>
<path class="st0" d="M289.2,154.1l-1.7-1.5c-21.2-19.2-41.3-37.4-58.1-40.5c-0.3-0.1-0.6-0.1-0.9-0.1h-47.4c-2.8,0-5,2.3-5,5V178
	c0,2.8,2.2,5,5,5h99.8c8.4,0,14.6-3,17-8.1c0.1-0.2,0.2-0.4,0.3-0.6C300.5,168.4,297.5,161.6,289.2,154.1L289.2,154.1z M288.8,170.7
	c-0.3,0.8-2.9,2.3-7.9,2.3h-93.3v-50.8h40.5c13.9,2.8,33.7,20.7,52.7,38l1.7,1.5C288.4,167,289.1,170,288.8,170.7L288.8,170.7z"/>
<path class="st0" d="M558.8,311.6l-1.7-1.5c-21.2-19.2-41.3-37.4-58.1-40.5c-0.3-0.1-0.6-0.1-0.9-0.1h-47.4c-2.8,0-5,2.3-5,5v60.9
	c0,2.8,2.3,5,5,5h99.8c8.4,0,14.6-3,17-8.1c0.1-0.2,0.2-0.4,0.3-0.6C570,325.9,567,319.1,558.8,311.6L558.8,311.6z M558.3,328.2
	l-101.2,2.3v-50.8h40.5c14,2.8,33.7,20.7,52.7,38l1.7,1.5C558,324.5,558.6,327.5,558.3,328.2z"/>
<path class="st0" d="M13.7,467.7c3.9-1.5,6.7-3.9,8-7.2c0.7-1.7,0.8-3.6,0.6-5.5c-0.2-1.6-0.8-3.3-1.6-5c-0.8-1.6-2-3.3-3.4-5
	c-1.3-1.5-2.7-3.1-4.5-4.7l-1.4-1.2c-2.2-2-4.4-4-6.5-5.9v13.6l1.2,1c0.9,0.8,1.6,1.5,2.3,2.2c2.1,2.2,3.2,3.9,3.7,5
	c0.4,1,0.5,1.6,0.4,1.8c-0.3,0.8-2.8,2.2-7.5,2.2v10.1c2.8,0,5.3-0.4,7.6-1.1C12.9,468,13.3,467.8,13.7,467.7L13.7,467.7z"/>
<path class="st1" d="M715.1,383.8l0-0.5c0,0,0,0,0,0h0c-1-15.7-14-37.1-36.2-45.7l0,0l0,0c-3.4-1.3-6.9-2.3-10.6-3
	c-0.3,0-0.6-0.1-0.9-0.1h-60.5c-9.8-12.8-61.8-78.2-106.1-83.9c-0.2,0-0.4,0-0.6,0h-54.5v-22.6c0-0.5,0-1.1-0.1-1.6l0-0.5
	c0,0,0,0,0-0.1h0c-0.6-9.2-5.5-20.4-13.8-29.8c-5.8-6.6-13.3-12.4-22.4-15.9l0,0l0,0c-3.4-1.3-6.9-2.3-10.6-2.9
	c-0.3-0.1-0.6-0.1-0.9-0.1h-60.5c-9.8-12.8-61.8-78.2-106.1-83.9c-0.2,0-0.4,0-0.6,0h-71.4c-2.8,0-5,2.3-5,5V159H4.8V169h149.3V180
	H4.8v10.1h149.3v94.2h-28.4c-2-3.5-4.1-6.8-6.2-9.5c-11.1-12.1-21.9-12-21.9-12H84c-8.6-17.3-26-28.3-45.5-28.3
	c-7.7,0-15.2,1.7-21.9,4.9H4.8v10.1h31.6v138.1H4.8v10.1h31.6v29.8c-9.1-9.8-19.9-20.4-31.6-29.8v13.1c12,10.4,23,22,31.6,31.7
	c0.8,0.9,1.5,1.7,2.2,2.5c1,1.1,2,2.2,2.9,3.3c0.5,0.6,1,1.1,1.5,1.7c1.5,1.8,2.9,3.5,4.2,5c4.5,5.5,7.1,9,7.2,9.2c1,1.3,2.5,2,4,2
	h62.6c0.8,0.1,1.6,0.3,2.4,0.5c-2.1,4.3-3.2,9-3.2,13.9c0,0.6,0.1,1.1,0.2,1.7c0.1,1.8,0.2,3.5,0.6,5.2c0.4,1.7,0.9,3.2,1.5,4.8
	c4.7,12,16.3,20.5,30,20.5c2.2,0,4.5-0.2,6.6-0.7v47.5c0,2-1.6,3.7-3.7,3.7l-49.3,0.3c0-1.6-0.2-3.2-0.5-4.7c0-0.1,0-0.1,0-0.2
	c-1-8.1-3.7-10.9-3.7-10.9C95.7,535.7,83.3,528,69.5,528s-26.5,8-32.7,20.4l-2.8,7.2c-0.5,2.2-0.9,4.4-1.1,6.7H-3.4
	c-3.5,0-6.4,2.7-6.4,6s2.8,6,6.4,6h37.1c0.2,0,0.3,0,0.4,0c1.2,4.6,3.4,8.8,6.2,12.5c6.8,8.9,17.4,14.6,29.2,14.6
	s22.5-5.7,29.2-14.6c3.5-4.5,5.9-7.9,6.9-13.7l49.8,0.5c7.6,0,13.7-6.2,13.7-13.7v-52.6c0-0.5,0-1-0.1-1.5L169,505c0,0,0,0,0,0h0
	c-0.7-11-7.4-24.6-18.8-34.8c2.4-4.6,4-9.7,4.6-15h31.9c2.8,0,5-2.3,5-5v-62.5c0-1.6-0.8-3.1-2.1-4.1l-29.9-21.9
	c-2.5-7.8-14.3-38.2-28.2-68.3l161.4,0.2c1.2,12.6,3.9,17.6,7.9,22.7l-78.5,0.2c-2.8,0-5,2.3-5,5v20.2c-0.5,1.5-0.9,3-0.9,4.5V438
	c0,7.6,6.1,13.7,13.7,13.7h27.8c0.1,0.8,0.4,1.6,0.5,2.4c-8.4,8.7-16.7,16.8-22.4,21c-7,5.2-25.6,7.7-32.3,8.3
	c-6.6,0.1-12,5.5-12,12.2v81.7c0,6.7,5.5,12.2,12.2,12.2l33.6,0.4c0.3,1.6,0.7,1.1,1.2,2.6c4.7,14.7,18.5,25.4,34.5,25.4
	s29.9-10.7,34.6-25.4c0.5-1.5,0.9-3,1.1-4.6l163.8,1c3,17,18.1,29,35.7,29c17.6,0,32.8-12,35.7-29l52.2,0.6
	c6.7,0,12.2-5.5,12.2-12.2v-46.8c0-0.4,0-0.9-0.1-1.4l0-0.5c0,0,0,0,0,0h0c-0.9-14-12.5-33-32.2-40.7l0,0l0,0
	c-3.1-1.2-6.3-2.1-9.5-2.6c-0.2,0-0.5-0.1-0.7-0.1h-53.8c-3.8-5-14.8-18.9-29.3-33.4l79.5-0.8c3.4,19.1,20.3,32.7,40.1,32.7
	s36.8-13.6,40.1-32.7l58.7,0.8c7.6,0,13.7-6.2,13.7-13.7v-52.6C715.2,384.9,715.1,384.4,715.1,383.8L715.1,383.8z M98.8,565.8
	c0,0.4,0,0.8-0.1,1.2c0,0,0,0.1,0,0.1c-0.6,7.8-4.4,14.8-10.1,19.6c-5.2,4.5-11.9,7.3-19.3,7.3s-14-2.8-19.2-7.3
	c-5.6-4.9-9.4-11.8-10.1-19.8c0,0,0-0.1,0-0.1c0-0.2,0-0.4-0.1-0.7c0-0.1,0-0.1,0-0.2c0-0.5,0-0.9,0-1.4c0-3.9,0.8-7.7,2.2-11.2
	c4.6-11,15.2-18.2,27.2-18.2s22.6,7.1,27.2,18.2c1.5,3.6,2.2,7.3,2.2,11.2C98.9,565,98.9,565.4,98.8,565.8L98.8,565.8z M46.8,245.5
	c12.6,2.6,23.4,11,28.9,23h-24c-2.5-0.2-4.8-2-4.8-5.2L46.8,245.5L46.8,245.5z M60.8,456.2c-0.2-0.3-0.6-0.8-0.9-1.1h7.8
	c0,0.4,0.1,0.8,0.2,1.1H60.8z M142,463.9c-2.9-1.8-5.9-3.4-9.1-4.7c-1.7-0.7-3.5-1.2-5.2-1.7c0-0.1,0.1-0.1,0.1-0.2
	c-0.5-0.2-1-0.5-1.5-0.8H90.6c-1,0-1.9-0.1-2.7-0.3h-9.7c-0.4-2-0.6-4-0.6-6.2c0-18.6,15.2-33.8,33.8-33.8S145,431.4,145,450
	C145,455,143.9,459.6,142,463.9L142,463.9z M181.7,390.1v7.4h-14.3v10.1h14.3V445h-26.9c-2.5-21.8-21.1-38.8-43.5-38.8
	s-41.1,17-43.6,38.8H51.9c-1.7-2-3.4-4.1-5.4-6.4v-160h63.1c1.3,1.2,2.8,3.3,4.3,5.6c1,1.6,2.1,3.3,3.1,5c0.1,0.2,0.2,0.3,0.3,0.5
	H65.8c-1,0-1.9,0.4-2.6,0.9c-1.4,0.9-2.4,2.4-2.4,4.2v69.9c0,2.8,2.3,5,5,5h88.1L181.7,390.1L181.7,390.1z M148.5,359.6H70.8v-59.8
	h52.3C134.3,319.3,144.3,347.1,148.5,359.6L148.5,359.6z M293.1,283.5c-0.5,2.3-0.7-1.4-0.8,0.9l-128.1-0.2V103.1h66
	c43.8,6,100,81.2,100.6,82c1,1.3,2.5,2,4,2h62.5c0.8,0.1,1.6,0.3,2.4,0.5c-2.1,4.3-3.1,9-3.1,13.9c0,17.8,14.5,32.3,32.3,32.3
	c0.9,0,1.8-0.2,2.8-0.3c1.3-0.1,2.6-0.1,3.9-0.4v17.4h-6.9c-2.8,0-5,2.3-5,5v28.7l-49.9,0.2c0,0,0,0,0,0l-0.2,0
	c-0.1-0.6-0.3-1.2-0.5-1.7c-0.1-0.2-0.1-0.4-0.2-0.8c-1.4-4.3-3.1-7.9-3.9-9.6l-0.3,0.6c0-0.2,0.1-0.4,0.3-0.6
	c-0.1-0.1-0.1-0.2-0.2-0.3c-7.1-13.1-20.6-21.4-35.7-21.4s-28.6,8.3-35.7,21.3C297.4,272,293.9,276.6,293.1,283.5L293.1,283.5z
	 M423.6,294.3v22.1l-58.3-0.2c3.9-5.1,6.7-15.1,7.9-21.7L423.6,294.3L423.6,294.3z M299.3,291.5c0-18.6,15.1-33.7,33.7-33.7
	s33.7,15.1,33.7,33.7c0,10.1-4.5,19.2-11.6,25.4h-0.8c-0.1,0.1-0.2,0.2-0.3,0.3H312c-0.1-0.1-0.2-0.2-0.3-0.3h-0.8
	C303.8,310.8,299.3,301.7,299.3,291.5L299.3,291.5z M227.4,326.5h196.3v11H227.4L227.4,326.5L227.4,326.5z M230.1,441.7
	c-2,0-3.6-1.6-3.6-3.7V390h18.1c2.8,0,5-2.3,5-5v-26.1c0-2.8-2.2-5-5-5h-18.1v-6.3h197.1v64.2c-2-0.5-3.9-1-5.8-1.2
	c-0.2,0-0.4,0-0.6,0h-69.4c-0.2,0.3-0.6,0.5-1,0.4c-4.7-0.4-9.5-0.5-14.3-0.5c0,0,0,0,0.1,0h-15.5c-13.6,0-24,4.5-31.8,13.9
	c-4.2,5-10.9,12.6-18.1,20.5c0-0.6,0-1.2,0-1.9l2.9-1.2L230.1,441.7L230.1,441.7z M302.3,582.8c0,0.4,0,0.8-0.1,1.1c0,0,0,0.1,0,0.1
	c-0.2,3-1.1,5.8-2.1,8.5c-4.4,10.7-14.8,18.2-26.8,18.2s-22.4-7.5-26.8-18.2c-1.1-2.7-1.9-5.5-2.1-8.5l-0.1-0.9c0-0.5,0-1,0-1.5
	c0-3.8,0.7-7.6,2.2-11.1c4.5-10.9,15-18,26.9-18s22.6,7.2,27,18.4c0,0.1,0.1,0.2,0.1,0.3c1.3,3.3,1.9,6.8,1.9,10.3
	C302.4,582,302.3,582.4,302.3,582.8L302.3,582.8z M364.4,487.8H283c-5.1,0-7-1.2-7.2-1.8c-0.2-0.4,0-1.3,0.4-2.4
	c0.1-0.3,0.2-0.6,0.4-0.9c0.1,0.1,0.1,0.1,0.2,0.2l3.2-3.7l3.5-4c-0.1-0.1-0.2-0.2-0.4-0.3c2.8-3,5.6-5.9,8.2-8.8
	c0.8-0.9,1.6-1.8,2.4-2.6c1.2-1.3,2.3-2.5,3.4-3.8c1.2-1.3,2.4-2.6,3.4-3.9c4.4-5,7.9-9,9.5-11c1-1.2,2-2.3,7.1-2.3h47.2
	L364.4,487.8L364.4,487.8z M537.5,582.8c0,0.4,0,0.8-0.1,1.2c0,0,0,0.1,0,0.1c-1.2,15-14,26.7-29,26.7s-27.7-11.7-29-26.8
	c0,0,0-0.1,0-0.1c0-0.2,0-0.4-0.1-0.7c0-0.1,0-0.1,0-0.2c0-0.5,0-0.9,0-1.4c0-3.8,0.7-7.6,2.2-11.1c4.5-10.9,15.1-17.9,26.9-17.9
	c11.8,0,22.3,7,26.9,17.9c1.5,3.5,2.2,7.3,2.2,11.1C537.5,582,537.5,582.4,537.5,582.8L537.5,582.8z M506.4,492.4
	c0.8,1.1,2.2,1.8,3.6,1.8h55.7c0.7,0.1,1.4,0.3,2.1,0.5c-1.8,3.8-2.8,8-2.8,12.3c0,15.8,12.9,28.7,28.7,28.7c2,0,4-0.2,5.9-0.6v23.1
	h-0.3v20.4c-0.5,1.2-1.7,2-3,2l-51.7,0.2c0-1.7-0.2-3.4-0.6-5.1c0,0,0-0.1,0-0.1c-0.2-2-0.7-3.9-1.2-5.4c-0.3-1.1-0.7-2.2-1.3-3.2
	c-0.5-1.1-1-1.8-1-1.8s0,0.1-0.1,0.3c0-0.1,0-0.2,0.1-0.3c-6.2-12.1-18.5-19.8-32.2-19.8s-26.1,7.8-32.2,19.9c0,0.1,0,0.1-0.1,0.2
	c-0.8,1.1-1.2,2.5-1.6,3.8c-0.5,1.5-0.9,3-1.3,4.5c0,0.1-0.1,0.2-0.1,0.2c-0.5,2.2-0.9,4.4-0.9,6.7l-98.8-0.2v-10h0.2
	c0-0.4-0.1-0.9-0.2-1.3v-10.7h0v-61.7H462c2.5,0,4.8-0.4,6.8-1c0.5-0.1,1-0.3,1.5-0.5c3.4-1.3,6-3.4,7.1-6.2c2-5.3-0.6-11.3-8-18
	l-1.2-1.1c-7.1-6.4-14-12.7-20.7-18.2c-2.1-1.8-4.3-3.5-6.4-5c-2.4-1.8-4.8-3.5-7.1-5c-0.1-0.1-0.2-0.1-0.3-0.2
	c-0.7-0.4-1.4-0.8-2-1.2c-1-0.6-2-1.2-3-1.8c-1.7-0.9-3.4-1.7-5-2.4c-2.5-1.1-5-1.9-7.4-2.4c-0.3,0-0.5-0.1-0.8-0.1h-98.3
	c-8.6,0-11.7,2.8-14,5.5c-1.6,1.9-4.7,5.5-8.8,10.1c-1.1,1.3-2.3,2.6-3.5,4c-1.1,1.3-2.3,2.5-3.5,3.9c-3.3,3.7-7,7.6-10.8,11.5
	c-1.2,1.2-2.4,2.5-3.6,3.7c0,0,0,0,0,0c-1.1,1.2-2.2,2.5-3.2,4c-2.6,4-4.2,8.8-2.4,13.1c1.9,4.4,6.6,6.8,13.7,7.1
	c0.6,0,1,0.1,1.7,0.1c0,0,0.1,0,0.1,0h81.5v83.8l-54.9,0.2c0-0.8-0.1-1.7-0.2-2.5c0.1-0.4,0-1.4-0.6-3.5c0,0,0-0.1,0-0.1
	c-0.1-0.3-0.1-0.5-0.2-0.8l0,0c0-0.1-0.1-0.3-0.2-0.4c-1.7-5.9-3-8.3-3-8.3c-6.2-12-18.4-19.7-32.1-19.7s-25.7,7.5-31.9,19.4
	c0,0-3.2,6.8-3.2,8.5c-0.6,2.5-1,5-1.1,7.5l-33.1-0.2c-1.8,0-3.2-1.5-3.2-3.3v-42.7h16.1c2.5,0,4.5-2,4.5-4.5v-23.2
	c0-2.5-2-4.5-4.5-4.5h-16.1v-6.8c0-1.8,1.4-3.3,3.2-3.3c0.1,0,0.2,0,0.4,0c2.7-0.2,26.7-2.3,37.1-10c5.3-3.9,12.6-10.9,20.2-18.6
	c1.2-1.3,2.5-2.6,3.8-3.9c1.3-1.4,2.6-2.8,4-4.2c4.9-5.2,9.6-10.3,13.7-15c3.6-4,6.7-7.7,9.2-10.6c4.1-4.9,10.6-10.5,24.6-10.6
	c0.1,0,0.2,0,0.3,0H417c1.3,0.2,2.6,0.6,3.9,0.9c0.9,0.2,1.9,0.4,2.8,0.6c1.7,0.5,3.4,1.2,5,1.8c1,0.4,2,0.7,3,1.2
	c0.7,0.3,1.4,0.7,2,1c0.2,0.1,0.5,0.2,0.7,0.4c2.9,1.5,5.9,3.2,8.8,5c5.2,3.3,10.4,7.2,15.4,11.3c2,1.6,4,3.3,5.9,5
	c1.9,1.7,3.7,3.3,5.5,5C490.6,471.2,506.2,492,506.4,492.4L506.4,492.4z M373.4,487.8v-45.2h41.6c2.6,0.5,5.5,1.8,8.6,3.4
	c0.5,0.3,1,0.4,1.4,0.7c1.2,0.7,2.4,1.5,3.6,2.2c1,0.6,2,1.2,3,2c0.4,0.3,0.8,0.6,1.1,0.8c9.2,6.6,19.4,15.8,29.4,24.9l1.2,1.1
	c5.3,4.8,5.8,7.5,5.6,8.1c-0.3,0.7-2.6,2-7,2H373.4z M635.2,444.2l0,0.6c0,0.3,0,0.6-0.1,0.9c0,0,0,0,0,0
	c-1.4,16.7-15.7,29.8-32.5,29.8s-31.2-13.2-32.5-30l0,0l-0.1-1c0-0.6,0-1.1,0-1.7c0-4.4,0.8-8.6,2.5-12.5
	c5.1-12.2,16.9-20.2,30.2-20.2s25.3,8,30.3,20.5c1.6,3.9,2.3,8,2.3,12.2C635.3,443.3,635.2,443.8,635.2,444.2L635.2,444.2z
	 M705.1,438c0,2-1.6,3.7-3.7,3.7l-58.1,0.2c-0.1-2.5-0.4-4.9-0.9-7.3c0-0.3-0.1-0.6-0.2-0.9c-1.8-7.7-3.5-9.3-3.5-9.3
	c-6.9-13.6-20.7-22.3-36.2-22.3s-29.1,8.6-36.1,22.1c0,0-3.5,3.6-3.9,10.9c-0.5,2.2-0.7,4.5-0.8,6.8l-89.5-0.2
	c-3.9-3.5-7.9-6.9-12.1-10.1c-7.1-6.8-16.6-11.3-16.6-11.3c-3.3-1.9-6.6-3.7-10-5.1V260.6h66c43.8,6,100,81.2,100.6,82
	c1,1.3,2.5,2,4,2h62.5c0.8,0.1,1.6,0.3,2.4,0.5c-2.1,4.3-3.1,9-3.1,13.9c0,17.8,14.5,32.3,32.3,32.3c2.2,0,4.5-0.2,6.6-0.7
	L705.1,438L705.1,438z"/>
</svg>
