<?xml version="1.0" encoding="utf-8"?>
<!-- Generator: Adobe Illustrator 27.3.1, SVG Export Plug-In . SVG Version: 6.00 Build 0)  -->
<svg version="1.1" id="Layer_1" xmlns="http://www.w3.org/2000/svg" xmlns:xlink="http://www.w3.org/1999/xlink" x="0px" y="0px"
	 viewBox="0 0 720 720" style="enable-background:new 0 0 720 720;" xml:space="preserve">
<style type="text/css">
	.st0{fill:#FFFFFF;stroke:#FFFFFF;stroke-width:5;stroke-linecap:round;stroke-linejoin:round;}
</style>
<polygon class="st0" points="223.9,428 150.2,540.8 202.8,540.8 255.4,428 "/>
<polygon class="st0" points="172.6,428 77.4,540.8 130,540.8 204.2,428 "/>
<polygon class="st0" points="121.3,428 5.1,540.8 57.7,540.8 152.9,428 "/>
<path class="st0" d="M108,235.3c8.3-4.9,28.4-5.7,72.9-5.7s64.8,0.9,73.3,6c3.3,2.9,11.9,15.1,23.6,36c-30.8,4.6-63.4,7-97,7
	s-66.1-2.3-96.7-6.9C94.5,253.2,104,238.8,108,235.3L108,235.3z"/>
<path class="st0" d="M226.1,355.9h-90.2c-4.4,0-8.2,1.7-10.3,4.7c-1.9,2.6-2.4,6.1-1.3,9.4c2.3,7.1,12,11.4,25.7,11.4h62
	c14,0,23.3-4.1,25.7-11.4c0,0,0,0,0,0c1.1-3.3,0.6-6.8-1.3-9.4C234.2,357.6,230.4,355.9,226.1,355.9z"/>
<path class="st0" d="M82.5,353c-9.3,0-16.9-7.6-16.9-16.9c0-20.5,7.2-20.5,9.6-20.5c9.3,0,24.2,11.2,24.2,20.5S91.8,353,82.5,353
	L82.5,353z"/>
<path class="st0" d="M279.4,353c-9.3,0-16.9-7.6-16.9-16.9s14.9-20.5,24.2-20.5c2.4,0,9.5,0,9.5,20.5
	C296.3,345.4,288.7,353,279.4,353L279.4,353z"/>
<path class="st0" d="M714.9,540.8l-40.2-39c0.4,0,0.8,0,1.2,0c19.5,0,35.4-15.9,35.4-35.4S695.5,431,675.9,431
	c-6.8,0-13.2,1.9-18.6,5.3l-32-32h30.3c12.8,0,25.2-5.5,33.8-15c9.3-10.2,12.8-24.1,14.5-33.7c1.9-10.4,3.3-25.6-0.9-39.7
	c-0.7-2.3-1.5-4.5-2.5-6.6c-3.8-8.3-9.3-16.2-17.9-25.6c-5.8-6.3-12.8-13.4-21.8-16.4c-10.2-3.4-21.2-4.7-31.8-5.9
	c-4.1-0.5-8-0.9-11.8-1.5l-4.8-0.7c-2.5-0.3-5,0.4-6.8,2.1c-1.9,1.7-2.9,4.1-2.7,6.7l2.8,52.7l-54.6,7.7l-30.3-28.6
	c-1-1-2.5-1.6-4-1.6h-8.9c-1-4.4-3.1-6.8-3.7-7.4c-4.2-5.6-10.6-8.8-17.5-8.8l-28.6,0c-6.1-24.8-10.8-43.8-10.9-44.5
	c-2.8-11.4-10.9-20.3-21.3-24.4c15-5.9,25.6-20.5,25.6-37.6c0-22.3-18.1-40.4-40.4-40.4c-12.5,0-24,5.6-31.6,15.3
	c-7.4-5-22.5-10.8-41.1,6.2l-0.8,0.9c-2.5,2.6-3.2,3.4-3.5,3.9c-2.3,2.6-4.8,2.7-4.8,2.7l-6.2-0.6l2.1,6.1c0.1,0.4,3.5,10,14,13.5
	c15.2,5.1,24.8-4.9,31.8-12.2c-0.2,1.6-0.3,3.2-0.3,4.8c0,17.8,11.5,32.9,27.5,38.3c-11,4.7-19.8,14.2-22.3,25.4
	c-0.5,2.3-26.6,105.6-40.3,159.9c-0.2,0.7-0.2,1.4-0.2,2c0,2.7,1,5.2,2.9,7.1c1.6,1.6,3.7,2.6,5.9,2.8c0.1,0,0.2,0,0.3,0
	c1,0,4,0,18.1,0h0.2c0.1,0,0.2,0,0.3,0h4.3l-19.2,53.3V428h-24.8c1-2.5,1.6-5.2,1.6-8v-45.3c3.7-19,6-43.6,3-55.9
	c-2-7.9-7.7-20.6-12.3-30c-0.2-1.1-0.2-2,0.1-2.4c0.4-0.5,1.6-1,3.6-1l0,0c0.3,0,0.7,0.1,1.1,0.1h10.7c5.9,0,11.1-4.6,12-10.4
	c0.2-1.1,1.4-11.3-4.1-17.6c-2.6-3-6.3-4.6-10.7-4.6h-24.8c-2.2,0-4.3,0.6-6.1,1.7c-8.5-14.8-21.6-35.8-29.5-40.7
	c-14.7-9.1-35.5-9.9-87-9.9s-72.3,0.9-87,9.9c-7.9,4.9-21,25.8-29.5,40.6c-1.8-1.1-3.9-1.7-6.1-1.7H33.5c-4.4,0-8.1,1.6-10.7,4.6
	c-5.5,6.3-4.2,16.4-4.1,17.6c0.8,5.9,6.1,10.4,12,10.4h10.7c0.4,0,0.8,0,1.1-0.1c2,0,3.2,0.5,3.6,1c0.3,0.4,0.3,1.3,0.1,2.4
	c-4.6,9.5-10.4,22.2-12.3,30c-3.1,12.3-0.7,36.9,3,55.9V420c0,11.6,9.4,21,21,21h14.1c11.6,0,21-9.4,21-21v-9.4h175.6v9.4
	c0,4.7,1.6,9.1,4.2,12.6l-50.5,108.2h52.6L303,441h0.9c7.9,0,14.7-4.3,18.3-10.7l-25.8,110.5h51.7v-42.3c2.8,3.5,6.5,6.2,10.8,7.7
	c2.7,0.9,5.4,1.4,8,1.4c0.8,0,1.6-0.1,2.5-0.1v33.3h53.6l-20.4-87.5l11.5-34.2l3.2,8.9h-4.5l31.6,112.8h52.6l-16.7-35.7
	c6.3-4.6,10.3-11.9,10.9-19.7l25.9,55.4h52.6l-27-41.3c3.9,1.5,8.1,2.3,12.5,2.3c2.8,0,5.6-0.4,8.3-1l26.3,40h52.6l-53.5-63.4
	c1.1-3.5,1.7-7.1,1.7-11c0-4.7-0.9-9.3-2.6-13.4l74.1,87.8L714.9,540.8L714.9,540.8z M316.2,373.4c0,0.3-0.1,0.6-0.1,0.9V420
	c0,6.2-4.6,11.3-10.6,12.1l0.1-0.3c-0.5,0.1-1.1,0.1-1.7,0.1h-14.1c-3.5,0-6.7-1.5-8.9-3.9h-0.4c-1.9-2.1-3-5-3-8v-13.8
	c0-2.4-2-4.4-4.4-4.4H88.7c-2.4,0-4.4,2-4.4,4.4V420c0,6.7-5.5,12.2-12.2,12.2H58c-6.7,0-12.2-5.5-12.2-12.2v-45.8
	c0-0.3,0-0.6-0.1-0.9c-4.2-21.5-5.5-43-3.1-52.5c1.4-5.6,5.6-15.8,11.9-28.7c0.1-0.3,0.2-0.5,0.3-0.8c1.3-5.2-0.1-8.5-1.6-10.4
	c-2.1-2.7-5.7-4.2-10-4.4c-0.3,0-0.5,0-0.8,0c-0.2,0-0.4,0-0.7,0.1c-0.1,0-0.2,0-0.1,0H30.8c-1.5,0-3-1.4-3.2-2.8
	c-0.3-2.3-0.3-8,2-10.6c0.6-0.7,1.6-1.5,4-1.5h24.8c1.3,0,2.3,0.9,2.7,1.8c0.5,1.5,1.8,2.5,3.3,2.8c1.5,0.3,3.1-0.2,4.1-1.3l0.2-0.2
	c0.3-0.3,0.6-0.7,0.9-1.1c15.5-27.4,25.4-39.9,29.2-42.2c12.1-7.5,29.3-8.6,82.3-8.6s70.3,1.1,82.4,8.6c3.8,2.3,13.7,14.8,29.2,42.2
	c0.2,0.4,0.5,0.8,0.9,1.1c0.1,0.1,0.1,0.1,0.2,0.2c1,1.1,2.6,1.6,4.1,1.3c1.5-0.3,2.8-1.4,3.3-2.9c0.3-0.9,1.3-1.8,2.7-1.8h24.8
	c2.4,0,3.4,0.9,4,1.5c2.4,2.8,2.2,8.7,2,10.6c-0.2,1.5-1.8,2.9-3.2,2.9h-10.6l-0.2,0c-0.2,0-0.5-0.1-0.7-0.1c-0.3,0-0.5,0-0.8,0
	c-4.4,0.1-7.9,1.6-10,4.3c-1.5,1.9-2.9,5.2-1.6,10.3c0.1,0.3,0.2,0.6,0.3,0.9c6.3,12.8,10.5,23,11.9,28.7
	C321.8,330.3,320.5,351.9,316.2,373.4L316.2,373.4z M675.9,441.5c13.8,0,25,11.2,25,25s-11.2,25-25,25s-25-11.2-25-25
	S662.1,441.5,675.9,441.5z M549.5,338.1C549.5,338.1,549.5,338.1,549.5,338.1C549.5,338.1,549.6,338.1,549.5,338.1l60.5-8.5
	c1.3,0.2,2.7-0.2,3.7-1.2c1-0.9,1.6-2.3,1.5-3.7l-3-56l3.6,0.5c4,0.6,8.1,1,12.1,1.5c10.2,1.1,20.7,2.3,29.9,5.5
	c7,2.4,12.9,8.4,17.9,13.9c7.9,8.6,12.9,15.8,16.2,23.1c0.8,1.7,1.5,3.5,2,5.5c3.7,12.3,2.4,26,0.7,35.3
	c-2.5,13.6-6.2,22.5-12.2,29.1c-6.9,7.6-16.7,11.9-26.9,11.9H616l-0.5-0.5h-15.8l0.5,0.5h-15.4c-2.7,0-5.5,0.1-8.2,0.1
	c-8.7,0.2-17.8,0.5-25.8-1.8c-16-4.4-23.4-19-28.5-32.7c-1.3-3.5-1.6-6.2-1.1-8.4c0.5-1.9,1.9-3.9,4.2-6.1
	c6.1-5.8,13.6-6.8,22.3-7.8L549.5,338.1L549.5,338.1z M365,165c-6.7,7-13,13.6-23.2,10.1c-3-1-5-2.8-6.4-4.4c1.6-0.8,3.4-2.1,5.1-4
	l0.2-0.2c0.5-0.5,2.4-2.6,3.1-3.3c0.2-0.2,0.4-0.4,0.5-0.5c13.5-12.2,23.8-9.9,30-5.9C370.9,158.9,368,161.9,365,165L365,165z
	 M379,175.6c0-5.1,1.2-10.1,3.6-14.7l0.5-1.1l0.8-1.2c5.9-9.5,16.1-15.1,27.2-15.1c17.7,0,32.1,14.4,32.1,32.1s-14.4,32.1-32.1,32.1
	S379,193.3,379,175.6L379,175.6z M398.6,436.1l-0.3-1.4l-18.2,54c-1.6,4.7-5.4,8-9.9,9.2c-2.6,0.6-5.5,0.5-8.2-0.5
	c-3.7-1.3-6.7-4-8.4-7.6c-1.7-3.6-1.9-7.6-0.6-11.3l24.2-67.3H407L398.6,436.1L398.6,436.1z M476.5,496.9l-0.2-0.4
	c-1.6,1.6-3.5,2.9-5.7,3.7c-0.4,0.1-0.8,0.3-1.2,0.4c-3.9,1-8,0.6-11.7-1.1c-4.4-2-7.7-5.6-9.3-10.2L418,403.6
	c-0.3-0.7-0.9-1.2-1.7-1.2h-53.1c0,0-0.1,0-0.1,0c-7.9,0-16.9,0-18,0c-0.2,0-0.5-0.1-0.6-0.3c-0.4-0.4-0.4-0.8-0.3-1
	c0,0,0-0.1,0-0.1c2.6-10.1,39.9-158.1,40.3-159.8c2.6-11.9,15.5-21.6,28.6-21.6h0c12.2,0,22.7,8.2,25.5,20.1
	c0.2,0.7,4.6,18.9,10.5,42.9l-4.5-0.4l-5.5-20.4c-0.2-0.9-1.1-1.4-1.9-1.3c-1.5,0.1-3.6,0.4-5.3,0.7c-0.5,0.1-0.9,0.4-1.2,0.8
	s-0.3,1-0.2,1.4l7.1,26.2c0.2,0.8,0.9,1.3,1.8,1.3l0,0l47.5,0h0c3.5,0,6.8,1.4,9.2,3.8c0.1,0.1,0.2,0.2,0.4,0.4l0,0
	c0.6,0.6,1.2,1.4,1.6,2.2c0.2,0.3,0.4,0.7,0.5,1c1.3,3.1,1.1,6.5,0.6,8.8c-0.1,0.3-0.1,0.6-0.2,0.9c-0.2,0.9-0.4,1.6-0.6,2
	c0,0.1-0.1,0.3-0.1,0.4l-0.1,0.2c-2.4,4.1-6.7,6.7-11.4,6.7l-58.5,0c-0.1,0-0.3-0.1-0.5-0.1h-0.1c-5.9,0-11.1-4-12.7-9.7
	c0,0,0,0,0,0l-11.3-42c-0.2-0.9-1.1-1.4-2-1.3l-4.5,0.5c-0.5,0.1-1,0.4-1.3,0.8c-0.3,0.4-0.4,1-0.2,1.5l11.5,42.7
	c2.5,9.3,10.9,15.7,20.5,15.7h32l18.7,75.9c0,0.2-0.1,0.6-0.4,0.8c-0.1,0.1-0.3,0.2-0.5,0.3c-0.7,0-3.7,0-9.4,0c-0.1,0-0.2,0-0.3,0
	h-10c-0.6,0-1.1,0.3-1.5,0.8c-0.3,0.5-0.4,1.1-0.2,1.6l25.5,72C484.1,484.1,481.9,492.1,476.5,496.9L476.5,496.9z M579.5,466.7
	c0,11.5-7.7,21.1-18.2,24c-1.9,0.5-3.8,0.7-5.8,0.7c-13.8,0-25-11.2-25-25c0-11.2,7.4-20.7,17.5-23.8c2.1-0.6,4.3-0.9,6.5-0.9
	c1.7,0,3.3,0.2,4.9,0.5l-0.4-0.5c12.1,1.7,21.4,12.1,21.4,24.7c0,0.2,0,0.4,0,0.6l-0.9-1.1C579.4,466.2,579.5,466.5,579.5,466.7
	L579.5,466.7z M573.7,436.1c-5.3-3.2-11.6-5.1-18.3-5.1c-1.8,0-3.5,0.1-5.2,0.4l-2.8-3.4h-31.6l11.3,17.1c-4.1,5.5-6.7,12.2-7,19.5
	l-23.9-36.6h-22.5l-6-16.9h0.5c0.2,0,0.4,0,0.6,0c7.7,0,9.2,0,9.9-0.1c0.1,0,0.1,0,0.2,0c2-0.4,3.9-1.3,5.4-2.8c2-2,3-4.8,2.9-7.6
	c0-0.5-0.1-0.9-0.2-1.4l-18-73.3h17.8c7.9,0,15.2-4.4,19.1-11.3c0.3-0.6,0.6-1.2,0.7-1.9c0-0.1,0-0.1,0.1-0.2
	c0.4-1.1,0.7-2.2,0.9-3.2h6.9l21.3,21.3c-5.9,1.3-11.8,3.7-17,8.7c-3.6,3.4-5.8,6.9-6.8,10.5c-1.1,4.1-0.7,8.7,1.3,14.1
	c5.6,14.9,14.6,32.8,34.8,38.4c6.6,1.8,13.4,2.2,20.2,2.2c2.8,0,5.6-0.1,8.4-0.1c2.8-0.1,5.3-0.1,7.9-0.1h15.3L580.5,428h-13.4
	l6.8,8L573.7,436.1L573.7,436.1z M594.9,428l16.3-19.7l1.1-1.3l36.7,36.4c-5.3,6.2-8.4,14.2-8.4,22.9c0,0.8,0,1.5,0.1,2.3L598.7,428
	H594.9L594.9,428z"/>
</svg>
