<?xml version="1.0" encoding="utf-8"?>
<!-- Generator: Adobe Illustrator 27.3.1, SVG Export Plug-In . SVG Version: 6.00 Build 0)  -->
<svg version="1.1" id="Layer_1" xmlns="http://www.w3.org/2000/svg" xmlns:xlink="http://www.w3.org/1999/xlink" x="0px" y="0px"
	 viewBox="0 0 720 720" style="enable-background:new 0 0 720 720;" xml:space="preserve">
<style type="text/css">
	.st0{fill:#FFFFFF;}
</style>
<path class="st0" d="M99.6,275.4c-19.4,0-35.1-15.8-35.1-35.2s15.8-35.1,35.1-35.1s35.1,15.7,35.1,35.1S119,275.4,99.6,275.4z
	 M99.6,217.2c-12.7,0-23.1,10.3-23.1,23s10.3,23.1,23.1,23.1s23.1-10.4,23.1-23.1S112.4,217.2,99.6,217.2L99.6,217.2z"/>
<path class="st0" d="M99.6,205.7c19.1,0,34.6,15.5,34.6,34.6s-15.5,34.7-34.6,34.7S65,259.4,65,240.2S80.6,205.7,99.6,205.7
	 M99.6,263.8c13,0,23.6-10.6,23.6-23.6s-10.6-23.5-23.6-23.5s-23.6,10.6-23.6,23.5S86.6,263.8,99.6,263.8 M99.6,204.7
	c-19.6,0-35.6,16-35.6,35.6s16,35.7,35.6,35.7s35.6-16,35.6-35.7S119.3,204.7,99.6,204.7L99.6,204.7z M99.6,262.8
	c-12.4,0-22.6-10.1-22.6-22.6s10.1-22.5,22.6-22.5s22.6,10.1,22.6,22.5S112.1,262.8,99.6,262.8L99.6,262.8z"/>
<path class="st0" d="M562.8,542.5c-30.8,0-57.1-23-61.4-53.6H203.5c-4.3,30.6-30.6,53.6-61.4,53.6s-57.1-23-61.4-53.6H53.4
	c-25.7,0-46.6-20.9-46.6-46.6V224c0-25.7,20.9-46.6,46.6-46.6h546.5c0.2,0,0.4,0.1,0.5,0.3c26,3,51.9,34.7,79,96.8
	c20,45.7,33.4,92.6,33.6,93.1c0,0.1,0,0.2,0,0.4c0.2,0.6,0.4,1.3,0.4,2v72.3c0,25.7-20.9,46.6-46.6,46.6h-42.4
	C619.9,519.5,593.6,542.5,562.8,542.5L562.8,542.5z M666.6,471.6c16.2,0,29.3-13.1,29.3-29.3v-63.7h-32.4c-1,0-1.9-0.1-2.8-0.5
	l-150.8-50.9H24.1v115c0,16.2,13.1,29.3,29.3,29.3h27c4.3-30.6,30.7-53.7,61.7-53.7s57.5,23,61.7,53.7h297.3
	c4.3-30.6,30.7-53.7,61.7-53.7s57.4,23,61.7,53.7H666.6z M693,361.4c-3.2-10.5-6.8-21.4-10.7-32.3c-5.4,1.1-13.2,1.7-23.2,2
	l18.5,30.3H693L693,361.4z M664.4,361.2l-18.3-30c-38.7-0.4-38.7-5.9-38.7-8.9c0-2.7,1.1-5.7,13.8-7.5l-9.9-16.3
	c-0.1-0.1-0.2-0.3-0.4-0.4l-0.2-0.2c-1.3-1.6-3-2.4-5-2.4h-39c-0.2,0-0.4,0-0.7,0c-1.2,0-2.4,0.3-3.4,1l-4,2.6
	c-0.1,0.1-0.2,0.1-0.4,0.2L554,324L664.4,361.2L664.4,361.2z M637.2,322.2c4,0.2,8.3,0.3,12.8,0.3s8.8-0.1,12.8-0.3
	c-4-0.2-8.3-0.3-12.8-0.3S641.2,322.1,637.2,322.2z M541.6,319.8l8.9-30c0-0.1,0.1-0.1,0.1-0.2c0.7-0.8,1.6-1.4,2.6-1.6l3-1.9
	c2.7-1.7,5.9-2.7,9.1-2.8c0.2,0,0.5,0,0.8,0h39.8c5.5,0.1,10.6,2.6,14,6.7c0.5,0.6,1.1,1.3,1.6,2.1l13.1,21.6
	c4.6-0.2,9.8-0.3,15.4-0.3c11.2,0,20.3,0.4,27,1.2c-8.8-23.3-22.6-56.1-38.7-81.9c-15.6-25.1-29.8-37.8-42.1-37.8H520v117.8
	L541.6,319.8L541.6,319.8z M502.7,310.1V194.7H361v115.4h23.3l9.7-26c0-0.1,0.1-0.1,0.1-0.2c0.7-0.8,1.6-1.4,2.6-1.6l3-1.9
	c2.7-1.7,5.9-2.7,9.1-2.8c0.2,0,0.5,0,0.8,0h39.8c5.5,0.1,10.6,2.6,14,6.7c0.6,0.8,1.1,1.4,1.6,2.1l14.4,23.8H502.7L502.7,310.1z
	 M465.2,310.1l-10.6-17.4c-0.1-0.1-0.2-0.3-0.4-0.4l-0.2-0.2c-1.3-1.6-3-2.4-5-2.4h-39c-0.2,0-0.4,0-0.7,0c-1.2,0-2.4,0.3-3.4,1
	l-4,2.6c-0.1,0.1-0.2,0.1-0.3,0.2l-1.5,16.7L465.2,310.1L465.2,310.1z M343.7,310.1V194.7H183v115.4h41.7l9.7-26
	c0-0.1,0.1-0.1,0.1-0.2c0.7-0.8,1.6-1.4,2.6-1.6l3-1.9c2.7-1.7,5.9-2.7,9.1-2.8c0.2,0,0.5,0,0.8,0h39.7c5.5,0.1,10.6,2.6,14,6.7
	c0.6,0.8,1.1,1.4,1.6,2.1l14.4,23.8H343.7L343.7,310.1z M305.7,310.1l-10.6-17.4c-0.1-0.1-0.2-0.3-0.4-0.4l-0.2-0.2
	c-1.3-1.6-3-2.4-5-2.4h-39c-0.2,0-0.4,0-0.7,0c-1.2,0-2.4,0.3-3.4,1l-4.1,2.6c-0.1,0.1-0.2,0.1-0.3,0.2l-1.5,16.7L305.7,310.1
	L305.7,310.1z M165.8,310.1V194.7H53.4c-16.2,0-29.3,13.1-29.3,29.3v86h31.4l9.7-26c0-0.1,0.1-0.1,0.1-0.2c0.7-0.8,1.6-1.4,2.6-1.6
	l3-1.9c2.7-1.7,5.9-2.7,9.1-2.8c0.2,0,0.5,0,0.8,0h39.8c5.5,0.1,10.6,2.6,14,6.7c0.6,0.8,1.1,1.4,1.6,2.1l14.4,23.8L165.8,310.1
	L165.8,310.1z M136.4,310.1l-10.6-17.4c-0.1-0.1-0.2-0.3-0.4-0.4l-0.2-0.2c-1.3-1.6-3-2.4-5-2.4h-39c-0.2,0-0.4,0-0.7,0
	c-1.2,0-2.4,0.3-3.4,1l-4.1,2.6c-0.1,0.1-0.2,0.1-0.3,0.2l-1.5,16.7L136.4,310.1L136.4,310.1z"/>
<path class="st0" d="M599.8,178v0.3c25.9,2.7,51.8,34.3,79,96.6c20.1,46,33.4,92.5,33.5,93l-0.1,0c0.2,0.7,0.4,1.4,0.4,2.2v72.3
	c0,25.4-20.7,46.1-46.1,46.1h-42.9c-4,30.2-29.7,53.7-61,53.7s-57-23.5-61-53.6H203c-4,30.2-29.7,53.6-61,53.6s-56.9-23.5-61-53.6
	H53.4c-25.4,0-46.1-20.7-46.1-46.1V224C7.3,198.7,28,178,53.4,178L599.8,178 M542,320.5l9-30.5c0.7-0.7,1.5-1.3,2.5-1.5l3.1-2
	c2.7-1.7,5.7-2.6,8.8-2.7c0.2,0,0.5,0,0.8,0h39.8c5.4,0.1,10.3,2.5,13.7,6.5c0.6,0.7,1.1,1.3,1.5,2l13.3,21.8
	c4.4-0.2,9.6-0.3,15.7-0.3c12.7,0,21.6,0.5,27.8,1.3c-22.5-59.7-54.3-120.9-81.6-120.9h-76.7v118.6L542,320.5 M360.5,310.6h24.1
	l9.8-26.3c0.7-0.7,1.5-1.3,2.5-1.5l3.1-2c2.7-1.7,5.7-2.6,8.8-2.7c0.2,0,0.5,0,0.8,0h39.8c5.4,0.1,10.3,2.5,13.7,6.5
	c0.6,0.7,1.1,1.3,1.5,2l14.6,24h24.1V194.2H360.5L360.5,310.6 M182.5,310.6h42.6l9.8-26.3c0.7-0.7,1.5-1.3,2.5-1.5l3.1-2
	c2.7-1.7,5.7-2.6,8.8-2.7c0.2,0,0.5,0,0.8,0h39.7c5.4,0.1,10.3,2.5,13.7,6.5c0.6,0.7,1.1,1.3,1.5,2l14.6,24h24.6V194.2H182.5
	L182.5,310.6 M23.6,310.6h32.2l9.8-26.3c0.7-0.7,1.5-1.3,2.5-1.5l3.1-2c2.7-1.7,5.7-2.6,8.8-2.7c0.2,0,0.5,0,0.8,0h39.8
	c5.4,0.1,10.3,2.5,13.7,6.5c0.6,0.7,1.1,1.3,1.6,2l14.6,24h16.1V194.2H53.4c-16.4,0-29.8,13.4-29.8,29.8L23.6,310.6 M399.6,310.6
	h66.5l-11-18.1c-0.1-0.2-0.4-0.5-0.6-0.7c-1.4-1.7-3.3-2.6-5.3-2.6h-39c-0.2,0-0.4,0-0.6,0c-1.3,0-2.6,0.4-3.7,1l-4,2.6
	c-0.2,0.1-0.3,0.2-0.5,0.3c0,0,0,0,0,0L399.6,310.6 M240.1,310.6h66.5l-11-18.1c-0.1-0.2-0.4-0.5-0.6-0.7c-1.4-1.7-3.3-2.6-5.3-2.6
	h-39c-0.2,0-0.4,0-0.6,0c-1.3,0-2.6,0.4-3.7,1l-4.1,2.6c-0.2,0.1-0.3,0.2-0.5,0.3c0,0,0,0-0.1,0L240.1,310.6 M70.8,310.6h66.5
	l-11-18.1c-0.1-0.2-0.4-0.5-0.6-0.7c-1.4-1.7-3.3-2.6-5.3-2.6h-39c-0.2,0-0.4,0-0.6,0c-1.3,0-2.6,0.4-3.7,1l-4.1,2.6
	c-0.2,0.1-0.3,0.2-0.5,0.3c0,0,0,0-0.1,0L70.8,310.6 M664.8,361.9h0.5l-19-31.2c-38.4-0.3-38.4-5.8-38.4-8.4c0-1.9,0-5.2,14.1-7.1
	l-10.3-17c-0.1-0.2-0.4-0.5-0.6-0.7c-1.4-1.7-3.3-2.6-5.3-2.6h-39c-0.2,0-0.4,0-0.6,0c-1.3,0-2.6,0.4-3.7,1l-4,2.6
	c-0.2,0.1-0.3,0.2-0.5,0.3c0,0,0,0,0,0l-4.4,25.5L664.8,361.9 M650,323c8.4,0,15.4-0.3,20.9-0.8c-5.5-0.5-12.5-0.8-20.9-0.8
	s-15.4,0.3-20.9,0.8C634.6,322.7,641.6,323,650,323 M53.4,472.1h27.4c4-30.3,29.9-53.7,61.2-53.7s57.3,23.4,61.3,53.7h298.2
	c4-30.3,30-53.7,61.3-53.7s57.3,23.4,61.2,53.7h42.6c16.4,0,29.8-13.4,29.8-29.8v-64.2h-32.9c-0.9,0-1.8-0.1-2.6-0.4L510,326.8H23.6
	v115.5C23.6,458.8,36.9,472.1,53.4,472.1 M677.3,361.9h16.3c-3.2-10.6-6.9-21.8-11-33.4c-5,1-12.7,1.8-24.4,2L677.3,361.9
	 M599.8,177H53.4c-26,0-47.1,21.1-47.1,47.1v218.3c0,26,21.1,47.1,47.1,47.1h26.8c2.2,14.6,9.4,28,20.5,37.9
	c11.4,10.2,26.1,15.8,41.4,15.8s30-5.6,41.4-15.8c11.1-9.8,18.3-23.3,20.5-37.9h297c2.2,14.6,9.4,28.1,20.5,37.9
	c11.4,10.2,26.1,15.8,41.4,15.8s30-5.6,41.4-15.8c11.1-9.8,18.3-23.3,20.5-37.9h42c26,0,47.1-21.1,47.1-47.1V370
	c0-0.7-0.2-1.4-0.3-2c0-0.2,0-0.3,0-0.5c-0.1-0.5-13.6-47.4-33.6-93.1c-27.1-62.1-53-93.9-79.2-97.1
	C600.4,177.1,600.1,177,599.8,177L599.8,177L599.8,177z M520.5,195.2h75.7c12.1,0,26.2,12.6,41.7,37.6
	c15.9,25.5,29.5,57.9,38.3,81.1c-6.7-0.8-15.5-1.1-26.3-1.1c-5.5,0-10.6,0.1-15.1,0.3l-13-21.3c-0.5-0.8-1.1-1.5-1.6-2.1
	c-3.5-4.3-8.8-6.8-14.4-6.9h-39.8c-0.3,0-0.6,0-0.8,0c-3.3,0.1-6.5,1.1-9.3,2.9l-3,1.9c-1,0.3-2,0.9-2.8,1.8
	c-0.1,0.1-0.2,0.2-0.2,0.4l-8.7,29.5l-20.8-7L520.5,195.2L520.5,195.2L520.5,195.2z M361.5,195.2h140.7v114.4h-22.6l-14.3-23.5
	c-0.5-0.8-1.1-1.5-1.6-2.1c-3.5-4.3-8.8-6.8-14.4-6.9h-39.8c-0.3,0-0.6,0-0.8,0c-3.3,0.1-6.5,1.1-9.3,2.9l-3,1.9
	c-1,0.3-2,0.9-2.8,1.8c-0.1,0.1-0.2,0.2-0.2,0.3l-9.5,25.6h-22.5L361.5,195.2L361.5,195.2L361.5,195.2z M183.6,195.2h159.6v114.4
	h-23.1l-14.3-23.5c-0.5-0.8-1.1-1.5-1.6-2.1c-3.5-4.3-8.8-6.8-14.4-6.9H250c-0.3,0-0.6,0-0.8,0c-3.3,0.1-6.5,1.1-9.3,2.9l-2.9,1.9
	c-1,0.3-2,0.9-2.8,1.8c-0.1,0.1-0.2,0.2-0.2,0.3l-9.6,25.6h-40.8L183.6,195.2L183.6,195.2L183.6,195.2z M24.6,309.6V224
	c0-15.9,12.9-28.8,28.8-28.8h111.9v114.3h-14.5l-14.3-23.5c-0.5-0.7-1-1.4-1.6-2.1c-3.6-4.3-8.8-6.8-14.4-6.9H80.7
	c-0.3,0-0.6,0-0.8,0c-3.3,0.1-6.5,1.1-9.3,2.9l-2.9,1.9c-1,0.3-2,0.9-2.8,1.8c-0.1,0.1-0.2,0.2-0.2,0.3l-9.5,25.6L24.6,309.6
	L24.6,309.6z M410.2,290.1h39c1.8,0,3.4,0.8,4.6,2.3l0.2,0.2c0.1,0.1,0.3,0.3,0.3,0.4l10.1,16.6h-63.6l1.5-15.9c0,0,0.1-0.1,0.1-0.1
	l4-2.6c0.9-0.6,2-0.9,3.1-0.9C409.8,290.1,410,290.1,410.2,290.1L410.2,290.1L410.2,290.1z M250.7,290.1h38.9c1.8,0,3.4,0.8,4.6,2.3
	l0.2,0.2c0.1,0.1,0.3,0.3,0.3,0.4l10.1,16.6h-63.6l1.4-15.9c0,0,0.1-0.1,0.1-0.1l4-2.6c0.9-0.6,2-0.9,3.1-0.9
	C250.3,290.1,250.5,290.1,250.7,290.1L250.7,290.1L250.7,290.1z M81.4,290.1h38.9c1.8,0,3.4,0.8,4.6,2.3l0.2,0.2
	c0.1,0.1,0.3,0.3,0.3,0.4l10.1,16.6H71.9l1.4-15.9c0,0,0.1-0.1,0.1-0.1l4-2.6c0.9-0.6,2-0.9,3.1-0.9
	C80.9,290.1,81.1,290.1,81.4,290.1L81.4,290.1L81.4,290.1z M566.8,295.8h39c1.8,0,3.4,0.8,4.6,2.3l0.2,0.2c0.1,0.1,0.3,0.3,0.3,0.4
	l9.5,15.6c-12.4,1.9-13.5,5-13.5,7.9c0,4.4,3,9.1,38.9,9.4l17.5,28.6l-108.7-36.6l4.2-24.2c0.1,0,0.1-0.1,0.2-0.1l4-2.6
	c0.9-0.6,2-0.9,3.1-0.9C566.3,295.8,566.6,295.8,566.8,295.8L566.8,295.8L566.8,295.8z M24.6,327.8h485.3l150.7,50.8
	c0.9,0.3,1.9,0.5,2.9,0.5h31.9v63.2c0,15.9-12.9,28.8-28.8,28.8h-41.7c-4.5-30.7-31-53.7-62.1-53.7s-57.7,23-62.2,53.7H204.2
	c-4.5-30.7-31.1-53.7-62.2-53.7s-57.6,23-62.1,53.7H53.4c-15.9,0-28.8-12.9-28.8-28.8L24.6,327.8C24.6,327.8,24.6,327.8,24.6,327.8z
	 M660,331.5c9.4-0.2,16.8-0.9,22-1.9c3.7,10.5,7.2,21,10.3,31.2h-14.4L660,331.5L660,331.5z"/>
<path class="st0" d="M269,275.4c-19.4,0-35.1-15.8-35.1-35.2s15.8-35.1,35.1-35.1s35.1,15.7,35.1,35.1S288.3,275.4,269,275.4z
	 M269,217.2c-12.7,0-23.1,10.3-23.1,23s10.3,23.1,23.1,23.1s23-10.4,23-23.1S281.7,217.2,269,217.2L269,217.2z"/>
<path class="st0" d="M269,205.7c19.1,0,34.6,15.5,34.6,34.6s-15.5,34.7-34.6,34.7s-34.6-15.5-34.6-34.7S249.9,205.7,269,205.7
	 M269,263.8c13,0,23.5-10.6,23.5-23.6S282,216.8,269,216.8s-23.6,10.6-23.6,23.5S256,263.8,269,263.8 M269,204.7
	c-19.6,0-35.6,16-35.6,35.6s16,35.7,35.6,35.7s35.6-16,35.6-35.7S288.6,204.7,269,204.7L269,204.7z M269,262.8
	c-12.4,0-22.6-10.1-22.6-22.6s10.1-22.5,22.6-22.5s22.5,10.1,22.5,22.5S281.4,262.8,269,262.8L269,262.8z"/>
<path class="st0" d="M428.5,275.4c-19.4,0-35.1-15.8-35.1-35.2s15.8-35.1,35.1-35.1s35.1,15.7,35.1,35.1S447.8,275.4,428.5,275.4z
	 M428.5,217.2c-12.7,0-23,10.3-23,23s10.3,23.1,23,23.1s23-10.4,23-23.1S441.2,217.2,428.5,217.2L428.5,217.2z"/>
<path class="st0" d="M428.5,205.7c19.1,0,34.6,15.5,34.6,34.6s-15.5,34.7-34.6,34.7s-34.6-15.5-34.6-34.7S409.4,205.7,428.5,205.7
	 M428.5,263.8c13,0,23.5-10.6,23.5-23.6s-10.6-23.5-23.5-23.5s-23.5,10.6-23.5,23.5S415.5,263.8,428.5,263.8 M428.5,204.7
	c-19.6,0-35.6,16-35.6,35.6s16,35.7,35.6,35.7s35.6-16,35.6-35.7S448.1,204.7,428.5,204.7L428.5,204.7z M428.5,262.8
	c-12.4,0-22.5-10.1-22.5-22.6s10.1-22.5,22.5-22.5s22.5,10.1,22.5,22.5S440.9,262.8,428.5,262.8L428.5,262.8z"/>
<path class="st0" d="M585.1,281.1c-19.4,0-35.1-15.8-35.1-35.2s15.8-35.1,35.1-35.1s35.1,15.7,35.1,35.1S604.4,281.1,585.1,281.1z
	 M585.1,222.9c-12.7,0-23,10.3-23,23s10.3,23.1,23,23.1s23-10.4,23-23.1S597.8,222.9,585.1,222.9L585.1,222.9z"/>
<path class="st0" d="M585.1,211.4c19.1,0,34.6,15.5,34.6,34.6s-15.5,34.7-34.6,34.7s-34.6-15.5-34.6-34.7S566,211.4,585.1,211.4
	 M585.1,269.5c13,0,23.5-10.6,23.5-23.6s-10.6-23.5-23.5-23.5S561.5,233,561.5,246C561.5,258.9,572.1,269.5,585.1,269.5
	 M585.1,210.4c-19.6,0-35.6,16-35.6,35.6s16,35.7,35.6,35.7s35.6-16,35.6-35.7S604.7,210.4,585.1,210.4L585.1,210.4z M585.1,268.5
	c-12.4,0-22.5-10.1-22.5-22.6s10.1-22.5,22.5-22.5s22.5,10.1,22.5,22.5S597.5,268.5,585.1,268.5L585.1,268.5z"/>
</svg>
