<?xml version="1.0" encoding="utf-8"?>
<!-- Generator: Adobe Illustrator 27.3.1, SVG Export Plug-In . SVG Version: 6.00 Build 0)  -->
<svg version="1.1" id="Layer_1" xmlns="http://www.w3.org/2000/svg" xmlns:xlink="http://www.w3.org/1999/xlink" x="0px" y="0px"
	 viewBox="0 0 720 720" style="enable-background:new 0 0 720 720;" xml:space="preserve">
<style type="text/css">
	.st0{fill:#FFFFFF;stroke:#FFFFFF;stroke-linecap:round;stroke-linejoin:round;}
	.st1{fill:#FFFFFF;}
</style>
<path class="st0" d="M31,241.8c-9.7,12.8-15.5,28.7-15.5,46V486c0,1,0.2,1.9,0.6,2.7c1.1,2.9,3.9,5,7.2,5h125.1
	c8.9,17.9,27.3,29.6,47.5,29.6s38.6-11.8,47.5-29.6h123.2c-12.6,10.8-33.1,14.1-65.9,14.1c69.2,0,84,14.8,84,84
	c0-69.2,14.8-84,84-84c-32.7,0-53.3-3.3-65.9-14.1h144.4c8.9,17.9,27.3,29.6,47.5,29.6s38.6-11.8,47.5-29.6h63
	c4.3,0,7.8-3.5,7.8-7.8V287.9c0-2.8-0.1-5.3-0.4-7.8c0,0,0,0,0,0s0,0,0,0s0,0,0,0l0,0c-3.7-36.5-32.2-64.4-67.9-68.4v-23.2
	c0-4.3-3.5-7.8-7.8-7.8h-67.2c-4.3,0-7.8,3.5-7.8,7.8v7.5c-95.3-2.8-116.5-29.8-116.5-134.2c0,110.8-23.7,134.5-134.5,134.5
	c43.2,0,73,3.7,93.5,14.7H167.6v-22.4c0-4.3-3.5-7.8-7.8-7.8H92.7c-4.3,0-7.8,3.5-7.8,7.8v23.2C63,213.8,43.7,225.1,31,241.8
	 M577.7,196.1c0.8,0,1.6,0,2.4,0h49.2v14.7h-51.7L577.7,196.1L577.7,196.1z M562.2,196.4v14.4h-75.4
	C504.2,201.4,528.6,197.3,562.2,196.4z M100.4,196.1h51.7v14.7h-51.7C100.4,210.8,100.4,196.1,100.4,196.1z M64,478.3H31v-32.3H64
	L64,478.3L64,478.3z M152.1,438.2v40.1H79.5V292.4c0-2,1.8-3.8,3.8-3.8h65c2.1,0,3.8,1.7,3.8,3.8V438.2z M196,507.9
	c-11.5,0-22.2-5.4-29.3-14.1h58.6C218.2,502.5,207.5,507.9,196,507.9z M167.6,478.3v-32.3h216.5c-0.9,13.3-2.9,23.9-6.5,32.3H167.6
	L167.6,478.3z M462.8,478.3h-70.9c-3.6-8.4-5.5-19-6.5-32.3h77.4V478.3z M551,438.2v40.1h-72.7V292.4c0-2.1,1.7-3.8,3.8-3.8h65
	c2.1,0,3.8,1.7,3.8,3.8L551,438.2L551,438.2z M594.8,507.9c-11.5,0-22.2-5.4-29.3-14.1h58.6C617.1,502.5,606.4,507.9,594.8,507.9
	L594.8,507.9z M697.6,478.3H566.5v-32.3h131.1V478.3z M697.6,430.4H566.5V292.4c0-10.6-8.7-19.3-19.3-19.3h-65
	c-10.6,0-19.3,8.6-19.3,19.3v138.1h-78c0-2.1,0-4.3,0-6.5c0,2.2,0,4.4,0,6.5H167.6V292.4c0-10.6-8.7-19.3-19.3-19.3h-65
	c-10.7,0-19.3,8.6-19.3,19.3v138.1H31V287.9c0-34,27.6-61.6,61.6-61.6h331.1c16.7,20.2,22,52.8,22,104.3c0-51.6,5.3-84.1,22-104.3
	H636c28.8,0,53.2,19.6,59.8,46.8h-80.8c-10.7,0-19.3,8.6-19.3,19.3v65c0,10.7,8.7,19.3,19.3,19.3h82.5L697.6,430.4L697.6,430.4z
	 M697.6,361.2h-82.5c-2.1,0-3.8-1.7-3.8-3.8v-65c0-2.1,1.7-3.8,3.8-3.8h82.5V361.2z"/>
<path class="st1" d="M198.9,365.9c-10.9,0-19.8-8.9-19.8-19.8v-65c0-10.9,8.9-19.8,19.8-19.8h65c10.9,0,19.8,8.9,19.8,19.8v65
	c0,10.9-8.9,19.8-19.8,19.8H198.9z M198.9,277.7c-1.8,0-3.3,1.5-3.3,3.3v65c0,1.8,1.5,3.3,3.3,3.3h65c1.9,0,3.3-1.5,3.3-3.3v-65
	c0-1.8-1.5-3.3-3.3-3.3H198.9z"/>
<path class="st1" d="M263.9,261.7c10.6,0,19.3,8.6,19.3,19.3v65c0,10.7-8.7,19.3-19.3,19.3h-65c-10.6,0-19.3-8.7-19.3-19.3v-65
	c0-10.6,8.7-19.3,19.3-19.3H263.9 M198.9,349.8h65c2.1,0,3.8-1.7,3.8-3.8v-65c0-2.1-1.7-3.8-3.8-3.8h-65c-2.1,0-3.8,1.7-3.8,3.8v65
	C195,348.1,196.8,349.8,198.9,349.8 M263.9,260.7h-65c-11.2,0-20.3,9.1-20.3,20.3v65c0,11.2,9.1,20.3,20.3,20.3h65
	c11.2,0,20.3-9.1,20.3-20.3v-65C284.2,269.8,275.1,260.7,263.9,260.7L263.9,260.7z M198.9,348.8c-1.6,0-2.8-1.3-2.8-2.8v-65
	c0-1.5,1.3-2.8,2.8-2.8h65c1.6,0,2.8,1.2,2.8,2.8v65c0,1.6-1.2,2.8-2.8,2.8H198.9z"/>
<path class="st1" d="M331.8,365.9c-10.9,0-19.8-8.9-19.8-19.8v-65c0-10.9,8.9-19.8,19.8-19.8h65c10.9,0,19.8,8.9,19.8,19.8v65
	c0,10.9-8.9,19.8-19.8,19.8H331.8z M331.8,277.7c-1.8,0-3.3,1.5-3.3,3.3v65c0,1.9,1.5,3.3,3.3,3.3h65c1.8,0,3.3-1.5,3.3-3.3v-65
	c0-1.8-1.5-3.3-3.3-3.3H331.8z"/>
<path class="st1" d="M396.9,261.7c10.6,0,19.3,8.6,19.3,19.3v65c0,10.7-8.7,19.3-19.3,19.3h-65c-10.6,0-19.3-8.7-19.3-19.3v-65
	c0-10.6,8.7-19.3,19.3-19.3H396.9 M331.8,349.8h65c2.1,0,3.8-1.7,3.8-3.8v-65c0-2.1-1.7-3.8-3.8-3.8h-65c-2.1,0-3.8,1.7-3.8,3.8v65
	C328,348.2,329.7,349.8,331.8,349.8 M396.9,260.7h-65c-11.2,0-20.3,9.1-20.3,20.3v65c0,11.2,9.1,20.3,20.3,20.3h65
	c11.2,0,20.3-9.1,20.3-20.3v-65C417.2,269.8,408.1,260.7,396.9,260.7L396.9,260.7z M331.8,348.8c-1.6,0-2.8-1.2-2.8-2.8v-65
	c0-1.5,1.3-2.8,2.8-2.8h65c1.5,0,2.8,1.2,2.8,2.8v65c0,1.6-1.3,2.8-2.8,2.8H331.8z"/>
<path class="st1" d="M635.3,605c-0.3,0-0.5-0.2-0.5-0.5c0-35.1-7.6-42.7-42.7-42.7c-0.3,0-0.5-0.2-0.5-0.5s0.2-0.5,0.5-0.5
	c35.1,0,42.7-7.6,42.7-42.7c0-0.3,0.2-0.5,0.5-0.5s0.5,0.2,0.5,0.5c0,35.1,7.6,42.7,42.7,42.7c0.3,0,0.5,0.2,0.5,0.5
	s-0.2,0.5-0.5,0.5c-35.1,0-42.7,7.6-42.7,42.7C635.8,604.7,635.6,605,635.3,605z"/>
<path class="st1" d="M635.3,518.1c0,35.5,7.6,43.2,43.2,43.2c-35.5,0-43.2,7.6-43.2,43.2c0-35.5-7.6-43.2-43.2-43.2
	C627.7,561.3,635.3,553.7,635.3,518.1 M635.3,517.1c-0.5,0-1,0.5-1,1c0,35.1-7.1,42.2-42.2,42.2c-0.5,0-1,0.5-1,1s0.5,1,1,1
	c35.1,0,42.2,7.1,42.2,42.2c0,0.5,0.5,1,1,1s1-0.5,1-1c0-35.1,7.1-42.2,42.2-42.2c0.5,0,1-0.5,1-1s-0.5-1-1-1
	c-35.1,0-42.2-7.1-42.2-42.2C636.3,517.6,635.9,517.1,635.3,517.1L635.3,517.1z"/>
<path class="st1" d="M151,168.6c-0.3,0-0.5-0.2-0.5-0.5c0-35.1-7.6-42.7-42.7-42.7c-0.3,0-0.5-0.2-0.5-0.5s0.2-0.5,0.5-0.5
	c35.1,0,42.7-7.6,42.7-42.7c0-0.3,0.2-0.5,0.5-0.5s0.5,0.2,0.5,0.5c0,35.1,7.6,42.7,42.7,42.7c0.3,0,0.5,0.2,0.5,0.5
	s-0.2,0.5-0.5,0.5c-35.1,0-42.7,7.6-42.7,42.7C151.5,168.4,151.3,168.6,151,168.6z"/>
<path class="st1" d="M151,81.7c0,35.5,7.6,43.2,43.2,43.2c-35.6,0-43.2,7.6-43.2,43.2c0-35.6-7.6-43.2-43.2-43.2
	C143.4,124.9,151,117.3,151,81.7 M151,80.7c-0.6,0-1,0.4-1,1c0,35.1-7.1,42.2-42.2,42.2c-0.6,0-1,0.4-1,1s0.4,1,1,1
	c35.1,0,42.2,7.1,42.2,42.2c0,0.6,0.4,1,1,1s1-0.4,1-1c0-35.1,7.1-42.2,42.2-42.2c0.6,0,1-0.4,1-1s-0.4-1-1-1
	c-35.1,0-42.2-7.1-42.2-42.2C152,81.2,151.6,80.7,151,80.7L151,80.7z"/>
</svg>
