<?xml version="1.0" encoding="utf-8"?>
<!-- Generator: Adobe Illustrator 27.3.1, SVG Export Plug-In . SVG Version: 6.00 Build 0)  -->
<svg version="1.1" id="Layer_1" xmlns="http://www.w3.org/2000/svg" xmlns:xlink="http://www.w3.org/1999/xlink" x="0px" y="0px"
	 viewBox="0 0 720 720" style="enable-background:new 0 0 720 720;" xml:space="preserve">
<style type="text/css">
	.st0{fill:#FFFFFF;}
</style>
<path class="st0" d="M61.9,715.7c-2.3,0-4.5-1-6.2-2.8c-35.2-37.7-54-112.5-44.8-178c4.3-30.3,14.1-57.7,29-81.5
	c16.8-26.7,39.8-48.1,68.4-63.6c41.4-22.5,95.2-33.4,164.7-33.4c55.1,0,112.1,6.8,162.4,12.8c39.8,4.8,74.1,8.8,100.7,8.8
	c37.6,0,55-15.7,58.8-30.4c3.4-13.1-2.8-26.9-16.2-36.1c-25.3-17.5-112.2-21.3-143.5-21.3c-4.9,0-8.9-4.4-8.9-9.8s4-9.8,8.9-9.8
	s118.2,0.3,152.9,24.3c20,13.8,29.4,36.7,23.8,58.2c-3.4,13.2-11.9,24.3-24.6,32.2c-13.4,8.3-30.6,12.5-51.2,12.5
	c-27.6,0-62.4-4.1-102.6-9c-49.8-5.9-106.3-12.7-160.6-12.7c-66.6,0-117.9,10.3-156.8,31.4C54.2,441.1,34.2,497,28.4,538
	C18.9,605.5,41.1,670,68,698.8c3.5,3.8,3.6,10,0.2,13.9C66.6,714.6,64.3,715.7,61.9,715.7L61.9,715.7z"/>
<path class="st0" d="M435.3,270.9c4.8,0,118.1,0.3,152.8,24.2c19.9,13.8,29.2,36.5,23.7,57.9c-3.4,13.1-11.8,24.2-24.5,32
	c-13.4,8.2-30.6,12.4-51.1,12.4c-27.5,0-62.3-4.1-102.6-9c-50.2-6-106.3-12.7-160.6-12.7c-57.5,0-113,7.5-156.9,31.4
	C54,441,34,496.9,28.2,538c-9.6,67.6,12.7,132.2,39.6,161c3.4,3.7,3.5,9.7,0.2,13.5c-1.7,2-3.9,2.9-6.2,2.9s-4.3-0.9-6-2.7
	C20.7,675.2,1.9,600.4,11.2,535c4.3-30.3,14-57.6,29-81.4c16.8-26.7,39.8-48,68.3-63.5c46.8-25.4,104.8-33.3,164.6-33.3
	c55.1,0,111.7,6.8,162.4,12.8c39.8,4.7,74.1,8.8,100.8,8.8c37.7,0,55.2-15.8,59-30.6c3.4-13.2-2.8-27.1-16.3-36.4
	C553.6,293.8,466.7,290,435.3,290c-4.8,0-8.6-4.3-8.6-9.6S430.6,270.8,435.3,270.9 M435.3,270.3c-5,0-9.1,4.5-9.1,10.1
	s4.1,10.1,9.1,10.1c31.3,0,118.1,3.8,143.4,21.3c13.2,9.1,19.4,22.9,16.1,35.9c-3.8,14.6-21.1,30.2-58.6,30.2
	c-26.6,0-60.9-4.1-100.7-8.8c-50.3-6-107.3-12.8-162.4-12.8c-69.5,0-123.4,10.9-164.8,33.4c-28.6,15.5-51.7,37-68.5,63.7
	c-15,23.8-24.8,51.2-29.1,81.6c-9.3,65.5,9.6,140.5,44.8,178.2c1.7,1.8,4,2.8,6.3,2.8c2.5,0,4.8-1.1,6.6-3.1
	c3.5-4,3.3-10.4-0.2-14.2C41.3,669.9,19.1,605.5,28.7,538c5.8-40.9,25.7-96.7,87.6-130.3c38.8-21.1,90.1-31.3,156.7-31.3
	c54.2,0,110.7,6.7,160.6,12.7c40.3,4.8,75.1,9,102.7,9c20.7,0,38-4.2,51.4-12.5c12.8-7.9,21.3-19.1,24.7-32.3
	c5.6-21.6-3.8-44.6-23.9-58.5C553.6,270.6,440.1,270.4,435.3,270.3L435.3,270.3L435.3,270.3z"/>
<path class="st0" d="M360.3,715.7c-2.5,0-4.9-1.2-6.5-3.2c-0.9-1.1-23.2-28.3-36.7-66c-18.4-51.6-11.3-97.6,20.6-133.1
	c34.1-37.9,80.4-41.1,128.7-41.1c6.1,0,12.4,0.1,18.5,0.1c6.3,0.1,12.9,0.1,19.3,0.1c49.3,0,101.4-3.1,147.7-40.4
	c31.1-25,46.9-65.2,40.4-102.4c-5.8-33.1-28-57.2-60.9-66c-33.5-9.1-129.1-18.2-163.5-18.2c-4.9,0-8.9-4.4-8.9-9.8s4-9.8,8.9-9.8
	c36,0,132.4,9.3,167.7,18.8c20.4,5.5,37.4,15.9,50.4,30.8c12.1,13.8,20.3,31.3,23.7,50.5c7.9,44.7-10.7,92.6-47.3,122.1
	c-50.6,40.7-108.4,44.1-158.6,44.1l0,0c-6.4,0-12.8-0.1-18.9-0.1c-6.5-0.1-12.6-0.1-18.8-0.1c-44.2,0-86.4,2.7-115.7,35.3
	c-27,29.9-32.6,67.6-16.7,112c12.3,34.4,33.1,59.7,33.3,59.9c3.3,4,3.1,10.2-0.5,13.9C364.6,714.8,362.5,715.7,360.3,715.7z"/>
<path class="st0" d="M467.9,226.2c36,0,132.4,9.3,167.6,18.8c20.4,5.5,37.3,15.8,50.3,30.8c12,13.8,20.2,31.2,23.6,50.4
	c7.9,44.6-10.7,92.4-47.3,121.8c-49.9,40.1-106.5,44-158.5,44c-6.4,0-12.7-0.1-18.9-0.1c-6.4-0.1-12.6-0.1-18.8-0.1
	c-46.8,0-87.1,3.4-115.9,35.4c-27,30-32.6,67.8-16.8,112.2c12.3,34.4,33.1,59.7,33.3,60c3.2,3.9,3,10-0.5,13.5
	c-1.7,1.7-3.8,2.5-5.8,2.5c-2.3,0-4.6-1-6.3-3.1c-0.9-1.1-23.2-28.2-36.7-65.9c-18.4-51.5-11.3-97.4,20.6-132.9
	c33.5-37.3,79.3-41,128.5-41c6.1,0,12.3,0.1,18.5,0.1c6.4,0.1,12.9,0.1,19.3,0.1c50.8,0,102.2-3.7,147.9-40.4
	c31.2-25.1,47-65.3,40.5-102.6c-5.9-33.2-28.1-57.3-61-66.2c-33.5-9.1-129.2-18.2-163.5-18.2c-4.8,0-8.6-4.3-8.6-9.6
	S463.1,226.2,467.9,226.2 M467.9,225.7c-5,0-9.1,4.5-9.1,10.1s4.1,10.1,9.1,10.1c34.4,0,129.9,9.2,163.4,18.2
	c32.7,8.8,54.8,32.8,60.7,65.8c6.6,37.1-9.2,77.2-40.3,102.1c-46.3,37.2-98.3,40.3-147.5,40.3c-6.5,0-13-0.1-19.3-0.1
	c-6.1-0.1-12.4-0.1-18.5-0.1c-23.3,0-47.9,0.8-70.3,6.5c-24,6.2-43.2,17.5-58.6,34.6c-32,35.6-39.2,81.7-20.7,133.4
	c13.5,37.7,35.8,64.9,36.8,66c1.7,2.1,4.2,3.3,6.7,3.3c2.3,0,4.5-1,6.2-2.7c3.7-3.8,3.9-10.1,0.5-14.2c-0.2-0.2-21-25.5-33.2-59.8
	c-15.8-44.3-10.2-81.9,16.7-111.7c13.2-14.6,29.9-24.3,51-29.5c20.1-5,42.9-5.7,64.6-5.7c6.2,0,12.3,0.1,18.8,0.1
	c6.2,0.1,12.5,0.1,18.9,0.1c50.3,0,108.1-3.4,158.8-44.2c36.7-29.5,55.4-77.5,47.4-122.3c-3.4-19.2-11.6-36.8-23.7-50.6
	c-13.1-15-30.1-25.4-50.5-30.9C600.4,235,503.9,225.7,467.9,225.7L467.9,225.7L467.9,225.7z"/>
<path class="st0" d="M291.2,327.1c-3.8,0-6.9-3.1-6.9-6.9V219.3c0-3.8,3.1-6.9,6.9-6.9s6.9,3.1,6.9,6.9v100.9
	C298.1,324,295,327.1,291.2,327.1z"/>
<path class="st0" d="M291.2,212.7c3.7,0,6.6,3,6.6,6.6v100.9c0,3.7-3,6.6-6.6,6.6s-6.6-3-6.6-6.6V219.3
	C284.6,215.6,287.6,212.7,291.2,212.7 M291.2,212.2c-3.9,0-7.1,3.2-7.1,7.1v100.9c0,3.9,3.2,7.1,7.1,7.1s7.1-3.2,7.1-7.1V219.3
	C298.4,215.4,295.2,212.2,291.2,212.2L291.2,212.2z"/>
<path class="st0" d="M325.9,327.1c-3.8,0-6.9-3.1-6.9-6.9V219.3c0-3.8,3.1-6.9,6.9-6.9s6.9,3.1,6.9,6.9v100.9
	C332.8,324,329.7,327.1,325.9,327.1z"/>
<path class="st0" d="M325.9,212.7c3.7,0,6.6,3,6.6,6.6v100.9c0,3.7-3,6.6-6.6,6.6s-6.6-3-6.6-6.6V219.3
	C319.2,215.6,322.2,212.7,325.9,212.7 M325.9,212.2c-3.9,0-7.1,3.2-7.1,7.1v100.9c0,3.9,3.2,7.1,7.1,7.1s7.1-3.2,7.1-7.1V219.3
	C333,215.4,329.8,212.2,325.9,212.2L325.9,212.2z"/>
<path class="st0" d="M247.3,267.4c-10.9,0-21.1-2.3-30.2-6.7c-13.4-6.6-23.8-17.7-30.2-32.1c-6.5-14.6-8.3-32.6-4.8-49.3
	c3.9-18.9,13.8-34.9,28.7-46.5c-1.5-5.9-2-10.9-2.2-16.9C206,62.2,249,16.5,304.3,13.9c1.6-0.1,3.3-0.1,4.9-0.1
	c53.6,0,97.5,40.7,100,92.7c0.5,10.3-0.7,20.6-3.5,30.4c16.5,12.9,26.6,32.2,27.5,53.1c1.8,39.4-28.7,72.9-68.1,74.8
	c-1.1,0-2.3,0.1-3.4,0.1c-5.2,0-10.5-0.6-15.5-1.7c-3.7-0.8-6.1-4.5-5.2-8.2c0.7-3.1,3.5-5.4,6.7-5.4c0.5,0,1,0.1,1.5,0.2
	c4.1,0.9,8.3,1.4,12.5,1.4c0.9,0,1.8,0,2.7-0.1c31.8-1.5,56.5-28.6,55-60.4c-0.7-15.2-7.6-29.8-18.9-40c-2.2,4.7-4.8,9.3-7.7,13.6
	c-1.3,1.9-3.4,3-5.7,3c-1.4,0-2.7-0.4-3.9-1.2c-3.1-2.1-4-6.4-1.9-9.6c4-5.9,7.2-12.2,9.5-18.9c0.1-0.2,0.1-0.5,0.3-0.7
	c3.3-9.6,4.7-19.6,4.2-29.8c-2.1-44.6-39.9-79.5-86.2-79.5c-1.4,0-2.8,0-4.2,0.1c-47.7,2.2-84.8,41.5-82.6,87.5
	c0.2,4.4,0.5,7.4,1,10.2c7.7-3,15.3-3.6,20.4-3.6c3.9,0,6.6,0.4,6.8,0.4c3.8,0.6,6.4,4.1,5.8,7.9c-0.5,3.3-3.4,5.9-6.8,5.9
	c-0.3,0-0.7,0-1-0.1c0,0-1.9-0.3-4.8-0.3c-5.9,0-14.4,1-21.4,5.8c-29.4,20.2-33.7,57.1-22.8,81.6c8.7,19.7,25.9,30.5,48.2,30.5
	c5.8,0,11.9-0.8,18.2-2.2c0.5-0.1,1.1-0.2,1.6-0.2c3.2,0,6,2.2,6.7,5.3c0.4,1.8,0.1,3.6-0.8,5.2c-1,1.6-2.5,2.7-4.3,3.1
	C261.6,266.5,254.3,267.4,247.3,267.4L247.3,267.4L247.3,267.4z"/>
<path class="st0" d="M309.1,14c53,0,97.3,40.5,99.7,92.4c0.5,10.4-0.7,20.7-3.6,30.5c16.4,12.7,26.6,32.2,27.6,53
	c1.8,39.3-28.6,72.7-67.9,74.5c-1.1,0-2.2,0.1-3.4,0.1c-5.2,0-10.4-0.6-15.5-1.7c-3.6-0.8-5.9-4.4-5-7.9c0.7-3.1,3.4-5.2,6.5-5.2
	c0.5,0,1,0.1,1.5,0.2c4.1,0.9,8.3,1.4,12.6,1.4c0.9,0,1.8,0,2.7-0.1c31.9-1.5,56.7-28.7,55.2-60.6c-0.7-15.5-7.8-30.1-19.2-40.4
	c-2.2,4.8-4.8,9.4-7.8,13.9c-1.3,1.9-3.4,2.9-5.5,2.9c-1.3,0-2.6-0.4-3.7-1.1c-3-2.1-3.8-6.2-1.8-9.2c4-6,7.2-12.3,9.5-18.9
	c0.1-0.2,0.1-0.5,0.2-0.7c3.2-9.6,4.7-19.6,4.2-29.9c-2.1-44.8-40.4-79.7-86.4-79.7c-1.4,0-2.8,0-4.2,0.1
	c-47.8,2.2-85,41.6-82.9,87.7c0.2,4,0.4,7.2,1.1,10.6c7.7-3.1,15.3-3.7,20.6-3.7c3.9,0,6.5,0.4,6.8,0.4c3.6,0.6,6.1,3.9,5.6,7.6
	c-0.5,3.3-3.3,5.6-6.6,5.6c-0.3,0-0.7,0-1-0.1c-0.1,0-1.9-0.3-4.9-0.3c-5.4,0-14.2,0.9-21.5,5.9c-29.5,20.2-33.8,57.3-22.9,81.9
	c8.8,19.9,26.3,30.7,48.5,30.7c5.8,0,11.9-0.7,18.3-2.2c0.5-0.1,1-0.2,1.5-0.2c3,0,5.7,2.1,6.5,5.1c0.9,3.6-1.4,7.2-4.9,8
	c-7.6,1.8-14.8,2.7-21.8,2.7c-10.9,0-21-2.2-30.1-6.7c-13.3-6.5-23.8-17.6-30.1-32c-12.6-28.4-8.2-70.8,24-95.6
	c-1.5-5.9-2-10.8-2.3-17.1c-2.5-53.5,40.4-99.1,95.5-101.6C305.9,14.1,307.5,14.1,309.1,14 M309.1,13.6c-1.6,0-3.3,0-4.9,0.1
	c-55.4,2.6-98.5,48.4-96,102.2c0.3,6,0.8,11,2.2,16.8c-14.9,11.6-24.8,27.7-28.7,46.5c-3.4,16.8-1.7,34.8,4.8,49.5
	c6.4,14.5,16.9,25.6,30.4,32.2c9.1,4.5,19.4,6.8,30.3,6.8c6.9,0,14.3-0.9,21.9-2.7c1.9-0.4,3.4-1.6,4.4-3.2c1-1.6,1.3-3.5,0.9-5.4
	c-0.8-3.2-3.6-5.5-7-5.5c-0.5,0-1.1,0.1-1.7,0.2c-6.2,1.5-12.4,2.2-18.2,2.2c-22.3,0-39.3-10.8-48-30.4
	c-10.8-24.4-6.5-61.1,22.7-81.2c7-4.8,15.4-5.8,21.2-5.8c2.9,0,4.8,0.3,4.8,0.3c0.4,0.1,0.7,0.1,1.1,0.1c3.5,0,6.5-2.6,7.1-6.1
	c0.6-3.9-2.1-7.6-6-8.2c-0.3,0-2.9-0.4-6.9-0.4c-5,0-12.6,0.6-20.2,3.5c-0.5-2.8-0.8-5.7-0.9-9.9c-2.1-45.9,34.8-85,82.4-87.2
	c1.4-0.1,2.8-0.1,4.2-0.1c22.2,0,43.3,8.1,59.4,22.9c16.1,14.8,25.6,34.8,26.6,56.3c0.5,10.2-0.9,20.2-4.2,29.7
	c-0.1,0.2-0.2,0.5-0.3,0.7c-2.3,6.6-5.5,12.9-9.5,18.8c-2.2,3.3-1.4,7.7,1.9,9.9c1.2,0.8,2.6,1.2,4,1.2c2.4,0,4.6-1.2,5.9-3.1
	c2.9-4.2,5.4-8.7,7.6-13.4c11.1,10.2,17.8,24.6,18.5,39.6c1.5,31.7-23.1,58.6-54.7,60.1c-0.9,0-1.8,0.1-2.7,0.1
	c-4.2,0-8.4-0.5-12.5-1.4c-0.5-0.1-1-0.2-1.6-0.2c-3.3,0-6.2,2.4-7,5.6c-0.4,1.9-0.1,3.8,1,5.4c1,1.6,2.6,2.7,4.5,3.1
	c5.1,1.1,10.3,1.7,15.6,1.7c1.1,0,2.2,0,3.4-0.1c39.5-1.8,70.2-35.5,68.4-75c-1-20.9-11-40.3-27.5-53.2c2.8-9.8,4-20.1,3.5-30.3
	c-1.2-25.2-12.2-48.6-31-66C359.5,23.1,335,13.6,309.1,13.6L309.1,13.6L309.1,13.6z"/>
<path class="st0" d="M184.5,544.2c-1.1,0-2.2,0-3.3-0.1c-13.9-1.1-23.7-9-32.3-16c-7.1-5.7-13.3-10.7-20.8-11.3
	c-0.5,0-1.1-0.1-1.6-0.1c-6.9,0-13.2,3.6-20.5,7.8l-0.8,0.5c-7.9,4.6-17.8,10.3-28.9,10.3l0,0c-0.9,0-1.8,0-2.6-0.1
	c-12.2-1-22-8.9-29.8-15.2l-0.7-0.6c-3.5-2.8-4.3-8.3-1.8-12.3c1.5-2.3,3.9-3.6,6.5-3.6c1.7,0,3.3,0.6,4.7,1.7l0.7,0.6
	c6.9,5.5,14,11.3,21.7,11.9c0.5,0,1,0.1,1.5,0.1c7.2,0,14.5-4.2,21.5-8.3l0.8-0.5c8.4-4.8,17.1-9.8,27.7-9.8c0.9,0,1.9,0,2.9,0.1
	c12,1,20.6,7.9,28.9,14.6c7.6,6.1,14.9,11.9,24.2,12.7c0.7,0.1,1.4,0.1,2.1,0.1c8.5,0,15.8-4.2,23.5-8.7c8.4-4.8,17.1-9.8,27.7-9.8
	c0.9,0,1.9,0,2.9,0.1c4.4,0.4,7.6,4.6,7.3,9.4c-0.3,4.6-3.8,8.2-7.9,8.2c-0.2,0-0.4,0-0.6,0c-0.5,0-1.1-0.1-1.6-0.1
	c-6.9,0-13.2,3.6-20.5,7.8C206.6,538.6,196.8,544.2,184.5,544.2L184.5,544.2L184.5,544.2z"/>
<path class="st0" d="M126.3,499.4c0.9,0,1.9,0,2.8,0.1c11.9,1,20.5,7.9,28.8,14.5c7.7,6.2,14.9,12,24.4,12.8
	c0.7,0.1,1.4,0.1,2.1,0.1c8.5,0,15.9-4.2,23.6-8.7c8.4-4.8,17-9.8,27.6-9.8c0.9,0,1.9,0,2.8,0.1c4.2,0.4,7.4,4.4,7.1,9.2
	c-0.3,4.5-3.7,7.9-7.7,7.9c-0.2,0-0.4,0-0.6,0c-0.5,0-1.1-0.1-1.6-0.1c-6.9,0-13.3,3.7-20.6,7.9c-8.7,5-18.4,10.6-30.7,10.6
	c-1.1,0-2.2,0-3.3-0.1c-13.8-1.1-23.6-9-32.2-15.9c-7.2-5.8-13.4-10.8-21-11.4c-0.5,0-1.1-0.1-1.6-0.1c-6.9,0-13.3,3.7-20.6,7.9
	l-0.8,0.5c-8,4.6-17.8,10.2-28.8,10.2c-0.9,0-1.7,0-2.6-0.1c-12.1-1-21.8-8.8-29.7-15.2l-0.7-0.6c-3.4-2.8-4.2-8.1-1.7-11.9
	c1.5-2.3,3.9-3.5,6.2-3.5c1.6,0,3.1,0.5,4.5,1.6l0.7,0.6c6.9,5.6,14.1,11.3,21.8,12c0.5,0,1,0.1,1.5,0.1c7.2,0,14.6-4.2,21.7-8.3
	l0.8-0.5C107.1,504.3,115.7,499.4,126.3,499.4 M126.3,498.9c-10.7,0-19.4,5-27.9,9.8l-0.8,0.5c-7.1,4.1-14.3,8.2-21.4,8.2
	c-0.5,0-1,0-1.4-0.1c-7.6-0.6-14.7-6.3-21.5-11.9l-0.7-0.6c-1.4-1.1-3.1-1.7-4.8-1.7c-2.6,0-5.1,1.4-6.7,3.8
	c-2.6,4-1.8,9.7,1.8,12.6l0.7,0.6c7.9,6.4,17.7,14.3,30,15.3c0.9,0.1,1.8,0.1,2.7,0.1c11.2,0,21.1-5.7,29-10.3l0.8-0.5
	c7.3-4.2,13.6-7.8,20.4-7.8c0.5,0,1,0,1.6,0.1c7.4,0.6,13.6,5.5,20.7,11.3c8.7,7,18.5,14.9,32.5,16c1.1,0.1,2.2,0.1,3.4,0.1
	c12.3,0,22.2-5.7,30.9-10.7c7.3-4.2,13.6-7.8,20.4-7.8c0.5,0,1.1,0,1.6,0.1c0.2,0,0.4,0,0.6,0c4.3,0,7.9-3.7,8.2-8.4
	c0.3-5-3.1-9.3-7.6-9.7c-1-0.1-1.9-0.1-2.9-0.1c-10.7,0-19.4,5-27.9,9.8c-7.7,4.4-15,8.6-23.4,8.6c-0.7,0-1.4,0-2.1-0.1
	c-9.3-0.8-16.5-6.5-24.1-12.6c-8.4-6.7-17-13.6-29.1-14.6C128.2,498.9,127.3,498.9,126.3,498.9L126.3,498.9L126.3,498.9z"/>
<path class="st0" d="M286.4,488.3c-0.4,0-0.8,0-1.3,0c-13.9-0.4-24-7.8-33-14.3c-7.4-5.4-13.8-10-21.3-10.2c-0.2,0-0.4,0-0.6,0
	c-7.2,0-13.7,4.1-21.1,8.9l-0.9,0.6c-8.1,5.2-18.2,11.7-29.9,11.7c-0.3,0-0.7,0-1,0c-12.2-0.4-22.3-7.8-30.4-13.7l-0.7-0.5
	c-3.6-2.7-4.7-8.1-2.3-12.2c1.5-2.5,4-4,6.7-4c1.6,0,3.1,0.5,4.4,1.5l0.7,0.5c7.1,5.2,14.5,10.5,22.1,10.8c0.2,0,0.5,0,0.5,0
	c7.5,0,14.9-4.8,22.1-9.4l0.8-0.5c8.6-5.5,17.6-11.3,29-11.3c0.4,0,0.7,0,1.1,0c12,0.4,20.9,6.9,29.5,13.1
	c7.9,5.7,15.3,11.1,24.7,11.4c0.3,0,0.5,0,0.8,0c9,0,16.5-4.8,24.5-9.9c8.6-5.5,17.6-11.3,29.1-11.3c0.4,0,0.7,0,1.1,0
	c4.4,0.1,7.8,4.2,7.7,9c-0.1,4.8-3.6,8.5-7.9,8.5h-0.2c-0.2,0-0.4,0-0.5,0c-7.3,0-13.7,4.1-21.2,8.9
	C309.8,481.9,299.7,488.4,286.4,488.3L286.4,488.3L286.4,488.3z"/>
<path class="st0" d="M230.2,446.4c0.4,0,0.7,0,1.1,0c11.9,0.4,20.8,6.8,29.4,13.1c7.9,5.8,15.4,11.2,24.9,11.5c0.3,0,0.5,0,0.8,0
	c9.1,0,16.6-4.8,24.6-9.9c8.6-5.5,17.5-11.2,28.9-11.2c0.4,0,0.7,0,1.1,0c4.2,0.1,7.6,4.1,7.5,8.8c-0.1,4.6-3.5,8.3-7.7,8.3
	c-0.1,0-0.2,0-0.2,0c-0.2,0-0.4,0-0.6,0c-7.4,0-13.8,4.1-21.3,8.9c-9,5.7-19,12.2-32.2,12.2c-0.4,0-0.8,0-1.3,0
	c-13.8-0.4-23.9-7.8-32.8-14.3c-7.4-5.4-13.8-10-21.4-10.3c-0.2,0-0.4,0-0.6,0c-7.3,0-13.8,4.2-21.3,8.9l-0.8,0.5
	c-8.2,5.2-18.2,11.7-29.9,11.7c-0.3,0-0.7,0-1,0c-12.1-0.4-22.2-7.7-30.3-13.6l-0.7-0.5c-3.6-2.6-4.6-7.9-2.2-11.8
	c1.5-2.5,3.9-3.9,6.4-3.9c1.4,0,2.9,0.5,4.2,1.4l0.7,0.5c7.1,5.2,14.5,10.6,22.3,10.8c0.2,0,0.4,0,0.5,0c7.6,0,15.1-4.8,22.3-9.4
	l0.8-0.5C210,452.2,218.9,446.5,230.2,446.4 M230.3,446c-11.5,0-20.5,5.8-29.2,11.3l-0.8,0.5c-7.2,4.6-14.6,9.4-22,9.4
	c-0.2,0-0.3,0-0.5,0c-7.6-0.2-14.9-5.6-22-10.7l-0.7-0.5c-1.3-1-2.9-1.5-4.5-1.5c-2.8,0-5.4,1.5-6.9,4.1c-2.4,4.2-1.4,9.8,2.4,12.5
	l0.7,0.5c8.2,5.9,18.3,13.3,30.6,13.7c0.3,0,0.7,0,1,0c11.8,0,21.9-6.5,30.1-11.7l0.1-0.1l0.8-0.5c7.4-4.8,13.8-8.9,21-8.9
	c0.2,0,0.4,0,0.6,0c7.4,0.2,13.8,4.9,21.1,10.2c9,6.5,19.1,13.9,33.1,14.4c0.4,0,0.9,0,1.3,0c13.3,0,23.5-6.5,32.5-12.3
	c7.4-4.8,13.8-8.9,21-8.9c0.2,0,0.4,0,0.5,0c0.1,0,0.2,0,0.3,0c4.5,0,8-3.9,8.2-8.8c0.1-5-3.4-9.2-8-9.3c-0.4,0-0.7,0-1.1,0
	c-11.5,0-20.5,5.8-29.2,11.3c-7.9,5.1-15.4,9.8-24.3,9.8c-0.2,0-0.5,0-0.8,0c-9.3-0.3-16.7-5.7-24.6-11.4
	c-8.6-6.3-17.6-12.8-29.7-13.1C231,446,230.7,445.9,230.3,446L230.3,446L230.3,446z"/>
<path class="st0" d="M235.3,669.4c-13.9-0.1-24.2-7.2-33.2-13.5c-7.5-5.2-13.9-9.7-21.5-9.7l-0.1-0.2v0.2c-7.4,0-13.9,4.4-21.4,9.4
	l-0.8,0.5c-8.2,5.6-18.5,12.5-30.6,12.5h-0.2c-12.2-0.1-22.5-7.2-30.7-13l-0.8-0.5c-3.7-2.6-4.8-8-2.5-12.1c1.5-2.6,4-4.2,6.8-4.2
	c1.5,0,2.9,0.5,4.2,1.3l0.8,0.5c7.2,5,14.7,10.2,22.3,10.3h0.1c7.6,0,15.1-5,22.3-9.9l0.8-0.5c8.8-5.9,17.8-12,29.6-12h0.3
	c12,0.1,21.1,6.4,29.8,12.4c8,5.5,15.5,10.8,24.9,10.9h0.2c9.3,0,16.8-5.1,24.8-10.5c8.7-5.9,17.8-12,29.7-12h0.3
	c4.4,0,7.9,4,7.9,8.9c0,4.8-3.6,8.7-7.9,8.7h-0.2c-7.5,0-13.9,4.3-21.4,9.4c-9.1,6.1-19.4,13-33.1,13L235.3,669.4L235.3,669.4z"/>
<path class="st0" d="M180.4,628.8c0.1,0,0.2,0,0.3,0c11.9,0.1,20.9,6.3,29.6,12.4c8,5.6,15.6,10.8,25.1,10.9c0.1,0,0.1,0,0.2,0
	c9.4,0,16.9-5.1,25-10.5c8.7-5.9,17.7-11.9,29.5-11.9c0.1,0,0.2,0,0.3,0c4.2,0,7.7,3.9,7.6,8.6c0,4.7-3.5,8.5-7.7,8.5
	c-0.1,0-0.1,0-0.2,0c-7.5,0-14,4.4-21.6,9.4c-9,6.1-19.3,13-32.9,13c-0.1,0-0.2,0-0.3,0c-13.8-0.1-24.1-7.2-33.1-13.5
	c-7.5-5.2-14-9.7-21.6-9.8c-0.1,0-0.1,0-0.1,0c-7.5,0-14,4.4-21.6,9.4l-0.8,0.5c-8.2,5.5-18.5,12.4-30.5,12.4c-0.1,0-0.2,0-0.2,0
	c-12.1-0.1-22.3-7.2-30.5-12.9l-0.7-0.5c-3.6-2.5-4.7-7.8-2.4-11.8c1.5-2.6,4-4,6.5-4c1.4,0,2.8,0.4,4.1,1.3l0.8,0.5
	c7.2,5,14.7,10.2,22.5,10.3c0,0,0.1,0,0.1,0c7.7,0,15.2-5.1,22.5-10l0.8-0.5C159.6,634.9,168.6,628.8,180.4,628.8 M180.4,628.3
	L180.4,628.3c-11.9,0-21,6.1-29.7,12l-0.1,0l-0.8,0.5c-7.2,4.9-14.6,9.9-22.2,9.9h-0.1h-0.1c-7.6-0.1-15-5.2-22.2-10.2l-0.8-0.5
	c-1.3-0.9-2.8-1.4-4.3-1.4c-2.9,0-5.5,1.6-7,4.3c-2.4,4.2-1.2,9.8,2.6,12.4l0.7,0.5c8.3,5.8,18.6,12.9,30.8,13h0.2
	c12.2,0,22.5-6.9,30.7-12.5l0.8-0.5c7.5-5,13.9-9.4,21.3-9.4h0.1h0.1c7.4,0.1,13.9,4.5,21.3,9.7c9.1,6.3,19.4,13.5,33.4,13.6h0.3
	c13.8,0,24.1-6.9,33.2-13.1c7.5-5,13.9-9.4,21.3-9.4h0.2c4.5,0,8.2-4,8.2-9c0-5-3.6-9.1-8.1-9.1h-0.1h-0.2c-12,0-21,6.1-29.8,12
	c-8,5.4-15.5,10.4-24.7,10.4h-0.2c-9.3-0.1-16.8-5.3-24.8-10.8c-8.8-6.1-17.8-12.4-29.9-12.5L180.4,628.3L180.4,628.3z"/>
</svg>
